<?xml version="1.0" standalone="no"?>
<!DOCTYPE svg PUBLIC "-//W3C//DTD SVG 20010904//EN"
 "http://www.w3.org/TR/2001/REC-SVG-20010904/DTD/svg10.dtd">
<svg version="1.0" xmlns="http://www.w3.org/2000/svg"
 width="1357.000000pt" height="615.000000pt" viewBox="0 0 1357.000000 615.000000"
 preserveAspectRatio="xMidYMid meet">

<g transform="translate(0.000000,615.000000) scale(0.100000,-0.100000)"
fill="#000000" stroke="none">
<path d="M0 3075 l0 -3075 6785 0 6785 0 0 3075 0 3075 -6785 0 -6785 0 0
-3075z m11985 3036 c3 -5 1 -12 -5 -16 -5 -3 -10 1 -10 9 0 18 6 21 15 7z
m-98 -27 c-3 -3 -12 -4 -19 -1 -8 3 -5 6 6 6 11 1 17 -2 13 -5z m263 -164 c0
-5 -7 -7 -15 -4 -8 4 -15 8 -15 10 0 2 7 4 15 4 8 0 15 -4 15 -10z m-460 -4
c0 -3 -4 -8 -10 -11 -5 -3 -10 -1 -10 4 0 6 5 11 10 11 6 0 10 -2 10 -4z
m-180 -76 c0 -5 -5 -10 -11 -10 -5 0 -7 5 -4 10 3 6 8 10 11 10 2 0 4 -4 4
-10z m-5363 -56 c3 -9 2 -24 -4 -33 -7 -12 -6 -19 6 -28 12 -9 14 -16 5 -30
-8 -14 -25 -18 -70 -20 -32 -1 -53 0 -46 3 7 4 12 26 12 59 0 33 -5 55 -12 58
-7 3 13 6 45 6 45 1 59 -3 64 -15z m133 -6 c-1 -21 -2 -21 -11 -5 -5 9 -19 17
-29 17 -15 0 -20 -7 -20 -27 1 -25 2 -26 14 -10 19 24 22 22 21 -17 0 -32 -1
-34 -17 -19 -17 15 -18 14 -18 -10 0 -31 29 -37 54 -11 15 14 16 14 16 -5 0
-19 -6 -21 -57 -21 l-58 0 4 56 c2 40 -1 59 -10 65 -9 5 10 9 49 9 58 0 62 -2
62 -22z m97 -20 l19 -41 13 41 c13 39 17 42 50 41 20 0 30 -3 24 -6 -8 -3 -13
-25 -13 -58 0 -33 5 -55 13 -58 6 -3 -8 -5 -33 -5 -25 0 -39 2 -32 5 7 3 12
22 12 46 l-1 42 -21 -47 c-11 -27 -24 -48 -28 -48 -4 0 -17 21 -28 48 l-21 47
-1 -42 c0 -24 5 -43 13 -46 6 -3 -1 -5 -18 -5 -16 0 -24 2 -17 5 7 3 12 25 12
58 0 33 -5 55 -12 58 -7 3 1 6 19 6 29 1 34 -4 50 -41z m238 31 c-4 -5 -1 -24
6 -41 l12 -30 14 27 c8 15 12 33 9 41 -4 11 11 14 83 14 l89 0 31 -37 c29 -37
30 -37 31 -12 0 14 -5 30 -12 37 -9 9 5 12 65 12 86 0 117 -17 117 -65 0 -42
-33 -65 -92 -64 -29 0 -47 3 -40 6 7 3 12 25 12 59 0 47 -2 54 -20 54 -18 0
-20 -7 -20 -62 l-1 -63 -44 48 -45 49 0 -40 c0 -23 5 -43 13 -45 6 -3 -19 -5
-58 -5 -38 0 -64 2 -57 5 7 3 12 25 12 59 0 73 -22 73 -56 -1 -14 -30 -30 -57
-35 -61 -5 -3 -21 21 -35 53 -14 32 -31 61 -37 65 -7 4 5 8 26 8 24 0 36 -4
32 -11z m584 -15 c12 -15 21 -32 21 -39 0 -7 -9 -24 -21 -39 -43 -55 -138 -18
-125 49 8 38 31 55 72 55 23 0 39 -8 53 -26z m152 -3 c6 -17 19 -46 29 -65
l18 -36 -37 0 c-26 0 -32 3 -21 10 12 8 12 10 -3 16 -9 3 -25 3 -34 0 -15 -6
-15 -8 -3 -16 11 -7 8 -10 -14 -10 -28 0 -28 1 -13 18 10 10 24 40 33 65 18
54 31 59 45 18z m187 4 c36 -46 2 -105 -60 -105 -35 0 -68 32 -68 65 0 61 89
89 128 40z m-1000 -62 c-10 -2 -26 -2 -35 0 -10 3 -2 5 17 5 19 0 27 -2 18 -5z
m-2828 -138 c0 -8 -7 -15 -15 -15 -16 0 -20 12 -8 23 11 12 23 8 23 -8z
m-3215 -536 c0 -15 -7 -25 -18 -27 -22 -4 -33 24 -17 43 18 21 35 13 35 -16z
m855 -75 c0 -8 -5 -12 -10 -9 -6 4 -8 11 -5 16 9 14 15 11 15 -7z m2030 -54
c0 -23 -13 -32 -34 -24 -19 7 -21 40 -3 47 20 7 37 -4 37 -23z m6370 -105 c0
-8 -7 -15 -15 -15 -8 0 -15 7 -15 15 0 8 7 15 15 15 8 0 15 -7 15 -15z m138
-153 c3 -16 -2 -22 -17 -22 -24 0 -33 13 -25 35 9 23 38 14 42 -13z m-8553 -1
c3 -5 1 -12 -5 -16 -5 -3 -10 1 -10 9 0 18 6 21 15 7z m5573 -144 c-12 -37
-25 -67 -30 -67 -4 0 2 26 13 58 28 83 29 85 34 80 2 -2 -5 -34 -17 -71z m482
63 c0 -5 -4 -10 -10 -10 -5 0 -10 5 -10 10 0 6 5 10 10 10 6 0 10 -4 10 -10z
m-1380 -24 c0 -18 -1 -19 -20 -1 -17 15 -24 16 -45 7 -20 -9 -25 -19 -25 -47
0 -44 33 -65 71 -44 22 11 23 11 10 -4 -17 -22 -69 -22 -93 0 -24 22 -23 68 2
93 28 28 100 26 100 -4z m1124 2 c8 -13 6 -21 -7 -36 -17 -19 -17 -21 13 -46
30 -24 30 -26 9 -26 -13 0 -34 14 -50 33 -25 28 -28 29 -29 12 0 -12 5 -26 12
-33 9 -9 4 -12 -22 -12 -26 0 -31 3 -22 12 16 16 15 91 0 107 -11 10 -3 12 36
9 33 -2 52 -9 60 -20z m-690 -20 c8 -5 7 -8 -1 -8 -8 0 -13 -13 -13 -30 0 -16
5 -30 10 -30 6 0 10 -4 10 -10 0 -5 -9 -10 -19 -10 -15 0 -20 9 -23 46 -3 47
11 93 20 64 3 -8 10 -18 16 -22z m1090 0 c8 -5 7 -8 -1 -8 -18 0 -16 -57 2
-64 12 -4 15 3 15 34 0 38 2 40 30 40 17 0 30 -4 30 -10 0 -5 -7 -10 -16 -10
-13 0 -15 -8 -12 -35 l4 -35 -43 0 -43 0 0 40 c0 22 -4 40 -10 40 -5 0 -2 9 8
20 12 14 18 17 21 8 2 -7 9 -16 15 -20z m-1438 -6 c34 -23 12 -82 -32 -82 -32
0 -51 38 -35 69 12 21 46 28 67 13z m109 -20 c14 -66 17 -62 -34 -62 l-46 0 3
43 c4 42 5 44 38 45 29 1 35 -2 39 -26z m92 13 c5 -14 7 -14 23 0 20 18 61 17
68 -2 2 -7 -3 -13 -11 -13 -9 0 -17 5 -19 12 -6 18 -28 0 -28 -23 0 -25 26
-35 47 -18 14 12 16 12 12 0 -13 -38 -66 -39 -76 -1 -4 15 -14 20 -39 20 -26
0 -32 -4 -28 -15 7 -18 40 -20 48 -2 3 6 5 3 3 -8 -1 -14 -11 -21 -30 -23 -34
-4 -56 33 -38 67 14 25 59 29 68 6z m233 -5 c10 -18 8 -20 -27 -20 -35 0 -36
-1 -20 -17 15 -15 21 -16 38 -5 19 12 19 11 9 -8 -21 -40 -88 -11 -74 34 13
40 56 49 74 16z m140 4 c0 -14 -3 -14 -15 -4 -9 7 -19 10 -23 6 -7 -7 19 -31
41 -39 6 -2 8 -11 4 -20 -8 -22 -67 -24 -67 -2 0 13 3 13 20 3 32 -20 37 1 5
26 -32 25 -27 46 11 46 15 0 24 -6 24 -16z m88 4 c19 -19 14 -28 -18 -28 -16
0 -30 -5 -30 -10 0 -18 29 -23 47 -9 14 12 16 12 12 0 -15 -43 -71 -37 -77 8
-6 41 38 67 66 39z m480 0 c19 -19 14 -28 -18 -28 -16 0 -30 -5 -30 -10 0 -18
29 -23 47 -9 14 12 16 12 12 0 -15 -43 -71 -37 -77 8 -6 41 38 67 66 39z m104
5 c-6 -2 -9 -9 -6 -14 9 -15 -15 -39 -40 -40 -16 -1 -13 -3 9 -9 63 -16 67
-14 63 30 -2 26 1 40 8 40 7 0 14 -19 16 -45 3 -40 1 -45 -17 -45 -11 0 -26
-9 -33 -21 -10 -15 -21 -19 -50 -17 -27 2 -36 7 -33 18 2 8 5 33 6 55 1 22 3
43 4 48 0 4 20 7 44 6 23 0 36 -3 29 -6z m128 -9 c0 -14 -3 -14 -15 -4 -9 7
-19 10 -23 6 -7 -7 19 -31 41 -39 6 -2 8 -11 4 -20 -8 -22 -67 -24 -67 -2 0
13 3 13 20 3 32 -20 37 1 5 26 -32 25 -27 46 11 46 15 0 24 -6 24 -16z m220 0
c10 -11 11 -23 4 -42 -17 -48 -84 -38 -84 12 0 43 53 63 80 30z m-1090 -34 c0
-5 -11 -10 -25 -10 -14 0 -25 5 -25 10 0 6 11 10 25 10 14 0 25 -4 25 -10z
m4075 -41 c0 -28 -23 -32 -39 -6 -8 14 -8 20 4 27 22 14 35 6 35 -21z m-9310
-9 c-3 -5 -10 -10 -16 -10 -5 0 -9 5 -9 10 0 6 7 10 16 10 8 0 12 -4 9 -10z
m-1147 -118 c3 -16 -2 -22 -16 -22 -22 0 -32 17 -24 38 7 20 37 9 40 -16z
m5552 -502 c0 -5 -4 -10 -10 -10 -5 0 -10 5 -10 10 0 6 5 10 10 10 6 0 10 -4
10 -10z m155 0 c-3 -5 -10 -10 -16 -10 -5 0 -9 5 -9 10 0 6 7 10 16 10 8 0 12
-4 9 -10z m965 0 c0 -5 -4 -10 -10 -10 -5 0 -10 5 -10 10 0 6 5 10 10 10 6 0
10 -4 10 -10z m62 -60 c3 -68 2 -70 -21 -70 -17 0 -21 3 -14 13 5 6 9 38 8 70
-1 40 2 57 11 57 8 0 13 -22 16 -70z m-1250 43 c26 -30 28 -61 6 -88 -16 -20
-28 -25 -66 -25 l-47 0 0 65 0 65 46 0 c31 0 51 -6 61 -17z m286 -23 c11 0 13
-3 5 -8 -18 -12 -21 -62 -3 -62 6 0 10 10 10 23 0 29 18 47 47 47 13 0 23 -2
23 -4 0 -2 3 -11 6 -20 5 -13 -1 -16 -25 -16 -17 0 -31 -5 -31 -10 0 -18 29
-23 47 -9 14 12 16 12 12 0 -9 -25 -37 -37 -56 -25 -13 8 -23 8 -35 0 -23 -14
-36 0 -39 44 -3 36 11 75 19 52 2 -7 11 -12 20 -12z m-216 -45 c3 -42 2 -45
-22 -45 -18 0 -21 3 -11 9 10 6 12 20 8 45 -4 26 -2 36 8 36 8 0 14 -16 17
-45z m99 18 c-5 -17 -17 -30 -32 -34 -24 -7 -23 -7 4 -8 55 -2 42 -61 -14 -61
-35 0 -41 9 -29 48 5 19 5 34 -1 37 -21 13 12 45 45 45 32 0 34 -2 27 -27z
m55 1 c-3 -15 -1 -35 5 -45 8 -16 6 -19 -13 -19 -21 0 -23 4 -20 45 3 31 9 45
18 45 10 0 13 -8 10 -26z m274 10 c0 -14 -3 -14 -15 -4 -9 7 -19 10 -23 6 -7
-7 19 -31 41 -39 6 -2 8 -11 4 -20 -9 -23 -67 -24 -67 -1 0 13 3 14 15 4 8 -6
19 -9 26 -5 7 5 2 15 -17 30 -31 25 -26 45 12 45 15 0 24 -6 24 -16z m88 4
c19 -19 14 -28 -18 -28 -16 0 -30 -5 -30 -10 0 -18 29 -23 47 -9 14 12 16 12
12 0 -15 -43 -71 -37 -77 8 -6 41 38 67 66 39z m52 -23 c0 -26 4 -35 16 -35
13 0 15 8 12 35 -3 24 0 35 9 35 8 0 13 -13 13 -35 0 -19 0 -38 0 -42 0 -5
-15 -9 -35 -11 -29 -2 -35 1 -35 18 0 29 -1 33 -11 53 -8 14 -6 17 11 17 16 0
20 -6 20 -35z m188 23 c19 -19 14 -28 -18 -28 -16 0 -30 -5 -30 -10 0 -18 29
-23 47 -9 14 12 16 12 12 0 -15 -43 -71 -37 -77 8 -6 41 38 67 66 39z m220
-30 c3 -36 22 -55 22 -23 0 9 11 20 25 27 13 6 22 15 19 20 -3 5 -12 4 -20 -3
-17 -14 -32 -3 -17 12 6 6 21 9 34 7 19 -2 25 -11 29 -37 3 -19 11 -36 19 -39
11 -4 13 4 8 37 -4 30 -2 41 8 41 8 0 14 -16 17 -44 l3 -45 -140 0 -140 -1 3
45 4 45 62 -2 61 -3 3 -37z m-148 -8 c0 -5 -11 -10 -25 -10 -14 0 -25 5 -25
10 0 6 11 10 25 10 14 0 25 -4 25 -10z m4268 -86 c40 -21 95 -61 131 -96 33
-33 61 -56 61 -50 0 16 -116 124 -167 153 -56 33 -52 35 30 13 68 -17 126 -44
175 -81 17 -13 36 -22 41 -19 14 9 132 -116 169 -177 33 -55 82 -184 82 -215
0 -10 -12 17 -26 58 -30 88 -72 165 -109 200 -24 22 -22 16 15 -53 23 -43 40
-81 36 -84 -3 -4 -6 -2 -6 3 0 6 -7 19 -15 30 -14 18 -15 18 -7 -6 17 -48 23
-86 12 -70 -9 13 -10 13 -10 0 0 -13 -1 -13 -10 0 -8 13 -10 13 -10 1 0 -8
-18 22 -40 67 -21 45 -42 82 -45 82 -3 0 -1 -8 4 -19 16 -29 61 -172 60 -190
0 -9 -9 4 -20 29 -14 32 -18 36 -13 15 12 -59 23 -161 23 -210 -1 -41 -4 -32
-15 45 -28 196 -90 327 -212 454 -61 64 -123 105 -197 133 -44 16 -53 22 -34
22 15 1 58 -15 97 -35z m-23 -28 c40 -20 94 -58 124 -88 58 -57 114 -128 107
-136 -3 -2 -25 7 -50 22 -38 22 -163 71 -231 90 -11 3 11 3 50 0 79 -6 81 1 4
22 -131 34 -320 5 -427 -67 -67 -44 -145 -131 -172 -191 -24 -55 -26 -33 -2
29 28 71 84 154 140 204 58 52 187 123 263 144 70 19 108 13 194 -29z m-9925
-70 c0 -3 -4 -8 -10 -11 -5 -3 -10 -1 -10 4 0 6 5 11 10 11 6 0 10 -2 10 -4z
m10682 -35 c-11 -7 -10 -10 3 -15 25 -9 37 -7 29 6 -4 7 -3 8 4 4 6 -4 8 -14
5 -23 -4 -11 -3 -14 5 -9 7 4 12 1 12 -6 0 -8 -11 -14 -27 -13 -21 0 -28 -5
-28 -20 0 -25 28 -31 49 -10 9 9 16 11 16 5 0 -6 -16 -27 -35 -47 -31 -32 -38
-35 -59 -25 -18 8 -22 16 -19 36 3 15 1 26 -6 26 -5 0 -8 -7 -5 -15 4 -10 0
-15 -11 -15 -17 0 -17 -1 -2 -18 21 -23 21 -28 0 -36 -10 -4 -15 -4 -11 -1 3
3 -5 18 -19 33 -53 57 0 150 87 151 17 1 21 -2 12 -8z m-981 -82 c27 -38 89
-74 167 -95 l63 -17 69 33 c63 30 71 32 100 20 17 -7 36 -22 43 -34 19 -33 48
-119 48 -140 0 -10 7 -32 14 -47 14 -26 14 -28 -5 -24 -11 2 -24 6 -29 9 -4 3
-6 -6 -3 -20 4 -23 2 -24 -23 -18 -22 5 -26 4 -20 -6 6 -9 4 -11 -5 -5 -10 6
-12 4 -7 -9 4 -10 3 -15 -4 -11 -5 4 -7 14 -4 24 8 25 -41 48 -102 47 -28 -1
-49 2 -47 6 3 4 -11 4 -30 1 -23 -4 -42 0 -57 11 -29 20 -45 21 -29 1 8 -9 8
-15 2 -15 -6 0 -27 20 -47 45 -38 45 -49 52 -100 59 -17 2 -38 7 -47 11 -10 4
-18 4 -18 1 0 -8 77 -46 94 -46 9 0 40 -22 70 -49 57 -51 101 -68 153 -58 35
6 94 -23 112 -56 14 -26 69 -57 101 -57 11 0 29 6 40 12 15 10 22 10 32 0 22
-22 -16 -47 -70 -47 -38 0 -56 7 -96 35 -97 70 -96 70 -223 96 -11 2 -46 28
-77 58 -31 31 -68 57 -85 61 -17 4 -52 24 -78 46 -27 22 -68 46 -92 53 -25 7
-47 18 -49 24 -6 19 27 26 66 14 45 -14 53 -8 15 12 -15 8 -22 15 -15 16 8 0
6 8 -8 22 -24 26 -26 40 -3 31 10 -4 14 -2 10 4 -4 6 0 16 8 23 8 7 15 9 15 6
0 -4 6 -3 14 1 8 4 37 6 65 5 43 -3 54 -9 72 -33z m1305 4 c-10 -10 -19 5 -10
18 6 11 8 11 12 0 2 -7 1 -15 -2 -18z m-286 7 c0 -5 -4 -10 -10 -10 -5 0 -10
5 -10 10 0 6 5 10 10 10 6 0 10 -4 10 -10z m666 -61 c10 -17 -13 -36 -27 -22
-12 12 -4 33 11 33 5 0 12 -5 16 -11z m-116 -44 c0 -8 -7 -15 -15 -15 -8 0
-15 7 -15 15 0 8 7 15 15 15 8 0 15 -7 15 -15z m-232 -53 c2 -6 10 -8 19 -5
12 5 14 3 8 -7 -6 -10 -4 -12 8 -7 11 4 14 2 11 -8 -4 -8 13 -33 40 -59 43
-41 65 -74 31 -46 -8 6 -18 9 -23 6 -5 -3 -21 12 -35 33 -47 71 -158 102 -242
67 -54 -23 -41 -8 18 20 41 20 63 24 106 21 30 -2 57 -9 59 -15z m-1548 -2 c0
-5 -2 -10 -4 -10 -3 0 -8 5 -11 10 -3 6 -1 10 4 10 6 0 11 -4 11 -10z m-43
-22 c-3 -8 -6 -5 -6 6 -1 11 2 17 5 13 3 -3 4 -12 1 -19z m93 12 c0 -5 -4 -10
-10 -10 -5 0 -10 5 -10 10 0 6 5 10 10 10 6 0 10 -4 10 -10z m35 -20 c3 -5 1
-10 -4 -10 -6 0 -11 5 -11 10 0 6 2 10 4 10 3 0 8 -4 11 -10z m1435 -12 c11
-7 8 -8 -11 -4 -33 7 -88 -9 -119 -35 -24 -20 -18 -20 26 -2 9 3 -3 -12 -26
-34 -39 -36 -44 -46 -48 -94 -3 -37 1 -67 12 -93 21 -50 20 -53 -5 -30 -22 19
-22 19 -10 -4 23 -44 3 -34 -38 18 -39 50 -41 55 -41 123 0 70 0 71 43 112 24
22 59 46 78 52 36 12 114 7 139 -9z m-2520 -2 c0 -3 -4 -8 -10 -11 -5 -3 -10
-1 -10 4 0 6 5 11 10 11 6 0 10 -2 10 -4z m2826 -46 c6 -25 14 -75 18 -112 l6
-66 -40 -23 c-22 -13 -40 -26 -40 -30 0 -4 -13 -2 -29 4 -28 10 -28 11 -27 96
1 47 -3 105 -8 128 -9 47 -2 52 69 50 39 -2 40 -3 51 -47z m394 15 c-12 -13
-35 -27 -51 -30 -15 -4 -34 -13 -41 -22 -12 -15 -11 -15 9 -5 12 7 32 12 45
12 22 -1 22 -1 -7 -25 -20 -17 -30 -34 -31 -55 -1 -25 1 -28 12 -19 8 6 14 19
14 29 0 9 9 25 20 35 11 10 20 24 20 31 0 14 51 74 63 74 5 0 -5 -18 -22 -39
-39 -50 -40 -63 -1 -26 17 16 30 24 30 18 0 -5 -10 -18 -21 -29 -12 -10 -34
-38 -50 -61 -40 -58 -65 -64 -101 -24 -15 17 -28 39 -28 49 0 10 32 38 77 69
79 54 104 61 63 18z m-2095 16 c3 -5 1 -12 -5 -16 -5 -3 -10 1 -10 9 0 18 6
21 15 7z m999 -9 c8 -13 -11 -35 -23 -28 -16 10 -14 36 3 36 8 0 17 -4 20 -8z
m755 -56 c0 -15 -2 -17 -6 -6 -4 8 -12 21 -20 28 -21 21 -15 37 7 17 11 -10
20 -28 19 -39z m-1704 35 c3 -5 1 -12 -5 -16 -5 -3 -10 1 -10 9 0 18 6 21 15
7z m-198 -23 c-3 -8 -6 -5 -6 6 -1 11 2 17 5 13 3 -3 4 -12 1 -19z m-897 -33
c0 -8 -4 -15 -10 -15 -5 0 -10 7 -10 15 0 8 5 15 10 15 6 0 10 -7 10 -15z
m1190 -11 c0 -8 -4 -14 -10 -14 -5 0 -10 9 -10 21 0 11 5 17 10 14 6 -3 10
-13 10 -21z m717 4 c-3 -8 -6 -5 -6 6 -1 11 2 17 5 13 3 -3 4 -12 1 -19z
m-947 -4 c0 -8 -4 -12 -10 -9 -5 3 -10 10 -10 16 0 5 5 9 10 9 6 0 10 -7 10
-16z m1626 4 c5 -7 3 -8 -6 -3 -13 8 -11 -12 6 -62 6 -16 5 -16 -9 -3 -16 15
-20 31 -18 63 1 19 16 23 27 5z m-2659 -4 c-3 -3 -12 -4 -19 -1 -8 3 -5 6 6 6
11 1 17 -2 13 -5z m2233 0 c0 -3 -5 -15 -11 -26 -7 -14 -8 -27 -1 -42 25 -54
32 -79 32 -111 0 -23 7 -39 20 -48 21 -14 21 -14 1 -20 -23 -6 -20 -12 -50
116 -20 82 -20 137 0 137 5 0 9 -3 9 -6z m-5788 -74 c3 -68 2 -70 -21 -70 -17
0 -21 3 -14 13 5 6 9 38 8 70 -1 39 2 57 11 57 8 0 13 -23 16 -70z m1068 41
c0 -25 3 -28 25 -23 23 4 25 1 25 -31 0 -20 5 -39 10 -42 6 -3 10 1 10 10 0 8
11 20 25 27 13 6 22 15 19 20 -3 5 -12 4 -20 -3 -16 -13 -30 -6 -19 10 9 15
55 14 59 -1 3 -7 7 -27 10 -44 l5 -32 -175 -1 c-174 0 -175 0 -185 23 -24 51
45 95 71 46 10 -18 8 -20 -24 -20 -27 0 -34 -3 -30 -15 7 -18 40 -20 47 -2 3
7 6 5 6 -5 1 -10 6 -18 12 -18 7 0 10 15 7 39 l-3 40 35 -2 c32 -2 35 -5 40
-36 3 -19 11 -36 19 -39 11 -4 13 9 9 62 -3 50 -1 66 9 66 8 0 13 -12 13 -29z
m5448 4 c3 -18 3 -18 -10 -4 -7 9 -20 19 -28 23 -8 3 -4 4 10 3 16 -1 26 -9
28 -22z m-6668 -9 c0 -18 -1 -19 -20 -1 -17 15 -24 16 -45 7 -20 -9 -25 -19
-25 -47 0 -44 33 -65 71 -44 22 11 23 11 10 -4 -18 -23 -67 -21 -91 3 -46 46
-9 113 60 108 32 -1 40 -6 40 -22z m4775 15 c3 -5 1 -12 -5 -16 -5 -3 -10 1
-10 9 0 18 6 21 15 7z m905 -6 c34 -17 47 -64 31 -107 -24 -62 -116 -67 -146
-7 -22 42 -18 67 14 100 33 33 58 36 101 14z m-9573 -1 c-3 -3 -12 -4 -19 -1
-8 3 -5 6 6 6 11 1 17 -2 13 -5z m8898 -4 c3 -5 1 -10 -4 -10 -6 0 -11 5 -11
10 0 6 2 10 4 10 3 0 8 -4 11 -10z m-195 -9 c0 -6 -4 -13 -10 -16 -5 -3 -10 1
-10 9 0 9 5 16 10 16 6 0 10 -4 10 -9z m1590 -32 c0 -16 -4 -28 -8 -25 -4 3
-16 -10 -26 -27 -18 -33 -99 -102 -132 -113 -11 -4 0 6 23 21 41 28 83 88 83
119 0 10 8 16 21 16 12 0 23 8 26 20 8 29 13 25 13 -11z m-6312 9 c7 -7 12
-21 12 -33 0 -44 -60 -63 -80 -26 -14 27 -13 37 6 55 18 19 45 21 62 4z m160
0 c7 -7 12 -21 12 -33 0 -12 -5 -26 -12 -33 -7 -7 -21 -12 -33 -12 -12 0 -26
5 -33 12 -7 7 -12 21 -12 33 0 12 5 26 12 33 7 7 21 12 33 12 12 0 26 -5 33
-12z m102 -41 c0 -29 5 -58 12 -65 9 -9 6 -12 -14 -12 -22 0 -25 4 -20 25 3
20 1 24 -12 19 -35 -14 -63 45 -34 74 7 7 25 12 40 12 27 0 28 -2 28 -53z m52
16 c4 -47 23 -45 23 2 0 21 5 35 13 35 7 0 12 -13 12 -29 0 -16 3 -36 6 -45 5
-12 -2 -15 -33 -13 -36 2 -38 4 -41 37 -2 19 -9 38 -15 42 -7 5 -4 8 10 8 18
0 22 -6 25 -37z m146 15 c3 -14 -3 -18 -27 -18 -17 0 -31 -5 -31 -10 0 -18 29
-23 47 -9 14 12 16 12 12 0 -3 -8 -13 -19 -22 -25 -36 -23 -75 36 -46 70 16
20 63 14 67 -8z m122 6 c0 -14 -3 -14 -15 -4 -9 7 -19 10 -23 6 -7 -7 19 -31
41 -39 6 -2 8 -11 4 -20 -9 -23 -67 -24 -67 -1 0 14 3 14 15 4 12 -10 19 -10
27 -2 8 8 4 14 -15 23 -41 19 -35 49 10 49 15 0 23 -6 23 -16z m45 -3 c3 -10
3 -26 -1 -35 -4 -10 -1 -16 9 -16 20 0 26 19 16 48 -7 18 -5 22 11 22 17 0 20
-7 20 -46 l0 -45 -37 3 c-36 3 -38 5 -44 46 -4 30 -2 42 7 42 7 0 15 -8 19
-19z m140 -3 c13 -60 11 -63 -24 -66 -51 -5 -62 14 -26 43 16 13 26 28 22 32
-5 4 -12 1 -17 -7 -5 -8 -12 -11 -15 -8 -12 12 6 28 30 28 17 0 26 -7 30 -22z
m135 7 c0 -18 -17 -20 -23 -2 -2 6 -8 8 -13 4 -5 -5 2 -16 15 -26 30 -23 22
-51 -14 -51 -16 0 -25 6 -25 16 0 14 3 14 15 4 9 -7 19 -10 23 -6 4 4 -4 15
-17 25 -16 12 -22 24 -18 35 8 21 57 22 57 1z m3574 -107 c13 -54 34 -119 46
-145 12 -26 17 -43 12 -38 -62 73 -102 174 -102 260 1 66 11 46 44 -77z m491
113 c3 -5 1 -12 -5 -16 -5 -3 -10 1 -10 9 0 18 6 21 15 7z m-215 -11 c0 -5 -4
-10 -10 -10 -5 0 -10 5 -10 10 0 6 5 10 10 10 6 0 10 -4 10 -10z m1973 -23
c17 -21 18 -29 8 -41 -21 -25 -51 -29 -72 -10 -23 21 -25 38 -3 30 10 -4 14
-2 11 6 -6 18 12 50 26 45 6 -2 20 -15 30 -30z m-9983 19 c0 -3 -4 -8 -10 -11
-5 -3 -10 -1 -10 4 0 6 5 11 10 11 6 0 10 -2 10 -4z m9895 -35 c-3 -10 3 -29
15 -44 l21 -26 -23 -35 c-30 -47 -46 -51 -82 -25 -27 20 -29 20 -16 3 8 -10
21 -24 29 -30 11 -9 2 -18 -44 -45 -32 -19 -67 -43 -79 -55 -49 -49 -88 -56
-104 -19 -15 32 -15 30 4 50 15 15 18 15 36 -4 10 -12 23 -21 28 -21 5 0 -1
11 -14 25 -29 31 -39 62 -20 62 8 0 14 -5 14 -10 0 -6 3 -7 7 -4 7 7 15 117 8
117 -2 0 -10 -7 -19 -15 -8 -8 -17 -12 -20 -7 -2 4 14 18 37 31 23 13 36 18
30 10 -15 -15 -17 -58 -3 -79 5 -8 10 -10 10 -5 0 6 5 3 11 -5 8 -11 9 -8 5
15 l-7 30 20 -25 20 -25 -6 24 c-4 14 -2 22 3 18 5 -3 8 11 6 34 -2 21 -8 36
-13 33 -5 -3 -9 -1 -9 4 0 6 7 12 15 16 8 3 15 1 15 -5 0 -6 5 -7 10 -4 9 6
14 -23 12 -70 0 -11 7 -3 16 19 l18 39 17 -24 c10 -15 14 -17 11 -6 -4 9 -1
24 6 32 7 9 10 26 6 40 -6 24 -5 25 14 15 14 -7 19 -17 15 -29z m-10345 25 c0
-11 -19 -15 -25 -6 -3 5 1 10 9 10 9 0 16 -2 16 -4z m8490 -5 c0 -6 -4 -13
-10 -16 -5 -3 -10 1 -10 9 0 9 5 16 10 16 6 0 10 -4 10 -9z m1784 -6 c-4 -8
-8 -15 -10 -15 -2 0 -4 7 -4 15 0 8 4 15 10 15 5 0 7 -7 4 -15z m-1759 -14 c3
-5 1 -12 -5 -16 -5 -3 -10 1 -10 9 0 18 6 21 15 7z m2195 -41 c0 -5 -6 -10
-13 -10 -19 0 -94 -38 -103 -51 -5 -8 -1 -8 14 0 25 13 102 15 102 2 0 -5 -10
-7 -22 -5 -13 2 -17 2 -10 -2 20 -9 14 -23 -8 -17 -22 6 -50 -12 -50 -33 0 -7
12 -24 26 -37 14 -14 24 -31 22 -40 -2 -13 -13 -12 -70 11 -77 30 -84 45 -45
102 24 37 72 69 120 80 18 5 33 8 35 9 1 1 2 -3 2 -9z m-2272 -26 c72 -43 107
-47 142 -17 19 16 46 26 73 29 l42 3 -38 -8 c-35 -7 -74 -35 -103 -71 -7 -8
-16 -12 -20 -8 -4 4 -14 2 -22 -5 -13 -9 -14 -9 -8 1 5 8 1 12 -12 12 -11 0
-40 9 -66 20 -46 21 -68 20 -128 -5 -29 -12 -22 30 8 54 36 28 78 26 132 -5z
m466 17 c3 -5 -15 -14 -39 -20 -34 -9 -51 -20 -65 -44 -27 -44 -24 -58 5 -24
14 15 25 24 25 20 0 -4 6 -1 13 7 7 8 17 16 22 17 6 1 19 5 30 9 l20 7 -20
-17 c-20 -17 -20 -17 1 -11 32 8 54 -15 42 -45 -7 -17 -12 -21 -15 -11 -4 10
-9 7 -19 -10 -12 -22 -13 -22 -14 -4 0 18 -2 18 -20 -5 -13 -16 -20 -20 -20
-10 0 8 -11 -1 -24 -20 -13 -19 -22 -39 -19 -43 3 -5 -5 -20 -18 -33 -20 -21
-21 -24 -5 -18 14 5 17 4 12 -4 -12 -20 13 -13 36 10 16 16 20 17 15 5 -4 -10
9 -2 27 15 35 35 130 92 109 66 -7 -8 -27 -23 -45 -32 -18 -10 -45 -35 -60
-56 l-28 -38 -102 -4 c-90 -3 -112 -8 -170 -35 -53 -25 -73 -30 -100 -24 -20
5 -47 3 -68 -4 -30 -11 -40 -10 -72 7 -33 16 -38 23 -38 53 l0 34 58 0 c31 1
92 1 135 0 124 -1 190 42 257 166 41 77 72 105 115 105 19 0 36 -4 39 -9z
m-9764 -16 c0 -8 -4 -15 -10 -15 -5 0 -10 7 -10 15 0 8 5 15 10 15 6 0 10 -7
10 -15z m10476 -20 c9 -8 11 -15 6 -15 -5 0 -15 7 -22 15 -7 8 -9 15 -6 15 4
0 14 -7 22 -15z m-128 -23 c3 -16 -2 -22 -17 -22 -26 0 -36 17 -20 36 16 19
33 13 37 -14z m-211 -4 c-3 -8 -6 -5 -6 6 -1 11 2 17 5 13 3 -3 4 -12 1 -19z
m-178 -45 c-13 -26 -34 -64 -47 -83 -20 -29 -17 -27 21 13 53 55 70 48 27 -12
-34 -46 -38 -59 -12 -41 9 7 -12 -15 -47 -49 -70 -67 -179 -126 -286 -156 -82
-22 -89 -25 -83 -30 16 -17 266 81 368 145 l35 22 -29 -25 c-43 -37 -211 -123
-281 -142 -43 -13 -80 -16 -138 -12 -101 7 -115 20 -39 34 188 35 423 197 502
345 32 61 39 54 9 -9z m921 47 c-20 -13 -33 -13 -25 0 3 6 14 10 23 10 15 0
15 -2 2 -10z m510 -4 c0 -7 -13 -16 -30 -19 -36 -8 -40 -36 -7 -56 44 -28 208
-90 281 -106 97 -22 141 -18 140 13 -1 29 7 28 40 -6 24 -26 25 -30 11 -42
-40 -33 -271 13 -407 81 -107 54 -161 122 -105 133 49 11 62 14 70 15 4 0 7
-5 7 -13z m-1284 -33 c-17 -31 -80 -103 -91 -103 -4 0 12 21 35 48 23 26 47
57 53 70 6 12 12 20 14 18 3 -2 -2 -17 -11 -33z m794 17 c0 -5 -12 -10 -27 -9
l-28 1 25 8 c14 4 26 8 28 9 1 1 2 -3 2 -9z m-1313 -22 c-3 -8 -6 -5 -6 6 -1
11 2 17 5 13 3 -3 4 -12 1 -19z m943 3 c0 -5 -7 -11 -15 -15 -15 -5 -20 5 -8
17 9 10 23 9 23 -2z m111 -19 c-43 -2 -69 1 -77 10 -11 11 0 11 64 3 l77 -10
-64 -3z m246 -2 c4 -11 2 -12 -5 -2 -10 14 -45 5 -36 -9 3 -5 0 -9 -5 -9 -13
0 -13 3 -5 25 8 20 46 16 51 -5z m733 -5 c0 -8 -4 -15 -9 -15 -13 0 -22 16
-14 24 11 11 23 6 23 -9z m-1489 -38 c-13 -13 -15 1 -4 30 7 17 8 17 11 -1 2
-10 -1 -23 -7 -29z m446 8 c-38 -13 -41 -12 -33 13 6 18 10 19 36 9 l29 -11
-32 -11z m606 -112 c-5 -129 -8 -151 -25 -168 -19 -20 -19 -20 -15 10 2 17 -1
36 -7 44 -9 12 -8 13 4 6 12 -7 13 -6 3 6 -7 9 -8 20 -3 29 5 8 7 17 4 21 -2
4 0 10 6 14 5 3 10 11 10 16 0 6 -5 7 -11 3 -8 -5 -10 8 -5 47 4 30 8 61 8 69
1 13 26 50 34 50 1 0 0 -66 -3 -147z m-666 131 c-3 -3 -12 -4 -19 -1 -8 3 -5
6 6 6 11 1 17 -2 13 -5z m-63 -11 c3 -4 -13 -25 -36 -47 -24 -23 -54 -54 -68
-70 -22 -25 -23 -27 -4 -18 11 6 26 18 34 26 21 27 27 18 22 -32 -3 -37 0 -53
16 -71 l19 -25 -34 -23 c-19 -13 -39 -23 -46 -22 -9 0 -9 2 1 6 6 2 9 10 6 15
-4 7 -2 8 4 4 7 -4 12 -1 12 8 0 8 -4 18 -10 21 -5 3 -14 20 -19 38 -7 26 -9
27 -10 9 -1 -20 -4 -21 -21 -12 -19 10 -20 9 -14 -17 3 -15 13 -39 22 -53 15
-24 15 -24 -3 -10 -10 8 -28 15 -39 15 -16 0 -22 7 -24 31 -2 18 3 38 12 47 8
8 18 26 21 40 7 25 24 44 103 117 34 31 44 35 56 23z m291 -3 c3 -5 1 -10 -4
-10 -6 0 -11 5 -11 10 0 6 2 10 4 10 3 0 8 -4 11 -10z m-1210 -9 c3 -5 1 -12
-5 -16 -5 -3 -10 1 -10 9 0 18 6 21 15 7z m985 -6 c0 -8 -7 -15 -15 -15 -8 0
-15 7 -15 15 0 8 7 15 15 15 8 0 15 -7 15 -15z m150 5 c-21 -7 -19 -8 18 -9
23 -1 42 -5 42 -10 0 -5 -19 -12 -42 -16 l-43 -8 35 -7 35 -6 -30 -8 c-16 -4
-42 -12 -57 -18 -15 -6 -34 -8 -42 -5 -8 3 -16 2 -18 -3 -2 -5 -13 -7 -25 -4
-25 7 -30 31 -10 57 14 21 89 46 132 45 29 0 29 0 5 -8z m231 -27 c-10 -17
-10 -16 -11 3 0 23 13 41 18 25 2 -6 -1 -18 -7 -28z m-54 16 c-9 -6 -15 -14
-12 -20 4 -5 0 -9 -8 -9 -10 0 -13 7 -10 20 3 12 14 20 27 20 19 -1 19 -2 3
-11z m746 -10 c-3 -10 -11 -15 -19 -12 -21 8 -17 32 5 30 12 -1 17 -7 14 -18z
m-833 -9 c-9 -6 -9 -9 1 -13 8 -3 4 -5 -7 -4 -18 1 -20 4 -11 18 6 10 15 15
20 12 5 -3 4 -9 -3 -13z m-1260 -10 c0 -4 -6 -10 -14 -13 -10 -4 -12 0 -9 14
5 18 23 18 23 -1z m1596 -30 c-4 -27 -9 -96 -11 -152 -3 -57 -8 -145 -11 -196
l-6 -92 -42 -25 c-23 -14 -58 -27 -77 -31 -33 -5 -32 -5 11 16 l45 22 -28 14
c-23 13 -26 18 -16 30 6 8 9 17 5 21 -3 4 4 17 16 30 12 13 18 23 13 23 -5 0
0 7 11 16 19 15 18 15 -3 9 -12 -3 -25 -1 -29 6 -4 8 -3 9 4 5 7 -4 12 -4 13
1 3 36 12 58 32 74 l22 20 -33 -16 -33 -16 18 27 c18 27 18 28 -2 21 -16 -6
-15 -3 5 13 17 13 20 20 10 20 -12 0 -11 3 3 11 9 6 14 15 11 21 -5 8 -1 9 10
5 10 -4 15 -3 11 3 -3 5 4 14 16 20 11 7 18 14 16 17 -3 2 -18 -4 -33 -13
l-27 -19 15 25 c8 14 14 32 14 40 -1 8 5 20 13 26 11 9 12 12 1 19 -9 6 -11 4
-5 -5 6 -9 4 -11 -5 -5 -10 6 -7 12 11 26 13 10 20 19 14 19 -9 0 14 19 24 20
2 0 1 -22 -3 -50z m-1889 18 c-3 -8 -6 -5 -6 6 -1 11 2 17 5 13 3 -3 4 -12 1
-19z m43 12 c0 -5 -4 -10 -10 -10 -5 0 -10 5 -10 10 0 6 5 10 10 10 6 0 10 -4
10 -10z m1231 -17 c1 -17 2 -17 6 0 2 9 9 17 14 17 6 0 8 -8 5 -18 -3 -9 -2
-32 3 -50 9 -32 -1 -53 -15 -31 -5 8 -3 9 6 4 9 -5 11 -4 6 4 -11 18 -25 3
-21 -22 l4 -22 -19 24 c-11 13 -20 19 -21 15 -1 -5 -5 2 -9 16 -7 23 -8 23 -9
3 -1 -24 -21 -43 -21 -19 0 56 68 131 71 79z m-1087 -8 c4 -10 -1 -15 -14 -15
-13 0 -18 5 -14 15 4 8 10 15 14 15 4 0 10 -7 14 -15z m47 -8 c-13 -13 -26 -3
-16 12 3 6 11 8 17 5 6 -4 6 -10 -1 -17z m700 11 c0 -7 2 -21 4 -30 2 -10 -1
-18 -6 -18 -4 0 -6 -7 -3 -15 5 -11 2 -13 -10 -9 -12 5 -15 15 -12 43 3 20 5
37 5 39 3 8 21 0 22 -10z m-1746 -8 c-3 -5 -10 -10 -16 -10 -5 0 -9 5 -9 10 0
6 7 10 16 10 8 0 12 -4 9 -10z m790 0 c3 -5 1 -10 -4 -10 -6 0 -11 5 -11 10 0
6 2 10 4 10 3 0 8 -4 11 -10z m1559 -42 c-3 -29 -7 -67 -10 -83 l-4 -31 -98 4
c-53 2 -99 6 -101 8 -6 5 43 62 59 69 8 3 20 -1 26 -9 13 -18 44 -22 44 -5 0
6 7 4 15 -5 20 -20 45 -10 45 19 0 27 -24 39 -40 20 -9 -11 -15 -11 -24 -2
-10 9 -4 17 28 38 60 40 66 38 60 -23z m134 20 c17 -28 9 -54 -9 -28 -16 24 1
-51 17 -78 l15 -22 21 20 c12 11 30 32 40 47 28 44 20 14 -16 -56 -24 -46 -35
-60 -41 -50 -13 20 -95 190 -95 195 0 3 12 4 26 2 15 -2 32 -14 42 -30z m579
5 c6 -8 18 -12 25 -8 7 4 2 -3 -12 -14 l-25 -21 -22 28 c-13 15 -23 31 -23 35
0 13 43 -3 57 -20z m-2225 2 c0 -5 -5 -11 -11 -13 -6 -2 -11 4 -11 13 0 9 5
15 11 13 6 -2 11 -8 11 -13z m-8932 -5 c0 -5 -4 -10 -10 -10 -5 0 -10 5 -10
10 0 6 5 10 10 10 6 0 10 -4 10 -10z m8650 0 c0 -5 -2 -10 -4 -10 -3 0 -8 5
-11 10 -3 6 -1 10 4 10 6 0 11 -4 11 -10z m1819 -66 c-2 -41 -7 -78 -11 -80
-10 -6 -10 32 -2 104 10 76 16 64 13 -24z m-602 29 c-3 -10 -5 -4 -5 12 0 17
2 24 5 18 2 -7 2 -21 0 -30z m443 13 c0 -2 -7 -7 -16 -10 -8 -3 -12 -2 -9 4 6
10 25 14 25 6z m100 -25 c0 -12 -20 -25 -27 -18 -7 7 6 27 18 27 5 0 9 -4 9
-9z m95 -11 c-3 -5 -1 -10 5 -10 6 0 8 -4 5 -10 -3 -5 -2 -10 4 -10 6 0 16
-10 22 -22 9 -17 9 -24 -5 -33 -8 -7 -13 -15 -9 -18 3 -4 1 -7 -6 -7 -7 0 -9
-4 -6 -10 3 -5 -3 -10 -14 -10 -19 0 -21 6 -21 54 0 59 7 86 22 86 5 0 6 -4 3
-10z m-673 -30 c-1 -14 -10 -31 -19 -38 -13 -9 -14 -15 -5 -24 7 -7 12 -16 12
-20 0 -4 -8 0 -19 11 -10 10 -24 20 -31 23 -19 6 29 80 49 76 10 -3 15 -12 13
-28z m-545 -26 c0 -7 -6 -10 -14 -7 -7 3 -13 0 -13 -7 0 -7 -9 -1 -21 14 -11
14 -27 26 -35 26 -8 0 -13 4 -10 9 8 12 93 -20 93 -35z m383 26 c-69 -55 -143
-98 -220 -126 -98 -37 -174 -51 -184 -35 -5 7 5 11 26 11 46 0 181 58 267 114
40 26 69 41 65 35 -4 -7 3 -5 17 4 35 25 60 22 29 -3z m555 0 c-13 -20 -63
-41 -71 -28 -4 7 -3 8 4 4 7 -4 12 -3 12 1 0 7 23 20 58 32 2 1 0 -4 -3 -9z
m-305 -180 c35 -70 78 -129 147 -202 35 -37 63 -71 63 -75 -1 -4 -7 -19 -15
-33 -11 -19 -14 -21 -15 -7 0 25 -18 21 -23 -5 -3 -18 -5 -17 -6 7 -1 17 -6
37 -11 45 -8 12 -10 10 -11 -10 -1 -14 -3 -29 -4 -35 -2 -5 -4 -14 -5 -20 -1
-5 -2 -14 -1 -18 1 -5 -3 -6 -8 -2 -6 3 -8 32 -5 68 6 60 -6 117 -24 117 -4 0
-13 -12 -19 -27 l-11 -28 -1 35 c-2 58 -13 110 -22 104 -9 -5 -69 113 -69 135
0 7 -5 9 -10 6 -7 -4 -8 3 -4 21 4 17 3 25 -3 21 -6 -4 -8 4 -5 19 4 23 7 20
22 -23 9 -26 27 -68 40 -93z m1160 130 c0 -5 -4 -10 -9 -10 -6 0 -13 5 -16 10
-3 6 1 10 9 10 9 0 16 -4 16 -10z m-1477 -108 c-15 -11 -18 -11 -21 2 -2 9 -9
16 -15 16 -7 0 -6 4 3 10 13 8 13 10 1 10 -11 0 -10 4 5 16 10 8 12 13 4 9 -8
-4 -4 3 10 15 l25 22 3 -43 c3 -33 -1 -47 -15 -57z m171 82 c9 -23 -10 -51
-39 -58 -17 -4 -23 -11 -19 -19 4 -7 -2 -3 -14 7 l-22 19 33 33 c35 37 52 42
61 18z m380 1 c-7 -16 -24 -21 -24 -6 0 8 7 13 27 20 1 1 0 -6 -3 -14z m290
-1 c5 -13 -1 -14 -37 -9 -23 3 -71 10 -107 14 -65 8 -65 8 36 10 84 1 103 -2
108 -15z m1068 1 c0 -5 -5 -11 -11 -13 -6 -2 -11 4 -11 13 0 9 5 15 11 13 6
-2 11 -8 11 -13z m-12618 -10 c-4 -8 -10 -12 -15 -9 -14 8 -10 24 6 24 9 0 12
-6 9 -15z m5876 -60 l0 -55 -55 0 -55 0 0 55 0 55 55 0 55 0 0 -55z m430 32
c0 -18 5 -23 28 -22 24 0 27 -3 27 -35 0 -33 -2 -35 -37 -38 l-38 -3 0 60 c0
34 4 61 10 61 6 0 10 -10 10 -23z m336 -40 l1 -57 -33 0 c-43 0 -60 25 -42 63
5 9 18 17 28 17 18 0 25 11 21 33 -1 5 4 7 11 5 8 -3 13 -25 14 -61z m304 53
c0 -5 -4 -10 -10 -10 -5 0 -10 5 -10 10 0 6 5 10 10 10 6 0 10 -4 10 -10z
m3001 -7 c13 -16 12 -17 -3 -4 -10 7 -18 15 -18 17 0 8 8 3 21 -13z m1601 1
c21 -4 35 -10 32 -15 -3 -5 5 -9 18 -10 13 0 17 -3 10 -6 -6 -2 -10 -8 -8 -11
6 -10 -76 -7 -99 3 -11 5 -59 10 -108 10 -66 0 -86 3 -82 13 2 6 -1 12 -8 13
-7 0 -3 5 8 10 20 9 168 5 237 -7z m-9872 -2 c0 -13 -12 -22 -22 -16 -10 6 -1
24 13 24 5 0 9 -4 9 -8z m4340 -41 c0 -43 3 -50 23 -54 16 -3 13 -5 -10 -6
l-33 -1 0 55 c0 30 5 55 10 55 6 0 10 -22 10 -49z m3730 46 c0 -2 -10 -12 -22
-23 l-23 -19 19 23 c18 21 26 27 26 19z m1530 -7 c0 -5 -5 -10 -11 -10 -5 0
-7 5 -4 10 3 6 8 10 11 10 2 0 4 -4 4 -10z m447 -16 c-3 -3 -12 -4 -19 -1 -8
3 -5 6 6 6 11 1 17 -2 13 -5z m704 -56 c0 -48 -35 -163 -49 -160 -8 1 -12 -16
-12 -50 -1 -51 -1 -52 -15 -28 l-14 25 -1 -24 c0 -18 -3 -21 -12 -13 -10 8
-12 -8 -10 -76 2 -77 1 -85 -12 -69 -10 13 -16 15 -21 7 -6 -9 -10 -9 -16 1
-6 9 -9 -2 -9 -31 l-1 -45 -20 35 -20 35 6 -40 c3 -22 1 -53 -4 -70 -5 -16
-10 -22 -10 -13 -1 9 -6 20 -12 24 -8 4 -9 0 -4 -14 6 -21 -21 -139 -35 -147
-4 -2 -6 9 -5 26 1 16 -2 32 -7 35 -4 3 -8 -7 -8 -21 0 -34 -17 -23 -29 18 -9
30 -9 28 -11 -23 -1 -41 -4 -50 -10 -35 -9 22 -9 21 -14 -57 -1 -15 -6 -31
-11 -35 -4 -4 -5 0 -2 10 4 9 2 17 -3 17 -6 0 -10 12 -10 28 -1 15 -7 41 -15
57 -14 29 -14 29 -14 5 2 -56 -1 -75 -10 -61 -6 9 -11 -7 -16 -48 -4 -33 -11
-61 -17 -61 -5 0 -6 -10 -3 -22 5 -18 4 -20 -4 -8 -10 14 -12 13 -15 -9 0 -5
-4 -13 -8 -17 -4 -3 -6 3 -3 15 2 11 -2 40 -10 63 -11 37 -13 39 -14 16 -1
-38 -13 -35 -33 10 l-18 37 5 -42 c5 -40 -8 -67 -18 -41 -3 7 -6 4 -7 -7 -2
-29 -10 -68 -14 -73 -2 -2 -10 14 -16 35 -7 21 -16 43 -20 48 -4 6 -11 34 -15
64 -6 47 -11 55 -36 64 -16 6 -32 19 -35 29 -3 10 -9 16 -13 14 -4 -3 -8 1 -8
9 0 8 4 12 9 9 4 -3 8 3 8 13 1 16 2 16 13 3 7 -9 19 -14 28 -12 10 2 23 -10
33 -30 l17 -33 -6 43 c-7 41 6 59 19 26 3 -8 10 -12 16 -9 5 3 10 -2 10 -11 0
-10 3 -15 6 -11 4 3 1 20 -5 38 -15 45 -8 47 28 7 26 -28 29 -30 24 -10 -3 12
-9 22 -14 22 -5 0 -6 7 -2 16 5 13 10 11 29 -12 15 -17 24 -22 24 -13 0 8 -5
20 -12 27 -15 15 -3 16 23 1 20 -10 20 -9 4 20 -17 35 -4 42 26 15 18 -17 22
-2 6 24 -13 19 0 14 23 -10 21 -23 41 -18 21 6 -9 11 -7 15 13 18 14 3 23 2
21 -2 -3 -5 2 -11 11 -14 12 -4 14 -1 9 14 -6 18 -4 19 19 10 17 -6 26 -6 26
0 0 6 -4 10 -8 10 -5 0 -9 7 -9 15 0 18 11 19 40 4 21 -11 21 -11 -2 14 -22
24 -13 32 16 14 10 -6 11 -2 3 17 -5 14 -6 25 -2 25 32 -5 39 2 37 42 -2 26 1
36 6 28 8 -13 13 -5 10 14 0 4 4 7 10 7 6 0 9 7 6 15 -4 8 -1 17 5 21 7 4 8 3
4 -4 -4 -7 -5 -12 -2 -12 2 0 19 24 36 52 36 58 23 51 -53 -29 -27 -29 -58
-55 -68 -58 -11 -4 -17 -10 -14 -15 3 -4 -7 -11 -21 -14 -17 -5 -24 -12 -20
-21 3 -10 0 -12 -11 -8 -11 4 -14 2 -9 -5 4 -7 13 -12 21 -12 8 0 17 -5 21
-11 4 -8 -1 -9 -16 -4 -16 5 -20 4 -15 -5 5 -8 2 -8 -12 1 -13 8 -36 9 -68 5
l-48 -8 29 -19 c35 -23 29 -24 -19 -4 -46 19 -66 19 -41 0 18 -14 17 -14 -15
-8 l-34 6 39 -38 c22 -21 28 -31 14 -21 -52 34 -77 44 -115 51 -38 6 -39 6
-20 -10 20 -17 20 -17 -5 -11 l-25 7 23 -20 c15 -13 19 -22 11 -27 -6 -3 -14
-2 -18 3 -9 14 -100 47 -108 39 -3 -3 -1 -6 5 -6 7 0 12 -5 12 -10 0 -7 -7 -7
-21 1 -27 14 -70 19 -63 7 3 -4 -10 0 -29 9 l-34 18 131 6 c264 12 382 63 554
238 54 54 85 94 174 223 10 15 14 16 20 3 5 -8 9 -29 9 -47z m-6293 30 c3 -14
-3 -18 -27 -18 -24 0 -29 -4 -24 -16 4 -11 13 -14 30 -9 16 4 22 2 18 -5 -11
-18 -54 -11 -65 10 -16 31 4 62 38 58 16 -2 28 -10 30 -20z m130 -20 c2 -22
-1 -38 -7 -38 -6 0 -11 16 -11 36 0 45 -24 42 -28 -4 -4 -43 -22 -41 -22 3 0
19 -4 35 -10 35 -11 0 -13 -12 -10 -47 1 -14 -4 -23 -13 -23 -13 0 -16 22 -8
72 1 4 25 7 54 5 l52 -2 3 -37z m155 34 c-7 -4 -13 -22 -15 -40 -3 -38 -24
-37 -22 1 2 45 3 47 27 47 14 0 18 -3 10 -8z m85 -14 c3 -14 -3 -18 -23 -18
-17 0 -25 -5 -22 -12 2 -7 13 -13 25 -12 12 0 19 -3 16 -8 -9 -14 -54 -9 -60
7 -4 8 -3 27 0 41 5 20 12 25 34 22 16 -2 28 -10 30 -20z m220 0 c3 -14 -3
-18 -23 -18 -17 0 -25 -5 -22 -12 2 -7 15 -12 28 -10 17 2 21 0 12 -9 -6 -6
-21 -9 -34 -7 -18 2 -25 10 -27 32 -2 16 2 33 10 37 20 14 52 6 56 -13z m174
8 c11 -16 10 -66 -1 -66 -6 0 -11 15 -13 33 -2 17 -7 32 -13 32 -5 0 -11 -15
-13 -32 -2 -18 -7 -33 -12 -33 -5 0 -10 15 -12 33 -2 17 -7 32 -13 32 -5 0
-11 -15 -13 -32 -5 -47 -22 -41 -22 7 l0 40 53 -1 c28 -1 55 -7 59 -13z m48
-26 c0 -22 -4 -40 -10 -40 -5 0 -10 18 -10 40 0 22 5 40 10 40 6 0 10 -18 10
-40z m132 26 c11 -16 10 -66 -1 -66 -6 0 -11 14 -13 32 -4 46 -28 49 -28 4 0
-44 -18 -48 -22 -4 -4 46 -28 49 -28 4 0 -20 -4 -36 -10 -36 -5 0 -10 18 -10
40 l0 40 53 -1 c28 -1 55 -7 59 -13z m2673 -16 c-10 -11 -13 -20 -7 -20 6 0
12 6 15 13 4 10 7 10 18 0 8 -8 9 -13 2 -13 -17 0 -24 -29 -13 -51 6 -10 18
-19 27 -19 19 0 53 28 53 44 0 20 34 13 58 -11 13 -13 18 -23 12 -23 -5 0 -10
-5 -10 -11 0 -6 7 -9 15 -5 8 3 15 1 15 -4 0 -5 -11 -9 -24 -8 -14 1 -22 6
-20 10 7 11 -1 10 -31 -4 -35 -16 -43 -54 -17 -79 21 -19 68 -27 57 -10 -3 5
0 13 6 17 7 4 9 3 5 -4 -3 -5 0 -12 6 -15 10 -3 10 -7 0 -20 -8 -9 -17 -16
-20 -15 -4 1 -24 -2 -44 -6 -80 -17 -170 51 -183 137 -7 48 1 91 16 82 5 -3 6
1 3 9 -4 10 -1 16 10 16 10 0 13 -6 9 -17 -5 -14 -1 -13 18 5 29 27 49 29 24
2z m88 3 c-3 -7 -8 -13 -12 -13 -4 0 -8 6 -8 13 0 8 6 14 13 14 7 0 10 -6 7
-14z m157 -15 c11 -18 20 -40 20 -48 -1 -8 -7 -1 -14 16 -8 18 -19 35 -25 38
-11 7 -15 26 -6 26 3 0 14 -15 25 -32z m809 1 c9 -16 10 -24 1 -33 -8 -8 -10
-7 -5 5 4 10 2 20 -4 24 -6 3 -11 0 -11 -8 0 -19 -56 -46 -81 -40 -28 8 -23
29 11 43 16 7 34 18 40 25 14 17 31 11 49 -16z m901 -24 c-8 -39 -8 -39 -9 -7
-1 21 -7 35 -18 39 -15 6 -14 7 3 14 27 10 33 -1 24 -46z m-351 3 c0 12 8 22
16 22 8 0 15 5 15 10 0 6 18 10 41 10 24 0 38 -4 34 -10 -3 -5 -1 -10 5 -10 6
0 10 -8 8 -17 -3 -14 -12 -17 -46 -15 -25 2 -42 -1 -42 -7 0 -6 -11 -11 -25
-11 -22 0 -25 4 -24 38 l2 37 7 -35 c5 -23 8 -27 9 -12z m-41 -13 c-2 -9 -8
-12 -17 -6 -11 7 -11 13 0 32 11 20 14 21 17 7 2 -10 2 -25 0 -33z m192 21 c0
-36 -10 -56 -28 -56 -13 0 -13 2 3 13 12 10 16 22 13 40 -3 15 -1 27 3 27 5 0
9 -11 9 -24z m96 8 c19 -15 19 -15 -1 -6 -11 5 -27 12 -35 15 -13 5 -13 6 1 6
8 1 24 -6 35 -15z m-982 -96 c11 -54 18 -100 15 -102 -2 -3 -58 -6 -124 -8
l-120 -3 -8 84 c-5 45 -6 85 -3 88 9 10 161 41 191 40 29 -2 30 -3 49 -99z
m646 95 c0 -5 -5 -15 -10 -23 -8 -12 -10 -11 -10 8 0 12 5 22 10 22 6 0 10 -3
10 -7z m320 -19 c25 -13 36 -22 25 -20 -11 3 -26 2 -34 -3 -11 -7 -9 -10 7
-15 11 -4 22 -13 25 -20 5 -11 -3 -11 -41 -2 -44 12 -47 14 -50 49 -4 44 5 46
68 11z m-1762 -7 c4 -21 -25 -34 -40 -19 -8 8 -8 16 2 27 16 19 34 15 38 -8z
m839 11 c23 -29 23 -183 0 -158 -5 5 -37 147 -37 161 0 13 26 11 37 -3z m230
-40 c-1 -7 -8 -19 -14 -26 -7 -7 -13 -19 -13 -25 0 -7 12 1 25 16 l25 28 0
-32 c0 -27 2 -30 15 -19 21 18 29 6 15 -22 l-11 -23 20 24 c19 21 21 21 21 5
0 -11 -4 -35 -10 -54 l-10 -35 19 24 c22 29 32 12 20 -33 -10 -34 -4 -48 6
-17 10 34 25 24 25 -16 1 -37 1 -38 14 -14 13 23 14 23 18 5 2 -10 1 -32 -3
-47 -7 -24 -6 -27 6 -17 12 10 15 8 16 -11 2 -33 2 -31 -5 -59 l-7 -25 15 25
15 25 1 -38 c0 -24 4 -36 13 -35 7 2 11 -6 9 -20 -3 -18 1 -22 15 -20 20 3 21
-9 10 -74 -3 -22 -2 -38 4 -38 5 0 9 7 9 15 0 8 5 15 11 15 8 0 10 -14 6 -40
-3 -23 -1 -38 4 -34 12 7 11 -23 -2 -48 -6 -11 -9 -22 -7 -24 7 -6 49 37 44
45 -3 4 1 8 9 8 8 0 15 -5 15 -11 1 -6 7 0 14 13 20 36 30 7 11 -32 -9 -18
-10 -26 -3 -19 19 19 30 14 18 -8 -13 -24 -7 -26 13 -5 13 13 16 13 21 0 3 -8
1 -15 -5 -15 -6 0 -7 -5 -4 -10 4 -6 3 -9 -2 -8 -4 1 -20 -6 -36 -16 -26 -18
-53 -18 -102 0 -17 6 -15 2 7 -22 25 -26 25 -30 9 -30 -11 0 -17 4 -15 8 3 4
0 8 -6 8 -7 0 -21 12 -32 26 -13 16 -26 23 -36 19 -9 -3 -13 -3 -9 1 4 4 -7
20 -23 36 -17 16 -28 33 -25 38 4 6 -1 13 -9 16 -9 3 -16 11 -16 16 0 6 6 8
14 5 8 -3 20 1 27 9 10 12 9 13 -7 7 -16 -6 -15 -2 5 26 l23 32 -38 -6 -39 -7
34 22 c35 22 37 39 3 21 -12 -6 -27 -11 -34 -10 -10 0 -10 2 0 6 19 8 14 23
-8 23 -27 0 -26 32 1 69 12 16 20 34 18 40 -2 5 -20 -12 -40 -39 -28 -37 -40
-67 -49 -117 -13 -77 -31 -103 -71 -103 -35 0 -125 33 -149 55 -10 9 -37 19
-60 22 -50 7 -61 27 -29 56 13 12 17 14 10 5 -11 -15 -11 -18 1 -18 9 0 27 -9
41 -20 18 -14 28 -17 33 -9 5 8 10 7 16 -5 11 -19 34 -21 41 -3 3 8 13 4 31
-12 18 -17 26 -20 26 -10 1 10 5 8 17 -6 15 -20 15 -20 10 3 -7 30 9 28 30 -5
l17 -26 7 24 c3 13 3 28 -2 33 -4 5 -5 14 -3 21 3 7 1 16 -5 20 -18 10 -12 25
7 18 15 -6 15 -5 4 10 -8 9 -11 21 -7 27 3 5 0 10 -7 11 -7 0 -2 5 12 10 23
10 24 11 7 24 -16 11 -16 13 -2 19 9 3 13 10 10 16 -3 5 1 10 11 10 12 0 15 6
12 25 -6 27 3 31 33 14 19 -10 19 -9 9 10 -6 12 -15 21 -21 21 -6 0 -7 5 -4
10 12 20 -81 11 -106 -10 -13 -10 -21 -19 -16 -20 4 0 1 -15 -7 -34 -15 -35
-12 -51 8 -39 6 4 20 9 31 10 11 1 4 -6 -17 -18 -39 -20 -50 -39 -23 -39 12 0
13 -3 3 -19 -18 -30 -28 -15 -28 40 0 94 41 149 120 162 14 2 -1 5 -32 6 -65
1 -78 14 -78 78 -1 38 -1 38 -15 13 l-14 -25 -1 26 c0 15 7 46 15 69 8 23 12
47 8 54 -4 6 2 4 12 -4 17 -14 18 -13 12 3 -4 10 -3 16 2 13 5 -3 13 0 19 7
14 17 63 21 59 5z m546 5 c-7 -2 -19 -2 -25 0 -7 3 -2 5 12 5 14 0 19 -2 13
-5z m-119 -12 c4 -1 6 -11 3 -23 l-6 -23 16 23 c16 23 45 27 116 16 37 -7 48
-19 25 -27 -7 -2 -2 -2 11 0 33 6 115 -8 101 -17 -9 -5 -9 -9 -1 -14 6 -4 9
-11 6 -16 -3 -4 2 -13 10 -20 22 -18 18 -32 -6 -20 -20 11 -20 11 -3 -16 18
-27 18 -27 -4 -15 -19 10 -21 9 -15 -5 4 -11 2 -15 -4 -11 -7 5 -8 -3 -3 -26
22 -93 22 -93 1 -49 -26 54 -34 54 -16 1 27 -75 17 -109 -31 -109 -12 0 -12 4
-2 20 12 18 13 19 20 2 4 -12 7 -6 8 18 3 49 1 62 -18 90 -10 16 -17 20 -20
12 -3 -10 -11 -7 -29 10 l-26 23 18 -35 c16 -31 16 -33 2 -21 -15 11 -17 11
-17 -2 0 -9 5 -19 10 -22 6 -3 10 -11 10 -16 0 -5 -12 -2 -27 8 l-26 18 17
-28 c10 -15 15 -27 12 -27 -4 0 -2 -9 5 -21 9 -19 8 -20 -10 -15 -12 3 -31 9
-43 12 -13 4 -37 22 -54 40 -18 19 -38 34 -45 34 -10 -1 -8 -4 4 -11 21 -13
48 -63 58 -109 l7 -35 1 39 c1 32 4 37 19 31 9 -3 39 -11 65 -18 l48 -11 -58
-22 c-42 -16 -51 -23 -33 -23 20 -1 22 -3 10 -11 -13 -9 -13 -10 0 -10 12 0
12 -2 2 -9 -10 -6 -6 -10 15 -14 22 -4 35 1 59 24 44 43 61 11 28 -53 -15 -29
-15 -30 1 -25 13 6 11 0 -6 -25 -21 -29 -21 -31 -4 -24 18 7 18 6 0 -14 -18
-20 -18 -20 6 -18 13 2 32 12 42 23 17 19 18 19 2 -12 -10 -22 -12 -33 -4 -33
8 0 8 -4 -1 -15 -15 -18 -10 -18 24 -5 20 7 24 6 20 -5 -7 -16 -76 -45 -107
-44 -20 0 -97 78 -97 99 0 4 15 11 33 14 17 4 43 16 57 27 l25 20 -32 -15
c-18 -9 -51 -16 -74 -16 -37 0 -47 5 -81 42 -21 23 -38 44 -38 48 0 3 14 10
32 15 17 6 34 16 36 23 3 10 -4 9 -23 -4 -26 -17 -28 -17 -60 1 -55 29 -86
125 -50 155 8 7 15 18 15 25 0 22 98 102 132 109 37 7 87 -5 127 -30 l26 -16
-27 27 c-20 21 -39 29 -77 33 -56 5 -55 4 -40 35 5 12 -5 4 -23 -17 l-33 -40
-12 40 c-6 21 -12 31 -12 21 -1 -16 -5 -15 -38 8 -53 35 -75 31 -30 -6 40 -33
51 -57 18 -39 -30 15 -50 12 -27 -5 17 -13 17 -14 -8 -11 -15 2 -42 18 -62 37
-32 31 -33 35 -17 46 9 7 26 11 37 8 12 -3 15 -2 7 2 -21 9 68 53 99 48 14 -2
29 -4 34 -4z m906 -1 c0 -5 -4 -10 -10 -10 -5 0 -10 5 -10 10 0 6 5 10 10 10
6 0 10 -4 10 -10z m-213 -16 c3 -8 1 -20 -5 -26 -15 -15 -43 8 -35 28 7 19 32
18 40 -2z m-1873 -19 c3 -9 -1 -18 -10 -22 -19 -7 -28 2 -21 22 8 19 23 19 31
0z m1566 3 c0 -7 -5 -20 -10 -28 -8 -12 -10 -9 -10 13 0 15 5 27 10 27 6 0 10
-6 10 -12z m-978 -100 c2 -46 0 -91 -5 -100 -11 -25 -54 -45 -112 -52 l-50 -6
53 14 c57 14 77 26 46 26 -16 1 -15 3 6 16 24 14 24 14 -15 9 l-40 -6 38 21
c41 23 49 35 15 24 -22 -6 -22 -6 2 15 14 13 19 20 12 16 -7 -4 -4 9 8 30 11
19 20 44 20 55 0 11 4 20 9 20 5 0 11 -37 13 -82z m-867 62 c3 -5 1 -10 -4
-10 -6 0 -11 5 -11 10 0 6 2 10 4 10 3 0 8 -4 11 -10z m126 -8 c-5 -10 -18
-25 -27 -33 -11 -9 -9 -2 6 19 26 35 36 42 21 14z m-31 2 c0 -8 -19 -13 -24
-6 -3 5 1 9 9 9 8 0 15 -2 15 -3z m1750 -58 c0 -40 -31 -146 -37 -128 -8 21 7
103 18 97 5 -4 9 1 9 9 0 8 -4 18 -10 21 -5 3 -10 11 -10 16 0 6 5 7 10 4 14
-9 12 8 -2 25 -11 12 -10 12 5 1 10 -8 17 -27 17 -45z m-2114 23 c10 -17 -13
-36 -27 -22 -12 12 -4 33 11 33 5 0 12 -5 16 -11z m2184 1 c-8 -5 -19 -10 -25
-10 -5 0 -3 5 5 10 8 5 20 10 25 10 6 0 3 -5 -5 -10z m833 -7 c9 -9 -13 -34
-24 -27 -14 8 -11 34 4 34 8 0 17 -3 20 -7z m-12603 -23 c0 -5 -4 -10 -10 -10
-5 0 -10 5 -10 10 0 6 5 10 10 10 6 0 10 -4 10 -10z m10265 -40 c-5 -8 -11 -8
-17 -2 -6 6 -7 16 -3 22 5 8 11 8 17 2 6 -6 7 -16 3 -22z m-8445 10 c0 -5 -4
-10 -10 -10 -5 0 -10 5 -10 10 0 6 5 10 10 10 6 0 10 -4 10 -10z m8673 -7 c43
-7 32 -22 -18 -24 l-30 -1 29 -7 c41 -8 36 -27 -5 -24 l-34 3 35 -14 c19 -8
29 -15 21 -15 -22 -1 -6 -12 31 -22 29 -8 28 -8 -13 -4 -75 7 -99 20 -99 54 0
61 9 67 83 54z m1322 -43 c-5 -8 -11 -8 -17 -2 -6 6 -7 16 -3 22 5 8 11 8 17
2 6 -6 7 -16 3 -22z m-167 -51 c-4 -28 -68 -71 -68 -45 0 9 4 16 10 16 22 0
47 33 42 54 -4 16 -2 18 7 10 7 -7 11 -22 9 -35z m-7994 5 c8 -21 -1 -34 -25
-34 -12 0 -19 7 -19 18 0 34 33 45 44 16z m7100 -109 c2 -50 -6 -65 -34 -64
-9 0 -5 6 10 14 l25 14 -25 1 c-25 1 -25 1 -5 16 19 15 19 15 -10 9 l-30 -6
25 16 c25 15 25 15 -15 9 l-40 -5 33 21 c35 24 43 37 13 20 -26 -13 -34 -13
-25 2 5 8 0 9 -17 5 -13 -4 -42 -4 -64 0 l-40 6 63 13 c35 7 75 22 90 33 l27
20 8 -37 c5 -20 10 -59 11 -87z m-783 98 c19 -22 72 -43 109 -43 16 0 30 -5
30 -10 0 -6 -10 -8 -22 -6 -13 3 -39 8 -58 12 -19 4 -33 5 -30 2 11 -11 100
-47 95 -38 -10 16 7 11 27 -7 25 -23 22 -35 -7 -27 -22 5 -24 4 -18 -12 6 -16
5 -17 -9 -6 -14 12 -16 10 -10 -10 5 -22 4 -22 -29 6 -72 60 -109 96 -109 106
0 13 -17 13 -25 0 -4 -6 -15 -8 -26 -5 -13 4 -19 2 -19 -9 0 -12 -5 -10 -23 7
-37 36 -19 47 89 55 12 1 28 -5 35 -15z m482 -18 c20 -8 49 -15 64 -16 24 0
25 -1 8 -8 -19 -8 -18 -9 5 -14 14 -3 4 -5 -22 -4 -56 2 -62 -6 -15 -21 l32
-10 -35 -1 c-26 -1 -31 -4 -20 -11 12 -8 12 -10 -5 -11 -11 0 -14 -3 -7 -6 17
-7 15 -30 -3 -37 -10 -4 -19 2 -24 17 -11 28 -25 137 -18 137 2 0 21 -7 40
-15z m-8873 -25 c0 -13 -7 -20 -20 -20 -19 0 -27 20 -13 33 13 14 33 6 33 -13z
m8820 -22 c0 -12 -3 -18 -7 -15 -3 4 -12 -1 -20 -11 -8 -9 -12 -11 -8 -5 4 9
1 11 -9 7 -9 -3 -13 -11 -9 -17 4 -6 1 -7 -8 -1 -8 5 -22 9 -31 10 -57 5 -60
7 -18 15 25 5 56 17 70 28 29 22 40 19 40 -11z m-559 12 c1 -5 2 -23 3 -40 1
-23 -2 -27 -11 -17 -11 12 -16 31 -14 55 1 14 20 16 22 2z m339 -13 c0 -2 -9
-3 -20 -4 -12 -1 -20 4 -20 13 0 12 4 12 20 4 11 -6 20 -12 20 -13z m60 -17
c0 -5 -7 -7 -15 -4 -8 4 -15 8 -15 10 0 2 7 4 15 4 8 0 15 -4 15 -10z m-10373
-16 c8 -22 -15 -44 -26 -25 -10 16 -4 41 10 41 5 0 12 -7 16 -16z m160 -10
c-3 -3 -12 -4 -19 -1 -8 3 -5 6 6 6 11 1 17 -2 13 -5z m6023 -44 c0 -24 -6
-25 -27 -5 -20 21 -45 15 -59 -13 -24 -49 12 -91 62 -72 24 9 25 9 14 -5 -18
-22 -76 -19 -100 5 -26 26 -25 51 1 84 17 21 29 26 65 26 37 0 44 -3 44 -20z
m4500 8 l-35 -10 28 -14 c15 -8 27 -17 27 -20 0 -2 -9 0 -21 6 -12 7 -38 9
-62 5 l-42 -6 30 16 c17 9 34 20 40 26 5 5 23 9 40 8 l30 -1 -35 -10z m-4066
-30 c8 -5 7 -8 -1 -8 -8 0 -13 -13 -13 -30 0 -16 5 -30 11 -30 5 0 7 -4 4 -10
-3 -5 -13 -10 -21 -10 -10 0 -14 12 -14 40 0 22 -4 40 -10 40 -5 0 -2 9 8 20
12 14 18 17 21 8 2 -7 9 -16 15 -20z m-346 -10 c28 -28 7 -78 -33 -78 -27 0
-45 18 -45 45 0 27 18 45 45 45 12 0 26 -5 33 -12z m103 -6 c1 -9 1 -23 0 -30
-1 -8 3 -20 10 -28 10 -12 3 -14 -46 -14 -50 0 -56 2 -45 15 7 9 10 27 7 44
-6 28 -5 29 33 29 31 1 40 -3 41 -16z m97 2 c8 -14 10 -14 21 0 17 20 57 21
65 1 3 -9 0 -15 -8 -15 -8 0 -16 5 -18 12 -6 18 -28 0 -28 -23 0 -24 29 -37
40 -18 5 7 12 10 16 6 11 -11 -17 -37 -41 -37 -13 0 -26 7 -29 16 -6 16 -8 16
-24 0 -33 -29 -72 -13 -72 29 0 12 5 26 12 33 17 17 55 15 66 -4z m232 -3 c6
-12 23 -21 43 -23 26 -3 29 -6 14 -12 -11 -5 -27 -4 -41 3 -13 7 -35 11 -49 9
-21 -2 -24 -6 -17 -18 8 -13 13 -13 31 -2 18 12 20 11 17 -5 -2 -12 -12 -18
-32 -18 -38 0 -54 25 -38 59 14 32 56 36 72 7z m140 2 c0 -13 -3 -14 -12 -5
-15 15 -28 16 -28 2 0 -6 10 -14 23 -19 18 -7 24 -4 35 15 16 30 57 32 72 4
10 -18 8 -20 -20 -20 -16 0 -30 -5 -30 -10 0 -16 33 -26 38 -12 2 7 8 12 13
12 6 0 5 -8 -1 -20 -13 -24 -58 -27 -67 -4 -5 15 -7 15 -15 0 -12 -22 -68 -22
-68 0 0 14 3 14 15 4 12 -10 19 -10 27 -2 8 8 4 14 -15 21 -42 16 -35 51 10
51 15 0 23 -6 23 -17z m4885 -13 c18 -36 19 -47 2 -47 -9 0 -12 9 -9 24 3 15
-1 25 -12 29 -17 7 -22 24 -6 24 5 0 16 -13 25 -30z m-1175 9 c11 -8 8 -9 -15
-5 -16 3 -37 2 -45 -4 -8 -5 -11 -10 -7 -10 5 0 -1 -14 -13 -30 -12 -17 -19
-38 -16 -46 3 -8 2 -13 -3 -10 -5 3 -12 -1 -15 -10 -5 -13 -9 -14 -21 -4 -20
17 -19 24 8 35 12 6 29 24 37 40 9 17 19 36 23 43 10 15 46 16 67 1z m-560
-23 c5 -13 15 -26 22 -29 8 -3 5 -6 -6 -6 -23 -1 -56 26 -56 46 0 22 30 14 40
-11z m961 -13 l24 -26 -40 23 c-52 31 -52 30 -28 30 11 0 30 -12 44 -27z
m-9514 -5 c-3 -8 -6 -5 -6 6 -1 11 2 17 5 13 3 -3 4 -12 1 -19z m9160 16 c-3
-3 -12 -4 -19 -1 -8 3 -5 6 6 6 11 1 17 -2 13 -5z m-407 -24 c0 -13 -46 -24
-61 -14 -9 5 -7 10 7 15 28 11 54 11 54 -1z m105 0 c3 -5 1 -10 -4 -10 -6 0
-11 5 -11 10 0 6 2 10 4 10 3 0 8 -4 11 -10z m2385 -11 c0 -5 -7 -9 -15 -9
-15 0 -20 12 -9 23 8 8 24 -1 24 -14z m-11787 4 c-7 -2 -19 -2 -25 0 -7 3 -2
5 12 5 14 0 19 -2 13 -5z m10867 -23 c0 -5 -5 -10 -11 -10 -5 0 -7 5 -4 10 3
6 8 10 11 10 2 0 4 -4 4 -10z m-11730 -4 c0 -11 -19 -15 -25 -6 -3 5 1 10 9
10 9 0 16 -2 16 -4z m12530 -20 c0 -19 -27 -28 -33 -11 -7 15 1 25 20 25 7 0
13 -6 13 -14z m-2172 -65 c-8 -23 -17 -38 -21 -34 -11 11 -8 68 5 81 22 22 30
-4 16 -47z m332 49 c-13 -8 -12 -10 3 -10 16 0 17 -2 3 -15 -17 -17 -52 -20
-61 -5 -11 17 15 40 44 40 20 0 23 -2 11 -10z m1108 -19 c2 -6 -2 -10 -9 -9
-15 3 -39 23 -39 32 0 10 44 -11 48 -23z m-685 -98 c6 -10 1 -23 -15 -40 -50
-54 -162 -89 -262 -80 -79 6 -110 21 -147 71 -27 37 -28 41 -11 44 11 2 36 18
57 37 28 27 41 32 54 25 15 -9 15 -9 -1 -10 -9 0 -20 -4 -23 -10 -3 -6 1 -7 9
-4 9 3 16 1 16 -5 0 -6 -12 -12 -27 -12 -25 -2 -24 -2 7 -9 l35 -7 -30 -3
c-23 -2 -19 -4 23 -12 29 -5 50 -13 47 -18 -3 -5 3 -10 12 -12 10 -3 -7 -8
-37 -13 l-55 -9 40 -7 c22 -4 56 -10 75 -14 51 -10 109 9 155 51 36 32 37 34
10 20 -31 -16 -120 -46 -133 -46 -4 1 15 12 41 26 52 27 61 44 11 20 -16 -7
-42 -16 -59 -20 -29 -5 -29 -5 -5 5 99 42 143 75 65 49 -46 -15 -56 -7 -18 15
l28 16 -35 -6 -35 -6 40 24 c22 14 47 31 55 39 13 13 20 9 60 -35 25 -28 49
-56 53 -64z m-10723 97 c0 -5 -4 -10 -10 -10 -5 0 -10 5 -10 10 0 6 5 10 10
10 6 0 10 -4 10 -10z m11458 -22 c7 -7 12 -18 12 -25 0 -8 -7 -6 -20 7 -11 11
-20 22 -20 25 0 9 16 5 28 -7z m426 -37 c-15 -23 -29 -39 -32 -36 -7 7 -52
-36 -52 -49 1 -6 12 3 25 19 14 17 25 26 25 20 -1 -5 -14 -26 -30 -45 l-30
-34 0 29 c0 22 14 43 58 86 31 31 58 56 60 54 2 -2 -9 -22 -24 -44z m-1534 21
c0 -15 -11 -21 -27 -15 -12 5 -12 7 -1 14 17 11 28 11 28 1z m985 -2 c-11 -17
5 -32 21 -19 11 9 14 8 14 -2 0 -11 3 -11 11 1 8 11 9 6 5 -20 -5 -35 -5 -35
9 -10 14 24 14 24 15 3 0 -12 -9 -47 -21 -78 -20 -53 -21 -55 -42 -40 -13 9
-43 15 -74 15 -44 0 -53 3 -53 18 0 9 -3 33 -6 53 l-6 36 42 6 c24 3 52 15 64
26 22 23 31 27 21 11z m-185 -15 c11 -13 9 -19 -8 -38 -12 -12 -28 -38 -36
-57 -17 -39 -22 -26 -6 16 10 24 9 26 -6 13 -9 -7 -20 -22 -24 -34 -8 -18 -9
-18 -10 5 0 19 -2 22 -9 10 -16 -24 -22 -103 -12 -138 6 -20 6 -30 0 -27 -5 4
-9 16 -10 28 -1 14 -4 10 -9 -13 -17 -69 4 -111 116 -235 87 -96 159 -145 215
-145 34 0 59 9 59 21 0 5 -8 4 -18 -2 -15 -9 -28 -7 -67 12 -97 47 -106 53
-101 65 3 7 2 14 -2 16 -12 5 -82 91 -82 100 0 5 4 6 10 3 6 -3 7 1 4 9 -3 9
-10 14 -14 11 -5 -3 -6 5 -3 16 6 21 6 21 25 -2 15 -19 17 -19 10 -4 -5 11
-12 34 -15 50 -3 17 -9 38 -12 48 -4 10 -3 17 4 17 6 0 11 -6 11 -13 0 -7 7
-22 15 -33 14 -18 15 -18 6 6 -4 14 -5 34 -1 45 6 16 8 14 14 -15 6 -30 49
-102 45 -75 -3 21 2 25 15 13 8 -7 12 -16 9 -20 -2 -5 1 -16 6 -25 9 -16 10
-16 11 3 0 12 7 25 16 28 8 3 13 2 10 -2 -3 -5 -1 -22 4 -38 6 -22 9 -24 10
-9 1 12 9 0 20 -30 11 -31 19 -42 19 -28 2 36 18 35 25 -2 7 -33 26 -50 26
-22 0 8 3 7 9 -2 8 -12 11 -9 17 13 10 41 21 14 18 -45 -2 -42 0 -48 12 -38
20 17 26 6 15 -25 -14 -35 0 -33 39 6 l33 32 23 -28 c13 -15 24 -36 24 -46 0
-28 20 -35 21 -8 1 17 4 13 13 -15 6 -21 15 -35 19 -31 4 4 8 2 8 -4 1 -7 3
-16 4 -22 1 -5 3 -22 5 -37 1 -22 4 -17 14 22 7 28 18 60 24 72 21 39 15 71
-17 87 -30 16 -101 92 -101 109 0 5 15 -4 34 -21 19 -16 55 -44 81 -62 67 -46
74 -71 33 -134 -29 -46 -33 -59 -33 -123 0 -39 -3 -69 -7 -67 -15 9 -14 -22 1
-40 11 -14 12 -17 2 -11 -14 8 -14 8 5 -39 3 -9 -3 -13 -20 -13 -22 -1 -24 3
-19 33 4 24 2 34 -7 34 -10 0 -10 3 0 15 13 15 5 55 -11 55 -6 0 -8 9 -4 19 3
12 -4 33 -19 56 -14 20 -28 45 -31 55 -8 27 -36 33 -88 19 -66 -16 -175 3
-264 46 -125 61 -226 198 -258 351 -22 103 -19 135 14 181 54 74 124 110 151
78z m-1330 -24 c0 -14 -18 -23 -30 -16 -6 4 -8 11 -5 16 8 12 35 12 35 0z
m994 -42 c-3 -5 -10 -7 -15 -3 -5 3 -7 10 -3 15 3 5 10 7 15 3 5 -3 7 -10 3
-15z m116 -140 c0 -50 -124 -126 -221 -136 -51 -5 -59 -2 -139 43 -70 39 -127
77 -172 113 -4 3 35 6 85 6 84 0 98 3 157 32 37 18 73 45 84 61 l19 29 94 -66
c53 -37 93 -73 93 -82z m-791 119 c11 -15 11 -18 0 -18 -8 0 -21 5 -29 10 -13
9 -13 11 0 19 8 6 15 9 15 8 0 -1 7 -10 14 -19z m1288 0 c-3 -8 -6 -5 -6 6 -1
11 2 17 5 13 3 -3 4 -12 1 -19z m28 -20 c-18 -81 -78 -164 -136 -189 -27 -11
-36 -10 -65 6 -40 21 -46 39 -8 25 54 -21 106 17 144 103 35 79 78 115 65 55z
m325 19 c0 -9 -38 -46 -42 -41 -3 2 -11 -9 -18 -26 -7 -16 -16 -27 -21 -24
-12 7 -11 -10 1 -22 8 -8 6 -15 -5 -24 -8 -7 -15 -9 -15 -5 0 4 -7 2 -15 -5
-13 -11 -14 -10 -9 5 5 13 4 16 -4 11 -7 -4 -12 -2 -12 5 0 7 -14 -3 -30 -21
-19 -21 -42 -36 -60 -38 -46 -5 -37 20 15 42 25 10 83 47 128 82 82 64 87 67
87 61z m378 -16 c2 -6 8 -9 13 -5 13 8 77 -34 91 -59 11 -21 10 -21 -9 -4 -11
9 -23 14 -28 10 -4 -5 -5 -2 -1 5 4 7 1 12 -8 12 -8 0 -21 7 -30 15 -8 9 -17
15 -18 15 -2 -1 -16 2 -31 5 -43 11 -44 -2 -1 -22 73 -33 94 -52 100 -93 4
-22 10 -37 15 -34 12 7 11 -47 -1 -66 -8 -13 -10 -12 -10 3 0 25 -45 44 -65
27 -32 -27 -6 -78 35 -67 11 3 18 1 15 -3 -3 -5 0 -10 7 -12 25 -9 -81 -41
-112 -35 -16 4 -30 3 -30 -2 0 -4 -13 -8 -30 -8 -16 0 -27 5 -23 10 3 5 -3 4
-14 -1 -15 -8 -27 -6 -51 10 -38 24 -59 60 -68 118 -5 28 -10 37 -15 28 -11
-17 -11 -81 0 -111 5 -13 6 -30 1 -38 -7 -11 -9 -9 -9 6 0 11 -5 41 -12 67 -9
37 -9 56 0 91 16 54 81 122 137 143 44 16 146 13 152 -5z m222 4 c0 -8 -7 -15
-15 -15 -8 0 -15 7 -15 15 0 8 7 15 15 15 8 0 15 -7 15 -15z m-883 -119 c6
-67 31 -126 70 -168 20 -21 23 -30 14 -45 -6 -10 -11 -13 -11 -8 0 6 -5 3 -10
-5 -8 -12 -10 -12 -10 5 0 11 -7 29 -15 39 -8 11 -15 30 -15 42 0 30 -20 42
-21 12 0 -22 -1 -22 -8 -3 -8 19 -9 18 -13 -5 -7 -33 -14 169 -8 228 3 32 20
-28 27 -92z m-410 32 c-2 -13 -4 -5 -4 17 -1 22 1 32 4 23 2 -10 2 -28 0 -40z
m-1117 22 c0 -13 -7 -20 -19 -20 -22 0 -35 15 -26 30 12 19 45 11 45 -10z
m-270 -5 c0 -8 -7 -15 -15 -15 -8 0 -15 7 -15 15 0 8 7 15 15 15 8 0 15 -7 15
-15z m1527 -20 c-6 -19 -12 -33 -15 -31 -7 7 9 66 18 66 4 0 3 -16 -3 -35z
m58 5 c-8 -16 -15 -38 -15 -50 0 -11 -7 -20 -15 -20 -10 0 -15 10 -15 34 0 50
9 66 36 66 24 0 24 -1 9 -30z m68 -4 c-41 -69 -76 -88 -63 -33 15 62 19 67 46
55 13 -6 20 -16 17 -22z m1265 22 c-3 -7 -11 -13 -18 -13 -7 0 -15 6 -17 13
-3 7 4 12 17 12 13 0 20 -5 18 -12z m-12678 -33 c0 -8 -4 -15 -9 -15 -13 0
-22 16 -14 24 11 11 23 6 23 -9z m11920 -10 c0 -8 -7 -15 -15 -15 -8 0 -15 7
-15 15 0 8 7 15 15 15 8 0 15 -7 15 -15z m-893 -90 c-1 0 -17 -13 -36 -30
l-34 -30 22 33 c13 18 21 35 19 37 -2 2 -44 -17 -93 -41 -77 -39 -84 -45 -51
-40 36 5 37 4 20 -10 -17 -14 -15 -15 31 -9 36 4 46 3 35 -4 -20 -14 1 -14 36
-1 24 9 26 9 14 -5 -12 -14 -10 -14 16 -5 l29 10 -24 -18 -23 -19 47 -1 c29 0
54 -6 63 -16 15 -15 14 -16 -6 -16 -45 0 -168 33 -257 69 l-90 36 51 6 c28 4
80 22 115 40 50 27 68 43 84 74 l19 40 8 -50 c4 -27 6 -50 5 -50z m1336 56 c2
-10 0 -25 -5 -32 -8 -11 -9 -10 -4 3 3 10 1 20 -5 23 -5 4 -7 11 -4 16 9 13
12 11 18 -10z m-1849 -22 c-6 -11 17 -69 26 -64 4 3 6 -3 3 -13 -2 -10 3 -25
13 -33 16 -13 16 -12 6 8 -7 12 -8 24 -4 27 5 3 9 0 9 -7 0 -7 11 -31 26 -53
14 -23 23 -45 20 -48 -4 -3 -1 -6 5 -6 7 0 12 -5 12 -12 0 -6 8 -21 18 -32 15
-17 12 -17 -16 3 -61 43 -126 148 -138 222 -6 38 -6 41 8 28 9 -8 14 -17 12
-20z m1175 -15 c-13 -14 -37 -33 -54 -41 -28 -15 -29 -15 -16 0 7 10 19 17 25
17 7 0 23 11 36 25 13 14 26 25 28 25 3 0 -5 -12 -19 -26z m761 0 c0 -8 -4
-12 -10 -9 -5 3 -10 10 -10 16 0 5 5 9 10 9 6 0 10 -7 10 -16z m-12435 -14 c3
-5 1 -10 -4 -10 -6 0 -11 5 -11 10 0 6 2 10 4 10 3 0 8 -4 11 -10z m6725 -14
c0 -18 6 -25 23 -28 18 -2 23 -11 28 -45 l5 -43 -95 0 -96 0 3 46 4 45 37 -3
c34 -3 36 -5 39 -40 5 -63 22 -42 22 27 0 51 3 65 15 65 9 0 15 -9 15 -24z
m-1331 -3 c0 -11 -3 -13 -6 -5 -2 6 -16 12 -29 12 -19 0 -24 -5 -24 -25 0 -18
5 -25 19 -25 11 0 22 6 24 13 3 6 6 2 6 -9 1 -17 -4 -20 -24 -16 -22 4 -25 1
-25 -22 0 -20 5 -26 23 -26 13 0 29 6 36 13 11 10 13 9 9 -3 -3 -11 -21 -16
-64 -17 -32 -1 -53 0 -46 3 7 4 12 26 12 59 0 33 -5 55 -12 58 -7 3 13 6 45 6
48 1 57 -2 56 -16z m1559 -4 c2 -9 -7 -32 -18 -50 -18 -28 -21 -30 -15 -9 11
42 11 63 -2 67 -7 3 -13 -2 -13 -11 0 -9 -4 -16 -10 -16 -11 0 -13 23 -3 34
13 13 58 1 61 -15z m3689 -44 c58 -58 96 -84 77 -53 -4 7 -3 8 5 4 6 -4 9 -11
6 -16 -7 -11 152 -98 220 -122 27 -9 51 -22 53 -28 3 -9 -1 -9 -16 -1 -11 6
-29 11 -39 11 -13 0 -10 -4 11 -15 15 -8 33 -15 40 -15 6 0 29 -9 50 -21 21
-11 45 -18 54 -14 12 4 13 3 2 -10 -7 -8 -16 -12 -21 -10 -4 3 -30 -3 -56 -13
l-49 -19 -17 24 c-17 22 -17 23 3 23 11 0 20 5 20 10 0 6 -26 10 -57 10 -115
0 -199 35 -263 107 -48 55 -66 86 -86 152 -24 80 -22 80 63 -4z m1620 49 c8
-20 -13 -42 -27 -28 -12 12 -3 44 11 44 5 0 12 -7 16 -16z m-1869 -40 c4 -45
-76 -160 -199 -285 -206 -209 -465 -387 -641 -440 -133 -41 -144 23 -30 174
30 39 38 44 45 31 6 -10 5 -25 -4 -41 -10 -18 -10 -29 -2 -41 40 -63 313 93
534 305 117 114 162 180 139 207 -10 13 -23 15 -55 11 -30 -5 -44 -3 -54 9
-11 13 -5 19 39 41 54 28 184 66 210 62 9 -1 16 -15 18 -33z m1007 26 c-3 -5
-12 -10 -18 -10 -7 0 -6 4 3 10 19 12 23 12 15 0z m-5925 -26 c0 -14 -3 -14
-15 -4 -9 7 -19 10 -23 6 -4 -4 5 -16 20 -27 33 -25 27 -49 -13 -49 -20 0 -29
5 -29 16 0 14 3 14 15 4 12 -10 19 -10 27 -2 8 8 4 14 -15 23 -41 19 -35 49
10 49 15 0 23 -6 23 -16z m100 -43 c0 -38 4 -61 13 -64 6 -3 0 -6 -14 -6 -22
-1 -26 3 -22 22 4 20 0 23 -24 22 -23 0 -29 5 -31 28 -4 37 13 57 49 57 29 0
29 -1 29 -59z m52 22 c2 -21 8 -37 13 -36 16 4 18 55 3 64 -9 6 -7 9 10 9 19
0 22 -5 22 -35 0 -19 0 -38 0 -42 0 -12 -53 -13 -66 -2 -7 6 -11 20 -9 31 3
12 0 27 -6 35 -9 10 -7 13 9 13 17 0 21 -7 24 -37z m138 22 c11 -13 14 -13 27
0 17 17 49 20 58 4 10 -16 -3 -23 -18 -11 -17 15 -27 6 -27 -25 0 -16 6 -23
19 -23 11 0 22 6 25 13 3 6 5 3 3 -8 -3 -26 -46 -33 -63 -11 -10 14 -13 15
-24 1 -25 -30 -70 -11 -70 30 0 41 45 60 70 30z m180 -5 c10 -18 8 -20 -20
-20 -20 0 -30 -5 -30 -15 0 -8 9 -15 20 -15 11 0 20 5 20 10 0 6 5 10 10 10 7
0 7 -6 0 -20 -22 -40 -86 -14 -73 30 3 8 6 21 8 28 7 20 53 14 65 -8z m42 -17
c4 -47 23 -45 23 2 0 27 4 35 18 35 14 0 17 -9 17 -46 l0 -45 -37 3 c-36 3
-38 5 -44 46 -4 30 -2 42 7 42 8 0 14 -16 16 -37z m228 2 c0 -26 4 -35 16 -35
13 0 15 8 12 35 -3 24 0 35 9 35 8 0 13 -12 13 -29 0 -16 3 -36 6 -45 5 -12
-2 -15 -33 -13 -36 2 -38 4 -41 40 -2 24 -8 37 -18 37 -8 0 -14 -6 -14 -12 0
-10 -3 -9 -9 1 -5 8 -14 10 -21 6 -9 -6 -5 -12 14 -22 30 -16 32 -46 3 -51
-25 -5 -50 6 -42 18 5 8 11 7 21 -1 8 -6 18 -9 22 -5 4 4 -4 15 -17 25 -37 28
-22 51 34 51 45 0 45 0 45 -35z m134 23 c3 -7 7 -27 10 -45 5 -32 5 -32 -32
-30 -46 3 -56 31 -18 48 14 7 26 16 26 21 0 12 -14 10 -28 -4 -13 -13 -27 -5
-17 11 9 15 55 14 59 -1z m136 -4 c0 -14 -3 -14 -15 -4 -9 7 -19 10 -23 6 -7
-7 19 -31 41 -39 6 -2 8 -11 4 -20 -9 -23 -67 -24 -67 -1 0 13 3 14 15 4 8 -6
19 -9 26 -5 7 5 2 15 -17 30 -31 25 -26 45 12 45 15 0 24 -6 24 -16z m88 4
c19 -19 14 -28 -18 -28 -16 0 -30 -5 -30 -10 0 -18 29 -23 47 -9 14 12 16 12
12 0 -15 -43 -71 -37 -77 8 -6 41 38 67 66 39z m287 -10 c12 -60 12 -62 -24
-65 -47 -4 -58 16 -24 44 15 12 24 26 20 30 -5 4 -12 1 -17 -7 -5 -8 -12 -11
-15 -8 -12 12 6 28 30 28 17 0 26 -7 30 -22z m5489 -6 c3 -5 -1 -9 -9 -9 -8 0
-12 4 -9 9 3 4 7 8 9 8 2 0 6 -4 9 -8z m-584 -42 c0 -5 -4 -10 -10 -10 -5 0
-10 5 -10 10 0 6 5 10 10 10 6 0 10 -4 10 -10z m-4840 -10 c0 -5 -4 -10 -10
-10 -5 0 -10 5 -10 10 0 6 5 10 10 10 6 0 10 -4 10 -10z m3855 1 c3 -5 2 -12
-3 -15 -5 -3 -9 1 -9 9 0 17 3 19 12 6z m1205 -41 c6 -11 9 -20 8 -20 -2 0
-11 9 -21 20 -9 11 -13 20 -7 20 5 0 14 -9 20 -20z m320 5 c-14 -17 -30 -20
-30 -4 0 5 4 8 9 4 5 -3 12 -1 16 5 3 5 9 10 12 10 3 0 0 -7 -7 -15z m-256
-64 c-2 -2 -12 3 -22 12 -10 10 -22 14 -27 10 -4 -5 -5 -2 -1 5 6 9 13 8 31
-5 13 -10 21 -20 19 -22z m110 -13 c-6 -10 -61 -11 -67 0 -3 4 12 7 33 7 21 1
36 -3 34 -7z m-2588 -55 c-2 -16 -1 -21 1 -13 12 38 23 31 17 -10 -3 -25 -1
-63 4 -85 6 -23 10 -31 11 -18 1 25 21 43 21 19 0 -8 6 -27 12 -42 l13 -27 6
24 6 24 11 -27 c11 -26 31 -46 33 -31 1 9 6 40 14 91 3 17 11 32 16 32 6 0 8
-12 4 -29 -7 -33 27 -113 39 -93 7 12 37 5 48 -12 4 -6 8 -21 8 -34 0 -24 -49
-60 -139 -104 l-45 -22 -37 43 c-65 73 -92 208 -60 304 15 44 22 48 17 10z
m2674 -13 c0 -5 -7 -10 -16 -10 -8 0 -12 5 -9 10 3 6 10 10 16 10 5 0 9 -4 9
-10z m-8812 -21 c3 -17 -23 -33 -39 -23 -5 3 -9 14 -9 25 0 15 6 20 22 17 13
-2 24 -10 26 -19z m7100 4 c5 -17 -26 -29 -40 -15 -6 6 -7 15 -3 22 9 14 37 9
43 -7z m692 8 c0 -3 -7 -14 -14 -24 -13 -16 -13 -16 -13 6 0 13 5 24 13 24 8
0 14 -3 14 -6z m-1519 -64 c-10 -9 -11 -8 -5 6 3 10 9 15 12 12 3 -3 0 -11 -7
-18z m679 3 c0 -5 -4 -10 -10 -10 -5 0 -10 5 -10 10 0 6 5 10 10 10 6 0 10 -4
10 -10z m797 -12 c-3 -8 -6 -5 -6 6 -1 11 2 17 5 13 3 -3 4 -12 1 -19z m851
-3 c4 -20 -15 -36 -35 -28 -17 6 -17 40 0 46 19 8 32 2 35 -18z m-935 1 c4
-10 1 -13 -9 -9 -15 6 -19 23 -5 23 5 0 11 -7 14 -14z m525 2 c22 -22 12 -29
-15 -11 l-28 17 19 -22 c19 -22 19 -22 0 -22 -11 0 -25 -5 -32 -12 -9 -9 -15
-8 -27 8 -21 27 -18 42 8 47 43 8 63 7 75 -5z m-587 -32 c-17 -16 -23 -18 -33
-7 -11 10 -9 15 5 26 11 7 26 11 34 8 12 -5 11 -9 -6 -27z m-5350 -3 c-5 -10
-8 -36 -7 -58 1 -30 5 -41 20 -43 17 -4 18 1 14 36 l-6 40 39 0 c38 1 39 0 39
-33 0 -19 5 -37 10 -40 6 -3 10 -1 10 6 0 9 4 9 15 -1 8 -6 19 -9 26 -5 7 5 2
15 -17 30 -31 25 -26 45 12 45 15 0 24 -6 24 -16 0 -14 -3 -14 -15 -4 -9 7
-19 10 -23 6 -7 -7 19 -31 41 -39 6 -2 8 -11 4 -20 -5 -15 -22 -17 -124 -16
-65 0 -112 3 -105 6 7 3 12 25 12 58 0 33 -5 55 -12 58 -7 3 2 6 20 6 28 1 31
-1 23 -16z m4139 -2 c0 -19 -23 -35 -34 -24 -14 15 -5 43 14 43 13 0 20 -7 20
-19z m1275 -7 c13 -5 9 -10 -17 -19 -18 -7 -41 -16 -50 -20 -13 -5 -18 -3 -18
9 0 25 51 43 85 30z m-5145 -29 c10 -12 10 -15 -3 -15 -8 0 -17 5 -19 12 -6
18 -28 0 -28 -23 0 -25 26 -35 47 -18 15 13 15 12 4 -8 -20 -39 -71 -23 -71
22 0 41 45 60 70 30z m80 5 c0 -5 -7 -10 -16 -10 -13 0 -15 -8 -12 -35 4 -31
2 -35 -20 -35 -21 0 -22 2 -12 15 7 9 10 27 6 45 -5 28 -3 30 24 30 17 0 30
-4 30 -10z m78 -12 c3 -14 -3 -18 -27 -18 -23 0 -29 -4 -25 -15 7 -18 44 -20
44 -3 0 6 3 8 6 5 4 -4 1 -13 -6 -22 -32 -39 -85 8 -60 54 14 27 63 26 68 -1z
m48 14 c-2 -4 2 -18 9 -31 l13 -24 6 21 c4 12 4 26 1 32 -3 5 3 10 13 10 19 0
19 -1 -1 -45 -12 -25 -24 -45 -27 -45 -3 0 -16 20 -28 45 -22 45 -22 45 -1 45
11 0 18 -3 15 -8z m144 -12 c10 -18 8 -20 -24 -20 -27 0 -34 -3 -30 -15 7 -18
44 -20 44 -3 0 6 2 9 5 6 12 -12 -9 -38 -31 -38 -32 0 -51 38 -35 69 15 27 57
28 71 1z m70 10 c0 -5 -7 -10 -15 -10 -19 0 -21 -56 -2 -63 6 -3 -4 -6 -23 -6
-24 0 -31 2 -21 8 10 6 12 20 8 45 -5 34 -5 36 24 36 16 0 29 -4 29 -10z m130
-6 c0 -14 -3 -14 -15 -4 -9 7 -19 10 -23 6 -7 -7 19 -31 41 -39 6 -2 8 -11 4
-20 -8 -22 -67 -24 -67 -2 0 13 3 13 20 3 32 -20 37 1 5 26 -32 25 -27 46 11
46 15 0 24 -6 24 -16z m88 4 c19 -19 14 -28 -18 -28 -16 0 -30 -5 -30 -10 0
-18 29 -23 47 -9 14 12 16 12 12 0 -15 -43 -71 -37 -77 8 -6 41 38 67 66 39z
m5046 6 c28 -11 18 -34 -13 -34 -16 0 -36 -3 -44 -6 -17 -6 -31 33 -13 40 17
7 52 7 70 0z m-796 -31 c-2 -10 -10 -18 -18 -18 -8 0 -16 8 -18 18 -2 12 3 17
18 17 15 0 20 -5 18 -17z m829 -5 c-3 -8 -6 -5 -6 6 -1 11 2 17 5 13 3 -3 4
-12 1 -19z m-1772 2 c-3 -5 -12 -10 -18 -10 -7 0 -6 4 3 10 19 12 23 12 15 0z
m1231 -2 c3 -4 -4 -8 -16 -8 -11 0 -39 -9 -60 -20 l-40 -20 0 24 c0 15 7 26
18 29 26 7 93 4 98 -5z m-4701 -8 c-3 -5 -15 -10 -25 -10 -10 0 -22 5 -25 10
-4 6 7 10 25 10 18 0 29 -4 25 -10z m5205 -10 c0 -5 6 -7 13 -4 7 2 22 -5 33
-17 10 -13 13 -19 7 -15 -7 4 -13 3 -13 -3 0 -6 -24 -9 -55 -8 -45 2 -55 5
-55 20 0 10 10 22 23 27 30 12 47 12 47 0z m-391 -78 c-1 -25 -2 -25 -12 8 -6
19 -17 41 -24 48 -7 7 -13 16 -13 20 0 4 12 -6 25 -21 15 -16 25 -40 24 -55z
m-121 46 c18 -18 15 -25 -15 -25 -16 0 -45 -3 -65 -7 -30 -5 -38 -4 -38 8 0
27 96 46 118 24z m543 -49 c16 -26 9 -29 -48 -23 -67 8 -67 8 -59 30 5 13 15
16 52 11 26 -2 50 -11 55 -18z m-570 -6 c16 -10 29 -21 29 -25 0 -4 0 -11 0
-15 0 -5 -3 -8 -7 -9 -5 0 -16 -4 -25 -8 -10 -5 -25 -6 -33 -2 -8 3 -26 1 -40
-4 -21 -8 -25 -7 -25 8 0 40 13 61 39 65 14 2 28 5 29 6 2 0 17 -7 33 -16z
m733 -41 c-9 -38 -14 -40 -14 -6 0 17 -6 36 -12 43 -11 11 -9 11 10 2 18 -9
21 -17 16 -39z m-1888 23 c-11 -8 -25 -15 -30 -15 -6 0 -2 7 8 15 11 8 25 15
30 15 6 0 2 -7 -8 -15z m1755 -18 c-10 -9 -11 -8 -5 6 3 10 9 15 12 12 3 -3 0
-11 -7 -18z m-544 -19 c-3 -8 -6 -5 -6 6 -1 11 2 17 5 13 3 -3 4 -12 1 -19z
m496 5 c18 -9 37 -17 42 -18 6 0 11 -11 12 -25 l2 -25 -8 25 c-7 19 -9 20 -10
6 -1 -15 -6 -17 -33 -11 -18 3 -52 9 -75 12 -44 5 -48 9 -37 37 8 21 66 21
107 -1z m-1688 -14 c-3 -4 -22 -11 -43 -15 -61 -11 -69 -20 -31 -32 34 -12 88
-10 129 3 14 4 20 3 17 -3 -13 -19 -98 -35 -170 -30 -104 7 -109 14 -44 57 47
31 62 36 101 33 25 -2 44 -8 41 -13z m1785 -32 c0 -5 -4 -5 -10 -2 -5 3 -10
14 -10 23 0 15 2 15 10 2 5 -8 10 -19 10 -23z m-646 3 c7 -7 -2 -10 -29 -11
-31 0 -35 -2 -20 -8 15 -6 8 -9 -28 -12 -36 -3 -46 -1 -42 9 3 8 5 17 5 22 0
21 93 21 114 0z m143 -32 c-2 -13 -4 -5 -4 17 -1 22 1 32 4 23 2 -10 2 -28 0
-40z m567 8 c-3 -15 -8 -25 -11 -23 -2 3 -1 17 3 31 3 15 8 25 11 23 2 -3 1
-17 -3 -31z m-179 2 c34 -16 25 -43 -14 -41 -29 1 -31 0 -14 -13 17 -13 17
-13 0 -14 -32 0 -7 -20 25 -20 35 0 68 24 68 50 0 10 7 20 15 24 11 4 15 -1
15 -17 0 -18 -2 -19 -11 -7 -8 12 -9 9 -5 -12 4 -16 1 -28 -7 -31 -9 -3 -9 -9
1 -27 12 -20 12 -22 -2 -17 -11 4 -13 1 -9 -11 3 -9 9 -21 13 -27 12 -17 19
-55 9 -49 -5 3 -9 11 -9 19 0 8 -4 17 -10 20 -5 3 -7 0 -4 -8 3 -8 -2 -21 -10
-29 -11 -12 -12 -18 -3 -27 8 -8 6 -17 -11 -33 l-22 -22 -1 34 c-1 19 0 40 1
45 8 39 2 78 -16 96 l-21 20 -1 -31 c0 -17 -6 -37 -12 -45 -6 -7 -10 -17 -9
-21 1 -5 -2 -19 -6 -31 -6 -17 -10 -19 -20 -10 -9 8 -10 19 -4 35 9 24 11 127
2 105 -2 -7 -11 -13 -19 -13 -8 0 -14 -7 -14 -16 0 -8 -4 -12 -10 -9 -6 4 -10
-5 -10 -20 0 -15 -4 -24 -10 -20 -5 3 -10 0 -10 -7 0 -9 -3 -9 -10 2 -8 12
-10 10 -10 -8 0 -15 -4 -21 -12 -16 -8 5 -9 2 -5 -10 4 -11 3 -15 -4 -10 -8 4
-9 -1 -4 -17 7 -22 7 -22 -9 -6 -10 9 -24 17 -32 17 -22 0 -18 9 43 79 74 86
81 92 111 84 17 -4 23 -2 18 6 -4 6 -18 11 -32 11 -27 0 -29 6 -14 45 9 25 14
27 46 20 20 -3 46 -11 59 -17z m-935 -43 c0 -8 -4 -15 -9 -15 -13 0 -22 16
-14 24 11 11 23 6 23 -9z m502 -13 c11 -13 11 -14 -2 -7 -13 8 -13 7 0 -11 8
-10 19 -22 24 -26 6 -4 4 -13 -4 -23 -12 -15 -15 -14 -27 9 -17 32 -35 33 -57
4 -16 -22 -16 -22 -6 -1 8 18 7 23 -9 28 -21 6 -22 32 -3 44 19 11 70 1 84
-17z m-215 -11 c-1 -16 -6 -27 -11 -23 -5 3 -7 -2 -3 -11 3 -9 1 -17 -5 -19
-11 -4 -19 -88 -8 -88 9 0 6 -38 -3 -46 -4 -4 -2 -13 4 -20 7 -9 5 -15 -8 -22
-17 -9 -18 -3 -20 80 -3 87 6 123 39 166 15 18 17 15 15 -17z m73 14 c14 -8
19 -14 11 -15 -11 0 -11 -3 0 -17 12 -15 12 -16 -5 -10 -16 6 -17 5 -6 -8 7
-8 9 -15 5 -15 -4 0 -2 -7 5 -15 10 -12 10 -15 -3 -15 -10 0 -14 -8 -12 -25 1
-14 -3 -25 -9 -25 -6 0 -3 -5 8 -11 15 -9 16 -13 5 -20 -9 -6 -10 -12 -4 -16
12 -9 12 -19 -2 -53 l-11 -25 -5 25 c-15 67 -25 212 -18 255 2 8 15 5 41 -10z
m711 -9 c5 3 9 -2 9 -10 0 -9 -4 -16 -10 -16 -5 0 -10 2 -10 4 0 2 -2 10 -3
18 -2 7 -2 10 0 5 3 -4 9 -5 14 -1z m-530 -93 c1 -10 1 -21 0 -25 0 -5 4 -8
11 -8 6 0 8 -3 4 -7 -3 -4 4 -13 16 -20 13 -7 17 -12 10 -13 -22 0 -73 57 -66
74 8 21 24 20 25 -1z m-9626 -23 c0 -27 -22 -39 -31 -16 -8 22 3 49 19 43 6
-2 12 -14 12 -27z m9502 -2 c-3 -7 -5 -2 -5 12 0 14 2 19 5 13 2 -7 2 -19 0
-25z m640 10 c-3 -8 -6 -5 -6 6 -1 11 2 17 5 13 3 -3 4 -12 1 -19z m-2352 -73
c0 -28 -29 -25 -33 3 -3 19 0 23 15 20 10 -2 18 -12 18 -23z m1740 -40 c4 -21
3 -25 -3 -15 -15 24 -26 67 -14 55 6 -5 13 -23 17 -40z m275 14 c0 -10 -4 -19
-8 -19 -4 0 -9 -15 -10 -32 l-2 -33 20 35 c27 49 25 25 -4 -33 -17 -37 -25
-45 -30 -32 -10 26 -7 104 5 126 12 23 29 16 29 -12z m163 5 c8 -8 -3 -35 -13
-29 -4 3 -8 -11 -8 -30 0 -44 12 -45 25 -2 8 26 9 21 5 -33 -2 -36 -6 -66 -7
-68 -2 -2 -12 1 -23 7 -40 21 -60 145 -24 154 27 7 38 7 45 1z m176 -34 c0
-10 -3 -8 -9 5 -12 27 -12 43 0 25 5 -8 9 -22 9 -30z m-661 3 c-2 -12 13 -45
34 -75 25 -36 7 -36 -33 0 -26 23 -31 33 -25 55 3 15 11 27 16 27 6 0 9 -3 8
-7z m600 -5 c-5 -13 33 -54 45 -50 5 1 6 -2 2 -8 -3 -5 -1 -10 6 -10 7 0 9 -3
6 -7 -4 -3 1 -12 11 -19 29 -22 -8 -17 -46 6 -41 25 -60 63 -42 85 15 18 23
20 18 3z m-714 -34 c9 -9 16 -32 16 -52 l-1 -37 -14 30 -15 30 3 -33 c4 -40
-6 -30 -23 20 -17 54 1 75 34 42z m-10450 -111 c6 -14 -8 -33 -24 -33 -3 0
-11 4 -18 8 -17 12 -4 42 18 42 10 0 21 -8 24 -17z m10481 -3 c3 -5 2 -10 -4
-10 -5 0 -13 5 -16 10 -3 6 -2 10 4 10 5 0 13 -4 16 -10z m-2627 -94 c-4 -25
-36 -34 -44 -12 -8 21 13 46 32 39 8 -3 14 -15 12 -27z m2550 -104 c2 -7 -3
-12 -12 -12 -9 0 -16 7 -16 16 0 17 22 14 28 -4z"/>
<path d="M6090 5765 c0 -14 5 -25 10 -25 6 0 10 11 10 25 0 14 -4 25 -10 25
-5 0 -10 -11 -10 -25z"/>
<path d="M6090 5705 c0 -17 5 -25 13 -22 6 2 12 12 12 22 0 10 -6 20 -12 23
-8 2 -13 -6 -13 -23z"/>
<path d="M6760 5735 c0 -42 3 -55 15 -55 12 0 15 13 15 55 0 42 -3 55 -15 55
-12 0 -15 -13 -15 -55z"/>
<path d="M6980 5734 c0 -40 3 -55 13 -52 21 8 32 54 19 83 -19 41 -32 29 -32
-31z"/>
<path d="M7119 5766 c-14 -30 -4 -75 17 -83 19 -7 32 5 37 37 10 59 -32 95
-54 46z"/>
<path d="M7310 5725 c0 -8 5 -15 10 -15 6 0 10 7 10 15 0 8 -4 15 -10 15 -5 0
-10 -7 -10 -15z"/>
<path d="M7460 5770 c-15 -29 -9 -71 13 -84 24 -15 38 8 35 59 -3 46 -29 60
-48 25z"/>
<path d="M7070 4535 c0 -20 4 -26 18 -23 9 2 17 12 17 23 0 11 -8 21 -17 23
-14 3 -18 -3 -18 -23z"/>
<path d="M6054 4507 c-9 -24 0 -52 16 -52 21 0 24 39 6 55 -13 10 -17 9 -22
-3z"/>
<path d="M6161 4511 c-15 -10 -11 -53 5 -58 14 -5 26 36 16 53 -4 8 -13 10
-21 5z"/>
<path d="M6245 4510 c-3 -5 3 -10 15 -10 12 0 18 5 15 10 -3 6 -10 10 -15 10
-5 0 -12 -4 -15 -10z"/>
<path d="M6480 4510 c0 -5 7 -10 16 -10 8 0 12 5 9 10 -3 6 -10 10 -16 10 -5
0 -9 -4 -9 -10z"/>
<path d="M6715 4510 c-3 -5 1 -10 10 -10 9 0 13 5 10 10 -3 6 -8 10 -10 10 -2
0 -7 -4 -10 -10z"/>
<path d="M7195 4510 c-3 -5 1 -10 9 -10 9 0 16 5 16 10 0 6 -4 10 -9 10 -6 0
-13 -4 -16 -10z"/>
<path d="M7285 4510 c-7 -12 2 -30 16 -30 5 0 9 9 9 20 0 21 -15 27 -25 10z"/>
<path d="M7275 4431 c-7 -12 31 -25 45 -16 5 3 10 10 10 16 0 12 -47 12 -55 0z"/>
<path d="M7636 4504 c-7 -17 10 -54 24 -54 15 0 22 40 10 55 -16 19 -26 19
-34 -1z"/>
<path d="M5630 3745 c0 -42 3 -55 15 -55 19 0 55 36 55 55 0 19 -36 55 -55 55
-12 0 -15 -13 -15 -55z"/>
<path d="M6025 3750 c-3 -5 1 -10 9 -10 9 0 16 5 16 10 0 6 -4 10 -9 10 -6 0
-13 -4 -16 -10z"/>
<path d="M5822 3746 c1 -10 8 -17 13 -17 15 1 12 24 -3 29 -9 3 -13 -2 -10
-12z"/>
<path d="M5810 3671 c0 -13 27 -21 45 -15 25 10 17 24 -15 24 -16 0 -30 -4
-30 -9z"/>
<path d="M6245 3750 c-3 -5 1 -10 9 -10 9 0 16 5 16 10 0 6 -4 10 -9 10 -6 0
-13 -4 -16 -10z"/>
<path d="M6485 3750 c-3 -5 1 -10 9 -10 9 0 16 5 16 10 0 6 -4 10 -9 10 -6 0
-13 -4 -16 -10z"/>
<path d="M6653 3744 c-13 -27 -10 -49 7 -49 18 0 26 43 12 57 -7 7 -13 4 -19
-8z"/>
<path d="M6706 3753 c-13 -13 -6 -63 9 -63 10 0 15 10 15 29 0 30 -12 46 -24
34z"/>
<path d="M6792 3709 c2 -6 8 -10 13 -10 5 0 11 4 13 10 2 6 -4 11 -13 11 -9 0
-15 -5 -13 -11z"/>
<path d="M10560 3392 c-30 -24 -18 -42 26 -42 41 0 57 26 29 46 -24 18 -28 18
-55 -4z"/>
<path d="M10932 3294 c-27 -16 -53 -24 -68 -21 -37 7 -29 -10 11 -23 19 -6 38
-17 42 -25 10 -17 63 -22 88 -7 47 27 48 28 34 53 -13 26 -38 48 -54 49 -5 0
-29 -12 -53 -26z m75 -17 c-7 -21 -35 -31 -58 -20 l-24 10 30 15 c30 16 58 13
52 -5z"/>
<path d="M12144 3179 c-23 -25 -9 -54 27 -54 28 0 39 36 19 61 -16 19 -23 18
-46 -7z m39 -14 c8 -18 -11 -31 -25 -17 -11 11 -3 32 12 32 4 0 10 -7 13 -15z"/>
<path d="M12168 3079 c-23 -13 -25 -74 -3 -83 40 -15 67 30 41 69 -9 14 -17
25 -19 25 -1 0 -10 -5 -19 -11z m29 -35 c8 -21 -13 -42 -28 -27 -13 13 -5 43
11 43 6 0 13 -7 17 -16z"/>
<path d="M6735 3040 c-3 -5 3 -10 15 -10 12 0 18 5 15 10 -3 6 -10 10 -15 10
-5 0 -12 -4 -15 -10z"/>
<path d="M6836 3043 c-13 -13 -6 -63 9 -63 10 0 15 10 15 29 0 30 -12 46 -24
34z"/>
<path d="M6930 3010 c0 -20 5 -30 15 -30 10 0 15 10 15 30 0 20 -5 30 -15 30
-10 0 -15 -10 -15 -30z"/>
<path d="M7025 3001 c-6 -11 9 -23 19 -14 9 9 7 23 -3 23 -6 0 -12 -4 -16 -9z"/>
<path d="M11305 3055 c-30 -29 -31 -45 -4 -79 25 -31 61 -34 89 -6 33 33 26
76 -17 99 -31 16 -41 14 -68 -14z m62 -12 c0 -22 -16 -45 -28 -38 -4 3 -12 -2
-17 -11 -9 -16 -10 -15 -16 4 -4 12 -2 30 4 42 14 25 57 27 57 3z"/>
<path d="M5757 3043 c-11 -10 -8 -51 4 -59 18 -10 32 13 25 40 -6 26 -16 32
-29 19z"/>
<path d="M5906 3034 c-6 -17 9 -54 23 -54 15 0 21 31 11 51 -13 23 -26 24 -34
3z"/>
<path d="M6004 3035 c-9 -21 3 -45 21 -45 10 0 15 10 15 30 0 32 -26 43 -36
15z"/>
<path d="M6205 3040 c-3 -5 1 -10 9 -10 9 0 16 5 16 10 0 6 -4 10 -9 10 -6 0
-13 -4 -16 -10z"/>
<path d="M6520 2994 c0 -8 5 -12 10 -9 6 3 10 10 10 16 0 5 -4 9 -10 9 -5 0
-10 -7 -10 -16z"/>
<path d="M12312 2940 c0 -14 2 -19 5 -12 2 6 2 18 0 25 -3 6 -5 1 -5 -13z"/>
<path d="M10875 2766 c-11 -12 -17 -17 -12 -12 17 23 5 29 -14 7 -11 -13 -22
-21 -26 -17 -4 3 -21 -8 -40 -25 -18 -18 -40 -33 -50 -34 -26 -3 -70 -22 -77
-33 -9 -15 31 -2 44 13 6 7 20 11 31 8 30 -8 100 16 131 46 15 13 26 27 23 29
-3 3 0 11 7 19 18 23 4 22 -17 -1z"/>
<path d="M11136 2695 c-11 -8 -15 -15 -9 -15 6 0 16 7 23 15 16 19 11 19 -14
0z"/>
<path d="M11608 2620 c-6 -37 5 -60 28 -60 16 0 19 16 4 25 -5 3 -13 20 -18
38 l-9 32 -5 -35z"/>
<path d="M6734 2456 c-8 -22 3 -49 19 -43 6 2 12 14 12 27 0 27 -22 39 -31 16z"/>
<path d="M7006 2455 c-7 -20 3 -45 19 -45 16 0 23 19 17 43 -5 21 -28 22 -36
2z"/>
<path d="M12695 2120 c-3 -5 -2 -10 4 -10 5 0 13 5 16 10 3 6 2 10 -4 10 -5 0
-13 -4 -16 -10z"/>
<path d="M12325 1760 c3 -5 8 -10 11 -10 2 0 4 5 4 10 0 6 -5 10 -11 10 -5 0
-7 -4 -4 -10z"/>
<path d="M6510 2460 c0 -5 7 -10 15 -10 8 0 15 5 15 10 0 6 -7 10 -15 10 -8 0
-15 -4 -15 -10z"/>
<path d="M6880 2460 c0 -5 7 -10 15 -10 8 0 15 5 15 10 0 6 -7 10 -15 10 -8 0
-15 -4 -15 -10z"/>
<path d="M7100 2460 c0 -5 7 -10 15 -10 8 0 15 5 15 10 0 6 -7 10 -15 10 -8 0
-15 -4 -15 -10z"/>
<path d="M10204 2320 c2 -16 20 -14 24 2 3 10 2 10 -6 -1 -7 -9 -11 -10 -15
-2 -4 7 -5 8 -3 1z"/>
<path d="M10924 2386 c-10 -26 4 -48 28 -44 17 2 23 10 23 28 0 18 -6 26 -23
28 -13 2 -25 -3 -28 -12z m36 -16 c0 -5 -4 -10 -10 -10 -5 0 -10 5 -10 10 0 6
5 10 10 10 6 0 10 -4 10 -10z"/>
<path d="M10830 2375 c-10 -12 -10 -18 0 -30 17 -20 37 -19 49 3 18 34 -24 57
-49 27z m40 -15 c0 -5 -7 -10 -15 -10 -8 0 -15 5 -15 10 0 6 7 10 15 10 8 0
15 -4 15 -10z"/>
<path d="M11259 2353 c-13 -16 -12 -17 4 -4 16 13 21 21 13 21 -2 0 -10 -8
-17 -17z"/>
<path d="M11260 2249 c0 -5 5 -7 10 -4 6 3 10 8 10 11 0 2 -4 4 -10 4 -5 0
-10 -5 -10 -11z"/>
<path d="M11525 1969 c-4 -6 -5 -12 -2 -15 2 -3 7 2 10 11 7 17 1 20 -8 4z"/>
<path d="M11548 1932 c-18 -3 -26 -32 -9 -32 10 0 36 29 30 33 -2 2 -12 2 -21
-1z"/>
<path d="M11693 2089 c24 -14 50 -67 44 -90 -3 -11 -1 -16 5 -13 6 4 8 -2 3
-16 -6 -18 -3 -21 12 -18 13 2 19 14 21 39 3 31 -3 41 -38 72 -22 21 -46 37
-53 37 -6 0 -4 -5 6 -11z"/>
<path d="M11911 1910 c-43 -50 -43 -51 -15 -46 37 7 57 29 60 66 1 16 1 30 0
30 -2 0 -22 -23 -45 -50z"/>
<path d="M10341 2091 c-9 -6 -4 -10 18 -13 20 -3 30 -1 28 6 -5 14 -29 18 -46
7z"/>
<path d="M6517 1898 c-6 -17 10 -58 22 -58 15 0 22 30 11 51 -12 22 -26 25
-33 7z"/>
<path d="M6620 1870 c0 -20 5 -30 15 -30 10 0 15 10 15 30 0 20 -5 30 -15 30
-10 0 -15 -10 -15 -30z"/>
<path d="M6715 1900 c-3 -5 1 -10 9 -10 9 0 16 5 16 10 0 6 -4 10 -9 10 -6 0
-13 -4 -16 -10z"/>
<path d="M6710 1870 c0 -19 31 -23 48 -6 15 15 14 16 -16 16 -18 0 -32 -5 -32
-10z"/>
<path d="M6945 1900 c-3 -5 3 -10 15 -10 12 0 18 5 15 10 -3 6 -10 10 -15 10
-5 0 -12 -4 -15 -10z"/>
<path d="M7180 1900 c0 -5 7 -10 16 -10 8 0 12 5 9 10 -3 6 -10 10 -16 10 -5
0 -9 -4 -9 -10z"/>
<path d="M12282 1130 c0 -14 2 -19 5 -12 2 6 2 18 0 25 -3 6 -5 1 -5 -13z"/>
<path d="M11375 1544 c-27 -13 -69 -26 -92 -30 -45 -7 -59 -24 -20 -24 33 0
67 -11 62 -20 -6 -10 52 4 85 20 14 6 36 25 49 42 l24 29 -34 -20 c-46 -28
-58 -26 -29 4 29 31 20 30 -45 -1z"/>
<path d="M11525 1500 c-37 -24 -52 -26 -34 -3 13 14 10 14 -20 -1 -19 -10 -61
-29 -95 -42 -58 -22 -59 -23 -26 -24 29 -1 31 -3 15 -10 -17 -7 -16 -9 10 -9
41 -1 123 39 159 78 34 36 32 38 -9 11z"/>
<path d="M11570 1466 c-14 -8 -28 -12 -31 -10 -4 2 -40 -12 -80 -30 l-74 -34
37 -7 c51 -10 97 8 143 55 42 43 43 46 5 26z"/>
<path d="M12846 1531 c-4 -5 -3 -17 0 -26 9 -24 59 -16 59 9 0 11 -5 21 -11
23 -7 2 -11 -2 -10 -9 0 -7 -3 -13 -9 -13 -5 0 -9 6 -9 13 2 14 -12 16 -20 3z"/>
<path d="M12738 1450 c27 -25 28 -41 3 -71 -16 -20 -23 -22 -38 -13 -25 15
-28 52 -7 75 20 23 2 26 -20 3 -18 -17 -22 -79 -6 -89 6 -4 8 -10 6 -14 -3 -4
11 -5 30 -3 37 5 74 41 74 74 0 32 -19 58 -42 58 l-22 0 22 -20z"/>
<path d="M12915 1461 c-3 -6 -1 -11 5 -11 6 0 8 -4 5 -10 -3 -6 1 -7 10 -4 9
4 14 11 12 17 -5 15 -24 20 -32 8z"/>
<path d="M12837 1453 c-13 -12 -7 -23 11 -22 10 0 12 3 4 6 -6 2 -10 9 -6 14
6 10 0 12 -9 2z"/>
<path d="M12810 1350 c0 -5 5 -10 10 -10 6 0 10 5 10 10 0 6 -4 10 -10 10 -5
0 -10 -4 -10 -10z"/>
<path d="M12860 1326 c0 -2 7 -7 16 -10 8 -3 12 -2 9 4 -6 10 -25 14 -25 6z"/>
<path d="M7302 1347 c-13 -16 -4 -59 12 -54 14 5 20 47 8 59 -5 5 -13 4 -20
-5z"/>
<path d="M7407 1354 c-11 -11 -8 -64 3 -64 6 0 13 7 17 16 7 18 -9 58 -20 48z"/>
<path d="M6197 1354 c-4 -4 -7 -18 -7 -31 0 -17 6 -23 21 -23 16 0 20 5 17 27
-3 26 -18 39 -31 27z"/>
<path d="M6395 1350 c-3 -5 1 -10 10 -10 9 0 13 5 10 10 -3 6 -8 10 -10 10 -2
0 -7 -4 -10 -10z"/>
<path d="M6390 1320 c0 -19 31 -23 48 -6 15 15 14 16 -16 16 -18 0 -32 -5 -32
-10z"/>
<path d="M6570 1350 c0 -5 7 -10 16 -10 8 0 12 5 9 10 -3 6 -10 10 -16 10 -5
0 -9 -4 -9 -10z"/>
<path d="M6991 1316 c-8 -10 -9 -16 -1 -21 5 -3 13 1 16 10 9 22 -1 29 -15 11z"/>
<path d="M7205 1350 c-3 -5 1 -10 9 -10 9 0 16 5 16 10 0 6 -4 10 -9 10 -6 0
-13 -4 -16 -10z"/>
<path d="M7490 1304 c0 -8 5 -12 10 -9 6 3 10 10 10 16 0 5 -4 9 -10 9 -5 0
-10 -7 -10 -16z"/>
<path d="M6417 953 c-14 -13 -7 -63 8 -63 10 0 15 11 15 35 0 33 -8 43 -23 28z"/>
<path d="M6735 950 c-3 -5 3 -10 15 -10 12 0 18 5 15 10 -3 6 -10 10 -15 10
-5 0 -12 -4 -15 -10z"/>
<path d="M6925 950 c-3 -5 3 -10 15 -10 12 0 18 5 15 10 -3 6 -10 10 -15 10
-5 0 -12 -4 -15 -10z"/>
<path d="M7225 950 c-3 -5 1 -10 9 -10 9 0 16 5 16 10 0 6 -4 10 -9 10 -6 0
-13 -4 -16 -10z"/>
</g>
</svg>
