<svg width="516" height="387" viewBox="0 0 516 387" fill="none" xmlns="http://www.w3.org/2000/svg">
<g filter="url(#filter0_f_1_24)">
<path d="M287.141 48.7422C291.59 39.7526 304.41 39.7526 308.859 48.7422L446.728 327.339C450.713 335.391 444.854 344.828 435.87 344.828H160.13C151.146 344.828 145.287 335.391 149.272 327.339L287.141 48.7422Z" stroke="url(#paint0_linear_1_24)" stroke-width="16"/>
</g>
<g opacity="0.25" filter="url(#filter1_f_1_24)">
<path d="M299.141 48.7422C303.59 39.7526 316.41 39.7526 320.859 48.7422L458.728 327.339C462.713 335.391 456.854 344.828 447.87 344.828H172.13C163.146 344.828 157.287 335.391 161.272 327.339L299.141 48.7422Z" stroke="url(#paint1_linear_1_24)" stroke-width="16"/>
</g>
<g opacity="0.25" filter="url(#filter2_f_1_24)">
<path d="M275.141 48.7422C279.59 39.7526 292.41 39.7526 296.859 48.7422L434.728 327.339C438.713 335.391 432.854 344.828 423.87 344.828H148.13C139.146 344.828 133.287 335.391 137.272 327.339L275.141 48.7422Z" stroke="url(#paint2_linear_1_24)" stroke-width="16"/>
</g>
<path d="M287.141 48.7422C291.59 39.7526 304.41 39.7526 308.859 48.7422L446.728 327.339C450.713 335.391 444.854 344.828 435.87 344.828H160.13C151.146 344.828 145.287 335.391 149.272 327.339L287.141 48.7422Z" stroke="url(#paint3_linear_1_24)" stroke-width="16"/>
<path d="M269.966 269.755C269.982 269.885 270.01 270.014 270.029 270.144C269.507 270.461 268.822 270.876 268.002 271.371C268.658 270.835 269.317 270.303 269.966 269.755ZM410.233 262.483C411.408 260.561 412.748 258.806 414.16 257.124C413.801 257.133 413.471 257.06 413.255 256.867C405.695 250.119 398.831 242.601 391.43 235.679C383.336 228.11 374.523 219.495 364.176 215.075C361.215 213.81 358.428 213.305 355.803 213.895C353.405 215.414 350.545 217.743 347.679 219.974C346.283 221.598 344.897 223.233 343.255 224.585C338.528 228.479 334.506 226.337 331.313 222.732C328.198 229.496 319.629 228.868 312.838 227.948C312.157 228.234 311.316 228.224 311.024 227.689C309.398 224.71 307.505 222.293 305.275 220.405C304.897 220.099 304.511 219.796 304.119 219.495C301.14 217.33 297.589 216.02 293.286 215.557C292.39 215.46 291.476 215.386 290.555 215.321C290.042 215.53 289.472 215.69 289.226 215.666C286.149 215.366 283.292 215.503 280.599 215.973C278.971 216.348 277.116 216.829 275.168 217.431C267.653 220.169 261.372 225.463 255.007 230.873C254.888 231.014 254.738 231.141 254.568 231.246C252.476 233.024 250.371 234.809 248.205 236.512C240.689 242.424 232.312 246.167 223.461 249.548C224.443 251.015 225.381 252.51 226.264 254.033C226.601 254.542 226.924 255.066 227.223 255.614C227.28 255.718 227.311 255.819 227.329 255.919C232.704 265.858 235.57 276.866 233.039 288.259C233.208 288.223 233.378 288.192 233.548 288.153C246.916 285.048 259.576 276.124 269.83 267.215C269.857 264.906 270.314 262.567 271.295 260.235C271.626 259.448 274.418 259.152 274.162 259.76C270.08 269.466 275.392 281.315 284.169 286.641C291.804 291.274 299.979 295.034 307.098 300.591C313.01 305.207 319.673 310.689 323.603 317.218C324.352 318.463 324.104 319.313 323.416 319.739C325.67 324.462 333.104 325.513 337.744 326.005C344.767 326.75 352.068 326.743 359.098 326.109C378.223 324.383 395.037 317.135 410.099 305.484C399.911 299.212 390.657 291.17 381.748 283.283C373.699 276.156 365.319 268.908 358.41 260.633C357.472 259.509 360.228 258.362 361.064 259.363C367.365 266.908 374.935 273.571 382.256 280.089C389.931 286.921 397.783 293.737 406.183 299.706C399.962 288.572 404.697 274.027 409.958 262.804C410.011 262.684 410.109 262.578 410.233 262.483Z" fill="#7100CA"/>
<path d="M252.63 158.244C250.806 158.738 249.533 160.167 249.044 161.975C248.715 163.188 245.755 163.552 246.114 162.222C246.921 159.245 249.164 157.16 252.124 156.357C252.663 156.211 253.642 156.226 253.826 156.912C254.011 157.601 253.169 158.098 252.63 158.244ZM249.053 169.206C249.052 167.603 246.105 167.975 246.106 169.385C246.107 170.93 246.257 172.405 246.73 173.882C247.185 175.302 250.079 174.511 249.628 173.106C249.213 171.81 249.054 170.559 249.053 169.206ZM300.488 195.654C302.253 198.878 302.666 203.289 298.32 204.521C294.444 205.62 290.631 203.315 288.834 199.913C288.27 198.843 289.979 197.955 290.96 198.243C293.412 197.822 296.049 197.647 297.952 195.878C298.459 195.408 299.998 194.76 300.488 195.654ZM298.382 198.131C296.53 199.175 294.505 199.599 292.346 199.999C293.557 201.618 295.364 203.02 297.417 202.7C299.525 202.371 299.047 199.865 298.382 198.131ZM277.809 196.523C274.978 195.875 275.061 193.171 275.435 190.771C275.661 189.328 272.703 189.726 272.503 191.003C271.996 194.246 272.447 197.603 276.127 198.446C276.849 198.611 277.663 198.484 278.177 197.897C278.584 197.432 278.483 196.677 277.809 196.523ZM478.076 261.141C468.176 264.697 456.43 265.546 445.365 263.572C443.547 270.143 442.218 276.833 440.836 283.549C439.484 290.125 438.164 297.078 434.465 302.803C429.279 310.83 420.232 311.403 412.638 307.028C412.212 306.783 411.799 306.512 411.376 306.26C396.148 317.725 378.725 325.35 359.544 327.081C351.587 327.799 343.309 328.086 335.356 327.105C329.973 326.441 320.754 325.2 319.901 318.423C319.872 318.189 320.153 317.97 320.549 317.799C320.08 317.079 319.582 316.38 319.038 315.713C316.862 313.045 314.506 310.514 311.996 308.155C308.836 305.184 305.54 302.316 301.971 299.84C298.509 297.438 294.569 295.719 291.217 293.193C285.535 288.91 279.052 287.331 274.712 281.214C272.284 277.791 270.586 274.036 270.029 270.146C270.01 270.016 269.982 269.887 269.966 269.757C269.317 270.305 268.657 270.837 268.001 271.373C264.474 274.255 260.835 276.956 256.859 279.287C249.44 283.639 241.274 288.627 232.672 290.085C218.734 292.448 205.083 286.2 194.041 278.157C190.195 275.357 186.52 272.31 182.989 269.097C172.985 275.116 161.818 279.266 150.354 282.246C136.536 285.838 122.605 287.862 108.385 286.215C94.1626 284.568 79.9496 280.71 67.1866 274.147C53.2846 266.999 41.0116 256.637 32.7696 243.335C30.3736 243.16 28.0616 241.474 28.2296 238.844C28.2866 237.959 28.5946 237.194 29.0566 236.55C20.2086 218.33 17.5856 196.811 20.8566 176.892C28.3406 131.306 63.9906 99.0324 105.211 82.1834C105.851 81.9214 108.616 81.7604 106.857 82.4794C64.9886 99.5924 28.0026 133.92 23.0996 180.99C21.2226 199.012 23.4866 218.304 31.4316 234.794C31.9816 234.599 32.5696 234.481 33.1736 234.461C33.2416 234.459 33.3006 234.465 33.3636 234.468C33.7226 234.175 34.2136 233.992 34.7176 234.085C37.1206 234.528 39.4726 236.436 38.7486 239.161C38.3126 240.802 37.2416 242.045 35.8346 242.736C44.5036 256.406 57.0676 267.065 71.6986 274.067C84.7646 280.32 99.0696 284.171 113.506 285.418C132.395 287.05 152.048 282.383 169.321 274.954C173.849 273.006 178.05 270.734 181.986 268.194C175.096 261.803 168.822 254.715 163.234 247.217C162.839 246.688 161.441 244.997 159.942 242.943C159.791 243.253 159.675 243.573 159.662 243.877C159.62 244.814 156.738 245.218 156.764 244.653C156.809 243.656 157.414 242.642 158.089 241.935C158.295 241.718 158.58 241.565 158.885 241.451C156.964 238.652 155.233 235.561 155.579 233.845C155.187 233.97 154.82 234.048 154.618 234.017C145.996 232.684 135.914 228.792 134.067 219.283C130.921 219.681 127.715 219.75 124.499 219.439C115.384 218.558 105.056 215.21 98.9306 207.989C92.8576 200.829 90.6926 190.8 91.4636 181.562C93.1746 161.084 111.033 145.548 131.197 144.524C133.142 144.425 131.058 146.036 130.049 146.087C107.941 147.209 91.9426 167.843 94.6206 189.367C95.5896 197.15 98.3456 204.844 104.719 209.843C111.516 215.174 120.582 218.098 129.264 218.061C127.255 217.139 125.618 215.489 124.802 212.95C123.071 207.567 126.138 203.004 131.117 201.35C131.69 200.403 132.56 199.576 133.779 198.925C133.05 197.887 132.426 196.826 131.952 195.752C131.193 195.88 130.43 195.95 129.664 195.943C116.704 195.839 111.908 181.34 120.466 172.403C121.145 171.694 123.984 171.669 122.798 172.908C116.625 179.354 117.797 192.315 128.07 194.04C129.181 194.227 130.279 194.229 131.347 194.088C130.875 192.42 130.81 190.73 131.336 189.049C132.728 184.609 137.274 186.737 140.206 188.806C144.104 183.974 145.28 176.921 140.626 172.081C139.841 171.265 142.595 170.188 143.314 170.936C148.841 176.683 146.835 184.694 141.853 190.087C147.659 195.022 153.004 200.536 158.583 205.753C164.881 199.58 169.253 191.486 170.361 182.4C171.51 172.979 170.154 161.686 162.983 154.749C155.895 147.891 146.266 145.596 136.645 145.485C134.688 145.463 136.759 143.91 137.793 143.922C141.378 143.963 145.018 144.19 148.526 144.969C157.845 147.04 167.048 152.026 170.85 161.302C174.917 171.228 174.609 183.395 170.049 193.123C167.582 198.387 164.109 203.076 159.931 206.995C160.402 207.428 160.87 207.864 161.346 208.29C168.017 214.277 174.748 220.203 181.602 225.981C189.197 231.712 197.941 236.263 206.401 240.171C207.177 240.53 207.961 240.892 208.745 241.256C210.92 237.996 212.965 234.587 214.89 231.032C220.995 219.754 226.934 206.112 228.332 192.551C227.952 192.702 227.535 192.784 227.186 192.784C226.987 192.784 226.788 192.784 226.587 192.784C226.234 192.784 225.406 192.646 225.853 192.121C226.278 191.621 227.148 191.38 227.779 191.38C227.978 191.38 228.178 191.38 228.378 191.38C228.398 191.38 228.423 191.382 228.446 191.383C229.022 184.498 228.387 177.654 225.978 171.167C224.694 172.058 223.129 172.574 221.416 172.598C217.822 172.649 214.162 170.128 214.411 166.221C214.642 162.574 217.647 160.254 221.168 160.132C221.385 160.124 221.565 160.149 221.725 160.192C222.078 159.754 222.701 159.429 223.342 159.547C226.803 160.185 230.043 162.927 229.013 166.81C228.823 167.529 228.526 168.176 228.174 168.778C228.231 168.811 228.277 168.85 228.299 168.904C231.947 177.643 232.061 187.385 230.332 196.597C227.319 212.654 220.242 228.521 210.745 242.202C214.54 244.026 218.267 246.051 221.433 248.707C221.908 248.554 222.432 248.546 222.801 248.751C229.287 246.296 235.808 243.703 241.527 239.721C245.159 237.192 248.385 234.218 251.65 231.283C251.398 231.125 251.098 230.926 250.761 230.685C242.215 227.315 239.665 217.319 240.152 208.477C240.523 201.755 242.252 191.074 248.175 186.176C245.381 186.071 242.855 184.846 240.833 181.268C237.954 176.173 237.577 165.983 239.524 160.464C241.952 153.583 249.292 149.811 256.233 149.476C256.37 149.47 256.491 149.473 256.601 149.482C256.719 149.476 256.83 149.48 256.926 149.504C257.533 149.658 258.144 149.781 258.752 149.922C259.982 138.166 266.996 130.172 278.536 126.559C292.186 122.286 308.644 121.476 321.917 127.549C331.886 132.111 340.012 140.027 344.506 150.077C347.416 156.584 350.052 165.321 347.411 172.362C347.353 172.517 347.202 172.655 347 172.773C348.662 174.986 347.648 178.486 346.738 180.948C354.392 185.075 363.765 185.797 370.785 191.133C380.117 198.226 380.646 210.26 379.662 221.053C379.643 221.255 379.555 221.433 379.428 221.589C392.584 231.476 403.445 244.461 415.629 255.389C416.82 254.033 418.029 252.695 419.211 251.33C406.133 238.644 403.721 216.168 411.117 199.903C419.362 181.773 437.547 169.435 457.448 168.502C457.815 168.485 458.038 168.528 458.152 168.61C467.673 170.415 477.347 174.206 485.507 179.353C500.419 188.759 508.402 202.565 507.029 220.436C505.652 238.478 495.586 254.851 478.076 261.141ZM226.191 166.297C226.366 163.807 224.749 162.206 222.375 161.768C222.314 161.757 222.268 161.739 222.214 161.725C221.966 162.08 221.53 162.361 220.949 162.381C215.483 162.572 216.828 170.775 222.103 170.348C224.254 170.175 226.035 168.507 226.191 166.297ZM35.8836 238.891C35.9786 237.549 35.1826 236.653 33.9366 236.352C33.6866 236.553 33.3546 236.693 32.9546 236.706C32.7596 236.713 32.5856 236.743 32.4256 236.788C32.8776 237.663 33.3326 238.536 33.8196 239.392C34.0936 239.877 34.3876 240.348 34.6726 240.825C35.3576 240.449 35.8256 239.728 35.8836 238.891ZM316.267 177.583C325.247 179.956 335.068 178.455 344.195 180.256C344.904 178.221 345.584 175.417 344.176 173.77C344.131 173.799 343.717 173.613 343.062 173.576C339.687 173.387 336.312 173.197 332.937 173.008C327.466 172.701 321.996 172.394 316.524 172.087C316.667 173.452 316.668 174.819 316.503 176.15C316.445 176.629 316.361 177.106 316.267 177.583ZM315.506 180.399C316.027 180.215 316.576 180.059 317.136 179.919C316.673 179.833 316.21 179.746 315.751 179.643C315.674 179.896 315.593 180.148 315.506 180.399ZM314.703 182.41C311.109 190.285 302.98 196.161 294.178 192.805C293.948 192.717 293.893 192.595 293.946 192.459C291.618 192.873 289.087 192.725 286.4 191.84C278.87 189.362 272.067 183.047 263.922 183.1C264.471 189.251 264.693 195.787 266.926 201.578C270.107 209.826 276.49 211.941 284.803 212.724C290.434 213.254 296.669 213.062 301.991 215.253C307.398 217.478 310.905 221.356 313.681 226.44C319.787 227.327 327.214 228.736 329.143 221.171C329.193 220.974 329.392 220.799 329.659 220.657C329.155 219.961 328.676 219.247 328.224 218.537C323.251 212.21 319.249 203.974 316.901 196.673C316.65 195.892 317.947 195.353 318.507 195.331C329.871 194.886 328.134 176.997 315.736 182.279C315.388 182.427 315.025 182.458 314.703 182.41ZM307.194 159.959C305.447 158.389 303.348 157.352 300.89 157.224C304.239 159.208 306.855 162.248 307.937 166.323C310.513 176.021 305.592 188.031 296.833 191.619C307.249 195.249 315.001 181.358 313.458 172.494C312.76 168.481 310.9 163.722 307.852 160.591C307.693 160.531 307.554 160.443 307.455 160.315C307.364 160.198 307.283 160.077 307.194 159.959ZM287.207 153.974C289.176 154.183 291.145 154.397 293.113 154.636C295.058 154.872 296.953 155.376 298.717 156.126C298.934 156.02 299.175 155.94 299.422 155.907C301.298 155.654 303.076 155.816 304.731 156.296C302.993 153.405 301.545 150.33 300.188 147.243C296.397 150.112 291.899 152.599 287.207 153.974ZM252.293 184.221C252.413 184.189 252.528 184.164 252.65 184.127C255.731 183.192 258.783 182.162 261.879 181.666C262.319 181.471 262.826 181.397 263.217 181.487C265.516 181.245 267.844 181.345 270.233 182.055C276.005 183.771 280.907 187.187 286.415 189.492C291.042 191.428 295.706 192.081 299.461 187.942C301.937 185.213 304.001 181.988 304.938 178.386C306.425 172.674 306.133 165.729 301.81 161.209C296.344 155.493 287.736 155.674 280.241 155.106C279.772 155.116 279.303 155.116 278.837 155.097C278.513 155.083 278.297 155.016 278.154 154.92C270.484 154.169 262.945 153.094 255.458 151.218C245.482 151.894 241.609 159.117 241.65 168.085C241.677 174.332 242.565 185.591 250.855 184.521C251.01 184.453 251.164 184.381 251.324 184.319C251.651 184.193 251.987 184.174 252.293 184.221ZM139.952 191.903C138.508 193.107 136.905 194.098 135.217 194.798C137.788 200.97 144.184 205.622 148.764 210.102C149.575 210.895 146.833 211.993 146.078 211.254C145.8 210.982 145.495 210.695 145.174 210.399C144.632 210.695 143.897 210.905 143.52 210.809C142.778 210.619 134.801 208.47 134.695 209.716C134.482 212.197 137.576 215.179 139.176 216.73C139.18 216.734 139.186 216.738 139.19 216.742C145.595 215.081 151.557 211.92 156.532 207.637C153.165 204.557 149.841 201.436 146.589 198.25C144.402 196.111 142.28 193.89 139.952 191.903ZM134.249 191.494C134.341 192.062 134.477 192.615 134.633 193.159C136.025 192.547 137.319 191.689 138.469 190.651C137.497 189.846 136.479 189.077 135.347 188.57C133.544 187.763 134.009 190.014 134.249 191.494ZM134.22 208.197C136.854 207.627 141.027 208.365 143.531 208.92C140.715 206.418 137.149 203.322 134.535 199.947C134.126 200.342 133.806 200.782 133.58 201.261C134.062 201.679 133.983 202.43 133.141 202.799C132.915 204.536 133.429 206.49 134.22 208.197ZM135.144 216.934C133.921 215.496 132.912 213.913 132.19 212.177C131.814 211.274 131.736 210.554 131.877 209.98C131.832 209.949 131.794 209.913 131.769 209.867C130.677 207.867 130.117 205.806 130.287 203.948C124.479 207.601 128.003 217.666 135.144 216.934ZM184.284 266.672C193.356 260.389 200.885 252.526 207.285 243.385C204.796 242.225 202.293 241.1 199.91 239.861C190.332 234.879 180.511 229.565 172.697 222.013C172.574 221.895 172.498 221.774 172.445 221.653C167.524 217.452 162.641 213.191 157.847 208.84C152.798 213.045 146.886 216.189 140.556 217.968C145.818 222.572 151.91 225.233 158.922 226.336C160.521 226.587 157.944 227.927 157.117 227.797C150.554 226.765 142.486 223.885 137.055 218.888C139.002 227.678 148.15 231.422 156.328 232.806C156.526 232.696 156.758 232.609 157.042 232.56C159.025 232.22 158.162 234.128 156.704 234.378C158.996 233.985 157.785 233.245 158.892 235.391C159.573 236.712 160.35 237.986 161.159 239.232C163.727 243.198 166.552 247.004 169.534 250.668C174.089 256.264 178.994 261.683 184.284 266.672ZM223.662 255.407C220.193 250.127 214.863 247.024 209.262 244.324C206.972 247.485 204.555 250.522 202.027 253.402C197.088 259.028 191.445 263.715 185.325 267.655C189.074 271.115 193.014 274.355 197.183 277.258C206.498 283.742 218.311 289.916 230.053 288.729C232.759 276.892 229.509 265.574 223.662 255.407ZM271.293 260.233C271.624 259.446 274.416 259.15 274.16 259.758C270.078 269.464 275.39 281.313 284.167 286.639C291.802 291.272 299.977 295.032 307.096 300.589C313.008 305.205 319.671 310.687 323.601 317.216C324.35 318.461 324.102 319.311 323.414 319.737C325.668 324.46 333.102 325.511 337.742 326.003C344.765 326.748 352.066 326.741 359.096 326.107C378.221 324.381 395.035 317.133 410.097 305.482C399.909 299.21 390.655 291.168 381.746 283.281C373.697 276.154 365.317 268.906 358.408 260.631C357.47 259.507 360.226 258.36 361.062 259.361C367.363 266.906 374.933 273.569 382.254 280.087C389.929 286.919 397.781 293.735 406.181 299.704C399.96 288.57 404.695 274.025 409.956 262.802C410.011 262.685 410.108 262.578 410.232 262.484C411.407 260.562 412.747 258.807 414.159 257.125C413.8 257.134 413.47 257.061 413.254 256.868C405.694 250.12 398.83 242.602 391.429 235.68C383.335 228.111 374.522 219.496 364.175 215.076C361.214 213.811 358.427 213.306 355.802 213.896C353.404 215.415 350.544 217.744 347.678 219.975C346.282 221.599 344.896 223.234 343.254 224.586C338.527 228.48 334.505 226.338 331.312 222.733C328.197 229.497 319.628 228.869 312.837 227.949C312.156 228.235 311.315 228.225 311.023 227.69C309.397 224.711 307.504 222.294 305.274 220.406C304.898 220.088 304.513 219.784 304.118 219.496C301.139 217.331 297.588 216.021 293.285 215.558C292.389 215.461 291.475 215.387 290.554 215.322C290.041 215.531 289.471 215.691 289.225 215.667C286.148 215.367 283.291 215.504 280.598 215.974C278.97 216.349 277.115 216.83 275.167 217.432C267.652 220.17 261.371 225.464 255.006 230.874C254.887 231.015 254.737 231.142 254.567 231.247C252.475 233.025 250.37 234.81 248.204 236.513C240.688 242.425 232.311 246.168 223.46 249.549C224.442 251.016 225.38 252.511 226.263 254.034C226.6 254.543 226.923 255.067 227.222 255.615C227.279 255.719 227.31 255.82 227.328 255.92C232.703 265.859 235.569 276.867 233.038 288.26C233.207 288.224 233.377 288.193 233.547 288.154C246.915 285.049 259.575 276.125 269.829 267.216C269.855 264.905 270.312 262.565 271.293 260.233ZM442.781 263.063C435.53 261.46 428.665 258.613 422.927 254.463C422.147 253.899 421.405 253.295 420.682 252.671C417.867 255.844 414.985 258.948 412.742 262.696C412.729 262.763 412.707 262.835 412.67 262.913C406.636 275.78 401.309 293.179 413.432 304.26C413.594 304.407 413.62 304.569 413.556 304.727C415.866 306.22 418.368 307.585 420.86 307.921C427.25 308.782 431.987 303.278 434.087 297.946C438.481 286.782 439.788 274.698 442.781 263.063ZM445.915 253.102C446.16 252.472 447.096 252.168 447.83 252.251C453.732 250.415 458.779 247.133 462.137 241.813C462.217 241.686 462.358 241.574 462.527 241.477C462.381 241.302 462.252 241.113 462.141 240.912C449.276 242.694 433.621 237.408 431.484 223.265C426.808 218.098 423.481 210.969 417.469 207.609C417.42 207.922 417.385 208.237 417.386 208.556C417.418 209.948 417.621 211.339 417.908 212.7C418.769 216.78 420.471 220.337 422.131 224.132C423.785 227.917 425.02 231.667 425.166 235.823C425.331 240.456 425.805 243.63 429.842 246.494C431.105 247.39 428.483 248.682 427.572 248.036C426.853 247.526 426.237 246.999 425.677 246.456C424.647 247.956 423.529 249.368 422.364 250.733C428.268 255.888 435.68 259.126 443.336 260.971C444.074 258.314 444.911 255.685 445.915 253.102ZM474.968 232.478C482.084 224.104 483.007 209.974 474.718 202.127C469.806 197.477 463.146 194.397 456.504 193.097C443.049 194.124 433.04 206.375 433.801 219.256C433.811 219.254 433.819 219.251 433.828 219.249C441.606 217.712 446.921 210.328 454.049 207.163C456.947 205.875 463.515 204.693 465.697 207.968C467.583 210.799 463.065 215.184 458.353 218.899C460.85 218.475 464.18 218.585 464.224 221.812C464.229 222.129 464.203 222.45 464.171 222.77C464.337 222.714 464.506 222.668 464.667 222.644C466.912 222.296 470.807 221.987 471.398 224.993C471.461 225.315 471.491 225.64 471.494 225.969C474.173 227.578 475.154 229.981 474.968 232.478ZM471.32 235.846C472.384 233.432 472.492 230.804 470.91 228.813C470.416 230.057 469.672 231.225 468.918 232.174C467.647 233.775 466.055 235.112 464.2 235.902C464.29 235.998 464.344 236.119 464.339 236.277C464.323 236.827 464.326 237.913 464.528 238.911C467.005 238.284 469.32 237.269 471.32 235.846ZM466.516 240.003C466.044 240.137 465.564 240.258 465.079 240.371C465.366 240.795 465.76 241.07 466.306 241.051C467.347 241.015 468.484 239.937 469.292 238.996C468.399 239.389 467.476 239.73 466.516 240.003ZM435.231 226.008C435.343 226.311 435.451 226.615 435.578 226.917C439.452 236.156 451.36 240.796 461.627 239.458C461.44 238.549 461.42 237.563 461.446 236.659C461.447 236.644 461.454 236.631 461.455 236.617C458.893 236.839 457.362 235.331 456.456 233.191C454.393 234.247 452.08 234.757 450.059 233.811C446.024 231.923 449.329 226.472 451.369 224.521C451.933 223.982 454.763 223.72 454.025 224.425C452.399 225.979 449.464 230.039 451.974 232.202C453.216 233.273 454.778 232.783 456.153 231.819C456.21 231.764 456.283 231.71 456.374 231.655C457.376 230.905 458.262 229.928 458.821 229.159C460.555 226.773 463.749 218.77 457.648 220.242C457.172 220.357 456.817 220.346 456.57 220.27C453.684 222.442 451.024 224.25 450.067 225.162C448.981 226.196 446.711 225.132 448.129 223.781C450.473 221.55 453.202 219.719 455.704 217.673C457.207 216.443 463.892 211.87 463.052 209.376C462.146 206.686 455.703 208.666 454.23 209.432C451.6 210.799 449.251 212.531 446.906 214.328C443.087 217.255 439.209 220.346 434.381 221.3C434.253 221.325 434.134 221.336 434.019 221.338C434.062 221.623 434.113 221.908 434.166 222.193C434.895 222.94 435.642 223.658 436.438 224.3C437.3 224.998 436.234 225.831 435.231 226.008ZM462.707 235.596C464.34 235.132 465.975 233.022 466.874 231.585C467.728 230.221 468.607 228.481 468.608 226.789C468.607 226.765 468.607 226.741 468.612 226.717C468.608 226.453 468.586 226.191 468.535 225.931C468.111 223.779 466.033 223.279 464.095 223.579C464.078 223.581 464.068 223.582 464.052 223.584C463.583 226.127 462.133 228.644 460.351 230.375C459.956 230.758 459.507 231.149 459.025 231.529C459.514 232.983 460.936 236.098 462.707 235.596ZM501.663 233.979C507.776 214.546 503.329 194.648 486.256 182.742C477.432 176.589 466.789 172.061 456.174 170.077C429.804 171.39 408.663 195.216 410.244 221.446C410.845 231.413 413.289 241.832 420.613 249.11C420.699 249.196 420.791 249.274 420.879 249.359C422.067 247.888 423.186 246.349 424.182 244.685C423.014 242.956 422.425 240.957 422.332 238.408C422.109 232.319 420.363 227.494 417.89 221.979C416.842 219.642 411.316 207.639 416.061 205.718C419.806 204.203 423.317 209.056 425.395 211.447C427.357 213.706 429.194 216.294 431.152 218.746C431.203 204.276 442.041 192.199 457.216 191.275C457.434 191.262 457.612 191.275 457.766 191.303C457.816 191.305 457.867 191.306 457.912 191.314C466.875 192.988 477.807 198.09 481.645 206.879C486.144 217.177 482.46 229.726 473.832 236.312C473.145 237.647 472.198 238.897 471.068 239.936C469.412 241.458 466.795 243.086 464.412 242.569C460.62 248.185 454.967 251.684 448.579 253.703C447.584 256.29 446.719 258.907 445.942 261.543C447.496 261.853 449.052 262.115 450.603 262.32C472.367 265.206 494.665 256.227 501.663 233.979ZM130.566 166.322C129.998 169.673 129.43 173.023 128.861 176.374C128.742 177.078 131.6 176.576 131.72 175.868C132.289 172.518 132.857 169.167 133.425 165.816C133.544 165.112 130.686 165.614 130.566 166.322ZM107.789 80.7004C108.02 77.0534 111.026 74.7344 114.547 74.6114C114.762 74.6044 114.943 74.6284 115.101 74.6704C115.454 74.2324 116.078 73.9064 116.719 74.0244C120.18 74.6624 123.422 77.4044 122.391 81.2874C121.453 84.8204 118.438 87.0254 114.795 87.0764C111.201 87.1274 107.541 84.6074 107.789 80.7004ZM115.476 84.8244C117.627 84.6504 119.408 82.9824 119.563 80.7734C119.738 78.2824 118.121 76.6814 115.746 76.2444C115.687 76.2334 115.641 76.2164 115.587 76.2024C115.339 76.5574 114.903 76.8384 114.322 76.8584C108.855 77.0484 110.2 85.2504 115.476 84.8244ZM161.655 119.831C161.822 117.205 164.085 115.535 166.601 115.448C166.669 115.446 166.728 115.452 166.79 115.455C167.15 115.162 167.641 114.979 168.144 115.072C170.547 115.515 172.899 117.423 172.175 120.148C171.5 122.69 169.313 124.299 166.683 124.336C164.126 124.372 161.476 122.64 161.655 119.831ZM167.206 122.085C168.363 121.992 169.227 121.04 169.309 119.878C169.403 118.536 168.608 117.639 167.361 117.339C167.111 117.54 166.779 117.68 166.378 117.694C163.502 117.794 164.438 122.309 167.206 122.085ZM175.767 119.831C175.934 117.205 178.197 115.535 180.712 115.448C180.781 115.446 180.84 115.452 180.903 115.455C181.262 115.162 181.753 114.979 182.257 115.072C184.66 115.515 187.011 117.423 186.288 120.148C185.612 122.69 183.425 124.299 180.796 124.336C178.238 124.372 175.588 122.64 175.767 119.831ZM181.318 122.085C182.474 121.992 183.338 121.04 183.42 119.878C183.515 118.536 182.72 117.639 181.473 117.339C181.223 117.54 180.892 117.68 180.491 117.694C177.615 117.794 178.55 122.309 181.318 122.085ZM189.878 119.831C190.046 117.205 192.308 115.535 194.823 115.448C194.892 115.446 194.951 115.452 195.014 115.455C195.373 115.162 195.864 114.979 196.368 115.072C198.771 115.515 201.124 117.422 200.399 120.148C199.724 122.69 197.537 124.299 194.907 124.336C192.349 124.372 189.701 122.64 189.878 119.831ZM195.429 122.085C196.585 121.992 197.45 121.04 197.532 119.878C197.627 118.536 196.831 117.639 195.584 117.339C195.334 117.54 195.003 117.68 194.602 117.694C191.726 117.794 192.662 122.309 195.429 122.085ZM203.991 119.831C204.158 117.205 206.42 115.535 208.935 115.448C209.004 115.446 209.063 115.452 209.126 115.455C209.485 115.162 209.976 114.979 210.48 115.072C212.883 115.515 215.236 117.422 214.511 120.148C213.836 122.69 211.649 124.299 209.019 124.336C206.461 124.372 203.812 122.639 203.991 119.831ZM209.541 122.085C210.697 121.992 211.562 121.04 211.644 119.878C211.739 118.536 210.943 117.639 209.696 117.339C209.446 117.54 209.115 117.68 208.714 117.694C205.838 117.794 206.773 122.309 209.541 122.085ZM218.103 119.831C218.27 117.205 220.533 115.535 223.048 115.448C223.116 115.446 223.175 115.452 223.237 115.455C223.597 115.162 224.088 114.979 224.591 115.072C226.994 115.515 229.346 117.423 228.622 120.148C227.947 122.69 225.76 124.299 223.131 124.336C220.574 124.372 217.924 122.64 218.103 119.831ZM223.654 122.085C224.81 121.992 225.674 121.04 225.756 119.878C225.851 118.536 225.055 117.639 223.809 117.339C223.559 117.54 223.228 117.68 222.827 117.693C219.951 117.794 220.885 122.309 223.654 122.085ZM382.395 132.412C382.562 129.786 384.825 128.117 387.341 128.029C387.409 128.027 387.468 128.033 387.53 128.036C387.889 127.743 388.38 127.56 388.884 127.653C391.287 128.096 393.64 130.003 392.915 132.729C392.24 135.27 390.054 136.879 387.424 136.917C384.866 136.952 382.216 135.221 382.395 132.412ZM387.946 134.666C389.102 134.573 389.966 133.621 390.048 132.459C390.143 131.117 389.347 130.22 388.101 129.92C387.851 130.121 387.519 130.261 387.118 130.274C384.242 130.375 385.177 134.889 387.946 134.666ZM261.19 291.814C260.515 294.356 258.328 295.964 255.699 296.002C253.14 296.038 250.49 294.305 250.669 291.497C250.836 288.871 253.1 287.201 255.615 287.114C255.683 287.112 255.742 287.118 255.804 287.121C256.164 286.828 256.654 286.645 257.158 286.738C259.561 287.182 261.914 289.088 261.19 291.814ZM258.322 291.544C258.416 290.202 257.621 289.306 256.375 289.005C256.125 289.206 255.793 289.345 255.393 289.359C252.517 289.46 253.453 293.975 256.221 293.751C257.377 293.658 258.24 292.707 258.322 291.544ZM270.423 309.497C269.748 312.039 267.56 313.647 264.931 313.685C262.372 313.721 259.724 311.988 259.903 309.18C260.07 306.554 262.332 304.884 264.847 304.797C264.916 304.795 264.975 304.801 265.038 304.804C265.397 304.511 265.888 304.328 266.392 304.421C268.795 304.864 271.148 306.77 270.423 309.497ZM267.555 309.227C267.65 307.885 266.854 306.988 265.607 306.688C265.357 306.889 265.026 307.029 264.625 307.043C261.752 307.144 262.687 311.658 265.453 311.434C266.609 311.34 267.473 310.389 267.555 309.227ZM286.379 319.891C285.704 322.433 283.517 324.042 280.888 324.079C278.329 324.115 275.68 322.383 275.859 319.574C276.026 316.948 278.289 315.279 280.804 315.191C280.872 315.189 280.931 315.195 280.992 315.198C281.352 314.904 281.843 314.721 282.346 314.814C284.751 315.258 287.103 317.165 286.379 319.891ZM283.511 319.621C283.605 318.279 282.81 317.383 281.564 317.082C281.314 317.283 280.983 317.423 280.582 317.437C277.707 317.538 278.642 322.052 281.41 321.828C282.566 321.734 283.429 320.783 283.511 319.621ZM302.227 330.523C301.552 333.065 299.365 334.674 296.736 334.711C294.177 334.747 291.527 333.015 291.706 330.206C291.873 327.58 294.137 325.911 296.652 325.823C296.72 325.821 296.779 325.827 296.841 325.83C297.2 325.536 297.691 325.353 298.195 325.446C300.599 325.89 302.951 327.797 302.227 330.523ZM299.359 330.253C299.454 328.911 298.658 328.015 297.413 327.714C297.162 327.915 296.831 328.055 296.43 328.069C293.554 328.17 294.49 332.684 297.258 332.46C298.414 332.367 299.277 331.415 299.359 330.253ZM322.964 337.555C322.289 340.096 320.102 341.705 317.473 341.743C314.914 341.779 312.265 340.046 312.443 337.238C312.61 334.612 314.874 332.942 317.39 332.855C317.458 332.853 317.517 332.859 317.579 332.862C317.939 332.569 318.429 332.386 318.933 332.479C321.336 332.922 323.688 334.83 322.964 337.555ZM320.095 337.285C320.19 335.943 319.395 335.046 318.148 334.746C317.898 334.947 317.567 335.086 317.166 335.1C314.291 335.201 315.227 339.716 317.995 339.492C319.151 339.399 320.014 338.447 320.095 337.285ZM341.257 341.071C340.581 343.613 338.394 345.222 335.765 345.259C333.206 345.295 330.557 343.562 330.736 340.754C330.903 338.128 333.166 336.458 335.681 336.371C335.75 336.369 335.809 336.375 335.872 336.378C336.231 336.085 336.722 335.902 337.226 335.995C339.629 336.438 341.98 338.345 341.257 341.071ZM338.388 340.801C338.483 339.459 337.688 338.562 336.441 338.261C336.191 338.462 335.86 338.602 335.459 338.616C332.584 338.717 333.519 343.232 336.287 343.008C337.443 342.915 338.306 341.963 338.388 340.801ZM359.55 341.071C358.875 343.613 356.688 345.222 354.059 345.259C351.5 345.295 348.851 343.562 349.029 340.754C349.196 338.127 351.46 336.458 353.976 336.371C354.044 336.369 354.102 336.375 354.164 336.378C354.524 336.085 355.015 335.902 355.518 335.995C357.921 336.438 360.273 338.345 359.55 341.071ZM356.681 340.801C356.776 339.459 355.98 338.563 354.735 338.262C354.484 338.463 354.153 338.603 353.752 338.616C350.876 338.717 351.813 343.232 354.581 343.008C355.737 342.915 356.599 341.962 356.681 340.801ZM376.783 341.071C376.107 343.613 373.92 345.222 371.291 345.259C368.732 345.295 366.083 343.562 366.262 340.754C366.429 338.128 368.692 336.458 371.207 336.371C371.276 336.369 371.335 336.375 371.398 336.378C371.757 336.085 372.248 335.902 372.752 335.995C375.155 336.438 377.505 338.345 376.783 341.071ZM373.914 340.801C374.009 339.459 373.214 338.562 371.967 338.261C371.717 338.462 371.386 338.602 370.985 338.616C368.11 338.717 369.046 343.232 371.813 343.008C372.968 342.915 373.832 341.963 373.914 340.801ZM392.915 334.039C392.24 336.581 390.053 338.19 387.424 338.227C384.865 338.263 382.216 336.53 382.395 333.722C382.562 331.096 384.825 329.426 387.34 329.339C387.408 329.337 387.467 329.343 387.53 329.346C387.889 329.053 388.38 328.87 388.884 328.963C391.287 329.406 393.638 331.313 392.915 334.039ZM390.046 333.77C390.141 332.428 389.345 331.531 388.099 331.23C387.849 331.431 387.517 331.571 387.117 331.584C384.241 331.685 385.177 336.2 387.945 335.976C389.101 335.883 389.964 334.931 390.046 333.77ZM409.629 323.407C408.954 325.949 406.767 327.558 404.137 327.595C401.578 327.631 398.929 325.899 399.108 323.09C399.275 320.464 401.538 318.795 404.054 318.707C404.122 318.705 404.181 318.711 404.243 318.714C404.602 318.42 405.093 318.237 405.597 318.33C408.002 318.774 410.353 320.681 409.629 323.407ZM406.761 323.137C406.855 321.795 406.06 320.898 404.814 320.598C404.564 320.799 404.232 320.939 403.83 320.953C400.956 321.054 401.892 325.568 404.659 325.344C405.815 325.25 406.679 324.299 406.761 323.137ZM421.139 316.375C420.464 318.917 418.277 320.525 415.648 320.563C413.089 320.599 410.44 318.866 410.619 316.058C410.786 313.432 413.049 311.762 415.564 311.675C415.632 311.673 415.691 311.679 415.753 311.682C416.113 311.389 416.604 311.206 417.107 311.299C419.511 311.742 421.863 313.649 421.139 316.375ZM418.271 316.105C418.366 314.763 417.57 313.867 416.324 313.566C416.074 313.767 415.743 313.906 415.342 313.92C412.467 314.021 413.402 318.535 416.17 318.311C417.326 318.219 418.189 317.267 418.271 316.105ZM396.506 132.412C396.673 129.786 398.937 128.117 401.452 128.029C401.52 128.027 401.579 128.033 401.641 128.036C402 127.743 402.491 127.56 402.995 127.653C405.398 128.096 407.751 130.003 407.027 132.729C406.352 135.271 404.165 136.879 401.536 136.917C398.978 136.952 396.328 135.221 396.506 132.412ZM402.058 134.666C403.214 134.573 404.078 133.622 404.16 132.459C404.254 131.117 403.459 130.221 402.213 129.92C401.963 130.121 401.632 130.261 401.231 130.274C398.354 130.375 399.29 134.889 402.058 134.666ZM410.619 132.412C410.786 129.786 413.049 128.117 415.564 128.029C415.632 128.027 415.691 128.033 415.753 128.036C416.113 127.743 416.604 127.56 417.107 127.653C419.51 128.096 421.862 130.003 421.138 132.729C420.463 135.27 418.276 136.879 415.647 136.917C413.089 136.952 410.44 135.221 410.619 132.412ZM416.169 134.666C417.325 134.573 418.189 133.622 418.271 132.459C418.366 131.117 417.57 130.22 416.324 129.92C416.074 130.121 415.743 130.261 415.342 130.274C412.466 130.375 413.401 134.889 416.169 134.666ZM424.73 132.412C424.897 129.786 427.16 128.117 429.675 128.029C429.743 128.027 429.802 128.033 429.864 128.036C430.224 127.743 430.715 127.56 431.218 127.653C433.621 128.096 435.973 130.003 435.249 132.729C434.574 135.27 432.387 136.879 429.758 136.917C427.201 136.952 424.552 135.22 424.73 132.412ZM430.281 134.666C431.437 134.573 432.301 133.622 432.383 132.459C432.478 131.117 431.682 130.22 430.436 129.92C430.186 130.121 429.855 130.261 429.454 130.274C426.578 130.375 427.513 134.889 430.281 134.666ZM438.842 132.412C439.009 129.786 441.272 128.117 443.788 128.029C443.856 128.027 443.915 128.033 443.977 128.036C444.336 127.743 444.827 127.56 445.331 127.653C447.734 128.096 450.086 130.003 449.362 132.729C448.688 135.27 446.501 136.879 443.871 136.917C441.313 136.952 438.664 135.22 438.842 132.412ZM444.393 134.666C445.55 134.573 446.413 133.622 446.495 132.459C446.589 131.117 445.794 130.22 444.548 129.92C444.298 130.121 443.966 130.261 443.565 130.274C440.689 130.375 441.626 134.889 444.393 134.666ZM10.5286 239.161C9.85359 241.702 7.66659 243.311 5.03759 243.349C2.47859 243.385 -0.170408 241.652 0.00859228 238.844C0.175592 236.218 2.43859 234.548 4.95459 234.461C5.02259 234.459 5.08159 234.465 5.14359 234.468C5.50359 234.175 5.99359 233.992 6.49759 234.085C8.90059 234.528 11.2526 236.435 10.5286 239.161ZM7.66059 238.891C7.75559 237.549 6.95959 236.652 5.71259 236.352C5.46259 236.553 5.13159 236.693 4.73059 236.706C1.85559 236.807 2.79159 241.322 5.55959 241.098C6.71459 241.005 7.57859 240.053 7.66059 238.891ZM24.6406 239.161C23.9656 241.703 21.7786 243.311 19.1496 243.349C16.5906 243.385 13.9406 241.652 14.1196 238.844C14.2866 236.218 16.5506 234.548 19.0656 234.461C19.1336 234.459 19.1926 234.465 19.2546 234.468C19.6146 234.175 20.1046 233.992 20.6086 234.085C23.0116 234.528 25.3646 236.435 24.6406 239.161ZM21.7726 238.891C21.8666 237.549 21.0716 236.653 19.8256 236.352C19.5756 236.553 19.2436 236.692 18.8436 236.706C15.9676 236.807 16.9036 241.322 19.6716 241.098C20.8276 241.005 21.6906 240.053 21.7726 238.891ZM42.3426 238.844C42.5096 236.218 44.7726 234.548 47.2876 234.461C47.3566 234.459 47.4166 234.465 47.4786 234.468C47.8386 234.175 48.3286 233.992 48.8326 234.085C51.2356 234.528 53.5876 236.436 52.8636 239.161C52.1876 241.703 50.0006 243.311 47.3716 243.349C44.8136 243.385 42.1646 241.652 42.3426 238.844ZM47.8936 241.098C49.0496 241.005 49.9136 240.053 49.9956 238.891C50.0906 237.549 49.2946 236.652 48.0486 236.352C47.7986 236.553 47.4676 236.693 47.0666 236.706C44.1906 236.807 45.1256 241.322 47.8936 241.098ZM62.9446 234.085C65.3476 234.528 67.6996 236.436 66.9756 239.161C66.3016 241.703 64.1146 243.311 61.4846 243.349C58.9256 243.385 56.2766 241.652 56.4546 238.844C56.6216 236.218 58.8856 234.548 61.4016 234.461C61.4696 234.459 61.5286 234.465 61.5906 234.468C61.9516 234.174 62.4406 233.992 62.9446 234.085ZM62.1596 236.352C61.9096 236.553 61.5786 236.693 61.1776 236.706C58.3026 236.807 59.2386 241.322 62.0066 241.098C63.1626 241.005 64.0266 240.053 64.1086 238.891C64.2016 237.549 63.4066 236.652 62.1596 236.352ZM44.3436 186.13C45.3096 185.958 47.1946 185.582 47.7656 184.643C48.2586 183.831 45.6676 184.217 45.4906 184.248C42.5256 184.775 39.4756 184.701 36.4756 184.701C35.1046 184.701 33.5666 185.12 32.3766 185.799C31.4336 186.338 31.5866 186.877 32.6646 186.877C36.5826 186.875 40.4776 186.817 44.3436 186.13ZM74.3446 191.937C73.3756 191.407 71.5656 192.03 70.6376 192.36C71.0146 192.226 70.4486 192.363 70.2646 192.373C69.6216 192.407 68.9776 192.4 68.3346 192.4C66.9636 192.401 65.4266 192.819 64.2366 193.498C63.2936 194.037 63.4466 194.576 64.5256 194.576C67.2776 194.574 69.9586 194.345 72.5706 193.417C72.7436 193.356 75.1766 192.393 74.3446 191.937ZM68.4606 185.339C69.7386 185.2 71.3286 184.837 72.3526 184.003C73.3686 183.176 71.4446 183.195 71.0336 183.239C65.5996 183.827 60.1326 183.8 54.6736 183.801C53.3026 183.801 51.7656 184.22 50.5756 184.899C49.6326 185.438 49.7856 185.977 50.8646 185.977C56.7366 185.976 62.6156 185.972 68.4606 185.339ZM32.6656 205.606C36.5826 205.605 40.4786 205.546 44.3446 204.859C45.3106 204.687 47.1956 204.311 47.7666 203.372C48.2596 202.56 45.6686 202.946 45.4916 202.977C42.5266 203.504 39.4766 203.43 36.4766 203.43C35.1056 203.43 33.5676 203.849 32.3776 204.528C31.4336 205.068 31.5866 205.606 32.6656 205.606ZM72.3526 202.733C73.3686 201.906 71.4446 201.925 71.0336 201.969C65.5996 202.558 60.1326 202.53 54.6736 202.531C53.3026 202.531 51.7656 202.95 50.5756 203.629C49.6326 204.168 49.7856 204.707 50.8646 204.707C56.7366 204.706 62.6156 204.702 68.4616 204.069C69.7396 203.93 71.3296 203.567 72.3526 202.733ZM32.0696 196.553C40.2716 196.514 48.4746 196.47 56.6556 195.804C58.0296 195.692 63.0226 193.396 59.2276 193.704C51.4616 194.336 43.6646 194.34 35.8776 194.377C34.7806 194.382 29.3226 196.565 32.0696 196.553ZM486.283 282.123C483.319 282.65 480.269 282.576 477.269 282.576C475.898 282.576 474.361 282.995 473.171 283.674C472.228 284.213 472.381 284.752 473.46 284.752C477.375 284.751 481.271 284.692 485.136 284.005C486.102 283.833 487.987 283.457 488.558 282.518C489.051 281.706 486.461 282.091 486.283 282.123ZM515.138 289.812C514.169 289.282 512.359 289.906 511.431 290.235C511.808 290.101 511.242 290.238 511.058 290.248C510.416 290.282 509.772 290.275 509.13 290.275C507.758 290.276 506.221 290.694 505.031 291.373C504.088 291.912 504.241 292.451 505.319 292.451C508.071 292.449 510.752 292.22 513.364 291.292C513.537 291.231 515.97 290.268 515.138 289.812ZM491.37 282.774C490.427 283.313 490.58 283.852 491.658 283.852C497.531 283.851 503.41 283.847 509.256 283.214C510.534 283.075 512.124 282.712 513.148 281.878C514.163 281.051 512.24 281.07 511.829 281.114C506.395 281.703 500.928 281.675 495.47 281.676C494.097 281.677 492.559 282.095 491.37 282.774ZM486.283 300.853C483.319 301.38 480.269 301.306 477.269 301.306C475.898 301.306 474.361 301.725 473.171 302.404C472.228 302.943 472.381 303.482 473.46 303.482C477.375 303.481 481.271 303.422 485.136 302.735C486.102 302.563 487.987 302.187 488.558 301.248C489.051 300.435 486.461 300.821 486.283 300.853ZM511.828 299.844C506.394 300.432 500.927 300.405 495.469 300.406C494.098 300.406 492.56 300.825 491.37 301.504C490.427 302.043 490.58 302.582 491.658 302.582C497.531 302.581 503.41 302.577 509.256 301.944C510.534 301.805 512.124 301.442 513.148 300.608C514.162 299.781 512.239 299.8 511.828 299.844ZM497.448 293.679C498.822 293.567 503.816 291.271 500.02 291.579C492.254 292.211 484.458 292.216 476.671 292.252C475.573 292.257 470.115 294.44 472.862 294.428C481.065 294.389 489.267 294.344 497.448 293.679ZM139.874 278.663C139.905 276.885 140.29 275.019 141.055 273.406C141.29 272.908 140.04 273.061 139.885 273.088C139.389 273.173 138.44 273.379 138.192 273.901C137.388 275.598 137.01 277.569 136.976 279.44C136.966 279.947 139.858 279.537 139.874 278.663ZM145.277 266.3C145.356 264.196 146.401 262.258 147.076 260.302C147.463 259.184 144.531 259.553 144.166 260.614C143.49 262.57 142.445 264.508 142.367 266.612C142.317 267.934 145.237 267.385 145.277 266.3ZM151.156 254.444C152.281 252.788 153.629 251.302 154.754 249.646C155.129 249.095 154.438 248.916 154.003 248.921C153.401 248.928 152.449 249.137 152.082 249.679C150.957 251.335 149.608 252.822 148.482 254.477C148.108 255.028 148.799 255.207 149.234 255.202C149.836 255.195 150.788 254.986 151.156 254.444ZM184.295 218.008C182.812 218.791 181.61 220.031 180.437 221.205C180.004 221.638 180.105 222.148 180.728 222.291C181.388 222.443 182.291 222.229 182.777 221.742C183.801 220.717 184.819 219.625 186.114 218.942C186.553 218.71 186.948 218.057 186.352 217.752C185.702 217.419 184.888 217.696 184.295 218.008ZM196.005 210.6C194.434 211.159 193.254 212.241 191.806 212.999C191.42 213.201 190.593 213.732 191.062 214.267C191.489 214.755 192.493 214.619 192.996 214.355C194.434 213.602 195.652 212.504 197.195 211.956C197.618 211.806 198.379 211.19 197.939 210.688C197.475 210.157 196.556 210.404 196.005 210.6ZM204.373 204.09C206.505 203.355 208.711 202.298 210.359 200.73C210.798 200.312 210.694 199.817 210.08 199.687C209.415 199.546 208.529 199.763 208.031 200.236C206.702 201.499 204.936 202.282 203.222 202.873C202.853 203 202.007 203.58 202.452 204.052C202.919 204.546 203.841 204.273 204.373 204.09ZM217.873 196.648C219.243 195.983 220.7 195.516 222.07 194.849C222.445 194.667 222.968 194.076 222.352 193.822C221.699 193.552 220.9 193.832 220.308 194.12C218.939 194.787 217.482 195.253 216.111 195.919C215.736 196.101 215.213 196.692 215.829 196.946C216.482 197.216 217.281 196.937 217.873 196.648ZM237.564 190.959C239.33 190.41 241.193 190.309 242.96 189.759C243.335 189.642 244.387 189.288 244.23 188.699C244.078 188.13 242.974 188.299 242.601 188.415C240.835 188.964 238.972 189.065 237.205 189.615C236.83 189.732 235.778 190.086 235.935 190.675C236.087 191.244 237.191 191.075 237.564 190.959ZM106.568 110.775C105.325 110.775 103.545 112.663 105.505 112.663C112.902 112.663 120.3 112.663 127.696 112.663C128.939 112.663 130.719 110.775 128.759 110.775C121.362 110.775 113.964 110.775 106.568 110.775ZM125.494 105.73C126.122 105.73 128.804 104.513 127.365 104.513C121.367 104.513 115.369 104.513 109.371 104.513C108.744 104.513 106.062 105.73 107.502 105.73C113.499 105.73 119.497 105.73 125.494 105.73ZM120.293 98.5344C119.871 99.0774 120.649 99.2774 121.049 99.2774C123.048 99.2774 125.048 99.2774 127.047 99.2774C127.688 99.2774 128.555 99.0474 128.967 98.5144C129.389 97.9714 128.611 97.7714 128.211 97.7714C126.212 97.7714 124.212 97.7714 122.213 97.7714C121.572 97.7714 120.705 98.0024 120.293 98.5344ZM378.644 195.896C380.629 196.544 382.658 197.046 384.643 197.695C385.597 198.007 388.048 196.61 386.405 196.073C384.42 195.424 382.39 194.922 380.406 194.274C379.451 193.962 377.002 195.359 378.644 195.896ZM391.84 202.498C393.247 202.975 394.507 203.616 395.575 204.66C396.335 205.402 399.077 204.302 398.261 203.505C396.922 202.198 395.353 201.463 393.6 200.868C392.64 200.541 390.199 201.94 391.84 202.498ZM402.443 208.241C401.923 207.71 401.121 207.713 400.474 208.024C400.029 208.238 399.269 208.986 399.79 209.518C400.836 210.587 401.647 211.993 402.999 212.715C403.661 213.069 404.471 212.996 405.077 212.541C405.515 212.212 405.888 211.392 405.231 211.041C404.053 210.411 403.359 209.176 402.443 208.241ZM321.833 100.23C331.229 100.23 340.626 100.23 350.022 100.23C351.711 100.23 352.216 98.0174 350.254 98.0174C340.858 98.0174 331.461 98.0174 322.065 98.0174C320.376 98.0174 319.871 100.23 321.833 100.23ZM317.16 108.241C319.16 108.241 321.16 108.241 323.159 108.241C323.793 108.241 324.663 108.004 325.083 107.492C325.521 106.96 324.711 106.8 324.341 106.8C322.341 106.8 320.342 106.8 318.342 106.8C317.708 106.8 316.838 107.037 316.418 107.549C315.98 108.081 316.79 108.241 317.16 108.241ZM348.084 106.949C343.086 106.949 338.088 106.949 333.09 106.949C332.509 106.949 329.797 108.093 331.201 108.093C336.198 108.093 341.196 108.093 346.193 108.093C346.775 108.092 349.486 106.949 348.084 106.949ZM333.877 113.775C332.635 113.775 330.854 115.661 332.814 115.661C336.812 115.661 340.811 115.661 344.809 115.661C346.051 115.661 347.832 113.775 345.872 113.775C341.873 113.775 337.875 113.775 333.877 113.775ZM341.729 93.1674C345.727 93.1674 349.725 93.1674 353.723 93.1674C354.572 93.1674 356.882 91.8854 354.948 91.8854C350.95 91.8854 346.952 91.8854 342.954 91.8854C342.105 91.8854 339.794 93.1674 341.729 93.1674Z" fill="black"/>
<defs>
<filter id="filter0_f_1_24" x="105.99" y="0" width="384.02" height="386.828" filterUnits="userSpaceOnUse" color-interpolation-filters="sRGB">
<feFlood flood-opacity="0" result="BackgroundImageFix"/>
<feBlend mode="normal" in="SourceGraphic" in2="BackgroundImageFix" result="shape"/>
<feGaussianBlur stdDeviation="17" result="effect1_foregroundBlur_1_24"/>
</filter>
<filter id="filter1_f_1_24" x="131.99" y="14" width="356.02" height="358.828" filterUnits="userSpaceOnUse" color-interpolation-filters="sRGB">
<feFlood flood-opacity="0" result="BackgroundImageFix"/>
<feBlend mode="normal" in="SourceGraphic" in2="BackgroundImageFix" result="shape"/>
<feGaussianBlur stdDeviation="10" result="effect1_foregroundBlur_1_24"/>
</filter>
<filter id="filter2_f_1_24" x="107.99" y="14" width="356.02" height="358.828" filterUnits="userSpaceOnUse" color-interpolation-filters="sRGB">
<feFlood flood-opacity="0" result="BackgroundImageFix"/>
<feBlend mode="normal" in="SourceGraphic" in2="BackgroundImageFix" result="shape"/>
<feGaussianBlur stdDeviation="10" result="effect1_foregroundBlur_1_24"/>
</filter>
<linearGradient id="paint0_linear_1_24" x1="15148" y1="42" x2="15148" y2="30324.8" gradientUnits="userSpaceOnUse">
<stop stop-color="#452277"/>
<stop offset="1" stop-color="#9061D1"/>
</linearGradient>
<linearGradient id="paint1_linear_1_24" x1="15160" y1="42" x2="15160" y2="30324.8" gradientUnits="userSpaceOnUse">
<stop stop-color="#452277"/>
<stop offset="1" stop-color="#9061D1"/>
</linearGradient>
<linearGradient id="paint2_linear_1_24" x1="15136" y1="42" x2="15136" y2="30324.8" gradientUnits="userSpaceOnUse">
<stop stop-color="#452277"/>
<stop offset="1" stop-color="#9061D1"/>
</linearGradient>
<linearGradient id="paint3_linear_1_24" x1="15148" y1="42" x2="15148" y2="30324.8" gradientUnits="userSpaceOnUse">
<stop stop-color="#452277"/>
<stop offset="1" stop-color="#9061D1"/>
</linearGradient>
</defs>
</svg>
