<?xml version="1.0" standalone="no"?>
<!DOCTYPE svg PUBLIC "-//W3C//DTD SVG 20010904//EN"
 "http://www.w3.org/TR/2001/REC-SVG-20010904/DTD/svg10.dtd">
<svg version="1.0" xmlns="http://www.w3.org/2000/svg"
 width="1346.000000pt" height="616.000000pt" viewBox="0 0 1346.000000 616.000000"
 preserveAspectRatio="xMidYMid meet">

<g transform="translate(0.000000,616.000000) scale(0.100000,-0.100000)"
fill="#000000" stroke="none">
<path d="M0 3145 l0 -3015 279 -2 280 -3 -34 -55 c-19 -30 -35 -58 -35 -63 0
-4 86 -6 191 -5 l191 3 25 63 25 62 388 0 388 0 23 -65 23 -65 330 1 c182 0
326 3 320 5 -6 3 -40 32 -74 64 l-63 60 1381 0 c1324 0 1382 -1 1382 -18 0
-10 4 -22 9 -27 6 -6 11 -21 13 -35 2 -14 7 -31 11 -38 7 -9 324 -12 1537 -12
1381 0 1529 2 1534 16 11 30 6 61 -15 88 l-20 26 261 0 c241 0 264 -2 300 -20
50 -25 90 -26 91 -2 0 11 2 12 6 4 4 -10 8 -10 18 -2 19 15 52 4 58 -20 4 -16
11 -18 48 -13 24 3 64 16 89 29 l45 24 1163 -2 1162 -3 -38 -40 c-20 -22 -50
-50 -66 -62 l-29 -23 310 0 310 0 13 58 c8 31 13 60 12 65 -1 4 164 7 368 7
l370 0 1 -22 c0 -13 0 -42 -1 -66 l-2 -42 278 2 277 3 12 34 c13 39 29 27 19
-14 -5 -21 -3 -25 14 -25 22 0 30 22 34 93 l2 37 123 0 123 0 0 3015 0 3015
-6730 0 -6730 0 0 -3015z m9690 2395 l0 -80 45 0 c25 0 45 -4 45 -10 0 -6 -27
-10 -60 -10 l-60 0 0 90 c0 73 3 90 15 90 12 0 15 -16 15 -80z m641 70 c20
-11 26 -40 8 -40 -6 0 -17 7 -26 16 -21 20 -58 14 -58 -10 0 -14 12 -23 47
-33 37 -10 49 -19 54 -39 9 -37 -20 -64 -68 -64 -37 0 -78 26 -78 50 0 16 18
12 40 -10 21 -21 46 -25 69 -11 21 13 6 39 -26 47 -46 11 -73 32 -73 59 0 40
64 60 111 35z m219 -19 c0 -25 3 -28 25 -23 53 10 84 -56 50 -105 -12 -18 -25
-22 -60 -21 l-45 1 0 88 c0 72 3 89 15 89 10 0 15 -10 15 -29z m670 9 c11 -11
20 -24 20 -30 0 -17 -25 -11 -38 10 -27 44 -92 9 -92 -50 0 -59 65 -94 92 -50
15 23 38 27 38 6 0 -22 -40 -46 -76 -46 -48 0 -75 28 -81 82 -5 40 -2 50 20
72 33 33 88 35 117 6z m1068 4 c24 -16 30 -44 9 -44 -7 0 -18 9 -25 20 -28 45
-82 12 -82 -50 0 -65 49 -92 90 -48 14 16 23 19 31 11 19 -19 -25 -53 -71 -53
-45 0 -74 25 -84 71 -15 79 68 138 132 93z m382 -74 l0 -90 -38 0 c-52 0 -76
19 -76 63 0 44 19 67 55 67 24 0 29 4 29 25 0 16 6 25 15 25 12 0 15 -17 15
-90z m108 78 c-3 -7 -12 -14 -21 -16 -12 -2 -15 1 -11 12 7 19 38 22 32 4z
m232 -3 c0 -8 -7 -15 -15 -15 -8 0 -15 7 -15 15 0 8 7 15 15 15 8 0 15 -7 15
-15z m-1424 -35 c8 0 14 -4 14 -10 0 -5 -7 -10 -15 -10 -11 0 -15 -11 -15 -40
0 -27 5 -43 15 -46 23 -9 18 -24 -9 -24 -27 0 -35 19 -32 75 1 19 -3 37 -9 40
-6 3 -5 7 3 11 6 3 9 10 6 16 -4 6 0 14 7 19 10 6 15 3 17 -11 2 -11 10 -20
18 -20z m210 0 c8 0 14 -4 14 -10 0 -5 -7 -10 -15 -10 -11 0 -15 -11 -15 -40
0 -27 5 -43 15 -46 22 -9 18 -24 -5 -24 -25 0 -38 26 -35 70 1 19 -3 38 -9 43
-8 5 -6 10 4 17 8 5 11 10 6 10 -5 0 -2 7 5 17 13 15 14 14 17 -5 2 -12 10
-22 18 -22z m-1907 -9 c8 -5 14 -31 16 -64 l3 -55 -57 1 c-53 2 -56 3 -59 29
-3 25 1 28 42 39 25 6 46 15 46 21 0 16 -31 21 -56 8 -28 -16 -42 -7 -24 15
14 16 67 20 89 6z m121 -1 c0 -5 -9 -10 -19 -10 -23 0 -31 -19 -31 -71 0 -28
-4 -39 -15 -39 -12 0 -15 14 -15 65 l0 65 40 0 c22 0 40 -4 40 -10z m474 -6
c9 -8 16 -31 16 -49 0 -41 -22 -65 -58 -65 -35 0 -49 10 -60 40 -10 27 1 69
21 82 20 13 65 9 81 -8z m256 11 c0 -3 -11 -10 -25 -15 -22 -8 -25 -15 -25
-60 0 -38 -4 -50 -15 -50 -12 0 -15 14 -15 65 l0 65 40 0 c22 0 40 -2 40 -5z
m102 -12 c10 -9 18 -24 18 -35 0 -15 -8 -18 -45 -18 -34 0 -45 -4 -45 -15 0
-23 28 -30 56 -15 30 17 46 3 20 -16 -26 -19 -71 -18 -90 2 -9 8 -16 31 -16
49 0 18 7 41 16 49 20 21 63 20 86 -1z m520 0 c22 -20 23 -70 1 -95 -19 -21
-62 -24 -87 -5 -25 19 -26 85 -1 103 25 19 64 18 87 -3z m148 -9 c16 -41 13
-104 -5 -104 -11 0 -15 11 -15 43 0 55 -13 76 -37 61 -12 -7 -19 -26 -21 -58
-2 -32 -7 -46 -18 -46 -11 0 -14 15 -14 64 l0 63 50 2 c46 1 52 -2 60 -25z
m196 18 c6 -4 13 -32 16 -63 l4 -56 -53 -1 c-41 -1 -55 3 -62 16 -14 26 4 49
44 56 41 8 49 36 10 36 -14 0 -25 -4 -25 -10 0 -5 -7 -10 -15 -10 -18 0 -19
12 -3 28 13 13 67 16 84 4z m216 -9 c22 -20 23 -70 1 -95 -40 -44 -121 -4
-109 56 11 53 69 75 108 39z m516 5 c5 -7 12 -36 13 -64 l4 -51 -54 1 c-86 2
-98 55 -16 70 19 4 35 11 35 17 0 16 -31 23 -51 11 -24 -15 -29 -15 -29 2 0 8
6 17 13 19 24 10 75 7 85 -5z m112 3 c0 -5 -9 -11 -20 -14 -17 -4 -20 -14 -20
-56 0 -39 -4 -51 -15 -51 -12 0 -15 14 -15 65 l0 65 35 0 c19 0 35 -4 35 -9z
m246 1 c7 -4 14 -32 15 -63 l4 -56 -52 -1 c-41 -1 -55 3 -62 16 -14 26 4 49
44 56 41 8 49 36 10 36 -14 0 -25 -4 -25 -10 0 -5 -7 -10 -15 -10 -18 0 -19
12 -3 28 13 13 66 16 84 4z m146 -9 c42 -38 7 -121 -47 -111 -22 5 -25 2 -25
-23 0 -19 -5 -29 -15 -29 -12 0 -15 17 -15 89 l0 89 42 0 c26 1 50 -6 60 -15z
m68 -48 c0 -51 -3 -65 -15 -65 -12 0 -15 14 -15 65 0 51 3 65 15 65 12 0 15
-14 15 -65z m122 48 c22 -20 23 -70 1 -95 -16 -18 -58 -24 -80 -10 -32 20 -32
94 0 114 20 13 60 9 79 -9z m-3097 -993 c12 -24 12 -30 0 -40 -11 -9 -18 -7
-34 9 -22 22 -24 30 -15 55 8 21 32 9 49 -24z m685 -449 c0 -11 -19 -25 -39
-27 -40 -7 -100 -101 -101 -159 0 -32 60 -168 80 -180 18 -11 24 3 12 29 -9
21 -8 25 10 30 26 6 45 -3 27 -14 -10 -7 -9 -11 2 -22 17 -16 69 -22 69 -8 0
6 -4 10 -10 10 -5 0 -10 5 -10 11 0 5 5 7 12 3 8 -5 9 -2 4 11 -3 10 -2 33 4
51 10 31 15 33 78 43 76 12 304 41 323 41 7 0 9 3 6 6 -8 8 -139 12 -394 14
-170 1 -183 2 -183 19 0 16 11 19 78 24 189 15 340 19 485 12 l155 -7 -5 -37
c-16 -112 -107 -432 -125 -439 -10 -4 10 -32 22 -32 5 0 11 13 15 29 3 16 13
32 21 35 19 7 18 -10 -3 -46 -14 -22 -24 -28 -42 -25 -19 4 -26 -2 -40 -34
-10 -21 -21 -36 -24 -33 -3 4 -14 -1 -23 -10 -20 -20 -32 -13 -14 9 11 13 9
15 -12 15 -14 0 -33 9 -43 20 -10 11 -25 20 -34 20 -12 0 -12 3 -3 12 13 13
16 47 5 50 -29 6 -61 3 -57 -4 3 -5 13 -7 21 -3 12 4 13 3 5 -8 -7 -8 -10 -16
-7 -19 3 -2 -9 -3 -25 0 -27 4 -30 2 -28 -22 1 -14 8 -26 14 -26 13 0 29 -49
20 -58 -10 -10 -56 -11 -56 -1 0 5 -7 9 -15 9 -8 0 -14 -8 -13 -17 3 -37 -3
-53 -18 -53 -8 0 -12 -5 -9 -10 4 -7 -3 -9 -19 -6 -21 4 -26 1 -26 -17 0 -12
-7 -31 -15 -41 -19 -25 -19 -46 0 -46 9 0 15 9 15 23 0 22 36 54 48 43 3 -4
-2 -23 -12 -43 -15 -32 -15 -35 -1 -23 13 11 15 10 9 -4 -4 -12 -14 -16 -28
-12 -11 2 -38 8 -59 11 -20 4 -40 11 -43 16 -7 12 -44 11 -44 -1 0 -5 -8 -10
-17 -10 -17 -1 -17 -1 0 -11 25 -15 21 -33 -5 -24 -13 4 -33 6 -45 6 -36 -1
-27 22 17 43 22 11 40 25 40 33 0 16 -12 17 -28 1 -17 -17 -28 18 -12 37 11
13 14 13 26 -2 11 -17 13 -16 19 9 9 34 0 48 -29 48 -17 0 -28 -11 -45 -50
-12 -27 -29 -50 -36 -50 -22 0 -29 -22 -12 -35 19 -14 23 -50 7 -60 -6 -4 -8
-11 -5 -16 4 -5 2 -9 -3 -9 -15 0 -24 50 -12 65 8 9 5 14 -11 18 -14 4 -20 11
-16 21 11 27 -12 83 -36 90 -42 11 -46 8 -42 -33 3 -31 0 -39 -11 -34 -17 6
-18 -1 -1 -28 10 -17 10 -23 0 -26 -7 -3 -13 -20 -13 -38 0 -19 -5 -37 -11
-40 -16 -11 -22 1 -10 23 8 15 7 23 -4 32 -9 8 -12 17 -7 24 5 6 12 23 16 39
5 23 3 27 -14 27 -22 0 -27 -16 -7 -23 6 -2 9 -8 5 -12 -4 -4 -14 -2 -22 4 -9
8 -16 8 -20 2 -7 -11 -37 -3 -48 13 -9 14 10 36 33 36 28 0 23 17 -6 22 -14 3
-22 1 -18 -5 4 -6 -11 -7 -41 -3 -42 7 -50 4 -85 -23 -21 -17 -42 -26 -47 -22
-14 13 -64 23 -64 12 0 -5 -13 -14 -30 -21 -16 -7 -30 -18 -30 -24 0 -6 -5 -4
-10 4 -7 12 -10 8 -10 -14 0 -26 2 -28 30 -22 21 4 30 2 30 -8 0 -7 9 -21 20
-31 22 -20 26 -50 9 -61 -8 -4 -7 -9 2 -16 11 -7 9 -8 -4 -4 -10 3 -27 6 -38
6 -11 0 -23 9 -27 21 -4 11 -19 26 -32 32 -25 13 -30 48 -9 73 5 6 6 14 3 17
-12 11 -42 -12 -48 -37 -3 -14 -20 -33 -36 -43 -17 -9 -30 -23 -30 -30 0 -7
-4 -13 -9 -13 -5 0 -17 -3 -27 -7 -12 -4 -15 -3 -10 5 4 7 3 12 -3 12 -5 0
-17 3 -27 7 -13 5 -15 3 -9 -7 5 -9 4 -11 -3 -6 -6 4 -21 2 -32 -4 -11 -6 -20
-7 -20 -3 0 29 23 140 30 147 5 5 6 15 3 23 -3 8 0 13 8 11 8 -2 15 8 18 22
l4 25 8 -25 c6 -23 7 -23 8 8 1 19 7 35 16 38 14 6 14 8 0 18 -11 8 -13 18 -6
41 7 22 10 25 11 10 l1 -20 9 20 c5 11 9 15 9 8 1 -9 9 -9 32 -1 34 12 77 49
102 91 19 30 37 36 37 11 0 -24 25 -11 28 15 3 21 1 22 -27 16 -30 -6 -43 6
-21 20 6 4 8 15 5 26 -4 10 -2 19 4 19 5 0 11 -10 13 -22 4 -28 52 -38 62 -13
4 11 1 15 -11 13 -9 -2 -18 3 -21 11 -3 9 1 11 17 6 17 -5 21 -2 21 15 0 15 8
22 30 27 17 3 30 8 30 12 0 3 19 7 43 8 23 1 48 3 56 5 8 2 17 -8 22 -22 7
-24 7 -24 8 -2 1 24 16 30 25 10 5 -10 7 -10 12 0 3 6 16 12 29 12 13 0 26 -6
28 -12 3 -7 6 -4 6 8 1 11 5 24 10 30 5 5 11 23 13 39 4 28 5 29 14 9 8 -19
11 -20 22 -8 8 9 9 14 2 14 -6 0 -10 8 -8 18 1 9 -1 22 -5 29 -5 8 12 13 53
18 57 7 62 5 85 -19 27 -30 45 -33 45 -10 0 10 -6 14 -15 10 -17 -6 -20 5 -6
19 5 6 6 30 2 55 l-6 45 -40 -2 c-22 -1 -56 -4 -75 -6 -108 -15 -149 -17 -155
-7 -10 16 -23 12 -30 -10 -3 -11 -15 -20 -25 -20 -10 0 -74 -13 -142 -29 -195
-46 -222 -53 -241 -63 -25 -12 -30 -6 -18 24 8 22 25 30 123 56 205 57 387 93
540 108 61 6 68 9 78 34 13 33 53 71 95 93 35 19 45 20 45 8z m-1611 -90 c10
-6 12 -20 7 -47 -18 -104 -28 -144 -37 -144 -5 0 -9 4 -9 10 0 5 -13 31 -30
57 -34 53 -37 78 -14 111 16 23 57 29 83 13z m2446 -46 c177 -23 516 -92 533
-110 7 -6 -97 -576 -107 -587 -4 -4 -17 -1 -29 7 -17 12 -20 22 -15 45 4 22 2
30 -9 30 -8 0 -20 16 -28 35 -17 43 -58 54 -115 31 -24 -10 -42 -13 -49 -7
-13 10 -66 3 -66 -9 0 -5 -14 -12 -32 -15 -18 -4 -40 -12 -50 -18 -24 -15 -32
-3 -17 24 6 13 13 35 14 49 4 47 5 51 16 45 11 -7 49 22 49 37 0 4 -7 8 -15 8
-8 0 -21 16 -29 35 -9 20 -32 51 -52 70 -35 34 -40 35 -100 33 -62 -3 -63 -4
-69 -35 -3 -17 -12 -34 -21 -37 -8 -3 -12 -2 -9 4 3 6 -1 10 -9 10 -8 0 -22
-12 -30 -27 -8 -16 -15 -22 -16 -15 0 24 21 53 45 62 35 13 22 48 -21 56 -40
7 -41 13 -15 103 11 36 25 94 32 129 l12 62 41 0 c23 0 96 -7 161 -15z m-3090
-142 c105 -7 240 -19 300 -27 201 -29 297 -45 303 -51 3 -3 -38 -240 -92 -528
-89 -470 -113 -588 -115 -549 -1 6 -10 12 -21 12 -11 0 -20 -6 -21 -12 0 -7
-5 -4 -10 7 -7 15 -8 10 -3 -19 5 -35 4 -37 -10 -23 -9 8 -16 26 -16 39 0 14
-16 41 -35 62 -32 35 -39 38 -75 33 -93 -12 -105 22 -20 58 30 13 56 28 58 34
5 14 35 14 50 -1 21 -21 31 32 20 103 -5 35 -9 83 -9 107 1 46 -14 86 -30 77
-5 -4 -18 -4 -28 0 -19 6 -19 7 1 42 31 52 42 132 21 155 -15 16 -13 20 21 51
20 19 36 43 36 55 0 12 5 22 10 22 6 0 10 9 10 20 0 17 -12 11 -67 -35 -67
-54 -136 -81 -253 -100 -19 -3 -60 -10 -90 -15 -30 -5 -118 -11 -195 -14 -125
-5 -216 -16 -267 -32 -35 -11 -18 24 54 112 40 49 77 95 83 103 28 37 109 121
117 121 11 0 98 91 98 102 0 21 -25 16 -63 -13 -63 -49 -126 -112 -121 -121 3
-4 -1 -8 -8 -8 -22 0 -227 -270 -243 -319 -3 -11 -14 -23 -25 -26 -10 -3 -21
-13 -24 -21 -3 -8 -10 -13 -15 -9 -5 3 -17 -5 -25 -17 l-16 -22 0 22 c0 12 5
22 11 22 20 0 -11 29 -34 32 -19 3 -23 11 -28 58 -3 31 -13 71 -22 90 -16 34
-20 123 -4 113 4 -2 7 0 7 4 0 11 49 64 79 85 28 20 20 44 -9 28 -11 -6 -17
-17 -14 -25 4 -8 1 -15 -5 -15 -6 0 -11 7 -11 15 0 8 -4 15 -10 15 -5 0 -10 5
-10 10 0 6 6 10 14 10 8 0 17 4 20 9 4 5 -10 8 -31 6 -26 -2 -43 -11 -58 -29
-11 -14 -25 -26 -30 -26 -6 0 -20 -20 -32 -43 -12 -23 -26 -41 -32 -40 -6 2
-11 -4 -11 -12 0 -15 -21 -21 -33 -8 -11 11 -67 13 -68 3 -1 -6 -2 -14 -3 -19
-3 -23 -16 -21 -16 2 0 15 -4 27 -10 27 -5 0 -10 -13 -10 -30 0 -16 -5 -30
-10 -30 -6 0 -8 -10 -4 -24 3 -13 1 -27 -6 -31 -6 -4 -8 -15 -5 -25 4 -13 -4
-28 -25 -48 -16 -16 -30 -35 -30 -42 0 -9 -5 -6 -14 6 -22 29 -28 13 -12 -32
8 -21 18 -48 22 -59 15 -44 10 -109 -9 -126 -22 -18 -16 -59 9 -59 8 0 12 -4
9 -10 -3 -5 -1 -18 4 -29 8 -14 6 -22 -8 -35 -9 -9 -25 -16 -34 -16 -17 0 -41
-35 -33 -48 3 -5 -2 -27 -9 -50 -8 -23 -14 -64 -14 -92 1 -45 5 -53 29 -65 39
-20 47 -61 20 -97 l-21 -29 32 -37 c38 -43 55 -55 69 -47 6 3 10 2 10 -2 0
-10 -87 -44 -110 -42 -8 0 1 7 20 14 l35 13 -36 1 c-60 2 -112 83 -108 169 2
32 -1 46 -9 45 -7 -2 -12 3 -12 11 0 9 8 13 23 10 12 -2 15 -1 7 2 -8 4 -31
24 -50 45 -19 22 -55 50 -80 63 -25 14 -59 32 -77 42 -30 16 -35 16 -84 0 -73
-23 -112 -56 -129 -106 -8 -23 -20 -44 -27 -47 -7 -3 -13 -14 -13 -24 0 -15 5
-17 30 -12 19 3 30 1 30 -6 0 -20 -4 -26 -15 -24 -18 5 -74 -60 -81 -93 -9
-45 15 -59 138 -79 21 -3 49 -16 61 -29 13 -13 33 -27 45 -30 12 -4 29 -15 38
-23 11 -12 35 -17 76 -17 38 -1 62 -6 67 -15 7 -11 13 -8 26 13 11 16 24 25
32 22 8 -3 17 2 21 12 7 17 31 28 33 14 11 -62 -11 -135 -37 -125 -16 6 -20
-22 -4 -32 18 -11 0 -25 -32 -25 -22 0 -31 -6 -35 -20 -4 -15 -11 -19 -26 -14
-16 5 -19 3 -14 -10 4 -9 2 -16 -3 -16 -12 0 -12 -57 0 -85 8 -19 9 -19 9 3 1
26 25 77 50 103 25 27 47 4 47 -48 -1 -45 -5 -50 -24 -31 -16 16 -15 5 2 -37
17 -41 29 -46 20 -10 -5 22 -3 25 19 25 14 0 33 7 41 16 15 15 50 21 150 29
65 4 71 1 72 -42 1 -41 23 -63 65 -63 31 0 79 -19 79 -31 0 -4 12 -12 28 -17
17 -7 21 -11 9 -11 -10 -1 -34 6 -54 14 -51 21 -59 20 -158 -29 -118 -57 -153
-67 -207 -54 -24 5 -51 14 -60 19 -31 16 -21 -11 17 -46 19 -19 51 -39 70 -45
20 -7 34 -17 32 -23 -9 -27 -121 -35 -155 -11 -13 9 -51 18 -85 21 -34 3 -73
12 -87 21 -13 8 -38 17 -54 19 -16 2 -42 14 -56 28 -14 14 -34 25 -43 25 -9 0
-17 5 -17 11 0 8 -14 10 -45 6 -27 -4 -45 -3 -45 3 0 6 -6 10 -14 10 -7 0 -33
16 -57 35 -36 28 -50 34 -75 29 -18 -3 -35 -1 -38 5 -4 6 -1 11 6 11 11 0 11
2 0 9 -11 6 -9 30 9 127 27 148 32 162 61 166 17 2 23 9 22 26 -1 18 3 22 20
20 11 -2 20 -9 18 -16 -1 -6 7 -12 17 -12 15 0 18 5 13 22 -3 14 -2 19 6 14 7
-4 12 -14 12 -22 0 -19 10 -17 40 5 18 15 29 17 43 9 26 -14 36 1 13 18 -24
17 -56 18 -56 2 0 -9 -3 -9 -12 0 -7 7 -23 12 -36 12 -14 0 -42 5 -64 12 -38
11 -39 13 -33 42 4 17 7 38 7 46 0 28 187 1049 224 1217 l15 71 62 7 c34 4
105 13 157 20 117 17 313 34 480 43 187 10 719 7 935 -5z m2195 -3 c0 -5 -4
-10 -9 -10 -6 0 -13 5 -16 10 -3 6 1 10 9 10 9 0 16 -4 16 -10z m-8924 -73
c33 -38 33 -95 -1 -131 -13 -14 -31 -26 -40 -26 -20 0 -19 -9 4 -34 10 -12 35
-47 55 -78 l37 -58 -30 0 c-27 0 -37 10 -80 74 -54 80 -63 86 -122 86 l-39 0
0 -80 c0 -79 0 -80 -25 -80 l-25 0 0 181 0 181 121 -4 c118 -3 121 -4 145 -31z
m8611 -49 c-3 -8 -6 -5 -6 6 -1 11 2 17 5 13 3 -3 4 -12 1 -19z m-8325 -57
c19 -22 28 -42 28 -66 l0 -35 -95 0 c-104 0 -112 -6 -74 -54 28 -35 80 -36
107 -1 21 26 62 34 62 13 0 -7 -8 -23 -18 -34 -55 -68 -176 -55 -208 21 -28
67 -12 132 43 175 42 33 117 24 155 -19z m128 23 c0 -14 2 -14 22 0 30 21 84
20 106 -2 17 -17 19 -17 47 0 42 25 81 23 110 -7 23 -23 25 -31 25 -130 l0
-105 -25 0 c-25 0 -25 0 -25 98 0 102 -7 122 -44 122 -44 0 -56 -27 -56 -127
0 -93 0 -93 -25 -93 -25 0 -25 1 -25 91 0 101 -10 129 -44 129 -43 0 -59 -33
-64 -130 -4 -80 -7 -90 -23 -90 -18 0 -19 9 -19 130 0 123 1 130 20 130 11 0
20 -7 20 -16z m431 -79 c18 -52 36 -92 39 -89 3 3 19 45 36 92 25 69 36 88 53
90 11 2 21 -1 21 -7 0 -25 -114 -311 -131 -330 -27 -28 -79 -29 -79 -1 0 13 7
20 19 20 22 0 51 35 51 60 0 9 -17 61 -39 116 -57 148 -57 144 -28 144 22 0
28 -10 58 -95z m7369 5 c0 -5 -5 -10 -11 -10 -5 0 -7 5 -4 10 3 6 8 10 11 10
2 0 4 -4 4 -10z m-2270 -20 c0 -5 -4 -10 -10 -10 -5 0 -10 5 -10 10 0 6 5 10
10 10 6 0 10 -4 10 -10z m3784 -37 c3 -25 4 -48 1 -51 -10 -11 -35 9 -35 29 0
12 -5 19 -12 16 -7 -2 -12 -14 -10 -25 2 -17 -2 -22 -17 -22 -12 0 -21 -6 -21
-14 0 -8 -6 -21 -14 -29 -13 -12 -8 -17 34 -37 26 -12 53 -19 59 -16 16 10 13
34 -6 44 -14 9 -14 11 6 22 28 14 57 -4 31 -20 -8 -5 -11 -12 -7 -16 4 -4 0
-15 -9 -25 -14 -16 -8 -21 83 -74 135 -80 193 -116 208 -131 7 -7 31 -23 54
-35 22 -11 41 -25 41 -31 0 -5 -3 -7 -7 -5 -5 3 -39 24 -78 47 -38 23 -86 45
-107 48 -24 3 -38 10 -38 19 0 8 -6 20 -12 26 -12 11 -122 75 -242 141 -51 29
-86 31 -94 6 -5 -13 -3 -13 12 -1 9 8 19 12 21 9 3 -3 -1 -10 -8 -17 -22 -18
-47 -3 -46 28 1 14 0 31 -1 36 -6 19 12 45 31 45 14 0 21 -9 26 -30 6 -33 23
-51 23 -26 0 9 5 16 10 16 6 0 10 13 10 29 0 16 7 34 15 41 8 7 15 18 15 25 0
16 16 23 51 24 24 1 27 -3 33 -46z m-1568 2 c-1 -28 -26 -35 -26 -7 0 10 3 22
7 25 13 14 21 6 19 -18z m59 -6 c12 -19 -3 -22 -27 -5 l-22 16 21 0 c12 0 25
-5 28 -11z m-2329 -26 c-10 -10 -19 5 -10 18 6 11 8 11 12 0 2 -7 1 -15 -2
-18z m2214 -26 c-8 -9 -10 -8 -5 6 4 10 2 17 -5 17 -6 0 -8 5 -4 11 5 8 10 6
16 -6 7 -11 6 -21 -2 -28z m90 20 c0 -21 -12 -28 -27 -16 -10 9 -13 8 -13 -1
0 -8 -3 -10 -6 -7 -9 9 15 37 32 37 8 0 14 -6 14 -13z m-2352 -38 c-2 -6 -8
-10 -13 -10 -5 0 -11 4 -13 10 -2 6 4 11 13 11 9 0 15 -5 13 -11z m76 -56 c3
-30 4 -59 1 -64 -4 -5 1 -9 9 -9 10 0 14 -8 12 -27 -3 -28 -4 -28 -82 -31 -53
-1 -74 1 -64 7 12 9 12 11 -3 17 -12 4 -16 13 -12 26 6 16 3 18 -20 12 -25 -6
-26 -5 -16 15 7 12 17 21 24 20 26 -4 67 14 81 37 18 27 20 38 6 29 -5 -3 -10
-2 -10 4 0 15 30 29 50 24 13 -3 19 -19 24 -60z m3584 40 c-2 -9 -8 -18 -15
-20 -7 -3 -9 3 -6 16 6 25 26 28 21 4z m-3758 -3 c0 -5 -9 -10 -21 -10 -11 0
-17 5 -14 10 3 6 13 10 21 10 8 0 14 -4 14 -10z m2297 -42 c-3 -8 -6 -5 -6 6
-1 11 2 17 5 13 3 -3 4 -12 1 -19z m-2217 8 c0 -3 -4 -8 -10 -11 -5 -3 -10 -1
-10 4 0 6 5 11 10 11 6 0 10 -2 10 -4z m-126 -65 c4 -5 -1 -8 -9 -7 -21 3 -31
16 -12 16 9 0 18 -4 21 -9z m2343 -13 c-3 -8 -6 -5 -6 6 -1 11 2 17 5 13 3 -3
4 -12 1 -19z m1260 -10 c-3 -7 -5 -2 -5 12 0 14 2 19 5 13 2 -7 2 -19 0 -25z
m334 -1 c-10 -9 -11 -8 -5 6 3 10 9 15 12 12 3 -3 0 -11 -7 -18z m-3926 -27
c-3 -5 -12 -10 -18 -10 -7 0 -6 4 3 10 19 12 23 12 15 0z m3042 -36 c-9 -9
-28 6 -21 18 4 6 10 6 17 -1 6 -6 8 -13 4 -17z m503 6 c0 -11 -4 -20 -9 -20
-14 0 -23 18 -16 30 10 17 25 11 25 -10z m120 -15 c0 -22 -4 -25 -34 -25 -36
0 -53 19 -33 39 6 6 24 11 39 11 23 0 28 -4 28 -25z m-3673 -11 c-3 -3 -12 -4
-19 -1 -8 3 -5 6 6 6 11 1 17 -2 13 -5z m298 -14 c3 -5 1 -10 -4 -10 -6 0 -11
5 -11 10 0 6 2 10 4 10 3 0 8 -4 11 -10z m3583 3 c-10 -2 -18 -9 -18 -14 0 -5
-7 -9 -15 -9 -31 0 -14 26 18 27 17 1 24 -1 15 -4z m-3938 -11 c0 -5 -13 -7
-30 -4 -16 2 -30 6 -30 8 0 2 14 4 30 4 17 0 30 -4 30 -8z m2917 -14 c-3 -8
-6 -5 -6 6 -1 11 2 17 5 13 3 -3 4 -12 1 -19z m913 -10 c0 -4 -6 -5 -14 -2 -8
3 -12 12 -9 21 5 12 7 12 14 1 5 -7 9 -16 9 -20z m-1077 0 c-16 -20 12 -75 47
-93 17 -9 30 -11 30 -5 0 5 8 10 18 10 9 0 32 9 51 21 46 28 70 22 86 -23 7
-21 10 -40 7 -43 -3 -3 -5 -21 -4 -39 3 -42 -18 -62 -48 -46 -11 6 -25 8 -30
5 -6 -3 -10 3 -10 14 0 13 -12 26 -30 36 -16 9 -30 20 -30 25 0 5 -15 16 -34
24 -19 8 -44 24 -55 35 -23 23 -28 70 -9 89 15 15 24 7 11 -10z m1317 12 c0
-12 -28 -25 -36 -17 -9 9 6 27 22 27 8 0 14 -5 14 -10z m158 -13 c4 -22 -39
-32 -69 -16 -23 12 -23 12 12 24 41 15 53 13 57 -8z m-4199 -9 c14 -19 5 -23
-18 -9 -7 5 -10 14 -6 21 4 6 8 10 9 8 1 -2 8 -11 15 -20z m3706 5 c-3 -10 -8
-36 -11 -58 -7 -63 -59 -213 -83 -238 -11 -13 -19 -26 -16 -29 3 -2 -10 -34
-29 -69 -18 -35 -32 -74 -30 -86 2 -13 -1 -23 -7 -23 -5 0 -9 -6 -7 -12 1 -7
-5 -29 -14 -48 -9 -19 -18 -43 -22 -52 -6 -19 -46 -25 -46 -8 0 6 5 10 10 10
6 0 9 3 8 8 -1 4 12 35 30 69 37 73 34 97 -12 88 l-31 -6 23 20 c25 22 52 18
52 -8 1 -25 40 66 61 141 22 80 24 95 4 51 -8 -18 -20 -33 -26 -33 -7 0 -9 3
-6 6 3 4 2 15 -4 26 -14 27 23 78 57 78 23 0 25 3 19 31 -6 25 -3 31 13 36 11
3 25 18 31 34 6 16 16 43 22 59 6 17 14 30 16 30 3 0 2 -8 -2 -17z m-3615 -3
c11 -8 7 -9 -15 -4 -37 8 -45 14 -19 14 10 0 26 -5 34 -10z m3690 -10 c8 -5
11 -12 8 -16 -10 -9 -38 3 -38 16 0 12 10 13 30 0z m-3037 -21 l32 -1 -35 -9
c-19 -5 -48 -8 -65 -7 -16 1 -41 -5 -55 -14 -30 -20 -110 -40 -110 -27 0 5 4
9 9 9 5 0 17 7 25 16 9 9 31 17 49 19 17 2 46 8 62 13 17 6 36 8 43 6 8 -2 28
-4 45 -5z m2310 -9 c-8 -31 -23 -34 -23 -6 0 16 6 26 14 26 9 0 12 -7 9 -20z
m447 -10 c41 -21 70 -18 70 7 0 8 4 12 9 9 14 -9 1 -45 -22 -61 -17 -12 -18
-17 -7 -30 7 -8 8 -15 2 -15 -15 0 -35 28 -28 39 10 16 -16 25 -28 10 -6 -8
-19 -13 -28 -11 -11 2 -18 -3 -18 -11 0 -17 -27 -30 -35 -18 -7 13 -2 61 7 61
4 0 8 6 8 14 0 12 9 20 28 25 1 1 20 -8 42 -19z m-3483 4 c-3 -3 -12 -4 -19
-1 -8 3 -5 6 6 6 11 1 17 -2 13 -5z m4078 -3 c3 -5 1 -12 -4 -15 -12 -8 -41 3
-41 15 0 12 37 12 45 0z m117 -50 c-4 -53 -11 -55 -55 -25 -18 12 -17 13 10
30 15 10 32 24 36 31 12 19 12 17 9 -36z m-902 30 c0 -16 -31 -41 -42 -34 -7
4 -3 13 11 25 26 20 31 22 31 9z m-212 -18 c-2 -14 4 -18 30 -18 17 0 32 -3
32 -7 0 -5 -7 -8 -15 -8 -8 0 -22 -11 -30 -24 -22 -33 -42 -39 -71 -19 -28 18
-28 19 6 62 27 34 53 41 48 14z m859 -14 c-15 -24 -37 -25 -37 -1 0 25 7 31
30 25 16 -4 17 -8 7 -24z m518 20 c4 -5 18 -14 31 -19 13 -5 24 -14 24 -21 0
-12 -2 -11 -47 16 -32 20 -42 35 -24 35 6 0 13 -5 16 -11z m-1442 -16 c4 -3
-2 -13 -14 -21 -23 -16 -34 -10 -26 13 7 15 28 20 40 8z m-579 -30 c-4 -14 -2
-23 5 -23 19 0 12 -29 -9 -40 -15 -8 -19 -18 -15 -37 2 -15 9 -30 16 -33 7 -5
8 -10 1 -14 -6 -3 -13 0 -15 6 -4 10 -8 9 -16 -2 -6 -8 -11 -19 -11 -25 0 -5
5 -3 10 5 8 11 9 7 4 -15 -4 -16 -13 -34 -21 -38 -7 -4 -13 -13 -13 -18 0 -6
4 -8 9 -5 4 3 19 -6 31 -19 13 -14 32 -25 42 -25 21 0 24 -20 6 -38 -9 -9 -9
-12 0 -12 7 0 12 -7 12 -15 0 -9 12 -18 29 -21 37 -8 45 -47 19 -95 -10 -19
-18 -30 -18 -25 0 5 -7 3 -15 -4 -12 -10 -13 -8 -10 10 2 12 -2 23 -10 27 -8
3 -15 11 -15 19 0 17 -37 19 -43 2 -2 -7 -8 -9 -13 -5 -5 4 -4 11 1 15 12 9
45 67 45 79 0 6 -12 15 -27 22 -21 10 -28 9 -34 -1 -7 -10 -9 -9 -9 5 0 9 -6
17 -14 17 -9 0 -15 11 -16 28 0 15 -2 41 -3 57 -2 17 1 39 6 49 9 18 10 18 24
-5 l14 -24 -7 24 c-3 14 -15 33 -25 44 -10 11 -17 30 -14 41 2 12 4 24 4 28 1
3 11 4 23 0 13 -3 19 -1 15 5 -4 6 0 16 8 23 8 7 15 23 15 36 0 16 5 22 20 21
15 -1 18 -6 14 -24z m144 15 c7 -7 12 -18 12 -25 0 -14 -62 -83 -74 -83 -8 0
-4 52 4 60 3 3 11 17 17 33 14 30 23 33 41 15z m1260 -30 c4 -19 -35 -35 -50
-20 -6 6 -8 18 -4 27 8 21 50 16 54 -7z m262 8 c0 -16 -37 -28 -46 -15 -4 7
19 22 44 28 1 1 2 -5 2 -13z m-1406 -21 c13 -14 28 -25 35 -25 6 0 11 -9 11
-20 0 -11 5 -20 10 -20 6 0 10 -7 10 -15 0 -17 -29 -34 -47 -28 -6 2 -19 -7
-28 -21 -14 -22 -15 -29 -3 -53 11 -23 19 -27 42 -25 19 3 26 0 21 -8 -4 -6 1
-22 10 -36 18 -27 10 -57 -9 -32 -6 8 -24 18 -41 22 -16 4 -33 13 -37 19 -4 7
-10 3 -16 -12 -6 -18 -11 -21 -17 -12 -4 7 -4 16 1 20 5 3 9 37 10 74 0 41 5
72 12 76 15 9 12 62 -5 79 -7 7 -13 20 -13 28 0 22 29 16 54 -11z m-7597 -65
l-2 -80 -35 0 c-41 0 -60 15 -60 46 0 30 25 54 56 54 20 0 24 5 24 30 0 17 4
30 10 30 6 0 9 -32 7 -80z m9155 45 c2 -14 -3 -21 -19 -23 -17 -3 -23 2 -23
15 0 23 21 46 31 36 4 -5 9 -17 11 -28z m-10253 -4 c38 -26 47 -46 35 -78 -11
-32 -49 -49 -87 -39 -23 5 -25 11 -26 58 -1 93 14 104 78 59z m828 14 c-4 -11
-87 -16 -87 -5 0 14 14 19 51 17 22 -1 38 -6 36 -12z m560 -2 c3 -8 -8 -10
-36 -6 -37 5 -41 3 -41 -16 0 -17 6 -21 35 -21 44 0 46 -18 3 -22 -29 -3 -33
-7 -36 -35 -6 -63 -22 -32 -22 43 l0 75 47 -3 c25 -2 48 -8 50 -15z m8100 0
c2 -6 -4 -18 -13 -27 -9 -9 -14 -19 -11 -22 3 -3 -8 -19 -24 -37 -16 -17 -27
-38 -24 -45 3 -7 1 -11 -4 -8 -12 8 -22 -20 -15 -39 4 -9 0 -15 -10 -15 -9 0
-16 -8 -16 -20 0 -12 -7 -20 -17 -20 -10 0 -31 -10 -46 -23 -27 -21 -27 -23
-8 -24 11 -1 23 2 26 8 4 5 10 9 16 9 16 0 10 -18 -16 -44 -25 -25 -33 -56
-15 -56 6 0 10 -8 10 -18 0 -16 7 -18 45 -15 52 5 69 -15 41 -46 -9 -10 -16
-23 -16 -29 0 -7 -5 -12 -11 -12 -5 0 -7 4 -4 10 3 5 0 7 -9 4 -8 -3 -24 -22
-36 -41 -17 -29 -23 -33 -35 -23 -9 8 -12 22 -8 42 4 20 1 33 -8 39 -20 13
-29 11 -29 -6 0 -18 -39 -35 -80 -35 -23 0 -28 -4 -23 -16 6 -16 -26 -94 -40
-94 -4 0 -10 8 -13 18 -11 35 -28 64 -32 53 -2 -7 -9 -7 -21 1 -35 21 -141
-38 -141 -79 0 -7 -4 -13 -10 -13 -5 0 -11 -10 -11 -22 -2 -22 -2 -22 -6 1 -4
19 -7 21 -14 10 -14 -22 -31 9 -18 33 6 12 6 18 0 18 -6 0 -13 16 -17 35 -3
19 -10 35 -15 35 -5 0 -9 7 -9 15 0 21 16 19 25 -2 6 -17 7 -17 16 0 6 9 19
17 29 17 13 0 18 5 13 16 -3 8 -12 13 -20 10 -8 -3 -11 -1 -8 4 7 11 -19 43
-27 34 -3 -2 -5 14 -5 36 0 29 4 40 13 36 7 -3 15 6 18 20 5 18 13 24 32 24
20 0 25 -4 20 -16 -3 -9 -6 -20 -6 -25 0 -5 -6 -8 -12 -7 -7 2 -13 -4 -13 -12
0 -8 10 -16 23 -18 16 -2 22 -9 20 -21 -2 -10 3 -26 11 -35 13 -15 13 -19 0
-27 -8 -5 -9 -9 -4 -9 6 -1 0 -5 -12 -10 -13 -5 -23 -14 -23 -20 0 -8 6 -7 20
0 12 6 29 8 40 5 14 -4 19 0 22 16 2 18 13 25 58 35 58 13 80 33 125 113 11
19 31 38 43 41 17 3 30 21 46 60 15 37 27 54 37 51 53 -14 54 -14 117 71 33
46 67 89 73 97 9 10 9 15 -2 23 -12 8 -12 9 0 6 8 -3 16 -9 18 -15z m-6527
-13 c0 -11 7 -20 15 -20 8 0 15 -4 15 -10 0 -5 -7 -10 -15 -10 -11 0 -15 -11
-15 -40 0 -22 -4 -40 -10 -40 -5 0 -10 18 -10 40 0 29 -4 40 -15 40 -8 0 -15
5 -15 10 0 6 7 10 15 10 8 0 15 9 15 20 0 11 5 20 10 20 6 0 10 -9 10 -20z
m6487 -2 c-3 -8 -6 -5 -6 6 -1 11 2 17 5 13 3 -3 4 -12 1 -19z m730 9 c-4 -15
-97 -22 -97 -8 0 11 20 16 68 18 21 1 32 -3 29 -10z m-1189 -24 c2 -83 5 -87
50 -97 34 -8 41 -13 36 -28 -7 -23 -3 -23 41 3 19 12 43 18 52 15 14 -6 14 -9
-5 -27 -30 -27 -28 -41 6 -33 24 7 26 6 13 -9 -15 -19 -41 -23 -41 -7 0 19
-39 10 -66 -15 -15 -14 -33 -25 -40 -25 -7 0 -15 -6 -17 -12 -4 -10 -6 -10 -6
0 -1 7 8 20 19 29 11 10 20 23 20 29 0 7 6 15 13 17 7 3 6 6 -5 6 -9 1 -20 -4
-23 -9 -4 -6 -11 -8 -16 -5 -5 4 -9 0 -9 -7 0 -8 -8 -21 -18 -29 -22 -19 -50
-4 -44 24 4 21 -11 22 -28 2 -19 -23 -30 -18 -30 15 0 27 6 33 45 50 25 11 45
26 45 34 0 26 -17 27 -34 2 -8 -14 -25 -28 -37 -31 -12 -4 -32 -18 -43 -30
-23 -25 -96 -50 -96 -33 0 5 7 16 15 25 8 8 12 19 9 25 -4 6 -9 5 -15 -3 -11
-18 -17 -10 -21 31 -2 24 1 35 10 34 6 -1 23 -2 37 -2 16 -1 25 -8 25 -18 0
-10 6 -14 14 -11 7 3 19 0 25 -6 6 -6 11 -7 11 -1 0 5 15 18 34 28 25 13 33
24 31 38 -5 23 14 58 31 58 6 0 11 -12 12 -27z m1032 -8 c18 -29 20 -38 10
-50 -18 -21 -25 -19 -37 13 l-11 27 -1 -28 c-1 -16 -5 -26 -10 -22 -8 5 15 95
24 95 2 0 13 -16 25 -35z m-990 15 c0 -5 -4 -10 -10 -10 -5 0 -10 5 -10 10 0
6 5 10 10 10 6 0 10 -4 10 -10z m-6400 -9 c0 -4 11 -6 25 -4 19 4 27 0 36 -21
17 -37 -2 -76 -36 -76 -21 0 -25 -5 -25 -30 0 -16 -4 -30 -10 -30 -6 0 -10 35
-10 85 0 50 4 85 10 85 6 0 10 -4 10 -9z m-2488 -26 c9 -19 8 -29 -6 -50 -28
-43 -76 -27 -76 25 0 52 61 71 82 25z m152 19 c25 -10 18 -25 -8 -18 -18 4
-27 1 -35 -14 -14 -26 9 -47 40 -37 15 5 20 3 17 -6 -6 -19 -45 -24 -64 -9
-17 15 -18 43 -4 71 11 20 27 23 54 13z m117 -20 c16 -45 -33 -92 -66 -64 -18
15 -20 61 -3 78 19 19 60 10 69 -14z m97 14 c6 -21 2 -32 -9 -21 -20 20 -39 3
-39 -33 0 -19 -4 -34 -10 -34 -5 0 -10 21 -10 48 0 46 0 47 33 47 17 0 33 -3
35 -7z m96 0 c3 -7 7 -29 9 -49 5 -36 5 -36 -34 -37 -33 -2 -41 2 -51 23 -9
19 -8 29 6 50 18 27 64 35 70 13z m103 -5 c3 -7 -3 -10 -15 -7 -23 6 -47 -20
-38 -42 4 -12 14 -14 36 -9 32 7 41 -8 14 -23 -9 -5 -15 -13 -14 -18 0 -5 -10
-10 -22 -11 -15 -1 -17 0 -5 3 23 7 21 17 -5 29 -29 13 -34 39 -13 71 17 26
55 30 62 7z m110 -33 c2 -44 1 -45 -29 -47 -17 -1 -38 2 -45 8 -33 28 1 92 46
87 22 -3 26 -8 28 -48z m91 38 c16 -16 15 -50 -1 -73 -18 -23 -63 -14 -72 16
-14 43 42 88 73 57z m286 0 c3 -7 7 -29 9 -49 5 -36 5 -36 -34 -37 -33 -2 -41
2 -51 23 -9 19 -8 29 6 50 18 27 64 35 70 13z m286 -10 c0 -16 -3 -19 -11 -11
-20 20 -39 3 -39 -33 0 -19 -4 -34 -10 -34 -5 0 -10 21 -10 48 0 47 0 47 35
49 30 3 35 0 35 -19z m94 10 c3 -7 7 -29 9 -49 5 -35 5 -36 -31 -37 -59 -2
-79 30 -46 76 16 24 62 30 68 10z m106 -8 c13 -19 13 -80 1 -80 -6 0 -14 19
-18 42 -8 39 -9 40 -26 24 -9 -10 -17 -28 -17 -42 0 -13 -4 -24 -10 -24 -5 0
-10 22 -10 49 l0 48 35 -1 c20 -1 40 -8 45 -16z m107 3 c3 -8 -6 -11 -24 -10
-24 2 -28 -2 -28 -23 0 -21 4 -25 28 -23 19 1 26 -2 23 -10 -3 -7 -9 -20 -12
-29 -4 -12 -16 -18 -33 -17 -17 1 -20 3 -8 6 22 6 22 15 -3 31 -39 24 -17 95
27 90 15 -2 28 -8 30 -15z m97 5 c3 -7 7 -29 9 -49 5 -35 5 -36 -31 -37 -59
-2 -79 30 -46 76 16 24 62 30 68 10z m160 0 c3 -7 7 -29 9 -49 5 -36 5 -36
-34 -37 -37 -2 -59 16 -59 47 0 34 75 68 84 39z m110 -10 c7 -11 7 -26 0 -45
-17 -49 -84 -39 -84 13 0 48 59 71 84 32z m166 6 c0 -10 -6 -14 -15 -10 -8 3
-22 3 -31 -1 -12 -4 -8 -9 16 -19 49 -21 20 -64 -33 -50 -37 9 -34 27 3 20 36
-8 41 11 5 20 -31 8 -33 34 -2 46 35 14 57 12 57 -6z m98 -5 c2 -10 -8 -21
-28 -29 -16 -7 -30 -16 -30 -21 0 -12 27 -11 51 1 15 8 19 7 19 -4 0 -18 -34
-30 -65 -22 -53 14 -32 100 23 94 15 -2 28 -10 30 -19z m52 -19 c0 -33 3 -40
20 -40 17 0 20 7 20 40 0 22 5 40 10 40 6 0 10 -23 10 -51 l0 -50 -37 3 c-33
3 -39 7 -43 33 -7 35 -2 65 11 65 5 0 9 -18 9 -40z m326 29 c3 -5 2 -14 -2
-20 -5 -8 -8 -8 -14 0 -14 23 -40 0 -40 -35 0 -19 -4 -34 -10 -34 -5 0 -10 22
-10 48 l0 48 35 1 c19 1 38 -3 41 -8z m88 -1 c3 -7 7 -29 9 -49 5 -36 5 -36
-34 -37 -37 -2 -59 16 -59 47 0 34 75 68 84 39z m201 -32 c0 -67 -65 -78 -73
-12 -4 36 15 58 47 54 23 -3 26 -8 26 -42z m6766 15 c0 11 2 11 6 1 2 -6 9
-10 14 -7 5 4 6 -1 3 -10 -4 -10 -13 -13 -26 -9 -14 4 -18 2 -14 -5 5 -7 -2
-11 -17 -11 -34 0 -37 8 -19 41 l17 29 18 -21 c11 -14 17 -17 18 -8z m321 -8
c6 -16 12 -32 12 -38 1 -5 10 -9 21 -7 19 3 19 2 3 -14 -21 -21 -48 -12 -48
17 0 12 -7 27 -17 34 -9 7 -13 17 -9 23 12 20 26 14 38 -15z m73 -3 c16 -31
13 -50 -7 -50 -7 0 -7 5 1 14 9 10 8 15 -4 20 -8 3 -15 15 -15 26 0 28 7 25
25 -10z m-2928 -8 c2 -34 -12 -51 -38 -45 -15 4 -17 8 -8 19 6 8 8 14 5 14 -4
0 -2 9 4 20 15 29 35 25 37 -8z m1143 8 c0 -5 -4 -10 -10 -10 -5 0 -10 5 -10
10 0 6 5 10 10 10 6 0 10 -4 10 -10z m-2505 -28 c-3 -3 0 -11 6 -19 7 -7 13
-30 15 -51 l3 -37 -16 29 c-9 17 -17 42 -18 56 -1 15 -6 33 -10 41 -8 12 -6
12 8 0 10 -8 15 -16 12 -19z m925 18 c0 -13 -60 -13 -80 0 -11 7 -2 10 33 10
26 0 47 -4 47 -10z m1595 -26 c-2 -20 -6 -38 -9 -41 -7 -8 -36 5 -36 15 0 9
38 62 45 62 2 0 2 -16 0 -36z m-135 16 c0 -5 0 -12 0 -15 0 -3 -3 -5 -6 -4
-13 2 -22 -25 -15 -40 11 -21 -22 -54 -38 -38 -13 13 -15 37 -3 37 5 0 17 16
28 35 18 34 34 46 34 25z m-1595 -41 c6 0 29 2 53 5 25 3 42 1 42 -5 0 -6 9
-8 19 -4 11 3 22 2 25 -3 3 -5 28 -10 55 -11 28 -1 60 -5 73 -11 15 -5 -43 -7
-157 -3 -148 5 -191 3 -243 -11 -35 -9 -68 -14 -73 -10 -5 3 -9 1 -9 -4 0 -5
-8 -12 -17 -16 -10 -3 -29 -11 -43 -16 -44 -19 -7 7 63 45 38 20 87 39 110 41
23 3 44 8 47 10 2 3 14 2 25 -1 11 -4 25 -6 30 -6z m3256 -12 c29 -25 44 -57
27 -57 -13 0 -68 56 -68 70 0 16 13 12 41 -13z m274 13 c-3 -5 -12 -10 -18
-10 -7 0 -6 4 3 10 19 12 23 12 15 0z m-1527 -12 c-7 -19 -38 -22 -38 -4 0 10
9 16 21 16 12 0 19 -5 17 -12z m1469 -12 l36 7 -29 -37 c-16 -20 -36 -36 -45
-36 -9 0 -29 -2 -45 -5 -16 -3 -35 -1 -43 4 -11 7 -9 13 8 30 11 11 21 30 21
41 0 20 1 20 30 5 21 -11 42 -14 67 -9z m246 -58 c-6 -47 -6 -48 -40 -45 -40
2 -43 32 -3 32 20 0 25 5 23 25 -2 34 6 55 17 44 4 -5 6 -30 3 -56z m-1846 10
c-3 -8 -6 -5 -6 6 -1 11 2 17 5 13 3 -3 4 -12 1 -19z m263 3 c0 -6 -4 -13 -10
-16 -5 -3 -10 1 -10 9 0 9 5 16 10 16 6 0 10 -4 10 -9z m554 -24 c-8 -21 -23
-22 -31 -1 -7 18 17 38 30 25 4 -4 5 -15 1 -24z m46 6 c0 -13 -3 -13 -15 -3
-8 7 -15 16 -15 21 0 5 7 6 15 3 8 -4 15 -13 15 -21z m-1150 -8 c0 -14 -5 -25
-11 -25 -6 0 -9 -6 -6 -14 3 -7 -3 -26 -14 -42 -14 -21 -19 -24 -19 -11 0 9
-7 17 -15 17 -20 0 -20 2 16 54 34 52 49 58 49 21z m-2031 -20 c-38 -20 -120
-47 -126 -41 -3 2 17 11 43 20 27 8 45 15 39 16 -5 2 4 6 20 10 46 12 52 10
24 -5z m3088 -7 c-3 -8 -6 -5 -6 6 -1 11 2 17 5 13 3 -3 4 -12 1 -19z m642
-14 c-11 -31 -39 -73 -39 -59 0 6 7 19 15 29 8 11 15 30 15 44 0 13 4 21 10
17 6 -4 6 -15 -1 -31z m-4556 20 c20 -7 10 -41 -14 -47 -12 -3 -20 1 -24 14
-10 32 6 46 38 33z m4803 -20 c-5 -20 -1 -31 24 -52 30 -26 40 -52 20 -52 -5
0 -10 -7 -10 -16 0 -12 -7 -14 -27 -10 -16 3 -43 7 -61 8 -22 2 -34 8 -38 22
-7 20 -7 20 -15 -1 -6 -16 -13 -20 -29 -16 -22 6 -22 30 0 25 7 -2 21 5 31 14
14 13 16 20 8 31 -14 16 7 47 28 39 7 -3 21 3 30 14 25 29 47 26 39 -6z
m-4442 -10 c3 -8 2 -12 -4 -9 -6 3 -10 10 -10 16 0 14 7 11 14 -7z m1409 -13
c10 -10 7 -12 -12 -9 -14 1 -26 8 -28 15 -5 15 23 11 40 -6z m2845 7 c-6 -18
-28 -21 -28 -4 0 9 7 16 16 16 9 0 14 -5 12 -12z m-4535 -29 c13 -17 18 -19
37 -9 25 13 50 -1 50 -29 0 -15 -41 -41 -63 -41 -17 0 -67 59 -67 80 0 26 25
26 43 -1z m2836 1 c24 0 17 -42 -11 -67 -19 -17 -20 -17 -29 0 -6 10 -14 15
-20 12 -12 -8 -11 9 3 40 7 16 17 24 26 20 7 -3 22 -5 31 -5z m311 0 c0 -5 -5
-10 -11 -10 -5 0 -7 5 -4 10 3 6 8 10 11 10 2 0 4 -4 4 -10z m1696 -38 c-12
-11 -18 7 -10 30 l8 23 4 -23 c2 -13 1 -26 -2 -30z m-343 23 c4 -8 2 -17 -3
-20 -6 -4 -10 3 -10 14 0 25 6 27 13 6z m-1417 -50 c-40 -37 -64 -32 -29 7 9
10 25 18 36 18 18 0 17 -2 -7 -25z m1334 21 c0 -3 -4 -8 -10 -11 -5 -3 -10 -1
-10 4 0 6 5 11 10 11 6 0 10 -2 10 -4z m387 -60 c-12 -18 -23 -33 -25 -31 -7
6 22 65 34 65 9 0 7 -10 -9 -34z m-4848 -12 c9 -21 8 -24 -14 -30 -18 -4 -28
-16 -35 -45 -8 -29 -16 -39 -31 -39 -11 0 -22 7 -25 15 -4 8 -14 15 -23 15
-10 0 -23 12 -30 27 -11 23 -10 29 4 39 9 7 23 10 31 7 9 -3 14 2 14 15 0 25
10 29 59 24 29 -3 41 -10 50 -28z m4636 15 c15 -15 -6 -40 -47 -53 -30 -11
-35 -11 -31 0 3 8 0 14 -6 14 -19 0 -12 28 11 44 22 16 53 13 73 -5z m-1465
-15 c0 -8 9 -22 20 -31 21 -18 28 -63 10 -63 -5 0 -10 4 -10 10 0 5 -7 6 -17
3 -11 -4 -14 -3 -9 6 5 7 1 20 -9 31 -12 13 -15 27 -11 45 7 26 26 26 26 -1z
m-1395 -34 c3 -6 -1 -7 -9 -4 -18 7 -21 14 -7 14 6 0 13 -4 16 -10z m2955 -30
c0 -4 9 -10 19 -13 12 -3 21 -15 23 -33 3 -32 -21 -71 -33 -52 -5 8 -14 7 -32
-4 -13 -9 -37 -18 -53 -20 -18 -2 -33 -11 -39 -25 -11 -26 -27 -29 -44 -9 -20
24 4 56 39 56 21 0 31 5 32 18 6 65 17 90 42 94 25 5 46 -1 46 -12z m-1895 0
c3 -5 1 -10 -4 -10 -6 0 -11 5 -11 10 0 6 2 10 4 10 3 0 8 -4 11 -10z m176
-32 c10 -13 18 -28 19 -35 0 -7 11 -22 24 -35 14 -13 26 -36 28 -53 2 -24 -2
-32 -24 -43 -17 -8 -28 -21 -28 -33 0 -11 -5 -30 -11 -42 -9 -16 -9 -22 0 -25
20 -7 11 -29 -11 -27 -22 2 -40 35 -20 35 5 0 12 16 15 36 5 31 2 41 -23 65
-24 25 -50 38 -50 25 0 -21 26 -66 38 -66 14 0 14 -1 0 -12 -12 -10 -17 -36
-21 -96 -5 -88 -12 -108 -28 -79 -6 9 -14 15 -20 12 -5 -4 -9 0 -10 7 0 7 -4
3 -9 -10 -6 -13 -15 -22 -22 -21 -27 3 -36 -2 -41 -21 -6 -24 -27 -27 -27 -4
0 8 -5 12 -11 9 -26 -17 -80 -10 -101 12 -12 13 -18 23 -13 23 5 0 -1 10 -12
23 -13 13 -23 41 -27 70 -4 41 0 59 29 115 32 65 63 103 103 126 11 6 30 18
43 28 15 10 52 18 97 21 40 3 76 7 79 11 10 9 13 8 34 -16z m265 -34 c-8 -21
-25 -17 -21 6 6 33 19 48 23 27 2 -10 1 -25 -2 -33z m634 36 c0 -5 -4 -10 -10
-10 -5 0 -10 5 -10 10 0 6 5 10 10 10 6 0 10 -4 10 -10z m-3821 -11 c6 9 9 6
9 -13 0 -31 -13 -34 -28 -7 -13 25 -13 41 0 21 8 -12 11 -13 19 -1z m4461 -4
c0 -8 -2 -15 -4 -15 -2 0 -6 7 -10 15 -3 8 -1 15 4 15 6 0 10 -7 10 -15z
m-670 -10 c0 -14 3 -13 25 1 30 19 34 5 5 -16 -11 -8 -20 -20 -20 -26 0 -6 -6
-17 -14 -23 -11 -9 -15 -5 -20 24 -4 19 -4 40 -1 45 9 15 25 12 25 -5z m280
-24 c0 -5 -7 -14 -15 -21 -16 -14 -18 -10 -9 14 6 17 24 22 24 7z m682 -13 c2
-34 3 -41 18 -71 17 -35 -1 -62 -20 -28 -17 32 -25 121 -11 121 6 0 12 -10 13
-22z m-4552 -7 c0 -12 -20 -25 -27 -18 -7 7 6 27 18 27 5 0 9 -4 9 -9z m3537
-43 c26 -29 46 -68 35 -68 -5 0 -23 13 -39 29 -17 15 -36 30 -43 33 -16 5 -4
28 14 28 7 0 22 -10 33 -22z m89 6 c-3 -9 -6 -20 -6 -25 0 -5 -6 -4 -14 3 -16
15 -10 38 11 38 10 0 13 -6 9 -16z m874 2 c0 -19 -14 -28 -34 -20 -25 10 -19
34 9 34 15 0 25 -6 25 -14z m-1180 -7 c0 -6 -20 -30 -44 -53 -49 -46 -69 -78
-61 -98 3 -8 -6 -25 -20 -38 -14 -13 -25 -29 -25 -37 0 -12 -5 -14 -42 -17 -7
-1 -13 5 -13 12 0 7 -7 17 -15 22 -13 9 -13 11 -1 19 8 5 11 16 8 25 -6 16 29
43 41 32 7 -7 52 34 52 47 0 17 90 94 113 96 4 1 7 -4 7 -10z m369 -56 c1 -7
-6 -13 -14 -13 -16 0 -20 26 -8 57 6 16 8 15 14 -7 4 -14 7 -31 8 -37z m-559
26 c0 -5 -4 -9 -10 -9 -5 0 -10 7 -10 16 0 8 5 12 10 9 6 -3 10 -10 10 -16z
m1400 11 c0 -5 -4 -10 -10 -10 -5 0 -10 5 -10 10 0 6 5 10 10 10 6 0 10 -4 10
-10z m-1505 -31 c-6 -17 -9 -19 -16 -8 -7 12 -9 11 -9 -1 0 -23 -40 -46 -51
-29 -5 8 6 21 34 39 23 15 44 26 45 24 2 -1 1 -12 -3 -25z m1315 -29 c-34 -22
-56 0 -28 28 10 10 16 9 28 -3 13 -14 13 -17 0 -25z m186 16 c-19 -68 -20 -66
8 -66 37 0 32 -16 -13 -39 l-38 -20 13 -52 c14 -52 9 -85 -8 -55 -5 9 -14 16
-20 16 -5 0 -19 11 -30 25 -13 16 -29 25 -49 25 -19 0 -29 5 -29 15 0 17 35
55 50 55 6 0 10 3 9 8 -3 21 15 53 27 48 8 -3 14 -1 14 3 0 15 42 58 57 58 10
0 13 -7 9 -21z m-531 5 c3 -5 1 -12 -5 -16 -5 -3 -10 1 -10 9 0 18 6 21 15 7z
m-1065 -77 c0 -10 -33 -33 -47 -34 -18 0 -16 21 3 48 13 19 17 20 30 8 8 -8
14 -18 14 -22z m583 2 c13 -10 14 -15 5 -19 -17 -6 -58 10 -58 23 0 14 32 12
53 -4z m-3082 -41 c-1 -15 -24 -12 -29 3 -3 9 2 13 12 10 10 -1 17 -7 17 -13z
m4119 -21 c0 -8 -5 -12 -10 -9 -6 4 -8 11 -5 16 9 14 15 11 15 -7z m-4290 -14
c0 -11 -6 -20 -14 -20 -18 0 -29 16 -21 30 11 18 35 11 35 -10z m2647 -22 c-1
-18 -8 -38 -15 -43 -7 -6 -18 -22 -25 -35 -12 -25 -63 -43 -55 -20 2 6 7 10
11 8 4 -2 24 25 43 60 19 34 37 62 39 62 2 0 3 -15 2 -32z m-2007 18 c0 -3 -4
-8 -10 -11 -5 -3 -10 -1 -10 4 0 6 5 11 10 11 6 0 10 -2 10 -4z m65 -6 c-3 -5
-10 -10 -16 -10 -5 0 -9 5 -9 10 0 6 7 10 16 10 8 0 12 -4 9 -10z m-105 -9 c0
-5 -18 -9 -40 -9 -22 0 -40 3 -40 9 0 5 18 9 40 9 22 0 40 -4 40 -9z m1983
-11 c-3 -11 -7 -20 -9 -20 -2 0 -4 9 -4 20 0 11 4 20 9 20 5 0 7 -9 4 -20z
m-2341 -38 c56 -16 58 -16 87 6 17 12 40 22 53 22 21 -1 21 -2 -7 -18 -16 -9
-51 -24 -77 -33 -40 -14 -52 -15 -83 -5 -20 7 -46 23 -58 36 l-22 23 25 -8
c14 -4 51 -14 82 -23z m2486 1 c5 -16 10 -37 10 -48 0 -11 2 -29 4 -40 2 -13
-3 -20 -12 -20 -8 0 -16 10 -18 23 -3 21 -12 26 -39 23 -20 -3 -15 27 7 46 11
10 20 23 20 30 0 23 17 14 28 -14z m-7148 7 c0 -6 -48 -10 -125 -10 -77 0
-125 4 -125 10 0 6 48 10 125 10 77 0 125 -4 125 -10z m5370 -11 c0 -5 -16 -9
-35 -9 -36 0 -48 16 -17 22 23 5 52 -2 52 -13z m1940 6 c0 -8 -5 -15 -11 -15
-7 0 -10 -12 -7 -30 4 -25 1 -30 -16 -31 -12 0 -15 -3 -9 -6 10 -3 9 -8 -3
-20 -8 -8 -18 -12 -22 -8 -4 4 -2 9 3 11 6 2 9 22 7 44 -2 22 -2 47 2 55 7 20
56 20 56 0z m130 11 c0 -2 -7 -19 -15 -39 -11 -26 -22 -37 -45 -42 -18 -4 -33
-5 -36 -3 -5 6 75 88 86 88 6 0 10 -2 10 -4z m-1975 -16 c14 -6 5 -9 -35 -9
-40 0 -49 3 -35 9 11 5 27 9 35 9 8 0 24 -4 35 -9z m2242 -22 c-3 -7 -5 -2 -5
12 0 14 2 19 5 13 2 -7 2 -19 0 -25z m890 16 c-3 -3 -12 -4 -19 -1 -8 3 -5 6
6 6 11 1 17 -2 13 -5z m-1017 -79 c0 -10 -10 -15 -30 -15 -49 0 -34 24 18 29
6 0 12 -6 12 -14z m-572 -15 c-2 -3 5 -18 15 -34 20 -31 15 -86 -8 -86 -20 0
-24 10 -31 75 -6 50 -5 57 10 54 9 -2 16 -6 14 -9z m322 0 c0 -5 -7 -10 -15
-10 -9 0 -27 -11 -40 -24 -14 -14 -27 -21 -30 -15 -8 13 31 53 44 44 6 -3 11
-1 11 4 0 6 7 11 15 11 8 0 15 -4 15 -10z m1098 -56 c55 -22 75 -35 84 -55 7
-15 16 -25 20 -23 5 3 11 -3 15 -13 4 -10 13 -24 20 -31 26 -26 48 -156 37
-214 -3 -15 -14 -30 -25 -33 -19 -6 -19 -8 -3 -19 13 -10 14 -15 5 -21 -8 -4
-21 2 -32 14 -20 22 -45 20 -32 -2 4 -8 1 -7 -9 1 -16 13 -77 9 -103 -6 -5 -4
-22 -5 -38 -3 -17 1 -29 -3 -33 -13 -3 -9 -10 -16 -16 -16 -5 0 -6 5 -3 10 3
6 -3 10 -15 10 -12 0 -19 -4 -16 -9 11 -17 -19 -27 -74 -26 -30 1 -74 -4 -97
-11 -42 -14 -99 -4 -114 18 -3 6 -9 2 -13 -8 -6 -16 -8 -16 -26 1 -17 16 -20
16 -20 2 0 -15 -51 -33 -68 -23 -5 3 -42 0 -83 -6 -41 -6 -83 -11 -94 -11 -27
-1 -39 -20 -17 -29 16 -6 16 -7 0 -7 -9 -1 -19 3 -22 8 -6 10 -46 3 -46 -8 0
-4 -12 -8 -27 -9 -15 -1 -29 -6 -32 -10 -10 -13 -62 -32 -72 -26 -6 3 -16 0
-24 -6 -8 -7 -58 -14 -112 -17 -129 -7 -120 -7 -188 5 -40 6 -66 7 -79 0 -12
-7 -22 -6 -29 1 -7 7 -14 7 -24 0 -9 -8 -13 -8 -13 0 0 6 -9 11 -21 11 -11 0
-18 4 -15 9 3 4 -12 13 -33 20 -48 14 -54 14 -45 0 4 -7 3 -10 -2 -7 -47 21
-65 28 -106 38 -28 8 -45 17 -41 23 4 6 0 8 -9 4 -19 -7 -220 93 -308 153 -34
23 -60 48 -60 58 0 32 31 197 39 205 4 4 39 -8 77 -26 275 -135 607 -216 1034
-252 64 -6 82 -3 123 15 27 12 51 20 53 17 3 -2 -10 -10 -28 -18 -32 -13 -32
-13 -8 -20 33 -9 237 -11 332 -3 l74 7 -12 46 c-24 94 1 174 79 255 90 92 157
104 295 50z m-1124 -31 c-33 -26 -44 -29 -44 -10 1 28 32 49 59 39 10 -4 6
-12 -15 -29z m-6996 -14 c2 -12 -4 -15 -26 -11 -44 6 -49 -15 -8 -35 44 -20
54 -47 30 -74 -23 -26 -87 -23 -92 3 -3 15 2 17 26 12 43 -9 47 11 7 35 -60
35 -41 94 30 88 18 -1 31 -8 33 -18z m163 2 c18 -14 24 -29 24 -61 0 -32 -6
-47 -24 -61 -53 -43 -131 -8 -131 58 0 69 78 107 131 64z m170 3 c10 -13 10
-19 0 -36 -9 -15 -10 -23 -2 -31 15 -15 14 -50 -1 -65 -7 -7 -34 -12 -60 -12
l-48 0 0 80 0 80 49 0 c32 0 53 -5 62 -16z m153 -7 c8 -13 7 -24 -5 -45 -15
-26 -14 -29 9 -59 l24 -33 -23 0 c-16 0 -30 10 -41 30 -22 38 -38 38 -38 0 0
-23 -4 -30 -20 -30 -18 0 -20 7 -20 81 l0 80 51 -3 c36 -2 55 -8 63 -21z m146
8 c0 -10 -10 -15 -30 -15 -20 0 -30 -5 -30 -15 0 -9 9 -15 25 -15 16 0 25 -6
25 -15 0 -9 -9 -15 -25 -15 -18 0 -25 -5 -25 -20 0 -16 7 -20 30 -20 20 0 30
-5 30 -15 0 -11 -12 -15 -50 -15 l-50 0 0 80 0 80 50 0 c38 0 50 -4 50 -15z
m2530 -21 c0 -2 -14 -4 -31 -4 -16 0 -28 4 -25 9 5 8 56 3 56 -5z m43 -21 c8
-16 -18 -50 -33 -44 -24 10 -24 34 0 28 22 -6 28 8 8 16 -8 3 -7 6 4 6 9 1 19
-2 21 -6z m147 -14 c0 -5 -4 -8 -9 -5 -5 3 -11 -1 -14 -9 -4 -8 2 -16 14 -20
19 -6 24 -17 12 -28 -3 -4 -12 1 -19 11 -8 10 -13 12 -14 5 0 -7 -5 -13 -11
-13 -5 0 -8 4 -5 9 4 5 3 16 0 25 -5 14 -9 14 -22 4 -13 -11 -14 -11 -7 1 6
11 3 13 -15 8 -13 -3 -19 -2 -14 3 18 17 104 25 104 9z m3340 -16 c0 -24 -16
-48 -23 -36 -8 13 3 53 14 53 5 0 9 -8 9 -17z m-3320 -3 c-8 -5 -19 -10 -25
-10 -5 0 -3 5 5 10 8 5 20 10 25 10 6 0 3 -5 -5 -10z m1935 -156 c-14 -77 -34
-186 -45 -243 -10 -57 -20 -104 -22 -105 -39 -27 -299 -36 -406 -14 -40 9 -58
8 -80 -1 l-27 -13 23 -15 c12 -9 22 -24 22 -35 0 -19 -1 -19 -30 -1 -17 10
-28 23 -26 30 3 8 -8 15 -32 19 -20 3 -46 8 -57 12 -11 3 -23 5 -27 4 -3 -1
-33 7 -65 17 -75 25 -105 30 -178 32 -33 1 -71 6 -85 11 -14 5 -68 11 -120 13
-110 5 -173 11 -250 25 -30 6 -83 9 -118 9 -61 -2 -63 -3 -102 -48 -41 -46
-48 -61 -30 -61 6 0 10 -7 10 -15 0 -8 10 -21 23 -30 33 -21 126 -48 144 -41
9 4 21 2 28 -4 7 -5 25 -12 41 -14 16 -2 86 -14 155 -25 151 -25 240 -28 295
-8 42 15 90 17 111 4 16 -10 164 3 180 15 7 5 22 6 35 2 39 -12 156 -7 187 9
28 14 34 13 65 -3 28 -14 53 -17 128 -13 51 2 105 4 121 5 15 0 30 -2 33 -5 3
-3 0 -39 -7 -81 l-13 -76 -690 0 c-384 0 -722 5 -761 10 -139 19 -235 36 -455
79 -131 26 -291 68 -303 80 -7 7 6 93 44 279 6 28 14 52 18 52 4 0 16 -9 28
-19 28 -26 107 -53 112 -38 2 6 -1 13 -7 15 -15 5 -16 32 -2 32 6 0 10 -5 10
-11 0 -5 5 -7 10 -4 6 3 10 -1 10 -9 0 -9 7 -16 15 -16 8 0 15 -7 15 -15 0 -8
4 -15 10 -15 5 0 7 8 4 18 -3 9 2 6 10 -8 8 -14 15 -19 16 -11 0 8 6 11 16 7
8 -3 12 -2 9 3 -10 16 13 22 39 10 30 -14 33 -24 9 -39 -16 -10 -16 -11 -1 -6
9 3 18 2 20 -2 2 -5 10 0 20 9 15 16 15 19 -3 38 -24 26 -24 31 4 32 20 1 20
2 -5 12 -28 11 -38 27 -17 27 5 0 7 5 3 11 -4 8 -9 7 -15 -2 -5 -8 -9 -11 -9
-7 0 4 -12 3 -27 -3 -23 -8 -30 -7 -43 8 -24 29 -76 63 -97 63 -10 0 -33 13
-50 29 -18 16 -35 26 -38 23 -3 -4 -10 0 -14 7 -10 15 9 71 24 71 5 0 3 5 -5
11 -12 9 -11 10 5 4 29 -10 85 -12 85 -3 0 5 7 8 15 8 8 0 15 7 15 15 0 8 5
15 11 15 7 0 9 -10 5 -25 -7 -29 -3 -31 19 -9 15 15 17 15 22 -5 5 -19 10 -21
36 -15 18 4 32 2 36 -5 4 -6 19 -12 34 -13 18 -2 26 -7 23 -15 -6 -13 14 -13
48 2 13 6 21 4 24 -3 3 -9 10 -8 25 3 29 21 62 19 78 -4 8 -11 25 -22 38 -26
20 -6 23 -4 18 9 -4 9 -2 16 3 16 6 0 10 -7 10 -15 0 -8 7 -15 15 -15 8 0 15
-5 15 -11 0 -7 10 -9 25 -7 17 4 25 1 25 -8 0 -8 8 -14 18 -14 10 0 27 -6 37
-14 11 -8 25 -12 32 -9 14 5 63 -40 63 -58 0 -6 7 -9 15 -5 8 3 15 0 15 -5 0
-6 9 -9 19 -6 10 2 24 1 31 -3 7 -4 37 3 67 16 54 24 73 24 73 1 0 -7 -4 -6
-10 3 -9 13 -11 13 -19 1 -5 -8 -9 -26 -7 -40 1 -20 7 -25 21 -23 11 2 23 9
27 15 4 7 8 8 8 3 0 -5 6 -4 13 2 20 17 60 18 65 3 3 -9 0 -12 -10 -9 -8 4
-21 2 -29 -3 -11 -7 -11 -9 4 -9 9 0 17 -4 17 -9 0 -5 9 -11 20 -14 11 -3 20
-1 20 5 0 5 4 7 9 4 5 -3 8 0 7 7 0 6 4 12 9 12 6 0 9 -8 8 -18 -2 -10 2 -15
7 -12 6 3 10 13 10 21 0 18 28 49 37 40 3 -3 -2 -15 -12 -26 -18 -20 -18 -20
22 -20 32 0 42 -4 46 -20 4 -16 11 -18 43 -13 43 6 55 13 37 20 -7 3 -13 9
-13 15 0 6 7 8 14 5 8 -3 25 5 38 18 23 24 45 34 33 15 -3 -5 -1 -10 5 -10 6
0 8 -5 4 -12 -6 -9 -3 -9 9 1 9 7 23 11 31 8 9 -4 16 3 20 20 6 20 9 23 21 13
17 -14 21 -35 5 -25 -5 3 -10 1 -10 -5 0 -10 17 -9 70 6 14 4 22 4 18 -1 -8
-8 6 -24 38 -41 17 -10 23 -9 32 7 17 27 29 24 37 -10 6 -28 22 -39 83 -56 17
-5 22 -2 23 12 1 17 2 17 6 0 4 -14 8 -16 19 -6 7 6 11 15 8 20 -5 8 9 13 28
10 4 0 5 6 2 14 -4 8 -2 15 3 15 6 0 9 14 8 30 -1 19 3 30 12 30 7 0 13 -4 13
-10 0 -5 7 -7 15 -4 9 4 15 0 15 -9 0 -18 45 -67 62 -67 6 0 1 11 -12 25 -20
21 -21 25 -6 31 9 3 16 10 16 16 0 5 -4 6 -10 3 -5 -3 -10 -1 -10 4 0 6 7 11
15 11 9 0 15 -10 15 -26 0 -14 4 -22 10 -19 5 3 8 0 5 -7 -7 -19 33 -42 49
-29 7 6 17 7 21 3 5 -4 5 -1 1 6 -4 6 -2 12 4 12 22 0 -10 38 -47 56 -28 13
-64 18 -133 20 -52 0 -108 4 -125 7 -69 15 -145 19 -145 9 0 -6 -9 -10 -21 -9
-19 1 -19 2 -3 14 10 7 23 13 30 13 7 0 17 7 22 16 6 11 26 17 61 20 28 2 60
8 71 14 10 5 27 10 38 10 11 0 33 7 48 15 16 8 37 15 46 15 9 0 21 6 25 13 4
6 19 17 33 24 82 38 243 103 248 99 2 -2 -9 -66 -23 -142z m-1735 104 c0 -4
-13 -8 -29 -8 -16 0 -38 -3 -48 -6 -16 -6 -15 -5 2 9 21 16 75 20 75 5z m-235
-8 c3 -5 1 -10 -4 -10 -6 0 -11 5 -11 10 0 6 2 10 4 10 3 0 8 -4 11 -10z m135
-19 c0 -10 -7 -21 -15 -25 -9 -3 -15 0 -15 9 0 8 -3 14 -7 14 -16 -3 -24 1
-19 9 2 4 16 8 30 10 20 1 26 -3 26 -17z m250 9 c0 -5 -12 -10 -27 -9 l-28 1
25 8 c14 4 26 8 28 9 1 1 2 -3 2 -9z m260 -10 c0 -5 -4 -10 -10 -10 -5 0 -10
5 -10 10 0 6 5 10 10 10 6 0 10 -4 10 -10z m-320 -4 c0 -3 -4 -8 -10 -11 -5
-3 -10 -1 -10 4 0 6 5 11 10 11 6 0 10 -2 10 -4z m880 -6 c0 -5 -5 -10 -11
-10 -5 0 -7 5 -4 10 3 6 8 10 11 10 2 0 4 -4 4 -10z m-800 -10 c0 -5 -4 -10
-10 -10 -5 0 -10 5 -10 10 0 6 5 10 10 10 6 0 10 -4 10 -10z m307 -21 c-8 -13
-13 -15 -19 -6 -14 22 -9 35 11 30 17 -4 18 -8 8 -24z m73 10 c0 -5 -4 -7 -10
-4 -5 3 -10 1 -10 -5 0 -6 -5 -8 -11 -4 -8 4 -7 9 2 15 19 12 29 11 29 -2z
m-380 -15 c0 -2 -11 -4 -25 -4 -14 0 -25 4 -25 9 0 4 11 6 25 3 14 -2 25 -6
25 -8z m540 -20 c0 -14 -3 -14 -15 -4 -8 7 -15 14 -15 16 0 2 7 4 15 4 8 0 15
-7 15 -16z m-593 0 c-3 -3 -12 -4 -19 -1 -8 3 -5 6 6 6 11 1 17 -2 13 -5z
m443 -4 c0 -5 8 -10 18 -11 11 0 12 -2 4 -6 -7 -3 -20 1 -29 8 -14 12 -15 11
-8 -11 7 -24 7 -24 -8 -5 -8 11 -13 23 -11 27 7 12 34 10 34 -2z m424 -5 c-4
-8 -7 -15 -9 -15 -2 0 -5 7 -9 15 -3 9 0 15 9 15 9 0 12 -6 9 -15z m-468 -37
c-6 -4 -12 -1 -14 7 -2 8 -8 15 -13 15 -6 0 -8 4 -4 10 3 5 13 2 23 -8 12 -11
14 -20 8 -24z m-241 12 c-3 -5 -11 -10 -16 -10 -6 0 -7 5 -4 10 3 6 11 10 16
10 6 0 7 -4 4 -10z m370 -12 c1 -13 4 -35 8 -50 6 -22 4 -26 -8 -22 -10 4 -13
13 -9 26 3 11 1 24 -5 28 -7 3 -9 14 -5 23 9 24 19 21 19 -5z m275 -9 c0 -11
-4 -18 -10 -14 -5 3 -7 12 -3 20 7 21 13 19 13 -6z m138 -7 c-2 -8 -9 -17 -16
-20 -8 -2 -10 3 -6 15 5 16 4 16 -10 -2 -13 -15 -20 -17 -33 -9 -9 6 -19 17
-22 25 -4 12 -2 12 12 1 14 -12 19 -12 32 2 18 18 47 10 43 -12z m212 24 c0
-11 -19 -15 -25 -6 -3 5 1 10 9 10 9 0 16 -2 16 -4z m2600 -6 c-8 -5 -22 -9
-30 -9 -10 0 -8 3 5 9 27 12 43 12 25 0z m-3444 -12 c4 -7 3 -8 -5 -4 -7 5
-13 -3 -17 -22 -3 -16 -12 -29 -20 -29 -9 0 -13 6 -9 14 3 8 5 21 5 28 0 7 8
16 18 18 9 3 18 5 19 6 1 0 5 -4 9 -11z m34 -4 c0 -8 -4 -12 -10 -9 -5 3 -10
10 -10 16 0 5 5 9 10 9 6 0 10 -7 10 -16z m30 12 c0 -3 -4 -8 -10 -11 -5 -3
-10 -1 -10 4 0 6 5 11 10 11 6 0 10 -2 10 -4z m107 -4 c7 -4 14 -19 15 -32 2
-14 10 -30 18 -37 13 -11 13 -12 -2 -13 -10 0 -22 14 -29 35 -7 19 -17 35 -21
35 -4 0 -8 5 -8 10 0 12 10 13 27 2z m360 -12 c1 -11 -2 -20 -7 -20 -10 0 -20
26 -13 34 12 11 19 6 20 -14z m-259 -10 c12 -12 22 -24 22 -27 0 -4 -5 -2 -12
5 -15 15 -32 16 -23 2 3 -5 2 -10 -3 -10 -5 0 -12 11 -14 25 -6 30 1 31 30 5z
m62 -12 c0 -6 -7 -7 -16 -4 -9 3 -18 6 -20 6 -3 0 -3 4 1 10 7 11 35 2 35 -12z
m-176 -20 c20 -38 20 -39 1 -32 -8 4 -15 14 -15 23 0 9 -5 22 -12 29 -8 8 -9
12 -1 12 6 0 19 -14 27 -32z m250 26 c9 -3 13 -10 10 -15 -3 -5 8 -12 25 -15
31 -7 44 -24 35 -49 -7 -17 -34 -21 -34 -5 0 6 5 10 10 10 6 0 10 7 10 17 0
13 -4 11 -20 -7 -11 -13 -20 -17 -20 -10 0 7 -7 10 -15 7 -8 -4 -17 -2 -20 3
-4 6 -1 10 4 10 6 0 11 7 11 15 0 8 -4 15 -10 15 -5 0 -10 7 -10 15 0 17 2 18
24 9z m-1284 -44 c0 -4 10 -10 23 -14 18 -5 20 -8 7 -16 -21 -14 -30 -12 -30
5 0 9 -7 18 -15 21 -8 4 -15 10 -15 15 0 4 7 6 15 3 8 -4 15 -10 15 -14z m810
0 c0 -5 -5 -10 -11 -10 -5 0 -7 5 -4 10 3 6 8 10 11 10 2 0 4 -4 4 -10z m750
-10 c0 -5 -7 -10 -16 -10 -8 0 -12 5 -9 10 3 6 10 10 16 10 5 0 9 -4 9 -10z
m60 -20 c-10 -7 -11 -10 -2 -10 6 0 12 -4 12 -10 0 -14 -23 -13 -38 2 -10 10
-7 15 10 24 26 14 41 8 18 -6z m126 -17 c-10 -10 -19 5 -10 18 6 11 8 11 12 0
2 -7 1 -15 -2 -18z m89 -1 c-8 -8 -25 10 -19 20 4 6 9 5 15 -3 4 -7 6 -15 4
-17z m-115 2 c0 -8 -4 -12 -10 -9 -5 3 -10 10 -10 16 0 5 5 9 10 9 6 0 10 -7
10 -16z m67 -4 c-1 -19 -32 -38 -44 -27 -5 6 28 45 39 46 4 1 6 -8 5 -19z
m-3867 -20 c0 -6 -48 -10 -125 -10 -77 0 -125 4 -125 10 0 6 48 10 125 10 77
0 125 -4 125 -10z m200 0 c0 -5 -22 -10 -50 -10 -27 0 -50 5 -50 10 0 6 23 10
50 10 28 0 50 -4 50 -10z m3154 -22 c-3 -4 -13 -8 -22 -8 -15 0 -15 2 -2 10 8
5 11 10 7 10 -5 0 -5 5 -1 11 4 8 9 7 15 -2 4 -7 5 -17 3 -21z m476 -13 c7 -8
8 -15 2 -15 -5 0 -15 7 -22 15 -7 8 -8 15 -2 15 5 0 15 -7 22 -15z m-1020
-128 c0 -16 -5 -18 -27 -12 -16 3 -34 12 -40 18 -10 10 -4 12 27 12 32 0 40
-3 40 -18z m66 -4 c-10 -10 -19 5 -10 18 6 11 8 11 12 0 2 -7 1 -15 -2 -18z
m134 13 c0 -3 -4 -8 -10 -11 -5 -3 -10 -1 -10 4 0 6 5 11 10 11 6 0 10 -2 10
-4z m68 -16 c15 0 15 -1 0 -17 -14 -13 -20 -14 -32 -3 -21 16 -20 34 0 26 9
-3 23 -6 32 -6z m-223 -30 c0 -7 -6 -15 -12 -17 -8 -3 -13 4 -13 17 0 13 5 20
13 18 6 -3 12 -11 12 -18z m333 -10 c28 -26 28 -36 0 -44 -36 -9 -38 -8 -38
29 0 40 8 43 38 15z m277 10 c3 -5 1 -10 -4 -10 -6 0 -11 5 -11 10 0 6 2 10 4
10 3 0 8 -4 11 -10z m65 -6 c0 -17 -22 -14 -28 4 -2 7 3 12 12 12 9 0 16 -7
16 -16z m660 6 c0 -5 -2 -10 -4 -10 -3 0 -8 5 -11 10 -3 6 -1 10 4 10 6 0 11
-4 11 -10z m-288 -25 c4 -19 1 -25 -13 -25 -20 0 -23 8 -13 34 9 24 21 19 26
-9z m98 11 c0 -8 -4 -18 -10 -21 -5 -3 -10 3 -10 14 0 12 5 21 10 21 6 0 10
-6 10 -14z m75 4 c3 -5 1 -10 -4 -10 -6 0 -11 5 -11 10 0 6 2 10 4 10 3 0 8
-4 11 -10z m-1045 -22 c0 -18 -2 -20 -9 -8 -6 8 -7 18 -5 22 9 14 14 9 14 -14z
m795 13 c10 -17 -12 -21 -25 -6 -10 12 -10 15 3 15 9 0 18 -4 22 -9z m215 -17
c0 -8 -4 -14 -10 -14 -5 0 -10 9 -10 21 0 11 5 17 10 14 6 -3 10 -13 10 -21z
m-680 -5 c0 -5 -4 -9 -10 -9 -5 0 -10 7 -10 16 0 8 5 12 10 9 6 -3 10 -10 10
-16z m70 11 c0 -5 -2 -10 -4 -10 -3 0 -8 5 -11 10 -3 6 -1 10 4 10 6 0 11 -4
11 -10z m224 -5 c3 -8 1 -15 -3 -15 -5 0 -11 7 -15 15 -3 8 -1 15 3 15 5 0 11
-7 15 -15z m120 0 c-4 -8 -10 -15 -15 -15 -5 0 -9 7 -9 15 0 8 7 15 15 15 9 0
12 -6 9 -15z m389 -7 c6 -21 -9 -41 -24 -33 -8 6 1 55 11 55 4 0 10 -10 13
-22z m-43 -8 c0 -4 -7 -10 -15 -14 -10 -4 -15 1 -15 14 0 13 5 18 15 14 8 -4
15 -10 15 -14z m3207 -1136 c-3 -3 -12 -4 -19 -1 -8 3 -5 6 6 6 11 1 17 -2 13
-5z m-27 -85 c0 -5 -4 -9 -10 -9 -5 0 -10 7 -10 16 0 8 5 12 10 9 6 -3 10 -10
10 -16z"/>
<path d="M10561 5536 c-19 -23 -10 -71 13 -71 26 0 40 26 32 58 -7 30 -27 35
-45 13z"/>
<path d="M12589 5529 c-8 -16 -8 -28 0 -46 22 -47 69 -5 50 45 -11 28 -35 28
-50 1z"/>
<path d="M9843 5493 c-13 -2 -23 -11 -23 -19 0 -17 31 -19 48 -2 13 13 16 29
5 27 -5 -1 -18 -4 -30 -6z"/>
<path d="M10414 5537 c-3 -9 -4 -28 -2 -44 2 -22 8 -28 28 -28 23 0 25 4 25
40 0 34 -3 40 -23 43 -13 2 -24 -3 -28 -11z"/>
<path d="M10777 5544 c-15 -15 -6 -24 24 -24 20 0 29 4 27 13 -5 14 -40 21
-51 11z"/>
<path d="M11294 5537 c-3 -9 -4 -28 -2 -44 2 -22 8 -28 28 -28 23 0 25 4 25
40 0 34 -3 40 -23 43 -13 2 -24 -3 -28 -11z"/>
<path d="M11663 5492 c-13 -2 -23 -10 -23 -18 0 -19 39 -18 47 1 7 20 4 22
-24 17z"/>
<path d="M11850 5535 c-21 -25 -1 -70 30 -70 22 0 25 4 25 40 0 33 -4 41 -21
43 -11 2 -27 -4 -34 -13z"/>
<path d="M12392 5491 c-30 -8 -33 -25 -4 -29 13 -2 25 3 28 13 8 20 4 23 -24
16z"/>
<path d="M12753 5492 c-13 -2 -23 -10 -23 -18 0 -19 39 -18 47 1 7 20 4 22
-24 17z"/>
<path d="M12881 5536 c-20 -24 -10 -70 16 -74 25 -4 38 26 29 64 -7 27 -27 31
-45 10z"/>
<path d="M13061 5528 c-12 -33 2 -63 30 -63 21 0 24 5 24 40 0 34 -3 40 -23
43 -16 2 -25 -3 -31 -20z"/>
<path d="M10471 3764 c0 -11 3 -14 6 -6 3 7 2 16 -1 19 -3 4 -6 -2 -5 -13z"/>
<path d="M10689 3686 c10 -19 32 -51 49 -72 18 -22 30 -44 28 -50 -3 -7 4 -14
15 -17 10 -3 19 -10 19 -17 0 -7 -8 -9 -19 -5 -19 6 -19 5 1 -43 18 -42 25
-49 49 -50 30 -1 49 20 49 55 0 10 -31 47 -68 83 -38 36 -81 84 -95 108 -32
50 -52 56 -28 8z"/>
<path d="M10580 3696 c0 -2 7 -6 15 -10 8 -3 15 -1 15 4 0 6 -7 10 -15 10 -8
0 -15 -2 -15 -4z"/>
<path d="M10600 3655 c0 -8 5 -15 10 -15 6 0 10 7 10 15 0 8 -4 15 -10 15 -5
0 -10 -7 -10 -15z"/>
<path d="M10290 3585 c-19 -14 -30 -25 -24 -25 6 0 19 6 29 14 11 8 24 12 31
9 6 -2 14 3 17 11 9 23 -12 19 -53 -9z"/>
<path d="M10236 3585 c4 -8 8 -15 10 -15 2 0 4 7 4 15 0 8 -4 15 -10 15 -5 0
-7 -7 -4 -15z"/>
<path d="M10050 3541 c0 -6 6 -11 14 -11 8 0 16 -6 18 -12 3 -9 9 -8 22 5 12
12 14 17 4 17 -7 0 -23 3 -35 6 -14 4 -23 2 -23 -5z"/>
<path d="M10905 3509 c-11 -16 -2 -17 25 -2 24 12 24 13 3 13 -12 0 -25 -5
-28 -11z"/>
<path d="M9975 3502 c-3 -3 -5 -9 -5 -14 0 -11 47 -10 54 1 6 9 -40 22 -49 13z"/>
<path d="M10734 3406 c3 -13 8 -31 11 -38 4 -10 -1 -14 -17 -14 -18 1 -24 -5
-25 -24 -1 -14 0 -19 3 -12 3 6 13 12 23 12 23 0 71 23 71 33 0 18 -42 67 -57
67 -11 0 -14 -6 -9 -24z"/>
<path d="M10847 3393 c-13 -12 -7 -43 8 -43 9 0 15 9 15 25 0 24 -10 32 -23
18z"/>
<path d="M10575 3333 c-49 -12 -65 -57 -18 -51 19 2 29 10 34 31 4 15 7 26 6
26 -1 -1 -11 -4 -22 -6z"/>
<path d="M10786 3314 c-4 -15 -2 -32 3 -37 8 -8 11 0 11 26 0 44 -5 47 -14 11z"/>
<path d="M10363 3322 c-10 -6 -10 -12 2 -28 13 -17 14 -17 15 -1 0 9 7 17 16
17 8 0 12 5 9 10 -7 12 -25 13 -42 2z"/>
<path d="M9780 3220 c0 -5 5 -10 10 -10 6 0 10 5 10 10 0 6 -4 10 -10 10 -5 0
-10 -4 -10 -10z"/>
<path d="M9731 3134 c0 -11 3 -14 6 -6 3 7 2 16 -1 19 -3 4 -6 -2 -5 -13z"/>
<path d="M7888 3703 c7 -3 16 -2 19 1 4 3 -2 6 -13 5 -11 0 -14 -3 -6 -6z"/>
<path d="M7795 3650 c-3 -5 -2 -10 4 -10 5 0 13 5 16 10 3 6 2 10 -4 10 -5 0
-13 -4 -16 -10z"/>
<path d="M7581 3604 c0 -11 3 -14 6 -6 3 7 2 16 -1 19 -3 4 -6 -2 -5 -13z"/>
<path d="M8538 3589 c-10 -5 -18 -14 -18 -19 0 -17 15 -11 28 10 14 23 13 23
-10 9z"/>
<path d="M7150 2336 c0 -8 5 -18 10 -21 6 -3 10 3 10 14 0 12 -4 21 -10 21 -5
0 -10 -6 -10 -14z"/>
<path d="M1520 3689 l0 -61 81 4 c66 3 83 7 95 23 19 26 18 51 -6 75 -16 16
-33 20 -95 20 l-75 0 0 -61z"/>
<path d="M1894 3642 c-6 -4 -16 -17 -23 -29 -12 -23 -11 -23 59 -23 75 0 88
11 52 43 -19 17 -68 22 -88 9z"/>
<path d="M9820 3019 c0 -5 5 -7 10 -4 6 3 10 8 10 11 0 2 -4 4 -10 4 -5 0 -10
-5 -10 -11z"/>
<path d="M2457 2963 c-10 -10 -8 -41 3 -48 6 -3 18 -4 29 0 13 4 17 12 13 30
-4 24 -30 34 -45 18z"/>
<path d="M1380 2966 c0 -47 3 -56 18 -56 59 0 67 61 12 93 l-30 18 0 -55z"/>
<path d="M10585 2635 c-27 -30 -58 -58 -67 -61 -10 -3 -16 -9 -13 -14 3 -5 13
-6 23 -3 27 9 82 53 82 65 0 6 7 16 16 23 9 6 15 19 13 28 -3 12 -17 3 -54
-38z"/>
<path d="M10680 2668 c0 -9 -12 -25 -27 -36 -34 -25 -20 -56 15 -33 7 4 14 14
15 22 2 8 6 20 11 27 5 8 4 18 -3 25 -8 8 -11 7 -11 -5z"/>
<path d="M10538 2543 c7 -3 16 -2 19 1 4 3 -2 6 -13 5 -11 0 -14 -3 -6 -6z"/>
<path d="M10500 2530 c8 -5 24 -10 35 -10 11 0 16 -4 10 -8 -14 -10 -15 -44
-1 -39 22 7 15 48 -11 58 -32 12 -52 11 -33 -1z"/>
<path d="M4067 2963 c-4 -3 -7 -17 -7 -30 0 -26 34 -33 44 -8 11 30 -17 59
-37 38z"/>
<path d="M1517 2963 c-11 -10 -8 -41 4 -49 16 -9 41 20 33 39 -6 17 -25 22
-37 10z"/>
<path d="M1784 2955 c-8 -21 3 -48 19 -43 19 7 22 58 2 58 -8 0 -18 -7 -21
-15z"/>
<path d="M1981 2952 c-12 -23 2 -47 23 -39 20 8 22 57 1 57 -8 0 -19 -8 -24
-18z"/>
<path d="M2190 2955 c-15 -18 -6 -45 15 -45 10 0 15 10 15 30 0 33 -11 38 -30
15z"/>
<path d="M2291 2953 c-12 -24 2 -48 24 -40 10 4 15 15 13 29 -4 28 -24 34 -37
11z"/>
<path d="M2570 2955 c-16 -19 -5 -47 17 -43 23 4 31 58 10 58 -8 0 -20 -7 -27
-15z"/>
<path d="M2951 2952 c-12 -23 2 -47 23 -39 20 8 22 57 1 57 -8 0 -19 -8 -24
-18z"/>
<path d="M3261 2956 c-15 -18 -3 -48 18 -44 21 4 28 58 8 58 -8 0 -20 -6 -26
-14z"/>
<path d="M3421 2952 c-12 -23 2 -47 23 -39 20 8 22 57 1 57 -8 0 -19 -8 -24
-18z"/>
<path d="M3530 2955 c-16 -19 -5 -47 17 -43 11 2 18 12 18 27 0 29 -17 37 -35
16z"/>
<path d="M3795 2960 c-8 -13 5 -13 25 0 13 8 13 10 -2 10 -9 0 -20 -4 -23 -10z"/>
<path d="M4267 2963 c-4 -3 -7 -17 -7 -30 0 -35 34 -26 38 10 3 26 -14 37 -31
20z"/>
<path d="M4467 2963 c-11 -10 -8 -41 3 -48 17 -10 38 14 33 35 -5 20 -23 26
-36 13z"/>
<path d="M10352 2228 c6 -18 28 -21 28 -4 0 9 -7 16 -16 16 -9 0 -14 -5 -12
-12z"/>
<path d="M11670 2221 c0 -5 7 -15 17 -22 15 -13 15 -12 4 9 -12 23 -21 28 -21
13z"/>
<path d="M11495 1900 c3 -5 15 -10 26 -10 11 0 17 5 14 10 -3 6 -15 10 -26 10
-11 0 -17 -4 -14 -10z"/>
<path d="M3462 1888 c-7 -7 -12 -24 -12 -38 0 -51 52 -69 72 -25 22 49 -25 98
-60 63z"/>
<path d="M3640 1885 c0 -10 7 -15 18 -13 21 4 19 22 -2 26 -10 2 -16 -3 -16
-13z"/>
<path d="M3640 1820 c0 -13 7 -20 20 -20 13 0 20 7 20 20 0 13 -7 20 -20 20
-13 0 -20 -7 -20 -20z"/>
<path d="M3790 1880 c0 -15 5 -20 18 -18 9 2 17 10 17 18 0 8 -8 16 -17 18
-13 2 -18 -3 -18 -18z"/>
<path d="M7392 1512 c6 -7 14 -9 17 -5 4 4 10 11 15 16 5 4 -2 6 -17 5 -20 -2
-24 -5 -15 -16z"/>
</g>
</svg>
