<?xml version="1.0" standalone="no"?>
<!DOCTYPE svg PUBLIC "-//W3C//DTD SVG 20010904//EN"
 "http://www.w3.org/TR/2001/REC-SVG-20010904/DTD/svg10.dtd">
<svg version="1.0" xmlns="http://www.w3.org/2000/svg"
 width="1355.000000pt" height="615.000000pt" viewBox="0 0 1355.000000 615.000000"
 preserveAspectRatio="xMidYMid meet">

<g transform="translate(0.000000,615.000000) scale(0.100000,-0.100000)"
fill="#000000" stroke="none">
<path d="M0 3075 l0 -3075 6775 0 6775 0 0 3075 0 3075 -6775 0 -6775 0 0
-3075z m5684 2789 c9 -4 16 -18 16 -33 0 -28 -1 -28 -65 -27 -47 1 -68 -3 -74
-13 -16 -25 0 -42 68 -72 95 -42 122 -95 84 -160 -23 -39 -70 -59 -135 -58
-76 1 -101 11 -108 39 -9 35 23 53 59 34 52 -27 125 -10 119 29 -2 16 -20 30
-67 52 -76 37 -101 65 -101 114 0 43 13 64 55 86 30 15 119 20 149 9z m226
-39 l0 -45 55 0 c54 0 55 0 55 -30 0 -30 -1 -30 -55 -30 l-56 0 5 -71 c4 -81
13 -92 69 -84 36 5 37 4 37 -25 0 -35 -26 -45 -98 -37 -69 8 -82 29 -82 133
l0 84 -37 0 c-35 0 -38 2 -38 30 0 28 3 30 37 30 35 0 37 2 40 37 3 36 15 46
61 52 4 1 7 -19 7 -44z m1124 -42 c3 -42 6 -99 7 -127 l0 -51 23 70 c19 60 26
70 47 73 23 3 27 -4 49 -70 l25 -73 5 125 5 125 33 3 c33 3 33 3 28 -35 -3
-21 -8 -100 -11 -175 l-7 -138 -42 0 -43 0 -18 60 c-10 34 -21 63 -25 65 -3 2
-14 -25 -24 -61 l-18 -64 -44 0 -44 0 0 53 c0 30 -3 109 -7 175 l-6 122 30 0
30 0 7 -77z m-755 -8 c33 -17 41 -33 41 -85 0 -21 5 -42 10 -45 7 -4 7 -12 0
-25 -5 -10 -10 -39 -10 -64 0 -44 -1 -46 -29 -46 -16 0 -31 5 -33 12 -3 8 -11
7 -28 -5 -30 -21 -88 -22 -117 -2 -51 35 -33 132 27 153 16 6 30 15 30 20 0 5
7 9 15 9 8 0 15 -4 15 -9 0 -4 11 -8 25 -8 28 0 33 21 10 40 -15 13 -79 9
-119 -6 -15 -6 -17 -2 -14 27 2 26 9 35 28 40 44 12 120 9 149 -6z m316 9 c19
-8 45 -55 45 -84 0 -29 -65 -29 -73 0 -8 31 -35 35 -63 10 -22 -22 -24 -31
-24 -112 l0 -88 -40 0 c-22 0 -40 5 -41 10 -1 6 -1 19 -1 30 0 11 0 67 1 125
l1 105 35 0 c19 0 35 -5 35 -10 0 -6 12 -4 28 4 29 16 70 20 97 10z m894 -9
c16 -8 31 -22 35 -30 3 -9 6 -66 6 -126 l0 -109 -29 0 c-16 0 -31 5 -33 12 -3
8 -11 7 -28 -5 -60 -42 -150 -4 -150 63 0 64 45 100 125 100 48 0 59 16 30 40
-15 12 -79 9 -118 -6 -14 -5 -17 0 -17 25 0 23 6 34 23 41 35 14 125 11 156
-5z m323 1 c18 -13 38 -57 38 -82 0 -10 -12 -14 -39 -14 -33 0 -40 4 -43 22
-4 33 -34 34 -63 2 -23 -24 -25 -35 -25 -110 l0 -84 -35 0 -35 0 0 135 0 135
35 0 c19 0 35 -5 35 -11 0 -5 10 -3 22 5 27 19 87 20 110 2z m296 -23 l3 -32
-58 2 c-46 2 -58 -1 -61 -15 -2 -12 10 -20 45 -32 75 -25 93 -41 93 -85 0 -69
-67 -103 -174 -87 -45 7 -46 8 -46 43 0 27 3 34 15 29 8 -3 36 -8 63 -12 36
-4 51 -2 60 9 15 18 3 29 -50 46 -58 19 -88 48 -88 84 0 40 8 52 45 72 20 10
50 14 90 13 60 -3 60 -3 63 -35z m-6178 -255 c0 -12 -3 -18 -7 -14 -11 10 -12
36 -2 36 5 0 9 -10 9 -22z m11238 10 c-3 -7 -14 -14 -26 -14 -12 -1 -19 2 -16
7 2 4 12 5 21 2 11 -4 14 -3 9 5 -4 7 -2 12 4 12 7 0 10 -6 8 -12z m-11002
-20 c4 -7 3 -8 -4 -4 -15 9 -16 -6 -1 -21 8 -8 7 -13 -1 -18 -20 -12 -33 10
-21 34 13 24 17 25 27 9z m-305 -40 c-10 -11 -11 -9 -5 6 6 15 4 17 -6 11 -9
-6 -11 -4 -5 4 5 9 10 10 18 2 8 -8 7 -14 -2 -23z m2069 12 c0 -13 7 -20 20
-20 13 0 20 -7 20 -20 0 -12 -7 -20 -16 -20 -9 0 -18 9 -21 20 -5 18 -14 20
-73 20 -63 0 -68 1 -63 20 5 17 14 20 69 20 57 0 64 -2 64 -20z m353 0 c5 -18
0 -20 -44 -20 -42 0 -49 -3 -49 -20 0 -13 -7 -20 -20 -20 -13 0 -20 7 -20 20
0 13 7 20 20 20 13 0 20 7 20 20 0 17 7 20 44 20 35 0 45 -4 49 -20z m3887 -5
l0 -25 -717 -2 c-395 -2 -1007 -2 -1360 0 l-643 2 0 25 0 25 1360 0 1360 0 0
-25z m4700 11 c0 -8 -4 -18 -10 -21 -6 -4 -7 1 -3 11 5 13 3 15 -7 9 -9 -5
-11 -4 -6 3 10 17 26 15 26 -2z m290 -20 c-7 -7 -13 -7 -20 0 -6 6 -3 10 10
10 13 0 16 -4 10 -10z m-11043 -68 c-3 -8 -6 -5 -6 6 -1 11 2 17 5 13 3 -3 4
-12 1 -19z m1901 -1 c2 -11 -3 -17 -17 -17 -25 0 -38 19 -20 31 19 12 33 6 37
-14z m122 -3 c0 -8 -7 -14 -15 -14 -15 0 -21 21 -9 33 10 9 24 -2 24 -19z
m9150 6 c0 -5 -7 -7 -15 -4 -8 4 -15 8 -15 10 0 2 7 4 15 4 8 0 15 -4 15 -10z
m-9190 -50 c0 -17 -7 -20 -40 -20 -33 0 -40 3 -40 20 0 17 7 20 40 20 33 0 40
-3 40 -20z m8975 -9 c-3 -6 -11 -11 -16 -11 -5 0 -4 6 3 14 14 16 24 13 13 -3z
m298 -36 c-3 -9 -8 -14 -10 -11 -3 3 -2 9 2 15 9 16 15 13 8 -4z m-40 -32 c-7
-2 -19 -2 -25 0 -7 3 -2 5 12 5 14 0 19 -2 13 -5z m4 -19 c-3 -3 -12 -4 -19
-1 -8 3 -5 6 6 6 11 1 17 -2 13 -5z m127 -43 c-4 -3 -9 0 -11 7 -3 6 -10 9
-15 6 -7 -4 -8 -2 -4 5 6 9 11 9 22 0 8 -6 12 -15 8 -18z m56 -36 c0 -8 -4
-15 -10 -15 -5 0 -7 7 -4 15 4 8 8 15 10 15 2 0 4 -7 4 -15z m-55 -5 c3 -5 2
-10 -4 -10 -5 0 -13 5 -16 10 -3 6 -2 10 4 10 5 0 13 -4 16 -10z m-3 -34 c7 4
8 2 4 -5 -9 -13 -26 -5 -25 12 0 9 2 8 6 -1 2 -6 10 -9 15 -6z m-7859 -23 c-7
-2 -19 -2 -25 0 -7 3 -2 5 12 5 14 0 19 -2 13 -5z m120 0 c-13 -2 -35 -2 -50
0 -16 2 -5 4 22 4 28 0 40 -2 28 -4z m1085 0 c-15 -2 -42 -2 -60 0 -18 2 -6 4
27 4 33 0 48 -2 33 -4z m125 0 c-18 -2 -48 -2 -65 0 -18 2 -4 4 32 4 36 0 50
-2 33 -4z m115 0 c-16 -2 -40 -2 -55 0 -16 2 -3 4 27 4 30 0 43 -2 28 -4z
m485 0 c-84 -2 -222 -2 -305 0 -84 1 -16 3 152 3 168 0 236 -2 153 -3z m215 0
c-10 -2 -26 -2 -35 0 -10 3 -2 5 17 5 19 0 27 -2 18 -5z m49 1 c-3 -3 -12 -4
-19 -1 -8 3 -5 6 6 6 11 1 17 -2 13 -5z m106 -1 c-13 -2 -33 -2 -45 0 -13 2
-3 4 22 4 25 0 35 -2 23 -4z m135 0 c-16 -2 -40 -2 -55 0 -16 2 -3 4 27 4 30
0 43 -2 28 -4z m1955 -10 c-35 -2 -91 -2 -125 0 -35 2 -7 3 62 3 69 0 97 -1
63 -3z m195 0 c-16 -2 -40 -2 -55 0 -16 2 -3 4 27 4 30 0 43 -2 28 -4z m170 0
c-21 -2 -57 -2 -80 0 -24 2 -7 4 37 4 44 0 63 -2 43 -4z m619 0 c-109 -2 -285
-2 -390 0 -106 1 -16 2 198 2 215 0 301 -1 192 -2z m296 0 c-7 -2 -19 -2 -25
0 -7 3 -2 5 12 5 14 0 19 -2 13 -5z m345 0 c-53 -2 -143 -2 -200 0 -57 1 -13
3 97 3 110 0 156 -2 103 -3z m-8910 -20 c-158 -2 -419 -2 -580 0 -161 1 -32 2
287 2 319 0 451 -1 293 -2z m935 0 c-116 -2 -310 -2 -430 0 -120 1 -24 2 212
2 237 0 335 -1 218 -2z m745 0 c-195 -3 -197 -4 -200 -26 -4 -29 -32 -29 -36
0 -3 22 -7 23 -150 26 -81 1 17 3 218 3 201 -1 276 -2 168 -3z m-1398 -73 c0
-57 -1 -60 -25 -60 -24 0 -25 3 -25 60 0 57 1 60 25 60 24 0 25 -3 25 -60z
m5018 43 c-5 -26 -38 -29 -38 -4 0 15 6 21 21 21 14 0 19 -5 17 -17z m-3778
-43 c0 -13 -7 -20 -20 -20 -19 0 -27 20 -13 33 13 14 33 6 33 -13z m-1332 -69
c-2 -25 -8 -37 -20 -39 -15 -3 -18 4 -18 36 0 44 6 53 27 45 9 -4 13 -17 11
-42z m7862 29 c0 -13 -7 -20 -20 -20 -13 0 -20 7 -20 20 0 13 7 20 20 20 13 0
20 -7 20 -20z m-7480 -5 c0 -11 -11 -15 -40 -15 -29 0 -40 4 -40 15 0 11 11
15 40 15 29 0 40 -4 40 -15z m4470 -1 c0 -10 -12 -14 -40 -14 -27 0 -40 4 -40
14 0 9 13 14 40 14 28 1 40 -3 40 -14z m-6018 -795 c9 -6 9 -13 0 -31 -9 -17
-13 -198 -15 -728 -1 -388 -2 -196 -2 425 0 622 1 952 2 736 3 -293 6 -397 15
-402z m8946 753 c3 -17 -2 -22 -17 -22 -16 0 -21 6 -21 26 0 33 33 30 38 -4z
m-7478 -3 c0 -15 -5 -19 -15 -15 -11 4 -19 -3 -25 -19 -11 -30 -40 -33 -40 -5
0 13 7 20 20 20 18 0 25 10 21 33 0 4 8 7 19 7 14 0 20 -7 20 -21z m4597 15
c-11 -12 13 -43 28 -38 10 4 15 0 15 -15 0 -14 6 -21 20 -21 13 0 20 -7 20
-20 0 -13 -7 -20 -20 -20 -13 0 -20 7 -20 20 0 11 -7 20 -15 20 -9 0 -20 11
-25 25 -6 16 -14 23 -25 19 -10 -4 -15 0 -15 15 0 15 6 21 22 21 12 0 18 -3
15 -6z m-4987 -55 c0 -25 -33 -22 -38 4 -2 12 3 17 17 17 15 0 21 -6 21 -21z
m7690 -19 c0 -29 -4 -40 -15 -40 -11 0 -15 11 -15 40 0 29 4 40 15 40 11 0 15
-11 15 -40z m-7392 -23 c2 -10 -3 -17 -12 -17 -10 0 -16 9 -16 21 0 24 23 21
28 -4z m2189 -110 c-2 -23 -3 -1 -3 48 0 50 1 68 3 42 2 -26 2 -67 0 -90z
m2843 113 c0 -13 -7 -20 -20 -20 -13 0 -20 7 -20 20 0 13 7 20 20 20 13 0 20
-7 20 -20z m757 -257 c-1 -54 -3 -12 -3 92 0 105 2 149 3 98 2 -51 2 -136 0
-190z m2081 260 c-2 -13 -14 -19 -41 -21 -32 -3 -37 0 -37 17 0 18 6 21 41 21
33 0 40 -3 37 -17z m-7908 -48 c0 -8 -9 -15 -20 -15 -11 0 -20 7 -20 15 0 8 9
15 20 15 11 0 20 -7 20 -15z m4850 0 c0 -8 -7 -15 -15 -15 -8 0 -15 7 -15 15
0 8 7 15 15 15 8 0 15 -7 15 -15z m2410 -25 c0 -33 -3 -40 -20 -40 -17 0 -20
7 -20 40 0 33 3 40 20 40 17 0 20 -7 20 -40z m552 33 c-6 -2 -9 -9 -6 -15 4
-5 -7 -8 -27 -6 -51 5 -49 28 3 27 24 0 37 -3 30 -6z m-7852 -53 c0 -13 -7
-20 -20 -20 -13 0 -20 7 -20 20 0 13 7 20 20 20 13 0 20 -7 20 -20z m4940 0
c0 -13 7 -20 20 -20 13 0 20 -7 20 -20 0 -19 10 -24 38 -21 6 1 12 -7 12 -17
0 -28 -11 -34 -27 -14 -12 16 -13 16 -6 -2 4 -13 3 -17 -5 -12 -7 4 -12 15
-12 25 0 10 -9 21 -20 24 -11 3 -20 12 -20 21 0 9 -8 16 -20 16 -22 0 -28 25
-7 33 22 10 27 7 27 -13z m2835 0 c0 -10 -13 -16 -42 -18 -35 -3 -43 -7 -43
-23 0 -16 -7 -19 -49 -19 -59 0 -81 7 -81 26 0 11 16 14 65 14 59 0 65 2 65
21 0 18 5 20 43 17 29 -2 42 -8 42 -18z m385 0 c0 -11 -7 -20 -15 -20 -8 0
-15 9 -15 20 0 11 7 20 15 20 8 0 15 -9 15 -20z m128 -36 c-2 -11 -16 -18 -40
-21 -33 -3 -38 -1 -38 17 0 17 6 20 41 20 32 0 40 -3 37 -16z m1277 -14 c3 -5
1 -10 -4 -10 -6 0 -11 5 -11 10 0 6 2 10 4 10 3 0 8 -4 11 -10z m-2008 -26 c6
-15 -16 -38 -26 -28 -3 3 1 9 9 14 8 6 10 10 5 10 -6 0 -20 -7 -31 -15 -24
-16 -34 -11 -34 17 0 24 67 26 77 2z m858 -8 c0 -30 -50 -30 -70 0 l-16 25 43
-3 c34 -2 43 -7 43 -22z m1242 18 c-3 -3 -12 -4 -19 -1 -8 3 -5 6 6 6 11 1 17
-2 13 -5z m-12217 -59 c-7 -9 -15 -13 -17 -11 -7 7 7 26 19 26 6 0 6 -6 -2
-15z m1400 -25 c0 -33 -3 -40 -20 -40 -16 0 -20 7 -20 33 0 36 6 47 27 47 9 0
13 -13 13 -40z m80 -19 c0 -51 -3 -59 -17 -57 -14 2 -19 15 -21 59 -3 52 -1
57 18 57 18 0 20 -6 20 -59z m6150 46 c0 -19 -10 -27 -26 -20 -21 8 -17 33 6
33 11 0 20 -6 20 -13z m2400 -7 c0 -15 -7 -20 -24 -20 -14 0 -27 4 -30 9 -3 5
-17 11 -31 13 -13 3 -22 1 -19 -3 3 -5 12 -9 21 -9 9 0 14 -3 10 -6 -10 -10
-47 7 -47 22 0 11 15 14 60 14 53 0 60 -2 60 -20z m1080 6 c0 -15 -48 -28 -56
-15 -3 5 -10 9 -15 9 -6 0 -8 -4 -5 -8 2 -4 -6 -9 -19 -10 -26 -2 -40 12 -30
28 10 16 125 13 125 -4z m1290 -27 c0 -7 -6 -4 -15 7 -19 25 -19 40 0 20 8 -8
15 -20 15 -27z m57 9 c-3 -8 -6 -5 -6 6 -1 11 2 17 5 13 3 -3 4 -12 1 -19z
m-4787 -28 c0 -11 -5 -20 -11 -20 -5 0 -7 6 -3 13 5 8 2 8 -9 -2 -15 -11 -17
-11 -17 1 0 18 9 28 27 28 7 0 13 -9 13 -20z m2234 11 c3 -5 -1 -14 -9 -21
-12 -10 -18 -10 -32 1 -11 10 -14 10 -9 2 4 -8 2 -13 -7 -13 -19 0 -27 9 -20
26 6 15 68 20 77 5z m1247 -3 c0 -10 2 -10 6 0 2 6 11 12 18 12 16 0 28 -27
15 -35 -6 -4 -10 -1 -10 6 0 9 -3 9 -14 0 -9 -8 -16 -8 -20 -2 -4 6 -13 8 -21
4 -15 -5 -21 8 -8 20 11 12 33 8 34 -5z m1302 -23 c-3 -9 -8 -14 -10 -11 -3 3
-2 9 2 15 9 16 15 13 8 -4z m-4743 -31 c0 -17 -22 -14 -28 4 -2 7 3 12 12 12
9 0 16 -7 16 -16z m2104 1 c3 -9 -1 -15 -9 -15 -8 0 -15 6 -15 13 0 9 -2 9 -8
-1 -9 -13 -42 -7 -42 7 0 15 68 11 74 -4z m1506 0 c0 -19 -94 -19 -110 0 -12
14 -7 16 48 14 40 -1 62 -6 62 -14z m-9750 -45 c0 -13 -7 -20 -20 -20 -13 0
-20 7 -20 20 0 13 7 20 20 20 13 0 20 -7 20 -20z m6192 -2 c2 -16 9 -22 21
-20 11 2 17 -4 17 -18 0 -13 -7 -20 -20 -20 -13 0 -20 7 -20 20 0 18 -10 25
-32 21 -5 0 -8 8 -8 19 0 29 38 27 42 -2z m1968 2 c0 -18 -7 -20 -61 -20 -52
0 -62 -3 -66 -20 -3 -11 -10 -20 -15 -20 -5 0 -6 5 -3 10 3 6 1 10 -4 10 -6 0
-11 -4 -11 -10 0 -5 -11 -10 -24 -10 -16 0 -27 -7 -31 -20 -5 -16 -15 -19 -60
-18 -32 1 -56 6 -59 14 -8 20 4 24 66 24 51 0 58 2 58 20 0 17 7 20 45 20 38
0 45 3 45 20 0 18 7 20 60 20 53 0 60 -2 60 -20z m1678 3 c-2 -10 -9 -18 -16
-17 -6 1 -23 2 -37 3 -15 0 -25 7 -25 16 0 11 11 15 41 15 33 0 40 -3 37 -17z
m-10868 -33 c0 -5 -2 -10 -4 -10 -3 0 -8 5 -11 10 -3 6 -1 10 4 10 6 0 11 -4
11 -10z m1120 -10 c0 -13 -7 -20 -20 -20 -13 0 -20 7 -20 20 0 13 7 20 20 20
13 0 20 -7 20 -20z m9780 6 c0 -19 -17 -29 -25 -16 -3 5 -1 10 5 10 6 0 8 5 5
10 -3 6 -1 10 4 10 6 0 11 -6 11 -14z m-10823 -32 c-3 -3 -12 -4 -19 -1 -8 3
-5 6 6 6 11 1 17 -2 13 -5z m1123 -34 c0 -33 -3 -40 -20 -40 -17 0 -20 7 -20
40 0 33 3 40 20 40 17 0 20 -7 20 -40z m470 20 c0 -11 -7 -20 -15 -20 -8 0
-15 9 -15 20 0 11 7 20 15 20 8 0 15 -9 15 -20z m5630 0 c0 -13 -7 -20 -20
-20 -19 0 -27 20 -13 33 13 14 33 6 33 -13z m-1850 -51 c0 -5 -7 -9 -15 -9 -8
0 -15 7 -15 15 0 9 6 12 15 9 8 -4 15 -10 15 -15z m3394 12 c7 -11 -16 -21
-40 -16 -11 2 -22 4 -26 4 -5 1 -8 6 -8 11 0 12 67 13 74 1z m3336 -12 c0 -6
-4 -7 -10 -4 -5 3 -10 11 -10 16 0 6 5 7 10 4 6 -3 10 -11 10 -16z m-11985
-29 c3 -5 1 -10 -4 -10 -6 0 -11 5 -11 10 0 6 2 10 4 10 3 0 8 -4 11 -10z
m3325 -12 c0 -11 -7 -18 -20 -18 -18 0 -27 19 -15 32 12 12 35 3 35 -14z
m1888 5 c-5 -26 -38 -29 -38 -4 0 15 6 21 21 21 14 0 19 -5 17 -17z m3352 -3
c-13 -25 -73 -22 -78 4 -3 13 5 16 43 16 43 0 45 -1 35 -20z m-7175 -65 c0
-29 -4 -40 -15 -40 -11 0 -16 13 -18 43 -3 38 -1 43 15 40 14 -2 18 -13 18
-43z m3865 24 c0 -24 -23 -21 -28 4 -2 10 3 17 12 17 10 0 16 -9 16 -21z
m3225 1 c0 -12 -13 -15 -60 -15 -50 0 -60 3 -63 18 -3 16 3 18 60 15 48 -2 63
-7 63 -18z m-5585 -32 c0 -7 -5 -20 -10 -28 -12 -19 -35 2 -27 24 7 19 37 21
37 4z m470 -14 c0 -17 -4 -22 -15 -18 -8 4 -15 14 -15 23 0 10 7 18 15 18 9 0
15 -10 15 -23z m1846 11 c3 -8 3 -19 0 -24 -10 -16 -36 -1 -36 20 0 22 28 26
36 4z m474 -10 c0 -15 -6 -25 -15 -25 -10 0 -14 9 -13 25 1 14 8 25 15 25 7 0
13 -11 13 -25z m2668 3 c-3 -21 -33 -34 -43 -18 -3 5 -12 7 -20 3 -10 -3 -15
2 -15 16 0 18 6 21 41 21 36 0 40 -2 37 -22z m-5500 -52 c3 -13 -1 -17 -14
-14 -11 2 -20 11 -22 22 -3 13 1 17 14 14 11 -2 20 -11 22 -22z m562 -13 c-3
-59 -2 -62 21 -56 20 6 21 3 17 -35 -3 -37 -1 -41 21 -44 24 -3 25 -5 28 -105
l4 -103 -26 0 c-24 0 -25 2 -25 65 0 58 -2 65 -20 65 -16 0 -20 7 -20 33 0 18
5 38 10 43 7 7 1 9 -20 6 -30 -4 -30 -4 -30 42 0 39 -3 46 -20 46 -12 0 -20 7
-20 16 0 9 9 18 20 21 11 3 20 14 20 24 0 13 7 19 21 19 17 0 20 -6 19 -37z
m1760 8 c3 -14 12 -26 20 -29 13 -3 13 -2 0 7 -13 9 -13 11 3 11 24 0 22 -31
-3 -37 -16 -4 -20 -14 -20 -49 0 -37 -3 -44 -20 -44 -17 0 -20 -7 -20 -40 0
-36 -2 -40 -25 -40 -24 0 -25 -2 -25 -65 0 -58 -2 -65 -20 -65 -18 0 -20 -7
-20 -65 0 -58 -2 -65 -20 -65 -13 0 -20 7 -20 20 0 13 -7 20 -20 20 -17 0 -20
7 -20 45 0 38 3 45 20 45 18 0 20 7 20 59 0 54 2 60 23 63 19 3 22 9 22 43 0
34 3 40 23 43 21 3 27 19 23 65 -1 9 3 17 9 17 6 0 8 -6 4 -12 -5 -10 -4 -10
6 -1 7 6 20 9 29 6 10 -3 12 -2 6 4 -6 4 -12 28 -14 51 -2 37 0 43 15 40 10
-2 21 -14 24 -27z m558 11 c-5 -24 -38 -28 -38 -5 0 12 8 19 21 20 14 1 19 -3
17 -15z m2529 1 c6 -17 -44 -28 -61 -13 -12 9 -20 8 -40 -5 -14 -10 -26 -24
-26 -31 0 -8 -10 -14 -24 -14 -70 0 -78 38 -8 42 28 2 47 8 48 16 1 6 2 14 3
18 2 11 105 -1 108 -13z m-5447 -38 c0 -9 -7 -18 -16 -22 -20 -7 -38 18 -21
29 20 13 37 9 37 -7z m1287 -127 c-2 -29 -3 -8 -3 47 0 55 1 79 3 53 2 -26 2
-71 0 -100z m1673 136 c0 -1 -3 -9 -6 -18 -9 -23 -34 -20 -34 3 0 14 6 19 20
18 11 -1 20 -2 20 -3z m-3010 -60 c0 -8 -9 -14 -20 -14 -23 0 -25 6 -7 24 14
16 27 11 27 -10z m3054 -6 c-3 -4 -14 -8 -25 -8 -24 0 -25 27 -1 32 18 4 34
-11 26 -24z m-5207 7 c0 -19 -36 -19 -61 0 -19 14 -17 15 20 15 30 0 41 -4 41
-15z m7441 -3 c6 -18 -66 -12 -73 6 -4 10 4 12 32 10 20 -2 38 -9 41 -16z
m-2192 -24 c5 -7 3 -8 -6 -3 -9 5 -10 2 -5 -14 4 -13 2 -21 -5 -21 -17 0 -24
31 -9 41 18 11 17 11 25 -3z m-5118 -16 c2 -8 -2 -10 -14 -5 -10 4 -15 2 -11
-3 3 -6 -9 -8 -31 -6 -51 5 -64 10 -57 22 9 15 107 8 113 -8z m1982 -2 c0 -11
-6 -20 -13 -20 -21 0 -27 11 -14 26 17 19 27 17 27 -6z m5238 3 c-3 -14 -12
-17 -38 -16 -59 4 -69 7 -74 20 -4 10 10 13 55 13 52 0 60 -2 57 -17z m-7134
-45 c-2 -15 7 -18 47 -18 46 0 49 -2 49 -25 0 -26 5 -28 53 -25 22 1 28 -2 25
-17 -2 -15 5 -19 42 -23 35 -4 45 -9 44 -22 -2 -15 6 -18 41 -18 l44 0 -1 -40
c0 -32 -4 -40 -19 -40 -16 0 -19 -8 -19 -45 0 -41 -2 -45 -24 -45 -19 0 -23
-4 -19 -20 5 -18 0 -20 -36 -20 -34 0 -41 3 -41 20 0 15 -7 20 -25 20 -18 0
-25 5 -25 20 0 13 -7 20 -20 20 -13 0 -20 -7 -20 -20 0 -15 -7 -20 -25 -20
-18 0 -25 5 -25 20 0 13 -7 20 -20 20 -18 0 -20 7 -20 65 0 58 -2 65 -20 65
-18 0 -20 7 -20 63 0 35 5 68 10 73 8 8 2 10 -20 9 -16 -1 -30 1 -30 5 0 14
16 21 45 18 21 -2 30 -8 29 -20z m1846 0 c0 -10 -6 -18 -14 -18 -8 0 -14 8
-13 18 0 10 7 19 14 19 7 0 13 -9 13 -19z m3230 7 c0 -16 -27 -32 -37 -22 -3
4 -3 13 0 22 8 20 37 20 37 0z m1930 0 c0 -14 -12 -19 -32 -16 -5 0 -8 -30 -8
-69 0 -63 -2 -70 -20 -70 -17 0 -20 -7 -20 -46 0 -38 -3 -45 -17 -42 -13 2
-19 15 -21 46 -3 37 -1 42 17 42 18 0 21 6 21 44 0 34 -4 45 -19 49 -17 4 -19
-4 -25 -77 -4 -44 -4 -96 0 -115 5 -26 4 -33 -7 -29 -9 3 -14 26 -15 74 -1 38
-3 76 -4 84 0 8 0 34 1 58 1 41 2 42 35 42 27 0 34 4 34 20 0 17 7 20 40 20
29 0 40 -4 40 -15z m4000 -90 c0 -55 3 -63 21 -68 18 -5 20 -12 17 -64 -2 -43
-7 -58 -18 -58 -12 0 -15 14 -16 59 -1 51 -4 61 -23 69 -18 9 -21 18 -21 73 0
57 2 62 20 57 17 -5 20 -14 20 -68z m-9202 52 c17 -11 6 -27 -19 -27 -12 0
-19 7 -19 19 0 19 14 22 38 8z m3312 -7 c0 -11 -7 -20 -15 -20 -8 0 -15 9 -15
20 0 11 7 20 15 20 8 0 15 -9 15 -20z m5998 -61 c9 -1 24 -3 32 -4 8 -1 21 -3
28 -4 6 0 12 -10 12 -21 0 -17 7 -20 40 -20 33 0 40 -3 40 -20 0 -13 7 -20 20
-20 18 0 20 -7 20 -65 0 -60 -2 -65 -22 -66 -13 -1 -27 -1 -32 0 -4 1 -15 -4
-24 -11 -12 -10 -14 -10 -8 -1 5 9 1 12 -11 11 -50 -4 -73 2 -73 21 0 10 -9
21 -21 24 -18 5 -20 13 -19 59 2 75 2 75 -22 74 -20 -1 -23 4 -23 39 0 24 5
40 12 40 6 0 15 4 20 8 4 5 9 -3 11 -17 2 -16 10 -27 20 -27z m-9350 19 c-7
-19 -35 -21 -35 -3 0 8 9 15 20 15 10 0 17 -5 15 -12z m3402 -3 c0 -8 -9 -15
-20 -15 -11 0 -20 7 -20 15 0 8 9 15 20 15 11 0 20 -7 20 -15z m-3440 -48 c0
-23 -33 -19 -38 5 -2 12 3 16 17 15 13 -1 21 -8 21 -20z m3478 6 c-5 -26 -38
-29 -38 -4 0 15 6 21 21 21 14 0 19 -5 17 -17z m6019 11 c-3 -3 -12 -4 -19 -1
-8 3 -5 6 6 6 11 1 17 -2 13 -5z m-9549 -77 c2 -26 -1 -37 -10 -37 -9 0 -14
13 -14 40 0 51 20 48 24 -3z m3570 3 c0 -31 -4 -40 -18 -40 -14 0 -18 9 -18
40 -1 33 3 40 18 40 15 0 19 -7 18 -40z m3442 20 c0 -13 -7 -20 -20 -20 -13 0
-20 7 -20 20 0 13 7 20 20 20 13 0 20 -7 20 -20z m2614 5 c-4 -8 -7 -15 -9
-15 -2 0 -5 7 -9 15 -3 9 0 15 9 15 9 0 12 -6 9 -15z m46 -50 c0 -8 -4 -15
-10 -15 -5 0 -7 7 -4 15 4 8 8 15 10 15 2 0 4 -7 4 -15z m-9715 -65 c0 -25 -5
-36 -18 -38 -15 -3 -18 3 -15 38 1 31 6 40 17 38 11 -2 16 -15 16 -38z m1593
23 c-2 -13 -13 -18 -38 -18 -25 0 -36 5 -38 18 -3 14 4 17 38 17 34 0 41 -3
38 -17z m522 -3 c0 -17 7 -20 48 -20 26 0 54 -6 61 -12 11 -10 13 -10 7 0 -4
6 -2 12 4 12 6 0 10 -8 8 -17 -3 -15 -16 -19 -66 -21 -56 -3 -62 -1 -62 16 0
24 -24 28 -137 24 -75 -3 -83 -5 -83 -23 0 -18 -6 -20 -82 -17 -73 3 -83 5
-80 21 2 14 -5 17 -48 17 -43 0 -50 3 -50 20 0 19 7 20 240 20 233 0 240 -1
240 -20z m1540 -20 c0 -29 -4 -40 -15 -40 -18 0 -21 50 -2 51 9 0 9 2 -1 6
-13 5 -7 23 9 23 5 0 9 -18 9 -40z m-2150 -20 c0 -11 -7 -20 -15 -20 -8 0 -15
9 -15 20 0 11 7 20 15 20 8 0 15 -9 15 -20z m7947 13 c-4 -3 -2 -12 4 -20 9
-10 6 -13 -15 -13 -19 0 -26 5 -26 20 0 14 7 20 22 20 12 0 18 -3 15 -7z
m-4210 -200 c-2 -32 -3 -6 -3 57 0 63 1 89 3 58 2 -32 2 -84 0 -115z m-2920
145 c-2 -7 -19 -13 -37 -13 -18 0 -35 6 -38 13 -2 8 9 12 38 12 29 0 40 -4 37
-12z m7303 -10 c0 -4 -16 -8 -35 -8 -46 0 -46 15 0 16 19 0 35 -3 35 -8z
m-7730 -38 c0 -18 -7 -20 -80 -20 -73 0 -80 2 -80 20 0 18 7 20 80 20 73 0 80
-2 80 -20z m470 0 c0 -11 -7 -20 -15 -20 -8 0 -15 5 -15 10 0 6 6 10 13 10 8
0 7 4 -3 10 -13 8 -12 10 3 10 10 0 17 -8 17 -20z m4780 -275 l0 -295 -26 0
c-24 0 -26 3 -22 40 3 36 1 40 -19 40 -20 0 -23 -5 -23 -39 0 -40 0 -40 -42
-43 -37 -3 -43 -6 -42 -25 1 -18 -4 -23 -22 -23 -17 0 -24 -6 -24 -20 0 -17
-7 -20 -45 -20 -37 0 -45 -3 -45 -19 0 -10 -9 -21 -20 -24 -12 -3 -20 -14 -20
-27 0 -17 -4 -21 -20 -17 -16 4 -20 0 -20 -20 0 -20 -4 -24 -20 -20 -16 4 -20
0 -20 -19 0 -19 -5 -24 -24 -24 -17 0 -25 -7 -28 -25 l-5 -25 241 -2 c223 -3
241 -4 244 -21 3 -17 -5 -18 -127 -15 l-131 3 0 -27 c0 -27 1 -28 60 -28 53 0
60 -2 60 -20 0 -15 7 -20 25 -20 24 0 24 -2 27 -87 2 -70 6 -88 18 -88 11 0
16 16 20 65 4 57 8 65 25 65 19 0 20 -7 20 -100 l0 -100 -82 -3 c-78 -3 -83
-2 -83 18 0 19 -6 20 -155 20 l-155 0 0 26 0 26 -92 -2 c-51 -1 -99 -1 -106
-1 -10 1 -12 111 -12 531 l1 530 44 0 c41 0 45 2 45 25 l0 25 109 0 c104 0
109 1 104 20 -5 19 0 20 106 20 104 0 111 1 111 20 0 18 7 20 85 20 l85 0 0
-295z m-7272 212 c2 -28 -1 -37 -12 -37 -12 0 -16 11 -16 41 0 52 24 48 28 -4z
m2242 23 c0 -13 -7 -20 -20 -20 -13 0 -20 7 -20 20 0 13 7 20 20 20 13 0 20
-7 20 -20z m-257 -25 c22 -4 37 -12 37 -21 0 -11 -18 -14 -80 -14 -62 0 -80 3
-80 14 0 23 55 32 123 21z m-1503 -59 c0 -10 -13 -14 -45 -14 -69 0 -57 26 13
27 21 1 32 -4 32 -13z m2190 -1 c0 -8 -9 -15 -20 -15 -20 0 -26 11 -13 23 12
13 33 7 33 -8z m804 9 c30 -12 16 -22 -29 -22 -32 0 -45 4 -45 14 0 15 44 19
74 8z m-2054 -39 c0 -40 -9 -44 -29 -12 -13 20 -13 21 2 8 15 -12 17 -11 17 7
0 11 -6 23 -12 25 -8 3 -6 6 5 6 13 1 17 -7 17 -34z m357 -52 c-2 -16 -4 -5
-4 22 0 28 2 40 4 28 2 -13 2 -35 0 -50z m-1256 45 c0 -10 2 -10 6 0 7 19 35
15 31 -5 -4 -23 -78 -32 -78 -10 0 26 39 40 41 15z m2186 -8 c3 -11 14 -20 24
-20 12 0 19 -7 19 -20 0 -15 7 -20 25 -20 20 0 25 -5 25 -25 0 -18 5 -25 20
-25 13 0 20 -7 20 -20 0 -13 7 -20 20 -20 13 0 20 -7 20 -20 0 -13 -7 -20 -20
-20 -13 0 -20 7 -20 20 0 13 -7 20 -20 20 -13 0 -20 7 -20 19 0 13 -8 21 -22
23 -15 2 -24 11 -26 26 -2 14 -10 22 -23 22 -12 0 -19 7 -19 20 0 11 -6 20
-14 20 -18 0 -29 16 -21 30 10 16 27 11 32 -10z m643 8 c0 -9 3 -9 9 1 11 17
41 7 41 -14 0 -24 -74 -17 -78 8 -2 10 3 17 12 17 9 0 16 -6 16 -12z m-2702
-45 c-4 -22 -78 -31 -78 -10 0 21 10 27 47 27 27 0 34 -4 31 -17z m522 -3 c0
-15 -7 -20 -25 -20 -20 0 -25 -5 -25 -25 0 -18 -5 -25 -20 -25 -13 0 -20 -7
-20 -20 0 -13 -7 -20 -20 -20 -13 0 -20 7 -20 20 0 13 7 20 20 20 15 0 20 7
20 25 0 18 5 25 20 25 13 0 20 7 20 20 0 15 7 20 25 20 18 0 25 -5 25 -20z
m860 0 c0 -19 -7 -20 -90 -20 -83 0 -90 1 -90 20 0 19 7 20 90 20 83 0 90 -1
90 -20z m418 -3 c2 -12 -3 -17 -17 -17 -15 0 -21 6 -21 21 0 25 33 22 38 -4z
m860 0 c3 -15 -3 -17 -35 -15 -27 3 -39 8 -41 21 -3 16 2 18 35 15 27 -2 39
-8 41 -21z m-5888 -41 c0 -18 6 -25 23 -28 20 -3 22 -9 25 -85 l3 -83 -66 0
-65 0 0 65 c0 58 -2 65 -20 65 -18 0 -20 -7 -20 -65 l0 -65 -65 0 c-57 0 -65
-2 -65 -19 0 -10 9 -21 20 -24 11 -3 20 -12 20 -20 0 -8 -9 -17 -20 -20 -16
-4 -20 0 -20 19 0 17 -6 24 -20 24 -13 0 -20 7 -20 19 0 10 9 21 20 24 11 3
20 13 20 22 0 9 -9 19 -20 22 -17 5 -20 14 -20 64 0 52 2 59 20 59 13 0 20 7
20 18 0 10 3 22 7 25 3 4 60 7 125 7 l118 0 0 -24z m3312 -3 c3 -24 7 -27 43
-27 39 -1 40 -2 43 -38 3 -38 4 -38 48 -38 37 0 44 -3 44 -20 0 -17 -7 -20
-45 -20 -38 0 -45 3 -45 20 0 17 -7 20 -40 20 -33 0 -40 3 -40 20 0 17 -7 20
-45 20 l-45 0 0 39 c0 41 8 49 52 50 22 1 27 -4 30 -26z m1806 4 c1 -20 -2
-22 -38 -19 -31 3 -40 8 -40 23 0 15 7 19 38 19 32 0 38 -3 40 -23z m676 17
c9 -3 16 -14 16 -23 0 -13 -8 -16 -40 -13 -31 3 -40 8 -40 23 0 20 31 26 64
13z m5155 -96 c-1 -152 1 -149 -68 -132 -61 14 -101 15 -101 2 0 -4 15 -9 33
-9 30 -2 30 -2 5 -6 -25 -4 -28 -9 -28 -40 0 -28 -3 -34 -16 -29 -9 3 -21 6
-28 6 -9 0 -12 10 -10 28 2 15 1 21 -2 14 -3 -6 -10 -10 -15 -6 -13 8 -11 61
3 70 7 5 8 3 3 -6 -5 -8 -3 -11 6 -8 20 7 17 33 -3 32 -16 -2 -18 8 -18 67 0
62 2 69 20 69 15 0 20 7 20 25 0 25 0 25 100 25 l100 0 -1 -102z m-6592 15
c-2 -16 -4 -3 -4 27 0 30 2 43 4 28 2 -16 2 -40 0 -55z m593 33 c0 -2 -3 -12
-6 -20 -5 -13 -9 -14 -20 -5 -20 16 -17 29 6 29 11 0 20 -2 20 -4z m73 -14
c-2 -7 2 -12 8 -12 5 0 8 -4 4 -9 -3 -5 0 -13 6 -17 8 -4 9 -3 5 4 -4 7 -1 12
8 12 11 0 16 -9 16 -27 0 -16 3 -45 6 -65 6 -34 4 -38 -15 -38 -16 0 -21 6
-21 25 0 20 -5 25 -25 25 -18 0 -25 5 -25 20 0 13 -7 20 -20 20 -13 0 -20 7
-20 20 0 13 7 20 20 20 14 0 20 7 20 21 0 14 5 19 18 17 9 -2 16 -10 15 -16z
m683 11 c16 -6 16 -7 -2 -14 -17 -7 -17 -8 -1 -8 11 -1 17 -9 17 -26 0 -22 -4
-25 -40 -25 -33 0 -40 -3 -40 -20 0 -17 -7 -20 -46 -20 l-45 0 3 38 c3 36 4
37 44 40 32 2 43 8 47 23 5 19 31 25 63 12z m-1618 -48 c1 -19 -3 -25 -18 -25
-25 0 -27 37 -2 43 9 3 17 5 17 6 0 0 2 -10 3 -24z m-3407 5 c1 -5 2 -16 3
-22 0 -7 13 -14 27 -16 26 -3 27 -6 28 -62 0 -33 -3 -59 -7 -59 -27 4 -42 -3
-42 -21 0 -15 -7 -20 -27 -20 -16 0 -45 -3 -65 -6 l-38 -7 0 72 c0 64 -2 71
-20 71 -18 0 -20 -7 -20 -70 l0 -70 -65 0 -65 0 0 84 c0 80 1 85 23 88 14 2
23 11 25 26 3 21 7 22 123 22 72 0 119 -4 120 -10z m2929 -11 c0 -24 -23 -21
-28 4 -2 10 3 17 12 17 10 0 16 -9 16 -21z m4520 -46 l0 -63 -40 0 -40 0 0 65
0 66 40 -3 40 -2 0 -63z m3557 47 c3 -13 14 -20 29 -20 23 0 24 -3 24 -65 0
-63 -1 -65 -25 -65 -18 0 -25 -5 -25 -20 0 -15 7 -20 25 -20 20 0 25 -5 25
-26 0 -20 -4 -25 -22 -22 -17 2 -24 -3 -26 -19 -4 -30 -42 -32 -42 -3 0 18 10
25 33 21 4 0 7 8 7 18 0 23 -37 33 -92 26 l-38 -5 0 70 c0 63 -2 70 -20 70
-18 0 -20 -7 -20 -64 0 -75 -9 -82 -85 -70 l-45 6 0 78 c0 74 1 79 23 82 14 2
23 11 25 26 3 21 7 22 124 22 111 0 120 -1 125 -20z m-7649 -43 c2 -10 -3 -17
-12 -17 -10 0 -16 9 -16 21 0 24 23 21 28 -4z m-468 -28 c0 -33 -3 -40 -17
-37 -13 2 -19 14 -20 41 -2 31 1 37 17 37 17 0 20 -7 20 -41z m1550 -59 c0
-14 7 -20 21 -20 17 0 20 -5 17 -37 -2 -27 -8 -39 -20 -41 -15 -3 -18 4 -18
37 0 34 -3 41 -20 41 -19 0 -27 20 -13 33 13 14 33 6 33 -13z m5793 -17 c-7
-2 -19 -2 -25 0 -7 3 -2 5 12 5 14 0 19 -2 13 -5z m-10863 -28 c0 -18 -5 -25
-20 -25 -15 0 -20 7 -20 25 0 18 5 25 20 25 15 0 20 -7 20 -25z m8080 -40 l0
-65 -40 0 -40 0 0 65 0 65 40 0 40 0 0 -65z m2770 45 c0 -5 -5 -10 -11 -10 -5
0 -7 5 -4 10 3 6 8 10 11 10 2 0 4 -4 4 -10z m31 -74 c5 -6 9 -15 9 -20 0 -6
-7 -2 -16 9 -8 11 -20 20 -27 20 -7 0 -13 10 -15 23 -2 15 2 22 12 22 9 0 17
6 18 13 0 6 3 -4 5 -23 3 -19 9 -39 14 -44z m-11011 33 c0 -12 -7 -19 -20 -19
-13 0 -20 7 -20 18 0 11 8 18 20 19 14 1 20 -4 20 -18z m820 -4 c0 -8 -9 -15
-20 -15 -13 0 -24 -10 -30 -25 -11 -30 -40 -33 -40 -5 0 13 7 20 20 20 13 0
20 7 20 20 0 15 7 20 25 20 16 0 25 -6 25 -15z m8120 0 c0 -8 -9 -15 -20 -15
-11 0 -20 7 -20 15 0 8 9 15 20 15 11 0 20 -7 20 -15z m1877 -1 c-3 -3 -12 -4
-19 -1 -8 3 -5 6 6 6 11 1 17 -2 13 -5z m103 -25 c37 -1 41 -2 20 -9 l-25 -8
25 -2 c24 -2 23 -3 -5 -9 -20 -4 -31 -14 -35 -31 -6 -24 -6 -24 -19 8 -7 17
-17 29 -22 26 -5 -3 -9 3 -9 13 0 14 -2 15 -9 4 -6 -9 -8 -6 -8 13 0 24 1 24
20 11 12 -8 42 -15 67 -16z m-5552 -17 c3 -17 -2 -22 -17 -22 -16 0 -21 6 -21
26 0 33 33 30 38 -4z m-4858 -2 c0 -13 -7 -20 -20 -20 -13 0 -20 7 -20 20 0
13 7 20 20 20 13 0 20 -7 20 -20z m11000 0 c0 -11 -6 -20 -13 -20 -19 0 -27
10 -20 26 8 21 33 17 33 -6z m-10870 -40 c0 -13 -7 -20 -20 -20 -13 0 -20 7
-20 20 0 13 7 20 20 20 13 0 20 -7 20 -20z m8290 0 c0 -11 -7 -20 -15 -20 -8
0 -15 9 -15 20 0 11 7 20 15 20 8 0 15 -9 15 -20z m2710 0 c0 -13 -7 -20 -20
-20 -13 0 -20 7 -20 20 0 13 7 20 20 20 13 0 20 -7 20 -20z m-11380 -110 c0
-33 -3 -40 -20 -40 -13 0 -20 7 -20 20 0 18 -16 25 -42 21 -5 0 -8 8 -8 19 0
17 7 20 45 20 l45 0 0 -40z m8290 20 c0 -13 -7 -20 -20 -20 -13 0 -20 7 -20
20 0 13 7 20 20 20 13 0 20 -7 20 -20z m380 5 c0 -8 -7 -15 -15 -15 -8 0 -15
7 -15 15 0 8 7 15 15 15 8 0 15 -7 15 -15z m-8502 -87 c2 -11 -5 -18 -20 -20
-15 -2 -24 -11 -26 -25 -3 -21 -30 -33 -33 -15 -6 33 -3 68 5 75 19 13 71 3
74 -15z m10962 -7 c-5 -11 -10 -29 -10 -40 0 -14 -5 -19 -15 -15 -20 8 -19 29
2 54 22 26 37 26 23 1z m40 -2 c0 -5 -7 -9 -15 -9 -9 0 -12 6 -9 15 6 15 24
11 24 -6z m-9202 -37 c-5 -27 -28 -26 -28 2 0 19 4 24 15 19 9 -3 15 -12 13
-21z m-42 -33 c10 -17 -13 -36 -27 -22 -12 12 -4 33 11 33 5 0 12 -5 16 -11z
m2261 -146 c-2 -32 -3 -8 -3 52 0 61 1 87 3 58 2 -29 2 -78 0 -110z m4363 137
c0 -13 -7 -20 -20 -20 -13 0 -20 7 -20 20 0 13 7 20 20 20 13 0 20 -7 20 -20z
m170 0 c0 -13 -7 -20 -20 -20 -13 0 -20 7 -20 20 0 13 7 20 20 20 13 0 20 -7
20 -20z m-943 -202 c-1 -40 -3 -10 -3 67 0 77 1 110 3 73 2 -37 2 -100 0 -140z
m-5891 171 c10 -17 -13 -36 -27 -22 -12 12 -4 33 11 33 5 0 12 -5 16 -11z
m-1256 -549 c43 0 50 -3 50 -20 0 -15 7 -20 25 -20 20 0 25 -5 25 -25 0 -18 5
-25 20 -25 13 0 20 -7 20 -20 0 -15 7 -20 25 -20 25 0 25 -1 25 -85 0 -84 0
-85 -25 -85 -24 0 -25 -2 -25 -65 0 -58 2 -65 20 -65 17 0 20 -7 20 -45 0 -38
3 -45 20 -45 13 0 20 -7 20 -20 0 -17 7 -20 50 -20 43 0 50 -3 50 -20 0 -15
-7 -20 -25 -20 -19 0 -25 -5 -25 -21 0 -17 -5 -20 -37 -17 -29 2 -38 7 -37 21
1 12 -6 17 -27 17 -26 0 -29 -4 -30 -32 -1 -18 0 -46 1 -61 1 -21 -4 -30 -19
-34 -28 -7 -30 -53 -2 -53 17 0 19 -9 19 -125 -1 -77 -4 -123 -11 -122 -5 1
-12 -4 -15 -12 -3 -8 0 -11 7 -7 6 4 11 2 11 -3 0 -6 -7 -11 -15 -11 -12 0
-15 -14 -15 -70 0 -63 2 -70 20 -70 13 0 20 -7 20 -20 0 -27 -36 -27 -43 1 -6
24 -30 21 -35 -4 -2 -12 3 -17 17 -17 16 0 21 -6 21 -25 0 -20 -5 -25 -25 -25
-18 0 -25 -5 -25 -20 0 -20 -5 -21 -87 -18 -60 2 -87 7 -86 14 1 7 -8 15 -21
18 -18 4 -23 11 -19 26 4 15 0 20 -15 20 -20 0 -36 25 -26 41 3 5 23 9 45 9
42 0 42 0 33 24 -5 12 -20 16 -59 16 l-52 0 -7 40 c-6 37 -9 40 -46 46 -30 5
-40 11 -40 25 0 16 8 19 45 19 38 0 45 3 45 20 0 13 7 20 20 20 13 0 20 -7 20
-20 0 -11 4 -20 8 -20 20 0 32 28 32 77 l0 53 45 0 c38 0 45 3 45 20 0 17 -7
20 -45 20 -41 0 -45 2 -45 24 0 16 7 26 21 29 12 3 20 13 19 24 -1 10 -2 29
-1 42 1 21 5 23 31 18 32 -7 33 -5 24 42 -5 24 -12 31 -30 31 -24 0 -28 10
-24 58 1 17 -4 22 -22 21 -17 -1 -18 -3 -5 -6 16 -4 26 -25 10 -21 -18 3 -64
-23 -58 -33 4 -6 -2 -13 -14 -16 -11 -3 -18 -10 -15 -17 4 -6 -5 2 -19 17
l-26 28 -21 -21 c-16 -16 -25 -19 -33 -11 -6 6 -28 11 -49 11 -31 0 -38 4 -38
20 0 13 7 20 20 20 13 0 20 7 20 20 0 17 7 20 40 20 33 0 40 3 40 20 0 15 7
20 25 20 20 0 25 5 25 25 0 18 5 25 20 25 12 0 20 7 20 16 0 9 10 24 23 35
l22 19 -22 6 c-16 4 -23 14 -23 30 0 17 -6 24 -20 24 -19 0 -20 7 -20 105 0
98 1 105 20 105 13 0 20 7 20 20 0 13 7 20 20 20 15 0 20 7 20 25 0 18 5 25
20 25 13 0 20 7 20 20 0 16 7 20 30 20 l30 0 2 278 3 277 2 -277 3 -278 50 0z
m-760 490 c0 -18 -5 -20 -37 -17 -25 3 -39 10 -41 21 -3 13 5 16 37 16 35 0
41 -3 41 -20z m1980 4 c0 -10 -7 -14 -22 -12 -32 5 -35 28 -4 28 17 0 26 -5
26 -16z m6870 -24 c0 -33 -3 -40 -20 -40 -17 0 -20 7 -20 40 0 33 3 40 20 40
17 0 20 -7 20 -40z m-6922 -128 c2 -117 2 -122 -18 -122 -15 0 -20 -7 -20 -25
0 -18 5 -25 20 -25 13 0 20 -7 20 -19 0 -12 9 -21 26 -25 28 -7 28 -29 0 -34
-11 -2 -19 4 -23 17 -3 12 -13 21 -24 21 -12 0 -19 7 -19 20 0 13 -7 20 -20
20 -15 0 -20 7 -20 25 0 18 5 25 20 25 13 0 20 7 20 20 0 13 -7 20 -20 20 -17
0 -20 7 -20 40 0 33 3 40 20 40 18 0 20 7 20 66 0 57 2 65 18 62 15 -3 17 -18
20 -126z m-1508 68 c0 -17 -7 -20 -40 -20 -33 0 -40 3 -40 20 0 17 7 20 40 20
33 0 40 -3 40 -20z m11000 0 c0 -17 -7 -20 -40 -20 -33 0 -40 3 -40 20 0 17 7
20 40 20 33 0 40 -3 40 -20z m-2140 -300 c0 -18 -7 -20 -65 -20 -58 0 -65 2
-65 20 0 18 7 20 65 20 58 0 65 -2 65 -20z m-7350 -55 c4 -16 13 -20 45 -20
29 0 40 -4 40 -15 0 -8 -10 -16 -21 -18 -16 -2 -20 -8 -17 -23 4 -15 0 -19
-21 -19 -19 0 -26 5 -26 20 0 14 -7 20 -24 20 -19 0 -23 -4 -19 -21 4 -14 1
-20 -8 -19 -8 1 -30 2 -50 1 -33 -1 -36 -3 -31 -26 3 -16 11 -25 23 -25 17 0
19 -9 19 -92 0 -51 3 -110 6 -130 6 -34 4 -38 -15 -38 -27 0 -28 -26 -1 -33
12 -3 20 -14 20 -26 0 -14 -6 -21 -20 -21 -13 0 -20 -7 -20 -20 0 -15 -7 -20
-25 -20 -24 0 -25 -2 -25 -65 0 -58 -2 -65 -20 -65 -19 0 -20 -7 -20 -91 0
-88 -1 -90 -22 -87 -15 2 -24 11 -26 26 -2 14 -10 22 -23 22 -12 0 -17 -4 -14
-11 4 -6 4 -26 1 -45 -5 -25 -12 -34 -26 -34 -13 0 -20 7 -20 20 0 13 -7 20
-20 20 -17 0 -20 -7 -20 -40 0 -36 -2 -40 -26 -40 -25 0 -26 1 -22 63 3 55 5
62 25 65 18 3 22 11 25 45 2 33 7 42 21 41 14 -2 17 6 17 41 0 40 2 44 28 47
18 2 26 8 23 18 -15 55 -13 70 7 70 17 0 21 7 24 43 2 34 7 42 23 42 16 0 21
8 23 43 3 34 7 42 23 42 17 0 19 7 19 69 0 59 -2 69 -17 67 -16 -1 -18 11 -21
102 -3 101 -1 108 31 103 4 0 7 7 7 17 0 10 2 21 4 23 2 2 39 2 82 -1 67 -4
79 -8 84 -25z m7610 10 c0 -13 -21 -15 -130 -15 -109 0 -130 2 -130 15 0 13
21 15 130 15 109 0 130 -2 130 -15z m-1030 -45 c0 -19 7 -20 105 -20 98 0 105
-1 105 -20 0 -19 7 -20 110 -20 l110 0 0 -25 0 -25 105 0 c98 0 105 -1 105
-20 0 -19 7 -20 110 -20 103 0 110 -1 110 -20 0 -19 7 -20 105 -20 97 0 105
-1 105 -19 0 -16 8 -20 43 -23 34 -2 42 -7 42 -23 0 -16 -8 -21 -42 -23 -40
-3 -43 -1 -43 22 l0 26 -105 0 c-98 0 -105 1 -105 20 0 19 -7 20 -110 20 -103
0 -110 1 -110 20 0 19 -7 20 -105 20 -98 0 -105 1 -105 20 0 18 -8 20 -107 22
-103 3 -108 4 -111 26 -3 21 -7 22 -108 22 -97 0 -104 1 -104 20 0 15 -7 20
-25 20 -24 0 -34 18 -18 33 15 15 43 7 43 -13z m1150 0 c0 -18 -7 -20 -60 -20
-53 0 -60 2 -60 20 0 18 7 20 60 20 53 0 60 -2 60 -20z m90 0 c0 -13 -7 -20
-20 -20 -13 0 -20 7 -20 20 0 13 7 20 20 20 13 0 20 -7 20 -20z m-7520 -41 c0
-17 -5 -20 -37 -17 -27 2 -39 8 -41 21 -3 14 4 17 37 17 35 0 41 -3 41 -21z
m9580 1 c0 -15 7 -20 25 -20 20 0 25 -5 25 -25 0 -18 5 -25 20 -25 13 0 20 -7
20 -20 0 -15 7 -20 25 -20 25 0 25 -1 25 -85 0 -84 0 -85 -25 -85 -23 0 -25
-4 -25 -43 0 -24 -5 -48 -11 -54 -7 -7 -6 -15 5 -26 9 -9 16 -21 16 -27 0 -6
4 -9 9 -6 4 3 6 -5 4 -18 -3 -13 0 -27 6 -30 6 -4 11 -15 11 -24 0 -15 -2 -15
-10 -2 -7 11 -10 7 -10 -17 0 -23 5 -33 16 -33 8 0 13 4 9 9 -3 5 -1 12 5 16
6 4 8 10 6 14 -3 4 1 8 8 8 8 0 12 -6 9 -14 -4 -10 8 -13 51 -13 48 0 56 -3
56 -19 0 -14 -10 -20 -42 -25 -24 -4 -45 -3 -52 4 -11 11 -65 14 -90 4 -10 -4
-16 -18 -16 -40 0 -31 -2 -34 -31 -34 -16 0 -28 -4 -24 -9 3 -5 -2 -16 -10
-24 -8 -9 -15 -23 -15 -32 0 -9 -4 -13 -10 -10 -5 3 -7 0 -4 -9 3 -8 14 -13
27 -10 36 6 67 -22 67 -61 0 -19 -4 -35 -10 -35 -13 0 -13 -101 0 -135 7 -17
7 -24 0 -20 -6 4 -10 -23 -10 -74 0 -88 5 -111 26 -111 8 0 14 -9 14 -20 0
-13 -7 -20 -20 -20 -15 0 -20 -7 -20 -25 0 -20 -5 -25 -25 -25 -18 0 -25 -5
-25 -20 0 -18 -7 -20 -57 -21 -32 -1 -69 0 -83 1 -26 2 -61 32 -73 63 -3 9
-13 17 -21 17 -16 0 -27 22 -17 38 3 6 22 12 41 14 23 2 35 8 35 18 0 11 -14
16 -57 18 l-57 3 -6 43 c-4 24 -12 43 -18 43 -52 -1 -67 4 -67 23 0 17 7 20
45 20 38 0 45 3 45 20 0 13 7 20 19 20 10 0 21 -9 24 -20 11 -41 27 -20 27 34
0 78 3 82 55 78 41 -4 45 -2 45 18 0 17 -5 21 -27 19 -54 -4 -63 0 -63 26 0
14 6 28 14 31 10 4 14 19 12 50 -1 25 0 41 3 36 3 -4 20 -5 36 -1 17 4 22 7
13 8 -21 1 -24 27 -5 34 6 3 3 6 -8 6 -15 1 -17 3 -7 10 11 6 9 9 -6 13 -16 4
-19 2 -15 -10 4 -10 2 -13 -5 -8 -7 4 -12 3 -12 -2 0 -5 -11 -12 -25 -14 -31
-6 -33 4 -3 17 11 6 25 21 30 35 8 24 8 24 -8 5 -16 -20 -16 -20 -11 2 4 19 2
21 -13 13 -9 -5 -20 -6 -24 -3 -3 3 -6 1 -6 -5 0 -6 7 -17 15 -26 13 -13 13
-15 -5 -21 -12 -4 -26 0 -36 9 -8 9 -19 16 -24 16 -5 0 -7 16 -4 35 4 30 1 35
-16 35 -23 0 -27 -29 -8 -48 9 -9 9 -12 0 -12 -6 0 -9 -6 -6 -14 3 -8 0 -17
-7 -22 -7 -4 -10 -3 -6 3 8 13 -25 23 -75 23 -31 0 -38 4 -38 20 0 13 7 20 20
20 13 0 20 7 20 20 0 17 7 20 40 20 33 0 40 3 40 20 0 15 7 20 25 20 20 0 25
5 25 25 0 18 5 25 20 25 15 0 20 7 20 26 0 14 4 23 9 20 5 -3 11 3 14 14 3 13
0 20 -9 20 -8 0 -14 10 -14 25 0 18 -5 25 -20 25 -19 0 -20 7 -20 105 0 98 1
105 20 105 13 0 20 7 20 20 0 13 7 20 20 20 15 0 20 7 20 25 0 18 5 25 20 25
13 0 20 7 20 20 0 18 7 20 85 20 78 0 85 -2 85 -20z m-9662 -42 c3 -15 -4 -18
-37 -18 -35 0 -41 3 -41 21 0 17 5 20 37 17 27 -2 39 -8 41 -20z m-91 -45 c2
-6 -13 -14 -36 -18 l-41 -7 0 -59 c0 -45 -4 -61 -15 -66 -23 -8 -28 1 -32 67
-4 59 -3 60 22 60 19 0 25 5 25 21 0 17 5 20 37 17 20 -2 38 -8 40 -15z m2270
-135 c-2 -29 -3 -6 -3 52 0 58 1 81 3 53 2 -29 2 -77 0 -105z m659 52 c0 -14
-7 -20 -23 -20 -16 0 -23 6 -23 20 0 14 7 20 23 20 16 0 23 -6 23 -20z m-1596
-50 c0 -17 -7 -20 -40 -20 -33 0 -40 3 -40 20 0 17 7 20 40 20 33 0 40 -3 40
-20z m173 0 c4 -16 0 -20 -19 -20 -17 0 -24 6 -24 20 0 13 7 20 19 20 10 0 21
-9 24 -20z m87 0 c0 -13 -7 -20 -20 -20 -13 0 -20 7 -20 20 0 13 7 20 20 20
13 0 20 -7 20 -20z m470 5 c0 -20 -46 -30 -66 -14 -12 10 -12 14 -2 20 22 15
68 10 68 -6z m-1160 -45 c0 -15 7 -20 25 -20 20 0 25 -5 25 -25 0 -19 5 -25
21 -25 14 0 19 -5 17 -17 -5 -26 -38 -29 -38 -4 0 16 -6 21 -25 21 -20 0 -25
5 -25 25 0 18 -5 25 -20 25 -13 0 -20 7 -20 20 0 13 7 20 20 20 13 0 20 -7 20
-20z m1940 -85 c0 -9 -9 -15 -25 -15 -16 0 -25 6 -25 15 0 9 9 15 25 15 16 0
25 -6 25 -15z m-1810 -45 c0 -13 7 -20 20 -20 13 0 20 -7 20 -20 0 -15 7 -20
25 -20 20 0 25 -5 25 -25 0 -18 5 -25 19 -25 16 0 20 -8 23 -37 3 -44 35 -60
45 -24 5 20 11 21 219 21 l214 0 0 -69 c0 -67 0 -68 -25 -63 -18 3 -25 11 -25
28 0 17 -6 24 -20 24 -15 0 -20 -7 -20 -25 0 -25 -1 -25 -85 -25 -78 0 -85 -2
-85 -20 0 -15 -7 -20 -25 -20 -18 0 -25 5 -25 20 0 14 -7 20 -24 20 -19 0 -22
4 -18 25 4 23 2 25 -37 25 -37 0 -41 -2 -41 -25 0 -20 -5 -25 -25 -25 -23 0
-25 4 -25 45 0 38 -3 45 -20 45 -13 0 -20 7 -20 20 0 15 -7 20 -25 20 -23 0
-25 4 -25 45 0 37 -3 45 -19 45 -10 0 -21 9 -24 20 -3 11 -12 20 -21 20 -9 0
-16 8 -16 20 0 13 7 20 20 20 13 0 20 -7 20 -20z m4827 -293 c-1 -45 -3 -5 -3
88 0 94 2 130 3 82 2 -48 2 -125 0 -170z m-6027 208 c0 -18 -5 -25 -19 -25
-12 0 -21 -9 -25 -24 -7 -30 -40 -29 -44 2 -2 13 4 22 17 27 12 3 21 15 21 26
0 14 7 19 25 19 20 0 25 -5 25 -25z m3268 3 c-2 -15 -11 -24 -25 -26 -19 -3
-23 1 -23 22 0 21 5 26 26 26 21 0 25 -4 22 -22z m80 0 c-5 -34 -38 -37 -38
-4 0 20 5 26 21 26 15 0 20 -5 17 -22z m-1331 -10 c-3 -8 -6 -5 -6 6 -1 11 2
17 5 13 3 -3 4 -12 1 -19z m17 -34 c3 -8 2 -12 -4 -9 -6 3 -10 10 -10 16 0 14
7 11 14 -7z m32 1 c-4 -24 -13 -27 -19 -5 -3 13 0 20 8 20 7 0 12 -7 11 -15z
m8030 -80 c14 -13 13 -15 -5 -15 -12 0 -21 6 -21 15 0 8 3 15 6 15 3 0 12 -7
20 -15z m-6841 -33 c6 -4 11 -15 13 -24 2 -16 -6 -18 -63 -18 -63 0 -65 1 -65
25 0 24 3 25 53 25 28 0 57 -4 62 -8z m95 -17 c0 -18 -5 -25 -20 -25 -15 0
-20 7 -20 25 0 18 5 25 20 25 15 0 20 -7 20 -25z m260 0 c0 -18 -5 -25 -20
-25 -15 0 -20 7 -20 25 0 18 5 25 20 25 15 0 20 -7 20 -25z m6049 -18 c-2 -1
-12 -9 -21 -16 -15 -12 -18 -11 -18 3 0 10 8 16 22 16 12 0 19 -1 17 -3z m101
-1 c0 -2 -7 -7 -16 -10 -8 -3 -12 -2 -9 4 6 10 25 14 25 6z m230 -7 c0 -5 5
-7 12 -3 7 4 8 3 4 -4 -11 -18 -46 -35 -46 -22 0 5 7 10 16 10 8 0 12 5 9 10
-4 6 -11 8 -16 5 -5 -4 -9 -1 -9 4 0 6 7 11 15 11 8 0 15 -5 15 -11z m-11810
-49 c-8 -5 -19 -10 -25 -10 -5 0 -3 5 5 10 8 5 20 10 25 10 6 0 3 -5 -5 -10z
m4180 -10 c0 -13 -7 -20 -20 -20 -13 0 -20 7 -20 20 0 13 7 20 20 20 13 0 20
-7 20 -20z m646 9 c12 -20 -19 -29 -91 -28 -38 1 -82 -2 -97 -6 -19 -5 -28 -3
-28 5 0 8 -6 9 -17 4 -10 -4 -85 -8 -168 -8 l-150 -1 -6 -55 -6 -55 -1 58 c-2
43 -6 57 -17 57 -8 0 -15 9 -15 20 0 20 7 20 294 20 206 0 297 -3 302 -11z
m80 -1 c-6 9 56 12 297 12 254 0 306 -2 310 -14 3 -8 -1 -17 -9 -20 -9 -3
-155 -6 -325 -6 -251 0 -309 3 -309 13 0 22 12 28 28 14 13 -9 14 -9 8 1z
m6874 -7 c0 -5 -9 -7 -20 -4 -11 3 -20 7 -20 9 0 2 9 4 20 4 11 0 20 -4 20 -9z
m-11953 -77 c-3 -3 -12 -4 -19 -1 -8 3 -5 6 6 6 11 1 17 -2 13 -5z m4483 -530
c0 -17 -26 -19 -36 -3 -7 12 15 31 28 23 4 -3 8 -12 8 -20z m207 1 c0 -8 -4
-15 -9 -15 -4 0 -8 7 -8 15 0 8 4 15 8 15 5 0 9 -7 9 -15z m-3857 -40 c0 -23
-4 -25 -45 -25 -41 0 -45 2 -45 25 0 23 4 25 45 25 41 0 45 -2 45 -25z m11000
0 c0 -23 -4 -25 -44 -25 -35 0 -45 4 -49 19 -7 27 0 31 50 31 39 0 43 -2 43
-25z m-3140 -345 c0 -13 -7 -20 -20 -20 -13 0 -20 7 -20 20 0 13 7 20 20 20
13 0 20 -7 20 -20z m0 -91 c0 -25 -33 -22 -38 4 -2 12 3 17 17 17 15 0 21 -6
21 -21z"/>
<path d="M6176 5617 c-22 -16 -18 -50 7 -55 26 -5 67 25 67 48 0 15 -7 20 -28
20 -16 0 -36 -6 -46 -13z"/>
<path d="M7388 5623 c-23 -6 -24 -51 -2 -60 23 -8 68 21 72 46 3 17 -2 21 -25
20 -15 -1 -36 -3 -45 -6z"/>
<path d="M2140 5460 c0 -5 5 -10 11 -10 5 0 7 5 4 10 -3 6 -8 10 -11 10 -2 0
-4 -4 -4 -10z"/>
<path d="M11465 4600 c-3 -5 -1 -10 4 -10 6 0 11 5 11 10 0 6 -2 10 -4 10 -3
0 -8 -4 -11 -10z"/>
<path d="M9608 4253 c7 -3 16 -2 19 1 4 3 -2 6 -13 5 -11 0 -14 -3 -6 -6z"/>
<path d="M6330 4071 c0 -6 4 -13 10 -16 6 -3 7 1 4 9 -7 18 -14 21 -14 7z"/>
<path d="M2053 3943 c-8 -3 -13 -23 -13 -49 0 -37 3 -44 20 -44 18 0 20 -7 20
-65 0 -63 1 -65 25 -65 24 0 25 2 25 65 0 63 -1 65 -25 65 -23 0 -25 4 -25 44
0 46 -6 57 -27 49z"/>
<path d="M5418 3523 c7 -3 16 -2 19 1 4 3 -2 6 -13 5 -11 0 -14 -3 -6 -6z"/>
<path d="M5528 3523 c7 -3 16 -2 19 1 4 3 -2 6 -13 5 -11 0 -14 -3 -6 -6z"/>
<path d="M4211 3358 c-1 -20 14 -24 25 -6 4 6 3 8 -4 4 -5 -3 -13 0 -15 6 -3
8 -6 6 -6 -4z"/>
<path d="M11846 3274 c-3 -9 -6 -33 -6 -55 0 -32 3 -37 18 -33 16 5 16 5 0 -6
-24 -15 -23 -30 2 -30 18 0 20 7 20 54 0 57 -7 86 -20 86 -4 0 -11 -7 -14 -16z"/>
<path d="M11719 3160 c0 -3 -2 -13 -4 -22 -2 -10 3 -18 11 -18 8 0 14 3 14 8
0 9 -19 39 -21 32z"/>
<path d="M6618 3303 c7 -3 16 -2 19 1 4 3 -2 6 -13 5 -11 0 -14 -3 -6 -6z"/>
<path d="M6553 3270 c2 -8 12 -16 23 -17 13 -2 15 -1 4 4 -8 3 -19 11 -23 17
-6 7 -7 6 -4 -4z"/>
<path d="M11765 3009 c-4 -6 -5 -12 -2 -15 2 -3 7 2 10 11 7 17 1 20 -8 4z"/>
<path d="M1657 2084 c-3 -3 -3 -13 0 -21 4 -9 -2 -16 -15 -20 -12 -3 -24 -13
-27 -23 -3 -10 -15 -20 -25 -23 -18 -5 -20 -14 -20 -105 0 -97 1 -101 23 -104
12 -2 20 -7 17 -11 -3 -5 7 -15 23 -23 15 -9 27 -23 27 -34 0 -15 7 -20 25
-20 27 0 29 8 19 59 -5 24 -12 31 -31 31 -22 0 -24 3 -21 43 3 39 5 42 31 39
l27 -3 0 110 c0 110 0 111 -23 111 -13 0 -26 -3 -30 -6z"/>
<path d="M1720 2003 c0 -40 2 -43 26 -43 17 0 28 -6 31 -19 3 -11 13 -21 22
-24 19 -5 31 -45 31 -103 0 -27 4 -34 20 -34 15 0 20 7 20 25 0 18 5 25 20 25
18 0 20 7 20 85 0 93 5 85 -60 89 -8 1 -16 9 -18 19 -4 20 -3 20 -64 22 l-48
2 0 -44z"/>
<path d="M1485 1551 c-6 -11 20 -33 28 -24 4 3 7 10 7 14 0 11 -29 19 -35 10z"/>
<path d="M1534 1089 c-3 -6 -1 -16 5 -22 9 -9 14 -8 21 3 9 15 4 30 -10 30 -5
0 -12 -5 -16 -11z"/>
<path d="M1655 870 c-14 -22 10 -30 86 -30 72 0 79 2 79 20 0 18 -7 20 -79 20
-44 0 -83 -4 -86 -10z"/>
<path d="M2860 2180 c0 -5 5 -10 10 -10 6 0 10 5 10 10 0 6 -4 10 -10 10 -5 0
-10 -4 -10 -10z"/>
<path d="M12663 2068 c3 -10 -1 -21 -8 -26 -8 -4 -14 -11 -14 -17 0 -5 -13
-14 -29 -19 -37 -10 -42 -26 -42 -133 0 -69 3 -83 16 -83 18 0 74 -53 74 -69
0 -6 9 -11 21 -11 17 0 20 5 17 38 -2 30 -7 38 -26 40 -20 3 -23 8 -20 44 2
32 7 42 23 44 11 2 21 8 23 13 2 6 16 11 30 10 l27 -1 -25 -8 c-19 -6 -11 -8
33 -9 31 -1 58 -4 58 -8 7 -40 3 -88 -8 -99 -8 -8 -9 -15 -3 -19 5 -3 10 -2
10 3 0 6 11 13 25 16 18 5 25 13 25 31 0 18 5 25 20 25 18 0 20 7 20 85 0 75
-2 85 -18 85 -10 0 -24 9 -32 20 -8 11 -20 20 -26 20 -6 0 -14 9 -17 20 -4 16
-14 20 -54 21 -26 0 -61 2 -76 3 -23 1 -27 -2 -24 -16z m104 -4 c-3 -3 -12 -4
-19 -1 -8 3 -5 6 6 6 11 1 17 -2 13 -5z"/>
<path d="M12727 1726 c-3 -8 1 -17 9 -20 8 -3 14 -12 14 -19 0 -8 7 -14 15
-14 18 0 20 13 3 20 -10 4 -10 6 0 6 6 1 12 6 12 12 0 5 -4 7 -10 4 -6 -3 -7
1 -4 9 4 11 0 16 -14 16 -11 0 -22 -6 -25 -14z"/>
<path d="M12788 1733 c7 -3 16 -2 19 1 4 3 -2 6 -13 5 -11 0 -14 -3 -6 -6z"/>
<path d="M12620 1556 c0 -8 4 -17 8 -20 4 -2 8 4 8 15 0 10 -4 19 -8 19 -4 0
-8 -6 -8 -14z"/>
<path d="M12855 1480 c-19 -8 -19 -9 3 -9 12 -1 22 4 22 9 0 6 -1 10 -2 9 -2
0 -12 -4 -23 -9z"/>
<path d="M12710 1421 c0 -6 4 -13 10 -16 6 -3 7 1 4 9 -7 18 -14 21 -14 7z"/>
<path d="M12750 1416 c0 -2 11 -6 25 -8 14 -3 25 -1 25 3 0 5 -11 9 -25 9 -14
0 -25 -2 -25 -4z"/>
<path d="M12742 1252 c5 -24 38 -28 38 -5 0 12 -8 19 -21 20 -14 1 -19 -3 -17
-15z"/>
<path d="M12533 1085 c-3 -9 -3 -18 0 -21 9 -9 27 6 27 22 0 19 -19 18 -27 -1z"/>
<path d="M12830 905 c0 -10 7 -15 18 -13 21 4 19 22 -2 26 -10 2 -16 -3 -16
-13z"/>
<path d="M12656 872 c-13 -21 13 -31 84 -29 62 2 75 5 78 20 3 15 -6 17 -77
17 -44 0 -82 -4 -85 -8z"/>
</g>
</svg>
