<?xml version="1.0" standalone="no"?>
<!DOCTYPE svg PUBLIC "-//W3C//DTD SVG 20010904//EN"
 "http://www.w3.org/TR/2001/REC-SVG-20010904/DTD/svg10.dtd">
<svg version="1.0" xmlns="http://www.w3.org/2000/svg"
 width="1358.000000pt" height="617.000000pt" viewBox="0 0 1358.000000 617.000000"
 preserveAspectRatio="xMidYMid meet">

<g transform="translate(0.000000,617.000000) scale(0.100000,-0.100000)"
fill="#000000" stroke="none">
<path d="M1819 6140 c30 -17 60 -30 68 -30 7 0 13 -4 13 -10 0 -5 6 -10 13
-10 33 0 47 -35 47 -115 0 -222 105 -395 280 -463 98 -38 220 -46 220 -15 0
12 7 14 33 9 74 -15 158 -18 223 -7 87 15 124 31 124 53 0 16 11 18 100 18 81
0 102 3 106 15 6 14 -28 67 -68 107 -17 17 -17 18 2 36 20 18 20 19 -12 63
-18 24 -65 82 -105 128 -40 46 -73 89 -73 97 0 7 7 17 16 22 16 9 15 11 -1 33
-26 33 -104 99 -118 99 -6 0 15 -24 48 -54 l60 -54 -24 -19 c-24 -20 -24 -20
-5 -40 10 -11 28 -31 39 -44 11 -13 50 -61 88 -106 37 -44 67 -87 67 -93 0 -7
-8 -18 -17 -25 -15 -11 -12 -18 30 -66 70 -80 68 -83 -68 -75 l-115 7 12 -26
c6 -14 9 -27 6 -30 -3 -3 -31 -12 -62 -20 -73 -19 -187 -19 -250 0 -63 19 -66
19 -66 -5 0 -29 -16 -32 -92 -16 -171 36 -271 120 -328 276 -17 47 -23 85 -35
234 -5 57 -21 85 -52 86 -6 0 -13 4 -15 8 -4 11 -112 62 -129 62 -8 0 10 -14
40 -30z"/>
<path d="M1968 6154 c22 -17 57 -18 70 -1 8 9 -1 12 -38 13 -42 0 -47 -1 -32
-12z"/>
<path d="M6929 6141 c30 -17 56 -31 58 -31 2 0 21 -12 43 -26 38 -25 39 -28
33 -69 -10 -77 45 -315 73 -315 9 0 6 15 -8 53 -28 72 -48 179 -48 259 l0 67
-77 41 c-92 48 -152 65 -74 21z"/>
<path d="M7075 6153 c21 -14 35 -16 59 -7 29 11 17 19 -31 20 -41 1 -44 0 -28
-13z"/>
<path d="M7838 6119 c55 -54 61 -66 37 -75 -24 -9 -18 -23 33 -82 93 -109 162
-195 162 -204 0 -6 -9 -12 -20 -15 -23 -6 -25 -14 -8 -31 17 -17 39 -15 32 3
-4 9 0 15 10 15 9 0 16 8 16 20 0 11 -4 20 -8 20 -4 0 -16 13 -25 29 -10 17
-53 71 -97 122 -44 50 -80 95 -80 100 0 4 9 11 20 14 11 3 20 10 20 15 0 12
-121 120 -134 120 -6 0 13 -23 42 -51z"/>
<path d="M11831 6166 c2 -2 39 -22 82 -44 111 -58 107 -51 107 -151 0 -91 24
-201 60 -272 27 -53 116 -140 170 -167 70 -34 139 -52 208 -52 50 0 62 3 62
16 0 12 6 15 23 10 111 -34 357 -2 357 46 0 16 10 18 100 18 85 0 102 3 107
17 4 9 1 19 -5 21 -7 2 -12 8 -12 14 0 5 -16 28 -35 51 -41 47 -42 53 -14 60
16 4 19 9 11 24 -9 16 -169 210 -199 241 -18 19 -16 30 7 37 11 3 20 10 20 14
0 13 -118 121 -132 121 -7 0 14 -26 47 -57 57 -54 58 -57 37 -66 -25 -11 -29
-32 -9 -44 8 -4 50 -54 95 -110 45 -56 86 -105 92 -108 18 -11 11 -42 -11 -48
-20 -5 -18 -9 25 -60 73 -85 68 -91 -65 -83 -108 7 -110 7 -100 -13 6 -11 9
-26 6 -33 -14 -35 -219 -50 -309 -23 -63 19 -64 19 -68 -7 -2 -19 -9 -23 -38
-21 -179 7 -340 133 -389 303 -15 52 -31 172 -31 228 0 47 -2 51 -36 71 -19
12 -42 21 -50 21 -8 0 -14 3 -14 8 0 8 -73 42 -92 42 -6 0 -9 -2 -7 -4z"/>
<path d="M12032 6153 c30 -16 53 -16 66 0 9 11 1 13 -39 13 -46 0 -48 -1 -27
-13z"/>
<path d="M2460 6128 c-52 -11 -147 -52 -173 -76 -15 -14 -24 -14 -60 -4 -156
46 -167 48 -167 32 0 -5 7 -10 15 -10 9 0 52 -12 96 -26 74 -24 82 -29 109
-72 16 -26 30 -54 30 -62 0 -9 4 -20 8 -25 11 -13 30 -95 38 -165 11 -88 26
-96 20 -10 -4 71 -29 166 -62 237 -8 17 -14 34 -14 38 0 10 43 -2 105 -30 56
-26 83 -56 105 -115 45 -125 60 -175 60 -196 0 -13 5 -24 10 -24 14 0 13 19
-4 82 -17 65 -23 82 -47 135 -23 51 -23 53 -5 53 17 0 175 -104 240 -158 28
-23 52 -39 55 -36 15 16 -237 204 -273 204 -18 0 -30 30 -13 34 53 16 129 23
163 16 54 -13 61 -12 38 5 -25 19 -123 19 -196 0 l-57 -14 -76 34 c-42 19 -83
35 -91 35 -28 0 -10 32 31 54 48 27 114 45 174 49 53 3 71 28 19 26 -18 -1
-53 -5 -78 -11z"/>
<path d="M7554 6125 c-29 -7 -83 -29 -121 -50 l-70 -38 -85 27 c-89 28 -108
31 -108 18 0 -4 21 -14 48 -21 140 -39 145 -42 174 -101 32 -66 52 -125 68
-202 6 -32 16 -58 21 -58 5 0 9 1 9 3 0 19 -33 146 -50 192 -41 113 -45 110
65 61 83 -38 85 -42 138 -193 23 -65 44 -87 32 -32 -4 16 -18 57 -31 89 -13
33 -24 64 -24 70 0 14 158 -78 190 -110 30 -30 102 -80 115 -80 11 0 6 9 -17
27 -18 16 -38 32 -44 38 -11 11 -158 109 -206 139 -16 9 -28 20 -28 24 0 15
133 33 170 22 47 -14 55 -13 40 5 -16 20 -126 20 -199 1 -57 -15 -49 -17 -186
43 -11 5 -29 12 -40 16 -19 6 -18 8 10 31 42 34 127 64 191 67 35 1 54 6 54
15 0 15 -47 14 -116 -3z"/>
<path d="M12509 6126 c-26 -6 -80 -28 -122 -50 l-76 -38 -83 26 c-92 29 -108
31 -108 16 0 -5 9 -10 20 -10 11 0 28 -4 38 -9 9 -5 44 -17 77 -27 51 -16 63
-25 82 -59 33 -59 70 -180 78 -258 10 -93 30 -102 22 -10 -6 70 -57 244 -80
272 -10 12 -7 13 19 8 17 -3 58 -19 90 -34 52 -25 62 -35 86 -83 32 -64 78
-205 78 -240 0 -17 3 -21 11 -13 12 12 -7 129 -22 139 -5 3 -9 12 -9 20 0 8
-9 34 -20 56 -23 49 -25 58 -7 58 18 0 184 -110 232 -153 43 -40 82 -53 50
-17 -30 33 -123 102 -202 150 -41 25 -75 49 -74 55 0 5 28 15 63 22 48 11 72
11 101 3 43 -13 55 -9 32 10 -20 16 -116 14 -187 -5 l-58 -15 -76 35 c-42 19
-83 35 -91 35 -27 0 -8 32 32 54 60 32 105 46 163 48 31 1 53 7 56 15 7 16
-48 16 -115 -1z"/>
<path d="M96 5977 c-9 -31 -16 -62 -16 -70 0 -18 -24 -29 -37 -16 -17 17 -34
-17 -39 -78 -4 -62 -4 -62 17 5 12 40 15 42 40 37 26 -6 28 -4 34 32 9 56 27
113 36 113 11 0 110 -139 116 -162 7 -24 24 -23 30 2 3 11 11 20 17 20 13 0
90 -62 113 -90 35 -42 82 -120 98 -162 18 -48 28 -57 40 -38 12 19 24 10 51
-37 80 -135 84 -275 14 -414 -23 -43 -131 -157 -207 -216 -39 -31 -41 -34 -33
-70 38 -174 38 -173 2 -173 -27 0 -30 4 -40 53 -6 28 -13 70 -17 92 -10 65
-15 75 -38 75 -56 0 -192 64 -249 118 -22 20 -28 22 -28 10 0 -42 135 -117
275 -153 6 -1 16 -38 24 -81 7 -44 15 -86 18 -94 4 -8 5 -21 4 -27 -1 -9 14
-13 49 -13 58 0 55 -9 35 126 l-15 99 32 25 c176 137 258 270 258 419 0 76
-17 146 -50 211 -37 72 -62 101 -82 94 -13 -4 -21 2 -30 23 -28 64 -81 134
-144 192 -65 59 -97 74 -108 49 -3 -9 -8 -8 -16 5 -34 54 -109 142 -123 145
-11 2 -20 -12 -31 -51z"/>
<path d="M5206 5990 c-9 -22 -16 -53 -16 -69 0 -29 -24 -49 -35 -31 -9 15 -22
12 -30 -7 -10 -27 -44 -156 -45 -170 0 -7 4 -13 9 -13 5 0 17 36 27 81 18 79
19 80 46 75 20 -4 28 -1 31 12 3 9 11 40 17 67 15 57 21 67 35 57 15 -10 79
-101 99 -139 19 -38 32 -42 41 -13 3 11 13 20 21 20 17 0 154 -134 154 -150 0
-5 7 -10 16 -10 24 0 -11 53 -75 112 -79 72 -99 84 -121 70 -15 -9 -23 -3 -55
43 -43 64 -80 105 -93 105 -6 0 -17 -18 -26 -40z"/>
<path d="M10156 5983 c-9 -26 -16 -57 -16 -69 0 -23 -25 -40 -36 -23 -8 14
-31 -6 -37 -34 -3 -12 -12 -47 -20 -77 -8 -30 -23 -90 -32 -133 -9 -42 -21
-80 -26 -82 -5 -3 -17 -1 -27 4 -17 9 -20 4 -30 -40 -15 -65 -15 -252 -1 -298
38 -121 64 -167 130 -234 70 -70 117 -97 223 -127 l60 -16 11 -60 c7 -32 15
-80 19 -106 l7 -48 50 0 c27 0 49 5 49 10 0 6 -8 56 -17 111 l-16 101 34 25
c71 54 184 179 211 234 65 135 63 261 -6 401 -34 68 -58 97 -80 95 -12 -1 -28
17 -49 57 -38 71 -131 174 -182 202 -31 16 -37 17 -45 4 -10 -17 -7 -21 -85
88 -25 34 -51 62 -59 62 -8 0 -21 -21 -30 -47z m102 -72 c31 -50 60 -90 64
-90 4 -1 10 8 13 19 3 11 14 20 23 20 30 0 146 -130 184 -207 50 -99 47 -96
63 -83 20 16 29 8 59 -53 54 -111 70 -219 45 -298 -34 -106 -124 -228 -218
-291 -63 -43 -69 -54 -60 -97 15 -66 27 -156 22 -163 -2 -5 -15 -8 -28 -8 -21
0 -25 7 -35 58 -32 162 -32 162 -56 162 -28 0 -124 35 -173 63 -54 30 -129
106 -160 162 -42 73 -61 165 -60 281 1 127 8 150 40 146 26 -2 29 5 59 133 13
55 27 113 42 163 9 30 13 33 38 27 27 -6 28 -4 35 37 9 55 27 108 37 108 5 0
34 -40 66 -89z"/>
<path d="M10216 5759 c-8 -41 -7 -184 3 -276 4 -50 3 -73 -4 -73 -17 0 -101
91 -121 130 -9 20 -19 29 -22 22 -8 -25 29 -81 96 -144 65 -60 69 -67 81 -127
7 -35 17 -75 22 -89 17 -43 -4 -47 -68 -13 -56 30 -153 114 -153 133 0 4 -4 8
-10 8 -22 0 -8 -31 33 -74 42 -44 159 -116 190 -116 19 0 30 -19 52 -86 27
-81 58 -142 63 -121 2 10 -1 23 -6 30 -5 7 -22 50 -37 95 -27 84 -27 84 -9
120 38 74 96 154 156 212 65 62 74 91 15 46 -43 -33 -101 -103 -152 -183 -22
-35 -43 -63 -46 -63 -7 0 -11 18 -29 117 l-11 62 42 73 c49 85 118 178 130
178 5 0 9 5 9 10 0 21 -25 9 -57 -27 -18 -21 -52 -70 -76 -110 -23 -40 -45
-72 -48 -73 -15 0 -22 63 -25 208 -1 84 -4 155 -7 158 -2 3 -7 -10 -11 -27z"/>
<path d="M156 5724 c-6 -62 0 -242 10 -291 3 -15 0 -23 -10 -23 -19 0 -115
106 -122 136 -7 26 -24 33 -24 9 0 -27 47 -90 108 -146 56 -51 60 -58 76 -129
9 -41 19 -85 22 -97 4 -15 2 -23 -6 -23 -28 0 -118 54 -162 98 -36 34 -48 42
-48 28 0 -35 156 -146 204 -146 17 0 28 -21 67 -125 12 -33 27 -66 32 -73 22
-29 17 2 -18 97 l-36 101 38 72 c23 43 69 104 118 155 92 96 94 126 3 37 -52
-51 -108 -124 -144 -189 -21 -37 -31 -24 -48 65 l-17 90 48 82 c26 44 68 103
92 130 24 27 40 52 36 56 -11 11 -95 -86 -137 -158 l-37 -63 -12 29 c-6 16
-12 95 -13 181 -1 84 -5 155 -8 158 -3 3 -8 -24 -12 -61z"/>
<path d="M5266 5773 c-9 -10 -7 -73 3 -73 5 0 11 16 13 36 4 34 -3 50 -16 37z"/>
<path d="M8160 5385 c-7 -8 -19 -15 -26 -15 -8 0 -14 -10 -14 -25 0 -17 -4
-23 -14 -19 -8 3 -17 1 -20 -5 -4 -6 -13 -8 -21 -4 -20 7 -46 -15 -43 -36 1
-9 -1 -22 -6 -29 -6 -10 4 -26 30 -53 36 -36 37 -39 21 -57 -9 -10 -17 -22
-17 -27 0 -16 36 -34 67 -35 22 0 36 -7 43 -20 6 -11 17 -20 25 -20 8 0 20 9
27 20 8 13 24 20 43 20 17 0 41 7 54 16 l22 16 -22 24 -23 24 36 38 c33 34 36
40 29 77 -5 33 -11 40 -31 42 -45 3 -70 15 -70 34 0 11 -6 19 -14 19 -8 0 -16
7 -20 15 -3 8 -14 15 -24 15 -11 0 -25 -7 -32 -15z m52 -187 c-9 -9 -12 -7
-12 12 0 19 3 21 12 12 9 -9 9 -15 0 -24z m-52 -38 c8 -16 8 -18 -4 -14 -17 6
-30 34 -16 34 5 0 14 -9 20 -20z m80 5 c0 -8 -9 -15 -20 -15 -17 0 -19 2 -8
15 17 19 28 19 28 0z"/>
<path d="M6932 5339 c-13 -5 -29 -22 -35 -39 -6 -16 -17 -30 -24 -30 -7 0 -13
-4 -13 -10 0 -5 7 -10 15 -10 12 0 15 -13 15 -58 0 -32 -5 -63 -12 -70 -9 -9
0 -12 42 -12 45 0 51 2 38 13 -10 7 -17 28 -18 52 -3 68 -1 75 20 75 11 0 20
5 20 10 0 6 -9 10 -20 10 -20 0 -25 10 -20 40 3 24 9 25 24 5 7 -10 20 -16 28
-12 9 3 20 1 26 -5 17 -17 44 -1 40 24 -3 20 -9 23 -53 24 -27 1 -61 -2 -73
-7z"/>
<path d="M7345 5341 c-20 -4 -26 -9 -17 -14 8 -6 12 -39 12 -107 0 -69 -4
-100 -12 -103 -7 -3 9 -6 37 -6 38 -1 46 2 37 11 -19 19 -15 106 6 116 32 17
42 3 42 -58 0 -37 -5 -60 -12 -63 -7 -3 9 -6 37 -6 38 -1 46 2 37 11 -7 7 -12
36 -12 64 0 77 -36 105 -88 68 -22 -15 -22 -15 -22 40 0 31 -3 55 -7 55 -5 -1
-21 -4 -38 -8z"/>
<path d="M5293 5320 c-12 -5 -27 -19 -33 -31 -19 -35 1 -64 62 -87 59 -22 75
-52 39 -71 -26 -14 -62 0 -90 35 l-21 27 0 -44 c0 -31 3 -40 11 -32 8 8 20 8
40 1 81 -28 166 45 111 95 -10 9 -36 23 -57 30 -51 18 -67 43 -41 63 28 20 35
18 72 -22 l34 -35 0 40 c0 23 -4 41 -10 41 -5 0 -10 -4 -10 -10 0 -6 -9 -6
-26 0 -30 12 -51 12 -81 0z"/>
<path d="M6100 5299 l0 -32 21 27 c11 14 29 26 40 26 17 0 19 -8 19 -95 0 -79
-3 -96 -17 -104 -14 -8 -4 -10 42 -10 46 0 56 2 43 10 -15 8 -18 25 -18 104 0
87 2 95 19 95 11 0 29 -12 40 -26 l21 -27 0 32 0 31 -105 0 -105 0 0 -31z"/>
<path d="M5470 5261 c-17 -5 -21 -9 -12 -15 6 -4 12 -26 12 -49 0 -24 7 -53
16 -65 17 -24 53 -29 72 -10 10 10 15 10 20 1 5 -7 19 -9 42 -4 22 4 30 10 22
14 -7 5 -12 32 -12 74 0 63 -1 65 -22 59 -13 -3 -32 -6 -43 -6 -18 -1 -19 -1
-2 -11 24 -14 25 -104 1 -113 -30 -11 -44 13 -44 75 0 62 -2 64 -50 50z"/>
<path d="M5702 5258 c-27 -14 -25 -43 3 -43 13 0 21 8 23 23 4 29 36 26 40 -4
2 -17 -6 -24 -42 -38 -24 -9 -47 -24 -50 -31 -14 -39 33 -67 74 -45 16 9 25 9
33 1 14 -14 57 -14 57 -1 0 6 -4 10 -10 10 -5 0 -10 24 -10 54 0 45 -4 58 -22
70 -26 18 -63 20 -96 4z m56 -119 c-8 -5 -19 -2 -28 7 -13 14 -12 18 10 36
l25 20 3 -27 c2 -16 -2 -31 -10 -36z"/>
<path d="M5898 5263 c-23 -6 -34 -49 -18 -68 6 -8 27 -19 46 -25 24 -8 34 -17
32 -28 -5 -28 -44 -26 -73 5 l-26 28 3 -29 c3 -27 7 -30 46 -33 54 -5 92 17
92 52 0 18 -8 28 -27 36 -48 19 -58 26 -58 40 0 21 34 23 56 3 18 -16 19 -16
19 2 0 15 -8 19 -38 20 -20 1 -45 0 -54 -3z"/>
<path d="M6355 5256 c-21 -15 -14 -46 10 -46 9 0 15 9 15 25 0 32 36 35 45 4
7 -23 -7 -39 -35 -39 -25 0 -60 -29 -60 -49 0 -31 27 -46 61 -34 21 8 37 8 59
0 23 -9 33 -8 42 1 9 9 8 12 -5 12 -14 0 -17 10 -17 60 0 48 -4 61 -19 70 -27
14 -74 13 -96 -4z m73 -92 c-5 -27 -48 -32 -48 -5 0 22 30 44 43 31 5 -4 7
-16 5 -26z"/>
<path d="M6535 5261 c-24 -5 -26 -8 -12 -13 13 -6 17 -19 17 -61 0 -29 -5 -58
-12 -65 -9 -9 0 -12 43 -12 41 1 50 3 37 11 -14 8 -18 23 -18 64 0 57 12 70
36 38 12 -17 14 -17 31 0 16 16 16 18 1 34 -14 14 -22 15 -43 5 -15 -7 -25 -8
-25 -2 0 11 -10 11 -55 1z"/>
<path d="M6722 5254 c-35 -24 -45 -50 -32 -88 18 -55 88 -74 131 -35 21 18 21
20 4 13 -49 -18 -84 -2 -85 39 0 14 9 17 50 17 56 0 65 15 30 50 -24 24 -67
26 -98 4z m66 -22 c3 -18 -1 -22 -22 -22 -19 0 -26 5 -26 18 0 39 43 43 48 4z"/>
<path d="M7016 5261 c-26 -5 -28 -7 -13 -20 24 -19 23 -106 0 -120 -14 -8 -5
-10 37 -10 42 0 51 2 38 10 -15 8 -18 24 -18 79 0 39 -3 69 -7 69 -5 -1 -21
-4 -37 -8z"/>
<path d="M7125 5261 c-24 -5 -26 -8 -12 -13 13 -6 17 -19 17 -62 0 -42 -4 -57
-17 -65 -14 -8 -5 -10 37 -10 30 0 49 3 43 6 -21 8 -17 119 3 127 9 4 23 1 30
-5 17 -14 19 -100 2 -117 -9 -9 -1 -12 38 -12 27 0 44 4 38 8 -6 4 -14 33 -17
65 -3 32 -11 65 -18 73 -13 16 -55 19 -64 4 -3 -5 -13 -10 -21 -10 -8 0 -12 5
-9 10 7 11 -4 11 -50 1z"/>
<path d="M7569 5251 c-19 -15 -21 -22 -12 -32 16 -17 43 -4 43 21 0 15 5 20
18 18 24 -5 28 -46 5 -54 -66 -22 -73 -27 -73 -55 0 -22 6 -30 24 -35 13 -3
33 -1 45 5 15 9 25 8 40 -1 15 -9 25 -9 43 -1 18 9 19 12 6 12 -15 1 -18 11
-18 55 0 36 -5 60 -16 70 -21 22 -77 20 -105 -3z m59 -112 c-8 -6 -18 -2 -26
9 -11 14 -10 20 10 36 23 18 23 18 26 -9 2 -16 -2 -32 -10 -36z"/>
<path d="M7762 5254 c-35 -24 -25 -55 26 -79 46 -21 53 -48 15 -53 -15 -2 -32
6 -47 23 l-25 27 1 -29 c1 -27 4 -29 48 -31 62 -3 96 22 86 62 -5 19 -15 28
-36 33 -33 6 -55 27 -45 43 9 15 36 12 57 -7 17 -15 18 -15 18 3 0 25 -66 31
-98 8z"/>
<path d="M3775 5233 c-4 -10 -11 -43 -16 -73 -19 -125 -22 -134 -54 -144 -17
-5 -39 -12 -50 -16 -11 -5 -40 -15 -64 -24 -98 -37 -217 -141 -256 -223 -44
-92 -55 -198 -33 -307 8 -44 17 -60 34 -68 18 -8 25 -22 29 -57 8 -65 42 -167
76 -227 37 -65 54 -81 73 -65 12 10 19 -5 45 -89 21 -67 36 -100 46 -100 8 0
28 19 45 43 63 90 55 83 75 64 16 -17 18 -16 39 11 11 16 55 82 96 146 74 114
92 132 104 100 9 -25 25 -7 64 74 77 158 99 292 68 410 -30 110 -92 198 -193
271 l-63 46 6 60 c3 33 10 76 15 95 14 53 12 59 -27 75 -46 19 -50 19 -59 -2z
m63 -22 c14 -8 6 -77 -19 -171 -8 -31 -6 -37 13 -53 159 -124 188 -158 229
-267 30 -77 29 -190 0 -294 -13 -44 -27 -87 -31 -95 -4 -9 -16 -33 -26 -53
-18 -37 -37 -48 -49 -28 -3 6 -10 10 -14 10 -4 0 -49 -65 -100 -144 -64 -100
-97 -143 -107 -139 -8 3 -14 9 -14 14 0 25 -25 3 -58 -51 -20 -33 -43 -59 -51
-58 -7 2 -20 26 -28 53 -8 28 -18 64 -24 81 -5 17 -9 40 -9 52 0 26 -7 28 -32
5 -17 -15 -19 -15 -36 3 -44 49 -87 169 -97 272 -7 67 -9 71 -29 66 -18 -4
-23 2 -33 35 -16 50 -17 181 -2 218 36 89 67 137 120 188 59 56 159 111 244
134 63 17 70 28 89 134 18 99 27 112 64 88z"/>
<path d="M3779 4940 c0 -8 0 -59 1 -112 l2 -97 -46 -46 c-67 -67 -178 -136
-270 -169 -13 -5 -16 -10 -9 -17 19 -19 169 62 267 144 l48 40 -7 -84 c-4 -46
-13 -94 -21 -107 -20 -30 -165 -144 -214 -168 -41 -20 -51 -34 -25 -34 20 0
115 60 178 113 26 22 50 37 54 34 8 -9 -36 -171 -73 -264 -22 -58 -28 -83 -19
-83 17 0 47 74 94 236 12 39 21 81 21 93 0 14 5 21 13 19 19 -7 68 -109 74
-156 7 -51 23 -56 23 -7 0 37 -49 156 -77 187 -13 14 -14 31 -7 105 4 48 7 93
5 100 -1 6 3 15 10 18 19 12 109 -93 144 -169 26 -55 34 -65 34 -44 1 45 -56
143 -120 203 l-59 56 0 97 c0 53 -5 104 -10 112 -9 13 -10 13 -11 0z"/>
<path d="M13529 4908 c-72 -52 -125 -123 -158 -211 -38 -103 -23 -292 25 -324
16 -10 25 -28 29 -61 12 -88 80 -249 120 -282 18 -15 35 -5 35 20 0 13 -5 17
-18 13 -14 -3 -27 13 -59 79 -39 79 -63 172 -63 246 0 33 -8 40 -27 21 -21
-21 -43 55 -43 144 0 147 55 253 180 348 51 39 31 45 -21 7z"/>
<path d="M9070 4899 c0 -14 11 -36 24 -48 33 -31 72 -114 87 -181 13 -59 6
-194 -12 -251 -23 -74 -67 -160 -86 -172 -17 -10 -17 -57 0 -57 17 0 88 154
112 241 13 50 16 93 13 171 -3 92 -7 111 -35 169 -18 35 -40 73 -50 84 -10 11
-26 31 -36 45 l-17 24 0 -25z"/>
<path d="M5148 4823 c19 -8 14 -33 -8 -33 -27 0 -44 -34 -30 -60 8 -15 20 -20
53 -19 23 0 36 3 30 6 -8 3 -13 25 -13 59 0 50 -2 54 -22 53 -13 0 -17 -3 -10
-6z m12 -73 c0 -33 -24 -42 -32 -12 -7 24 1 42 18 42 9 0 14 -11 14 -30z"/>
<path d="M6422 4805 c-12 -14 -17 -25 -11 -25 7 0 10 -14 7 -35 -4 -32 -2 -35
22 -34 14 0 19 3 13 6 -7 2 -13 17 -13 33 0 16 6 31 13 33 10 4 10 6 0 6 -7 1
-13 8 -13 17 0 11 6 14 21 9 15 -5 19 -4 15 4 -11 18 -31 13 -54 -14z"/>
<path d="M5025 4810 c-3 -5 -1 -18 5 -29 14 -28 13 -31 -13 -31 -12 0 -28 -9
-35 -20 -11 -18 -10 -20 10 -19 13 0 17 3 10 6 -19 8 -3 23 25 23 18 0 24 -4
19 -15 -4 -11 1 -15 18 -15 l24 0 -19 40 c-10 21 -19 43 -19 49 0 15 -18 23
-25 11z"/>
<path d="M5215 4810 c-3 -5 1 -10 9 -10 9 0 16 5 16 10 0 6 -4 10 -9 10 -6 0
-13 -4 -16 -10z"/>
<path d="M5355 4810 c-3 -5 1 -10 9 -10 9 0 16 5 16 10 0 6 -4 10 -9 10 -6 0
-13 -4 -16 -10z"/>
<path d="M1460 4763 c-51 -106 -54 -122 -54 -293 0 -137 6 -200 23 -245 5 -11
14 -38 21 -60 13 -41 78 -178 119 -250 35 -61 68 -102 153 -191 81 -84 151
-170 189 -231 21 -34 23 -35 36 -17 48 63 107 223 129 344 31 175 7 323 -83
510 -90 186 -245 345 -436 449 -32 17 -62 31 -66 31 -4 0 -18 -21 -31 -47z
m75 -77 c50 -109 49 -106 10 -180 -31 -59 -58 -156 -42 -156 3 0 15 30 27 67
23 72 58 130 70 116 4 -4 22 -45 40 -89 33 -81 33 -81 15 -115 -50 -94 -58
-112 -65 -142 -4 -17 -11 -40 -15 -49 -5 -13 -3 -18 8 -18 9 0 17 14 21 38 6
41 62 162 74 162 9 0 32 -50 61 -137 19 -57 19 -65 6 -97 -15 -36 -45 -164
-45 -193 0 -13 3 -13 15 -3 8 7 15 28 15 47 0 51 29 143 43 137 7 -2 34 -72
60 -154 26 -83 52 -150 57 -150 6 0 10 3 10 7 0 8 -69 219 -81 248 -13 31 -15
53 -6 56 5 1 38 -20 73 -46 35 -25 70 -45 76 -43 7 3 -33 38 -89 79 -56 41
-103 83 -106 94 -3 11 -16 50 -31 87 -14 37 -22 69 -18 71 8 6 78 -27 145 -67
26 -16 51 -26 54 -22 10 10 -26 35 -123 82 -102 49 -104 51 -128 114 -10 25
-25 60 -33 78 -9 19 -12 37 -7 42 9 8 128 -44 159 -70 9 -7 18 -10 22 -7 16
16 -49 56 -152 95 -48 18 -52 23 -91 103 -23 46 -38 88 -34 93 5 4 34 -9 64
-29 257 -170 410 -386 462 -650 23 -113 18 -202 -18 -340 -25 -96 -85 -235
-102 -235 -7 0 -19 12 -28 28 -22 36 -85 109 -184 212 -85 88 -147 179 -201
290 -51 107 -60 131 -83 225 -27 112 -30 294 -6 377 24 84 45 129 57 122 6 -3
25 -38 44 -78z"/>
<path d="M6078 4798 c-2 -7 -2 -29 2 -48 4 -28 10 -36 30 -38 22 -2 23 -1 8 8
-10 6 -18 22 -18 35 0 14 7 25 18 28 16 4 16 5 0 6 -10 0 -18 6 -18 11 0 14
-17 12 -22 -2z"/>
<path d="M11514 4756 c-42 -93 -55 -161 -55 -299 0 -70 4 -142 10 -160 5 -18
20 -66 32 -107 23 -74 106 -252 121 -258 5 -2 8 -8 8 -14 0 -19 65 -105 136
-178 101 -104 128 -136 177 -207 23 -34 47 -63 52 -63 16 0 81 135 109 225 80
263 41 514 -119 750 -46 69 -166 194 -242 252 -45 35 -182 113 -198 113 -3 0
-17 -24 -31 -54z m73 -54 c59 -132 57 -115 24 -179 -38 -73 -61 -147 -51 -164
6 -8 12 3 20 32 15 61 40 116 60 134 16 15 19 12 40 -42 13 -32 26 -62 30 -68
20 -29 17 -60 -10 -109 -33 -61 -74 -175 -66 -184 10 -9 22 10 35 58 32 110
91 180 91 106 0 -12 4 -26 9 -32 18 -19 53 -135 44 -147 -17 -22 -53 -159 -53
-202 0 -50 17 -15 34 71 9 45 16 84 16 88 0 4 7 6 16 4 10 -2 32 -52 64 -147
43 -126 70 -186 70 -156 0 9 -16 62 -30 100 -32 85 -71 217 -67 222 6 5 45
-19 109 -71 42 -33 65 -28 27 5 -13 12 -56 43 -95 69 -59 41 -72 55 -84 92 -8
23 -22 63 -32 87 -10 24 -15 48 -11 52 7 7 130 -47 143 -62 11 -13 52 -30 58
-25 9 10 -32 37 -132 86 -93 47 -101 55 -139 150 -5 14 -13 33 -18 42 -14 27
-11 38 10 38 18 0 122 -50 149 -72 15 -13 27 -4 17 13 -7 10 -139 75 -188 92
-18 7 -103 174 -93 184 9 10 114 -58 192 -125 190 -161 304 -356 344 -588 17
-93 3 -229 -35 -354 -25 -81 -76 -190 -89 -190 -6 1 -32 29 -58 63 -25 34 -88
107 -140 161 -51 54 -101 111 -111 125 -42 60 -117 193 -117 205 0 8 -3 16 -8
18 -9 4 -55 140 -74 218 -29 123 -10 347 39 443 18 35 28 28 60 -41z"/>
<path d="M5209 4781 c9 -6 12 -20 9 -40 -3 -24 -1 -31 11 -31 13 0 16 8 13 40
-3 33 -8 40 -26 40 -16 0 -18 -2 -7 -9z"/>
<path d="M5275 4776 c-17 -12 -18 -18 -7 -40 11 -26 54 -37 66 -18 3 5 -5 8
-17 8 -17 -1 -23 6 -25 27 -2 15 1 27 7 27 6 0 11 -4 11 -10 0 -5 5 -10 10
-10 6 0 10 7 10 15 0 19 -30 19 -55 1z"/>
<path d="M5355 4750 c0 -29 4 -40 15 -40 12 0 15 9 12 40 -2 22 -9 40 -16 40
-6 0 -11 -17 -11 -40z"/>
<path d="M5412 4773 c-6 -11 -6 -27 -1 -41 7 -18 15 -23 35 -20 35 4 53 31 38
56 -16 24 -60 28 -72 5z m48 -23 c0 -20 -5 -30 -15 -30 -10 0 -15 10 -15 30 0
20 5 30 15 30 10 0 15 -10 15 -30z"/>
<path d="M5510 4780 c8 -5 11 -20 8 -39 -3 -24 -1 -31 11 -31 11 0 16 9 16 32
0 17 6 33 14 36 10 3 12 -4 9 -32 -4 -33 -2 -36 22 -35 14 0 19 3 13 6 -7 2
-13 20 -13 38 0 33 0 33 -47 33 -28 0 -41 -3 -33 -8z"/>
<path d="M5632 4778 c-29 -29 -8 -69 36 -67 12 0 10 3 -5 9 -31 13 -29 30 3
30 19 0 25 5 22 18 -4 21 -39 27 -56 10z m38 -8 c0 -5 -7 -10 -15 -10 -8 0
-15 5 -15 10 0 6 7 10 15 10 8 0 15 -4 15 -10z"/>
<path d="M5754 4775 c-7 -18 3 -35 22 -35 8 0 14 -5 14 -11 0 -6 -9 -9 -20 -6
-11 3 -20 1 -20 -4 0 -5 11 -9 25 -9 36 0 44 28 14 52 -24 20 -24 20 -1 15 12
-3 22 -1 22 4 0 15 -50 10 -56 -6z"/>
<path d="M5839 4753 c5 -27 12 -39 26 -41 16 -3 18 -1 8 9 -7 7 -13 26 -13 41
0 17 -5 28 -13 28 -10 0 -12 -10 -8 -37z"/>
<path d="M5888 4750 c3 -33 8 -40 26 -39 11 0 16 2 11 5 -6 2 -10 20 -9 39 2
27 -2 35 -15 35 -13 0 -16 -8 -13 -40z"/>
<path d="M5944 4779 c-5 -9 0 -10 20 -5 14 3 26 3 25 -1 -5 -29 3 -63 14 -63
10 0 12 10 8 38 -5 31 -11 38 -33 40 -14 2 -29 -2 -34 -9z"/>
<path d="M6144 4779 c-5 -9 0 -10 20 -5 14 3 26 3 25 -1 -5 -29 3 -63 14 -63
10 0 12 10 8 38 -5 31 -11 38 -33 40 -14 2 -29 -2 -34 -9z"/>
<path d="M6240 4755 c5 -23 4 -36 -4 -39 -6 -2 2 -5 17 -5 19 -1 26 3 21 10
-4 7 -7 25 -6 40 0 22 -4 29 -18 29 -15 0 -17 -5 -10 -35z"/>
<path d="M6280 4780 c0 -5 7 -10 16 -10 8 0 12 5 9 10 -3 6 -10 10 -16 10 -5
0 -9 -4 -9 -10z"/>
<path d="M6332 4778 c-29 -29 -8 -69 36 -67 12 0 10 3 -5 9 -31 13 -29 30 3
30 19 0 25 5 22 18 -4 21 -39 27 -56 10z m38 -8 c0 -5 -7 -10 -15 -10 -8 0
-15 5 -15 10 0 6 7 10 15 10 8 0 15 -4 15 -10z"/>
<path d="M6480 4780 c0 -7 8 -9 20 -5 27 9 25 -8 -2 -20 -28 -12 -30 -39 -3
-42 11 -2 15 0 8 3 -12 6 -7 34 7 34 4 0 10 -9 13 -20 3 -11 13 -20 24 -20 11
0 14 3 6 8 -6 4 -13 21 -15 37 -2 24 -8 31 -30 33 -16 2 -28 -2 -28 -8z"/>
<path d="M5953 4753 c-23 -9 -15 -43 10 -43 17 0 19 2 8 9 -12 8 -12 12 -2 25
13 16 7 19 -16 9z"/>
<path d="M6151 4751 c-18 -12 -7 -41 16 -41 15 0 15 2 4 9 -12 8 -12 12 -2 25
15 17 4 21 -18 7z"/>
<path d="M4974 4577 c-2 -7 -3 -74 -2 -148 l3 -134 5 148 c3 81 4 147 2 147
-1 0 -5 -6 -8 -13z"/>
<path d="M5832 4583 l837 -3 4 -135 3 -135 -1 137 0 138 -840 0 -840 0 837 -2z"/>
<path d="M6730 4440 l0 -150 170 0 170 0 0 150 0 150 -170 0 -170 0 0 -150z
m320 0 l0 -130 -150 0 -150 0 0 130 0 130 150 0 150 0 0 -130z"/>
<path d="M6901 4463 c-1 -14 -9 -23 -23 -26 -23 -4 -23 -4 -1 -6 14 -1 23 -9
26 -23 4 -23 4 -23 6 -1 0 12 9 24 19 26 15 4 15 5 0 6 -9 0 -19 11 -21 24 -4
22 -4 22 -6 0z"/>
<path d="M9070 4493 c0 -32 4 -43 15 -43 12 0 14 7 9 28 -13 52 -23 59 -24 15z"/>
<path d="M13524 4516 c-10 -8 -16 -18 -12 -22 9 -8 68 15 68 27 0 14 -34 11
-56 -5z"/>
<path d="M5096 4491 c-4 -5 3 -7 14 -4 23 6 26 13 6 13 -8 0 -17 -4 -20 -9z"/>
<path d="M5082 4450 c0 -14 2 -19 5 -12 2 6 2 18 0 25 -3 6 -5 1 -5 -13z"/>
<path d="M5152 4450 c0 -14 2 -19 5 -12 2 6 2 18 0 25 -3 6 -5 1 -5 -13z"/>
<path d="M5455 4460 c3 -5 8 -10 11 -10 2 0 4 5 4 10 0 6 -5 10 -11 10 -5 0
-7 -4 -4 -10z"/>
<path d="M5605 4460 c-3 -6 1 -7 9 -4 18 7 21 14 7 14 -6 0 -13 -4 -16 -10z"/>
<path d="M5666 4462 c-2 -4 4 -8 14 -8 10 0 16 4 14 8 -3 4 -9 8 -14 8 -5 0
-11 -4 -14 -8z"/>
<path d="M5826 4461 c-4 -5 3 -7 14 -4 23 6 26 13 6 13 -8 0 -17 -4 -20 -9z"/>
<path d="M5968 4463 c7 -3 16 -2 19 1 4 3 -2 6 -13 5 -11 0 -14 -3 -6 -6z"/>
<path d="M6005 4460 c-3 -6 1 -7 9 -4 18 7 21 14 7 14 -6 0 -13 -4 -16 -10z"/>
<path d="M6083 4463 c9 -2 14 -9 11 -15 -4 -7 -2 -8 4 -4 20 12 13 26 -10 25
-18 -1 -19 -2 -5 -6z"/>
<path d="M5363 4435 c0 -8 4 -12 9 -9 5 3 6 10 3 15 -9 13 -12 11 -12 -6z"/>
<path d="M5571 4434 c0 -11 3 -14 6 -6 3 7 2 16 -1 19 -3 4 -6 -2 -5 -13z"/>
<path d="M5668 4433 c7 -3 16 -2 19 1 4 3 -2 6 -13 5 -11 0 -14 -3 -6 -6z"/>
<path d="M5825 4430 c-3 -6 1 -7 9 -4 18 7 21 14 7 14 -6 0 -13 -4 -16 -10z"/>
<path d="M6138 4433 c6 -2 18 -2 25 0 6 3 1 5 -13 5 -14 0 -19 -2 -12 -5z"/>
<path d="M5098 4408 c5 -5 16 -8 23 -6 8 3 3 7 -10 11 -17 4 -21 3 -13 -5z"/>
<path d="M5667 4409 c7 -7 15 -10 18 -7 3 3 -2 9 -12 12 -14 6 -15 5 -6 -5z"/>
<path d="M6070 4409 c0 -5 9 -9 20 -9 11 0 20 2 20 4 0 2 -9 6 -20 9 -11 3
-20 1 -20 -4z"/>
<path d="M6137 4409 c7 -7 15 -10 18 -7 3 3 -2 9 -12 12 -14 6 -15 5 -6 -5z"/>
<path d="M13563 4313 c-18 -7 -16 -23 2 -23 8 0 15 7 15 15 0 8 -1 15 -2 14
-2 0 -9 -3 -15 -6z"/>
<path d="M5423 4293 c229 -2 605 -2 835 0 229 1 41 2 -418 2 -459 0 -647 -1
-417 -2z"/>
<path d="M7608 3918 c16 -16 16 -95 0 -101 -7 -3 -2 -6 12 -6 24 -1 25 1 22
59 -3 53 -6 60 -25 60 -16 0 -18 -3 -9 -12z"/>
<path d="M4990 3887 c4 -18 3 -43 -1 -55 -7 -19 -5 -22 15 -22 19 0 23 4 19
20 -4 15 0 20 14 20 24 0 43 18 43 41 0 20 -20 29 -65 29 -32 0 -33 -1 -25
-33z m58 1 c-5 -32 -28 -35 -28 -4 0 17 5 26 16 26 10 0 14 -7 12 -22z"/>
<path d="M5485 3910 c-3 -5 1 -10 9 -10 9 0 16 5 16 10 0 6 -4 10 -9 10 -6 0
-13 -4 -16 -10z"/>
<path d="M7448 3913 c7 -3 12 -23 12 -48 0 -25 -5 -45 -12 -48 -7 -3 3 -5 22
-5 19 0 29 2 23 5 -22 8 -15 41 10 46 l22 4 -22 2 c-33 2 -32 41 1 41 13 0 27
-6 29 -12 3 -8 6 -6 6 5 1 14 -8 17 -51 16 -29 0 -47 -3 -40 -6z"/>
<path d="M7560 3910 c0 -5 5 -10 10 -10 6 0 10 5 10 10 0 6 -4 10 -10 10 -5 0
-10 -4 -10 -10z"/>
<path d="M7668 3898 c-2 -7 -2 -29 2 -48 3 -25 11 -35 25 -37 11 -2 14 0 8 3
-7 3 -13 19 -13 35 0 25 4 29 26 29 24 0 26 -3 22 -35 -3 -27 0 -35 12 -35 11
0 15 10 15 33 0 25 4 31 18 29 9 -2 17 1 17 6 0 5 -24 10 -52 11 -29 0 -54 5
-56 11 -5 14 -19 13 -24 -2z"/>
<path d="M5102 3878 c-27 -27 -6 -68 34 -68 13 0 25 4 28 9 3 4 -6 6 -19 3
-18 -3 -25 0 -25 12 0 10 9 16 25 16 14 0 25 4 25 8 0 14 -23 32 -40 32 -9 0
-21 -5 -28 -12z m38 -8 c0 -5 -4 -10 -10 -10 -5 0 -10 5 -10 10 0 6 5 10 10
10 6 0 10 -4 10 -10z"/>
<path d="M5191 3876 c-9 -11 -6 -18 16 -36 l28 -21 -27 4 c-16 2 -28 0 -28 -4
0 -10 31 -12 54 -3 25 10 19 33 -11 46 l-28 11 25 7 c22 7 23 8 4 9 -12 1 -27
-5 -33 -13z"/>
<path d="M5276 3874 c-19 -18 -19 -20 -6 -45 6 -10 20 -19 31 -19 15 0 19 -5
15 -15 -4 -11 1 -15 19 -15 21 0 23 3 17 23 -4 12 -7 36 -6 52 2 27 -1 31 -26
33 -16 1 -35 -5 -44 -14z m44 -24 c0 -20 -5 -30 -15 -30 -10 0 -15 10 -15 30
0 20 5 30 15 30 10 0 15 -10 15 -30z"/>
<path d="M5367 3882 c6 -4 13 -21 15 -37 3 -28 6 -30 48 -32 25 -1 39 1 33 4
-7 2 -13 20 -13 39 0 21 -5 34 -13 34 -7 0 -12 -13 -12 -32 0 -17 -6 -33 -12
-35 -9 -3 -13 7 -13 31 0 31 -3 36 -22 36 -14 0 -18 -3 -11 -8z"/>
<path d="M5479 3881 c9 -6 12 -20 9 -40 -3 -24 -1 -31 11 -31 13 0 16 8 13 40
-3 33 -8 40 -26 40 -16 0 -18 -2 -7 -9z"/>
<path d="M5544 3875 c-7 -18 3 -35 22 -35 8 0 14 -5 14 -11 0 -7 -11 -9 -26
-6 -16 3 -22 1 -16 -5 5 -5 20 -8 33 -6 31 4 38 37 10 45 -28 7 -27 21 2 26
19 4 18 4 -6 6 -16 0 -30 -5 -33 -14z"/>
<path d="M5625 3880 c-5 -7 2 -9 21 -4 19 5 25 4 20 -5 -4 -6 -13 -11 -20 -11
-8 0 -19 -6 -25 -14 -15 -18 4 -33 45 -34 30 -1 30 0 25 36 -5 31 -11 38 -33
40 -14 2 -29 -2 -33 -8z m42 -45 c-4 -8 -11 -15 -17 -15 -14 0 -13 27 3 33 16
6 21 1 14 -18z"/>
<path d="M5715 3850 c0 -36 2 -40 25 -40 18 0 21 3 12 9 -8 5 -12 21 -10 37 2
19 -2 30 -12 32 -11 2 -15 -7 -15 -38z"/>
<path d="M5760 3880 c0 -5 7 -10 16 -10 8 0 12 5 9 10 -3 6 -10 10 -16 10 -5
0 -9 -4 -9 -10z"/>
<path d="M5805 3880 c-3 -5 1 -10 9 -10 9 0 16 5 16 10 0 6 -4 10 -9 10 -6 0
-13 -4 -16 -10z"/>
<path d="M7555 3850 c0 -29 4 -40 15 -40 12 0 15 9 12 40 -2 22 -9 40 -16 40
-6 0 -11 -17 -11 -40z"/>
<path d="M7815 3880 c-4 -7 1 -9 17 -5 20 5 24 2 26 -19 1 -14 -3 -28 -9 -32
-17 -10 -23 4 -9 21 14 16 3 20 -19 6 -24 -15 -5 -39 32 -39 33 0 33 1 28 37
-5 30 -11 37 -33 39 -14 2 -29 -2 -33 -8z"/>
<path d="M7910 3861 c5 -19 4 -33 -3 -40 -8 -8 -4 -11 14 -11 23 0 24 3 21 40
-3 31 -8 40 -22 40 -16 0 -17 -5 -10 -29z"/>
<path d="M7950 3880 c0 -5 7 -10 16 -10 8 0 12 5 9 10 -3 6 -10 10 -16 10 -5
0 -9 -4 -9 -10z"/>
<path d="M8000 3880 c0 -5 5 -10 10 -10 6 0 10 5 10 10 0 6 -4 10 -10 10 -5 0
-10 -4 -10 -10z"/>
<path d="M5800 3820 c0 -5 7 -10 15 -10 8 0 15 5 15 10 0 6 -7 10 -15 10 -8 0
-15 -4 -15 -10z"/>
<path d="M8000 3820 c0 -5 5 -10 10 -10 6 0 10 5 10 10 0 6 -4 10 -10 10 -5 0
-10 -4 -10 -10z"/>
<path d="M4977 3683 c-4 -3 -7 -11 -7 -17 0 -7 3 -6 8 1 6 10 188 13 833 16
l824 2 -826 3 c-454 1 -829 -1 -832 -5z"/>
<path d="M6690 3545 l0 -145 205 0 205 0 0 145 0 145 -205 0 -205 0 0 -145z
m390 0 l0 -125 -185 0 -185 0 0 125 0 125 185 0 185 0 0 -125z"/>
<path d="M6835 3580 l-29 -30 29 -30 c27 -29 34 -31 90 -28 l60 3 0 55 0 55
-60 3 c-56 3 -63 1 -90 -28z m111 -28 c-2 -18 -10 -26 -28 -28 -21 -2 -25 2
-25 25 0 23 5 28 28 28 23 0 27 -4 25 -25z"/>
<path d="M8044 3683 c472 -3 612 -6 619 -16 6 -9 7 -8 4 3 -3 13 -80 15 -618
15 l-614 0 609 -2z"/>
<path d="M6631 3654 c0 -11 3 -14 6 -6 3 7 2 16 -1 19 -3 4 -6 -2 -5 -13z"/>
<path d="M4974 3531 c1 -102 4 -125 16 -128 11 -3 12 -2 3 4 -8 6 -13 49 -16
128 l-3 120 0 -124z"/>
<path d="M7434 3535 c0 -66 1 -92 3 -57 2 34 2 88 0 120 -2 31 -3 3 -3 -63z"/>
<path d="M8664 3540 c0 -63 1 -89 3 -57 2 31 2 83 0 115 -2 31 -3 5 -3 -58z"/>
<path d="M6634 3530 c0 -58 1 -81 3 -52 2 28 2 76 0 105 -2 28 -3 5 -3 -53z"/>
<path d="M7767 3591 c3 -13 -2 -20 -17 -24 -32 -8 -24 -61 10 -65 24 -3 25 -1
22 53 -2 30 -8 55 -12 55 -4 0 -6 -8 -3 -19z m3 -56 c0 -16 -6 -25 -15 -25 -9
0 -15 9 -15 25 0 16 6 25 15 25 9 0 15 -9 15 -25z"/>
<path d="M5105 3593 c11 -3 24 -10 28 -17 6 -7 7 -6 4 4 -2 8 -14 16 -28 17
-19 1 -20 1 -4 -4z"/>
<path d="M7570 3590 c0 -5 7 -7 16 -3 14 5 16 -1 13 -40 -3 -28 0 -47 6 -47 6
0 9 19 7 44 -3 36 -1 45 15 49 10 3 1 5 -19 6 -21 0 -38 -3 -38 -9z"/>
<path d="M5258 3563 c7 -3 16 -2 19 1 4 3 -2 6 -13 5 -11 0 -14 -3 -6 -6z"/>
<path d="M5378 3563 c7 -3 16 -2 19 1 4 3 -2 6 -13 5 -11 0 -14 -3 -6 -6z"/>
<path d="M7662 3558 c-16 -16 -15 -33 3 -48 20 -17 47 5 43 34 -4 24 -28 32
-46 14z m38 -17 c0 -11 -5 -23 -11 -27 -15 -9 -33 12 -26 30 9 23 37 20 37 -3z"/>
<path d="M7812 3558 c-16 -16 -15 -33 3 -48 20 -17 47 5 43 34 -4 24 -28 32
-46 14z m35 -14 c8 -21 -13 -42 -28 -27 -13 13 -5 43 11 43 6 0 13 -7 17 -16z"/>
<path d="M7888 3563 c7 -3 16 -2 19 1 4 3 -2 6 -13 5 -11 0 -14 -3 -6 -6z"/>
<path d="M8530 3562 c0 -5 9 -17 20 -27 20 -18 21 -18 42 3 24 24 18 43 -7 22
-12 -10 -19 -10 -27 -2 -14 14 -28 16 -28 4z"/>
<path d="M7880 3546 c0 -3 9 -10 20 -16 11 -6 20 -8 20 -6 0 3 -9 10 -20 16
-11 6 -20 8 -20 6z"/>
<path d="M5135 3521 c-6 -5 -19 -11 -30 -14 -19 -4 -19 -5 1 -6 12 0 27 6 34
14 14 16 10 20 -5 6z"/>
<path d="M5360 3521 c0 -6 4 -13 10 -16 6 -3 7 1 4 9 -7 18 -14 21 -14 7z"/>
<path d="M5317 3509 c7 -7 15 -10 18 -7 3 3 -2 9 -12 12 -14 6 -15 5 -6 -5z"/>
<path d="M7888 3503 c7 -3 16 -2 19 1 4 3 -2 6 -13 5 -11 0 -14 -3 -6 -6z"/>
<path d="M6620 3410 c-9 -6 -10 -10 -3 -10 6 0 15 5 18 10 8 12 4 12 -15 0z"/>
<path d="M8050 3410 l-615 -5 612 -3 c400 -1 614 1 618 8 3 6 5 9 3 8 -2 -2
-280 -5 -618 -8z"/>
<path d="M5398 3403 c215 -2 569 -2 785 0 215 1 39 2 -393 2 -432 0 -608 -1
-392 -2z"/>
<path d="M702 3369 c-61 -30 -82 -31 -82 -3 0 8 -6 14 -13 14 -6 0 -78 -34
-160 -75 -81 -41 -150 -75 -152 -75 -3 0 -5 11 -5 25 0 14 -5 25 -10 25 -12 0
-103 -56 -141 -87 -57 -46 -139 -138 -139 -156 0 -17 4 -15 25 14 38 51 102
110 171 156 62 43 74 44 74 11 0 -10 4 -18 9 -18 5 0 69 31 143 69 165 85 178
90 185 62 7 -27 10 -27 82 10 33 17 64 28 69 25 11 -7 -1 -61 -34 -160 -21
-61 -22 -68 -6 -63 48 13 47 15 50 -53 4 -83 -12 -158 -51 -239 -17 -36 -27
-66 -22 -68 34 -12 35 -19 11 -80 -93 -237 -291 -321 -596 -254 -44 10 -46 9
-78 -24 -17 -19 -32 -43 -32 -52 0 -13 10 -7 33 21 30 35 36 38 68 32 114 -22
223 -29 284 -19 164 28 286 132 346 295 22 60 24 89 8 105 -9 9 -8 21 5 47 34
71 46 132 46 229 0 92 -1 99 -21 104 -23 6 -23 4 5 127 15 66 14 86 -3 86 -4
0 -35 -14 -69 -31z"/>
<path d="M10795 3386 c-16 -6 -45 -19 -64 -29 -44 -22 -51 -21 -51 3 0 11 -6
20 -12 20 -7 0 -80 -34 -161 -75 -82 -41 -151 -75 -153 -75 -2 0 -4 6 -4 13 0
6 -4 18 -9 26 -8 12 -22 6 -77 -30 -144 -93 -254 -233 -284 -361 -22 -97 -7
-213 41 -312 16 -34 25 -64 20 -70 -4 -6 -33 -42 -64 -80 -32 -39 -57 -75 -57
-80 0 -14 45 -66 56 -66 5 0 40 36 78 81 67 79 70 81 105 75 144 -24 225 -29
287 -19 123 21 228 91 294 193 52 82 88 200 60 200 -13 0 -13 25 0 48 24 44
43 124 48 204 5 101 -2 142 -23 134 -20 -7 -19 15 5 113 26 103 23 109 -35 87z
m26 -37 c-2 -8 -7 -32 -12 -54 -7 -37 -25 -93 -44 -138 -6 -15 -4 -16 20 -7
15 6 31 8 36 4 13 -8 10 -121 -5 -187 -8 -31 -28 -87 -45 -122 -29 -63 -29
-65 -9 -65 18 0 20 -5 15 -33 -8 -50 -55 -142 -98 -191 -45 -50 -108 -91 -177
-111 -65 -20 -234 -19 -314 1 l-63 16 -67 -73 c-37 -41 -68 -77 -68 -81 0 -5
-5 -8 -11 -8 -12 0 -39 25 -39 37 0 4 27 37 60 73 33 36 62 74 65 85 3 11 -6
44 -21 75 -78 160 -69 321 26 459 44 64 88 108 178 175 64 47 82 51 82 15 0
-31 -8 -34 225 91 84 45 112 47 106 8 -2 -16 28 -7 85 22 58 31 82 34 75 9z"/>
<path d="M10588 3141 c-40 -32 -100 -86 -132 -119 -33 -34 -63 -59 -68 -56
-17 11 -7 80 29 198 9 29 -14 11 -34 -27 -11 -22 -18 -62 -20 -125 l-2 -93
-48 -67 c-66 -92 -70 -97 -81 -75 -25 50 -35 118 -29 201 6 79 5 85 -8 62 -22
-39 -19 -171 6 -252 l21 -67 -21 -29 c-11 -17 -21 -33 -21 -36 0 -3 -13 -28
-30 -56 -16 -28 -30 -55 -30 -60 0 -26 20 -3 65 75 27 47 56 92 65 99 26 22
143 38 263 35 64 -1 119 0 122 3 3 3 -29 11 -71 18 -75 12 -164 8 -246 -10
-51 -11 -49 1 15 79 46 57 58 66 107 78 30 7 100 15 157 18 57 2 103 7 104 12
1 16 -47 18 -160 6 -63 -7 -117 -10 -119 -8 -8 8 101 115 179 177 74 58 92 78
70 78 -5 0 -43 -26 -83 -59z"/>
<path d="M3140 3270 c0 -5 7 -7 15 -4 35 14 11 -28 -51 -88 -61 -58 -69 -63
-112 -64 -85 -2 -182 -15 -188 -26 -5 -7 3 -9 22 -4 56 13 184 19 184 8 0 -6
-33 -44 -73 -86 l-72 -76 -83 0 c-48 0 -82 -4 -82 -10 0 -5 -18 -10 -41 -10
-22 0 -38 -4 -35 -9 3 -5 26 -5 53 1 79 14 152 18 158 8 3 -5 -12 -29 -33 -52
-21 -24 -51 -57 -66 -75 -23 -26 -43 -35 -119 -53 -93 -22 -133 -37 -124 -47
6 -5 108 23 144 39 49 23 41 -6 -24 -85 -37 -45 -70 -84 -73 -87 -20 -18 -71
-92 -67 -96 3 -3 20 14 38 36 19 23 52 63 75 89 22 26 53 64 68 84 16 20 33
37 38 37 11 0 5 -135 -8 -180 -4 -17 -3 -22 4 -15 14 14 32 107 32 173 1 62 0
60 78 150 31 35 61 60 71 59 16 -1 18 -12 17 -104 -1 -57 3 -103 7 -103 5 0 7
58 5 130 l-3 130 65 65 c44 45 67 62 75 54 5 -5 10 -52 10 -104 0 -58 3 -86 8
-72 11 28 11 100 2 165 l-8 54 73 69 c40 38 79 69 87 69 16 0 18 -113 2 -174
-6 -22 -15 -59 -21 -81 -10 -38 -77 -184 -89 -195 -3 -3 -20 -27 -38 -53 -62
-91 -294 -307 -330 -307 -6 0 -11 -4 -11 -10 0 -5 -7 -10 -15 -10 -20 0 -229
-107 -297 -152 -31 -21 -61 -38 -66 -38 -23 0 -30 179 -12 300 14 96 73 266
101 290 3 3 20 27 38 53 48 71 150 169 233 224 75 51 218 123 243 123 8 0 17
5 20 10 3 6 21 10 40 10 19 0 37 5 40 10 3 6 24 10 46 10 21 0 39 4 39 8 0 13
-101 -4 -177 -29 -100 -33 -257 -117 -318 -170 -118 -102 -211 -215 -249 -304
-10 -22 -22 -48 -27 -57 -5 -10 -9 -25 -9 -33 0 -8 -4 -23 -9 -33 -21 -42 -31
-123 -31 -261 0 -148 4 -181 21 -181 5 0 30 16 56 36 25 19 118 71 205 114
144 71 228 121 236 142 2 4 9 8 15 8 7 0 55 44 108 98 92 92 209 252 209 285
0 9 3 17 8 19 20 9 54 148 59 239 8 134 3 149 -47 149 -22 0 -40 -4 -40 -10z"/>
<path d="M13216 3266 c18 -14 16 -18 -49 -82 -65 -65 -70 -68 -120 -70 -100
-5 -177 -16 -183 -26 -5 -7 3 -9 22 -4 16 4 62 9 102 13 92 7 93 -1 6 -92
l-65 -70 -87 -7 c-113 -9 -162 -18 -162 -30 0 -5 8 -7 18 -4 46 13 171 29 186
23 16 -6 14 -11 -12 -45 -87 -107 -102 -118 -197 -142 -49 -12 -101 -29 -115
-37 l-25 -14 25 6 c22 5 85 22 148 41 31 9 29 -14 -6 -51 -28 -30 -135 -161
-161 -196 -8 -11 -12 -22 -9 -24 3 -3 54 54 114 126 l109 132 3 -63 c2 -34 -2
-76 -7 -93 -13 -36 -14 -65 -3 -51 14 16 32 113 32 174 0 59 1 60 66 135 37
43 72 74 81 73 10 -2 17 6 19 20 5 28 124 164 139 159 14 -5 26 -93 20 -152
-4 -40 -3 -46 6 -31 8 12 9 51 4 120 l-7 101 70 68 c38 37 77 67 86 67 33 0
12 -182 -35 -302 -22 -58 -61 -140 -70 -148 -3 -3 -20 -27 -38 -53 -44 -64
-160 -183 -242 -246 -37 -28 -136 -86 -220 -129 -85 -42 -176 -92 -202 -111
-26 -18 -54 -30 -61 -28 -28 11 -16 345 14 415 6 12 14 32 19 45 38 99 73 154
159 254 100 116 286 236 427 277 33 10 70 22 83 27 13 5 39 9 58 9 20 0 33 4
29 10 -3 5 -20 7 -38 4 -58 -10 -152 -37 -161 -45 -6 -5 -17 -9 -25 -9 -23 0
-159 -71 -222 -116 -69 -48 -184 -163 -234 -234 -42 -60 -84 -149 -104 -220
-7 -25 -17 -60 -23 -79 -13 -42 -13 -350 0 -363 6 -6 35 7 78 35 61 39 184
104 309 163 90 42 272 203 356 314 52 67 139 236 139 268 0 10 4 22 10 28 12
12 25 191 16 238 -7 35 -9 36 -48 36 -39 0 -40 -1 -22 -14z"/>
<path d="M4810 2920 l0 -310 2010 0 2010 0 0 310 0 310 -2010 0 -2010 0 0
-310z m3440 0 l0 -130 -175 0 -175 0 0 130 0 130 175 0 175 0 0 -130z m400 0
l0 -130 -145 0 -145 0 0 130 0 130 145 0 145 0 0 -130z"/>
<path d="M8110 2990 c-12 -7 -12 -12 4 -29 24 -27 52 -11 35 20 -11 21 -17 23
-39 9z"/>
<path d="M8065 2940 c-16 -16 -38 -30 -49 -31 -12 0 -16 -3 -9 -5 9 -4 9 -13
2 -30 -5 -14 -9 -28 -9 -30 0 -12 47 10 71 32 15 15 39 25 60 25 29 2 30 3 7
6 -16 3 -25 9 -22 16 2 7 -1 21 -8 30 -12 17 -15 16 -43 -13z"/>
<path d="M8460 2963 c0 -6 7 -16 15 -23 18 -15 19 -30 2 -30 -7 0 -13 -9 -14
-21 -2 -20 -1 -20 16 -5 10 9 21 16 26 16 5 0 16 -7 26 -16 17 -15 18 -15 16
5 -1 12 -7 21 -14 21 -17 0 -16 15 2 30 8 7 15 17 15 23 0 6 -10 1 -23 -11
l-23 -22 -22 22 c-12 13 -22 17 -22 11z"/>
<path d="M557 3165 c-26 -20 -87 -73 -135 -120 -47 -46 -90 -81 -93 -77 -12
13 12 166 28 185 14 15 14 17 1 17 -29 0 -50 -67 -53 -163 l-2 -90 -59 -79
c-32 -43 -62 -74 -66 -70 -15 15 -38 114 -38 162 0 25 4 60 10 79 12 44 2 60
-16 26 -26 -50 -16 -201 17 -267 14 -28 11 -44 -22 -100 -56 -93 -69 -118 -69
-129 0 -25 23 2 73 86 68 116 75 118 289 119 87 1 158 4 158 7 0 10 -118 29
-171 29 -24 -1 -75 -7 -114 -14 -38 -8 -72 -12 -74 -10 -5 5 25 51 70 104 32
40 45 47 96 58 32 6 105 15 162 18 89 6 101 9 86 20 -19 14 -54 13 -194 -6
-41 -6 -76 -8 -78 -6 -7 6 168 176 215 208 23 16 42 33 42 38 0 16 -13 11 -63
-25z"/>
<path d="M12945 2775 c0 -52 3 -95 8 -95 4 0 7 43 7 95 0 52 -3 95 -7 95 -5 0
-8 -43 -8 -95z"/>
<path d="M0 2511 c0 -25 6 -27 13 -6 4 8 2 17 -3 20 -6 4 -10 -3 -10 -14z"/>
<path d="M7880 2295 l0 -145 195 0 195 0 0 145 0 145 -195 0 -195 0 0 -145z
m370 0 l0 -125 -175 0 -175 0 0 125 0 125 175 0 175 0 0 -125z"/>
<path d="M8105 2359 c-4 -5 1 -19 11 -30 16 -17 19 -18 32 -5 13 12 13 18 2
30 -14 18 -36 21 -45 5z"/>
<path d="M8048 2293 c-20 -21 -39 -49 -43 -61 -6 -22 -5 -23 17 -17 35 11 102
80 95 99 -10 25 -30 19 -69 -21z"/>
<path d="M8340 2295 l0 -145 165 0 165 0 0 145 0 145 -165 0 -165 0 0 -145z
m310 0 l0 -125 -145 0 -145 0 0 125 0 125 145 0 145 0 0 -125z"/>
<path d="M8460 2335 c0 -5 7 -17 17 -27 15 -17 15 -19 -2 -38 -10 -11 -16 -22
-13 -25 3 -3 11 1 18 10 7 8 18 15 25 15 7 0 18 -7 25 -15 7 -9 15 -13 18 -10
3 3 -3 14 -13 25 -17 19 -17 21 0 40 10 11 16 22 13 25 -3 3 -11 -1 -18 -10
-16 -19 -29 -19 -52 2 -10 9 -18 12 -18 8z"/>
<path d="M4985 2290 c0 -47 2 -50 25 -49 14 0 19 3 13 6 -14 5 -18 33 -5 33 4
0 13 -9 20 -20 7 -11 20 -20 29 -20 14 0 14 3 -4 23 -19 19 -19 24 -7 35 21
20 0 42 -40 42 -31 0 -31 -1 -31 -50z m55 20 c0 -11 -7 -20 -15 -20 -8 0 -15
9 -15 20 0 11 7 20 15 20 8 0 15 -9 15 -20z"/>
<path d="M6330 2330 c0 -5 5 -10 10 -10 6 0 10 5 10 10 0 6 -4 10 -10 10 -5 0
-10 -4 -10 -10z"/>
<path d="M6268 2318 c-9 -28 7 -73 27 -75 11 -2 14 0 8 3 -16 7 -17 54 -2 54
6 0 4 7 -5 15 -18 18 -23 19 -28 3z"/>
<path d="M5100 2295 c-18 -22 -2 -49 31 -52 l24 -3 -25 12 -25 12 28 4 c20 2
27 8 25 20 -4 23 -41 27 -58 7z m40 -5 c0 -5 -7 -10 -16 -10 -8 0 -12 5 -9 10
3 6 10 10 16 10 5 0 9 -4 9 -10z"/>
<path d="M5180 2286 c5 -15 5 -27 -3 -35 -8 -8 -6 -11 9 -11 15 0 20 7 19 27
0 14 6 28 14 31 10 3 13 -3 9 -27 -4 -24 -1 -31 12 -31 14 0 16 6 11 33 -6 29
-11 32 -43 34 -35 2 -37 1 -28 -21z"/>
<path d="M5269 2302 c8 -6 12 -20 9 -36 -4 -20 -1 -26 12 -26 26 0 12 64 -15
68 -15 2 -17 1 -6 -6z"/>
<path d="M5329 2294 c-17 -21 0 -49 31 -49 31 0 48 28 31 49 -8 9 -21 16 -31
16 -10 0 -23 -7 -31 -16z m46 -19 c0 -28 -29 -25 -33 3 -3 19 0 23 15 20 10
-2 18 -12 18 -23z"/>
<path d="M5424 2279 c7 -17 16 -30 19 -30 16 2 -2 61 -19 61 -11 0 -11 -5 0
-31z"/>
<path d="M5465 2300 c4 -6 11 -8 16 -5 14 9 11 15 -7 15 -8 0 -12 -5 -9 -10z"/>
<path d="M5505 2300 c-5 -9 -1 -10 14 -5 18 5 21 2 21 -24 0 -20 5 -31 14 -31
24 0 4 64 -21 68 -12 2 -24 -2 -28 -8z"/>
<path d="M5616 2298 c11 -17 10 -78 -1 -82 -5 -3 4 -4 20 -4 17 0 24 2 18 5
-20 8 -15 21 10 25 17 2 22 10 22 33 0 28 -3 30 -38 32 -25 2 -35 -1 -31 -9z
m54 -23 c0 -26 -14 -33 -25 -15 -9 14 1 40 15 40 5 0 10 -11 10 -25z"/>
<path d="M5714 2298 c-5 -8 0 -9 14 -6 12 4 22 3 22 -2 0 -4 -9 -10 -21 -13
-34 -9 -16 -32 27 -34 21 0 33 1 27 4 -7 2 -13 18 -13 34 0 24 -4 29 -24 29
-14 0 -28 -5 -32 -12z m36 -38 c0 -5 -4 -10 -10 -10 -5 0 -10 5 -10 10 0 6 5
10 10 10 6 0 10 -4 10 -10z"/>
<path d="M5805 2275 c0 -29 4 -35 20 -34 11 0 15 3 8 5 -6 3 -9 18 -6 35 3 20
0 29 -9 29 -8 0 -13 -13 -13 -35z"/>
<path d="M5840 2300 c0 -5 5 -10 10 -10 6 0 10 5 10 10 0 6 -4 10 -10 10 -5 0
-10 -4 -10 -10z"/>
<path d="M5880 2299 c0 -6 8 -8 19 -4 14 4 18 1 17 -16 -1 -22 -26 -41 -26
-21 0 6 6 13 13 16 6 3 3 5 -8 3 -37 -4 -23 -32 18 -34 27 -2 36 1 30 10 -4 7
-8 17 -9 22 0 6 -2 16 -2 23 -2 15 -52 16 -52 1z"/>
<path d="M6004 2296 c-15 -38 22 -74 49 -47 7 7 3 8 -12 4 -17 -4 -21 -1 -21
21 0 27 15 36 23 14 2 -7 8 -10 12 -6 11 11 -4 28 -26 28 -11 0 -22 -6 -25
-14z"/>
<path d="M6079 2294 c-9 -11 -10 -20 -2 -32 25 -41 86 -14 63 27 -13 25 -42
27 -61 5z m46 -19 c0 -28 -29 -25 -33 3 -3 19 0 23 15 20 10 -2 18 -12 18 -23z"/>
<path d="M6165 2274 c0 -24 5 -34 15 -34 10 0 16 9 15 27 0 14 6 28 14 31 10
3 13 -3 9 -27 -4 -24 -1 -31 12 -31 14 0 16 6 11 33 -6 28 -11 32 -41 34 -34
2 -35 0 -35 -33z"/>
<path d="M6325 2275 c0 -25 4 -35 15 -35 12 0 15 8 12 35 -2 19 -9 35 -16 35
-6 0 -11 -15 -11 -35z"/>
<path d="M6375 2274 c0 -24 5 -34 15 -34 10 0 16 9 15 27 0 14 6 28 14 31 10
3 13 -3 9 -27 -4 -24 -1 -31 12 -31 14 0 16 6 11 33 -6 28 -11 32 -41 34 -34
2 -35 0 -35 -33z"/>
<path d="M6478 2275 c4 -34 6 -35 46 -34 22 0 35 3 29 6 -7 2 -13 18 -13 34 0
20 -5 29 -16 29 -13 0 -14 -3 -4 -15 13 -16 7 -45 -10 -45 -5 0 -10 14 -10 30
0 18 -5 30 -13 30 -9 0 -12 -11 -9 -35z"/>
<path d="M6575 2300 c-5 -9 -1 -10 14 -5 18 5 21 2 21 -19 0 -14 -5 -26 -11
-26 -6 0 -8 7 -5 16 4 10 1 14 -6 12 -7 -3 -14 -12 -16 -21 -3 -13 4 -17 31
-17 34 0 34 1 28 33 -7 33 -42 50 -56 27z"/>
<path d="M6655 2275 c0 -25 4 -35 15 -35 12 0 15 8 12 35 -2 19 -9 35 -16 35
-6 0 -11 -15 -11 -35z"/>
<path d="M6695 2300 c3 -5 11 -10 16 -10 6 0 7 5 4 10 -3 6 -11 10 -16 10 -6
0 -7 -4 -4 -10z"/>
<path d="M5507 2273 c-12 -11 -8 -33 6 -33 7 0 13 9 13 20 0 20 -7 25 -19 13z"/>
<path d="M3690 1783 c-19 -2 -39 -9 -44 -14 -6 -5 -18 -9 -28 -9 -21 0 -75
-30 -146 -81 -55 -39 -65 -40 -112 -9 -14 9 -49 27 -79 40 l-53 24 -24 -29
c-13 -17 -24 -35 -24 -42 0 -6 43 -32 95 -58 l95 -47 0 -68 c0 -227 93 -403
253 -479 83 -39 224 -62 241 -38 10 12 32 14 128 9 155 -6 275 21 263 59 -6
18 1 19 99 19 126 0 129 4 64 88 -38 49 -41 55 -25 67 9 7 17 16 17 21 0 8
-84 113 -159 199 -58 67 -57 65 -33 84 l23 17 -56 54 c-73 71 -70 69 -135 111
-84 54 -155 78 -245 83 -44 2 -96 2 -115 -1z m167 -18 c112 -26 193 -72 293
-165 l55 -51 -22 -16 c-23 -15 -23 -15 -4 -42 11 -14 28 -35 38 -46 52 -58
163 -195 163 -203 0 -5 -9 -13 -21 -18 -20 -9 -19 -12 25 -66 25 -31 46 -61
46 -66 0 -14 -45 -18 -135 -12 -44 4 -82 5 -85 3 -2 -2 2 -13 9 -25 15 -24 9
-30 -44 -47 -41 -13 -217 -10 -297 4 -31 6 -36 4 -35 -12 2 -23 -40 -29 -102
-13 -142 36 -239 108 -289 213 -40 83 -52 132 -58 235 -8 128 -7 127 -67 156
-66 32 -110 58 -119 70 -7 11 13 46 27 46 5 0 52 -21 102 -47 l92 -48 38 36
c72 68 144 104 243 119 69 11 81 11 147 -5z"/>
<path d="M3842 1604 c-57 -15 -102 -36 -144 -67 -23 -17 -32 -19 -50 -9 -22
10 -158 52 -172 52 -3 0 -6 -4 -6 -10 0 -5 9 -10 19 -10 11 0 23 -4 26 -10 3
-5 16 -10 28 -10 23 0 105 -28 124 -42 13 -11 60 -104 74 -150 16 -51 39 -169
39 -203 1 -23 3 -26 10 -15 18 31 -38 300 -62 300 -5 0 -8 11 -8 25 0 22 2 24
26 15 75 -29 135 -62 148 -82 26 -42 86 -217 86 -253 0 -19 5 -35 10 -35 29 0
-6 143 -61 252 -30 60 93 -10 273 -154 38 -30 50 -13 13 18 -55 45 -210 151
-243 165 -49 21 -37 43 28 52 30 4 80 4 110 1 42 -4 52 -3 44 6 -20 21 -89 23
-177 5 -87 -17 -87 -17 -135 5 -26 13 -67 31 -92 42 l-45 20 29 23 c38 30 149
65 209 65 30 0 46 4 42 10 -9 14 -80 11 -143 -6z"/>
<path d="M9006 1762 c-3 -5 14 -15 37 -22 50 -15 153 -82 222 -146 l50 -46
-24 -19 -24 -20 24 -27 c13 -15 26 -29 29 -32 22 -22 121 -142 139 -168 24
-34 22 -62 -4 -62 -10 0 1 -20 35 -61 27 -33 50 -65 50 -71 0 -7 -38 -9 -114
-7 -105 4 -113 3 -105 -13 26 -49 2 -58 -164 -65 -82 -3 -120 0 -155 11 -25 9
-47 16 -49 16 -2 0 -3 -11 -3 -25 0 -21 -5 -25 -30 -25 -16 0 -54 7 -85 15
-194 50 -297 173 -330 392 -8 57 -15 120 -15 142 0 39 0 39 -87 83 -47 24 -88
48 -90 54 -2 5 3 18 10 29 14 18 18 16 112 -29 95 -46 97 -47 118 -29 12 10
24 21 27 24 10 12 86 56 115 67 l30 10 -38 1 c-31 1 -48 -8 -98 -49 -41 -34
-65 -47 -77 -43 -18 7 -120 61 -137 73 -31 22 -45 18 -70 -17 -17 -25 -21 -41
-15 -47 6 -6 50 -31 98 -56 l87 -45 7 -110 c8 -117 33 -210 74 -281 56 -96
178 -173 305 -194 93 -15 110 -13 116 11 4 14 10 18 22 13 30 -14 214 -16 271
-3 73 16 90 26 90 49 0 19 7 20 105 20 68 0 105 4 105 11 0 17 -21 51 -51 84
-33 35 -35 42 -14 65 17 19 5 37 -132 199 -63 74 -76 101 -48 101 31 0 13 30
-56 91 -80 72 -105 90 -169 123 -59 31 -87 39 -94 28z"/>
<path d="M13262 1707 c-41 -43 -31 -52 145 -141 20 -10 22 -20 26 -106 6 -118
16 -170 49 -240 32 -68 90 -149 96 -132 2 6 -10 29 -26 50 -71 90 -101 198
-106 379 l-1 44 -90 49 c-91 49 -108 71 -73 93 13 9 36 1 108 -37 97 -51 94
-51 141 -5 9 9 25 21 35 27 10 6 15 14 11 18 -4 4 -25 -7 -46 -24 -22 -18 -49
-32 -59 -32 -11 0 -54 18 -96 40 -42 22 -80 40 -84 40 -5 0 -18 -10 -30 -23z"/>
<path d="M8970 1611 c-44 -9 -121 -44 -160 -71 l-29 -21 -73 24 c-101 34 -126
39 -133 27 -3 -5 -1 -10 6 -10 35 0 185 -56 203 -75 39 -42 95 -222 96 -307 0
-27 5 -48 10 -48 13 0 13 82 -1 134 -25 96 -34 123 -61 181 -6 14 -9 27 -6 30
6 7 74 -19 132 -49 39 -21 53 -45 106 -181 14 -36 30 -102 30 -124 0 -11 5
-21 11 -21 19 0 -1 97 -37 188 -19 47 -33 87 -30 89 6 7 126 -60 126 -69 0 -5
6 -8 13 -8 6 0 47 -29 90 -65 76 -64 112 -68 40 -4 -46 40 -227 159 -242 159
-6 0 -11 8 -11 19 0 16 11 19 78 25 47 4 89 3 105 -3 35 -14 37 5 2 21 -25 11
-111 4 -210 -17 -23 -5 -49 2 -108 29 -42 20 -82 36 -87 36 -6 0 -10 6 -10 14
0 28 150 86 223 86 26 0 47 5 47 10 0 11 -66 11 -120 1z"/>
<path d="M13530 1571 c0 -10 42 -23 49 -15 7 6 -20 24 -36 24 -7 0 -13 -4 -13
-9z"/>
<path d="M1524 1502 c-7 -10 -17 -44 -24 -75 -13 -56 -25 -68 -47 -46 -15 15
-35 -44 -74 -216 -25 -108 -36 -132 -53 -115 -23 23 -32 7 -44 -73 -18 -126
-14 -190 19 -307 46 -159 189 -285 370 -324 23 -5 28 -13 39 -68 6 -35 17 -83
24 -108 12 -45 12 -45 51 -42 22 2 43 6 46 10 3 4 0 39 -7 77 -23 126 -21 136
36 179 65 50 151 143 182 198 70 126 70 290 -1 420 -37 67 -70 103 -83 90 -8
-8 -21 9 -44 54 -45 85 -102 151 -176 201 -32 22 -40 24 -54 12 -13 -11 -17
-10 -26 4 -18 33 -103 141 -113 144 -6 2 -15 -5 -21 -15z m57 -54 c37 -50 79
-118 79 -128 0 -21 21 -19 31 3 8 17 17 23 30 20 36 -10 143 -136 183 -216 27
-56 42 -75 49 -68 17 17 25 13 50 -27 77 -121 89 -280 31 -402 -37 -77 -85
-134 -168 -201 -34 -27 -67 -54 -73 -59 -13 -11 -13 -17 8 -138 13 -78 8 -95
-27 -86 -17 4 -23 19 -33 82 -19 121 -28 142 -59 142 -72 0 -196 65 -266 140
-104 111 -148 304 -112 485 3 11 5 24 5 28 1 4 10 3 22 -3 11 -7 22 -10 24 -8
12 14 25 51 25 69 0 12 4 36 10 53 5 17 19 69 30 116 23 95 32 109 54 91 12
-10 17 -9 25 8 6 11 11 27 11 36 0 29 25 95 36 95 5 0 21 -15 35 -32z"/>
<path d="M1571 1081 c4 -174 3 -188 -13 -180 -27 15 -108 112 -108 131 0 10
-7 18 -15 18 -31 0 13 -73 85 -141 l70 -66 20 -89 c11 -49 20 -92 20 -96 1
-32 -108 28 -180 98 -31 30 -59 54 -63 54 -15 0 -6 -17 32 -56 54 -58 114 -97
202 -132 21 -8 31 -26 54 -96 28 -87 54 -137 55 -106 0 8 -13 53 -30 100 -16
47 -29 94 -30 104 0 46 97 186 187 269 41 37 53 57 35 57 -28 0 -194 -196
-215 -253 -11 -29 -31 -14 -40 29 -21 102 -20 142 2 172 11 17 21 33 21 37 0
9 73 114 104 150 27 31 32 45 17 45 -12 0 -90 -100 -132 -170 -30 -48 -38 -57
-44 -43 -5 10 -10 93 -13 186 -2 101 -8 167 -14 167 -7 0 -9 -68 -7 -189z"/>
<path d="M6630 1501 c-5 -11 -16 -44 -24 -73 -12 -47 -16 -53 -39 -51 -21 1
-28 -4 -36 -30 -20 -64 -61 -241 -61 -261 0 -32 -18 -47 -41 -33 -10 6 -21 9
-24 5 -14 -14 -27 -150 -22 -233 13 -230 120 -383 319 -456 29 -10 63 -19 75
-19 25 0 34 -24 54 -142 l13 -78 48 0 48 0 -6 63 c-3 34 -10 79 -16 100 -12
48 -5 69 29 89 87 52 192 177 234 278 17 43 19 235 3 271 -68 146 -87 173
-113 166 -16 -4 -25 7 -52 62 -21 44 -55 89 -101 134 -73 72 -103 90 -130 76
-13 -7 -23 1 -47 39 -35 54 -83 112 -93 112 -4 0 -12 -9 -18 -19z m66 -64 c17
-23 41 -61 54 -84 26 -47 45 -55 53 -22 6 21 6 21 37 2 53 -30 129 -123 167
-203 44 -91 39 -86 59 -69 14 11 19 10 35 -11 60 -79 93 -241 69 -341 -26
-109 -117 -228 -237 -311 -49 -33 -50 -36 -28 -157 8 -47 14 -86 12 -87 -3 -3
-30 -7 -43 -5 -10 1 -23 52 -40 156 -7 48 -19 65 -48 65 -12 0 -45 9 -74 19
-150 55 -243 151 -291 303 -17 52 -24 191 -14 268 9 64 12 68 45 55 19 -7 15
-19 58 170 18 77 34 146 36 152 2 8 14 11 32 7 27 -5 30 -3 36 27 14 72 27
109 39 109 7 -1 26 -20 43 -43z"/>
<path d="M6674 1234 c-7 -38 1 -254 12 -311 4 -18 2 -33 -3 -33 -18 0 -105 91
-119 126 -16 38 -39 48 -29 12 12 -40 53 -92 110 -138 42 -35 56 -53 60 -80 6
-32 20 -98 32 -142 12 -48 -111 16 -189 97 -38 38 -58 53 -58 42 0 -32 102
-121 187 -162 64 -31 83 -45 88 -65 12 -52 58 -170 66 -170 11 0 12 34 2 43
-12 13 -52 141 -53 169 0 51 99 199 182 272 56 49 60 75 4 33 -57 -44 -186
-208 -186 -237 0 -6 -6 -10 -12 -8 -17 6 -50 146 -42 178 7 30 104 181 144
223 31 33 37 47 21 47 -14 0 -94 -101 -133 -166 -18 -30 -36 -54 -40 -54 -13
0 -23 96 -23 228 0 130 -8 167 -21 96z"/>
<path d="M11582 1503 c-6 -10 -16 -44 -23 -76 -13 -55 -15 -57 -40 -52 -23 5
-28 2 -33 -17 -23 -84 -38 -143 -56 -223 -18 -78 -29 -100 -42 -87 -24 24 -34
10 -46 -58 -54 -316 84 -561 358 -635 l56 -15 12 -58 c6 -31 15 -75 18 -97 9
-55 16 -61 63 -57 48 5 47 2 27 132 -7 47 -11 90 -9 96 2 5 18 19 36 29 50 30
126 105 166 165 63 93 74 127 79 226 5 105 -9 160 -64 260 -33 61 -57 83 -70
63 -3 -6 -20 17 -37 51 -35 70 -115 162 -176 204 -35 24 -43 27 -57 15 -13
-11 -17 -11 -24 1 -20 35 -106 144 -117 147 -6 3 -16 -4 -21 -14z m85 -96 c26
-41 53 -82 59 -93 11 -18 13 -17 23 9 6 15 14 27 19 27 41 0 212 -214 212
-264 0 -20 32 -45 37 -28 8 22 22 13 49 -35 127 -215 66 -442 -163 -611 l-64
-47 6 -50 c4 -27 11 -66 16 -85 16 -63 12 -80 -19 -80 -25 0 -29 5 -40 53 -6
29 -12 61 -12 72 0 11 -5 37 -11 57 -9 33 -14 38 -39 38 -30 0 -47 6 -139 47
-67 30 -169 130 -199 196 -37 79 -55 190 -49 293 8 114 12 127 39 113 11 -6
21 -9 22 -7 8 10 25 71 36 123 7 33 20 85 27 115 8 30 17 65 20 78 6 23 27 30
39 10 9 -14 34 18 34 45 0 35 23 97 36 97 7 0 34 -33 61 -73z"/>
<path d="M11632 1080 c1 -105 0 -190 -3 -190 -13 0 -99 96 -114 126 -9 19 -20
34 -25 34 -13 0 -13 -1 4 -42 13 -30 85 -109 138 -150 12 -10 58 -171 58 -205
0 -10 -54 9 -98 34 -24 15 -69 51 -98 81 -34 35 -54 50 -54 39 0 -38 195 -187
246 -187 6 0 16 -12 22 -27 54 -145 67 -175 74 -179 14 -9 9 21 -17 87 -38 96
-41 128 -15 180 33 66 96 148 158 205 37 35 51 54 42 59 -17 10 -130 -109
-186 -196 -24 -38 -48 -69 -53 -69 -9 0 -11 9 -29 120 -9 53 -8 57 30 123 21
37 62 97 89 133 28 37 48 69 45 72 -11 10 -48 -33 -108 -123 -33 -49 -64 -91
-68 -93 -12 -5 -20 83 -20 224 0 90 -4 134 -11 134 -8 0 -10 -57 -7 -190z"/>
<path d="M365 728 c-2 -7 -11 -53 -20 -103 -10 -49 -22 -95 -27 -102 -5 -6
-35 -19 -66 -29 -31 -9 -84 -32 -117 -50 -64 -35 -144 -98 -135 -108 3 -3 21
8 40 24 47 40 150 94 232 120 63 20 68 24 78 58 5 20 10 45 10 54 0 9 5 39 12
67 10 43 15 51 34 51 13 0 25 -4 28 -9 5 -8 -7 -95 -24 -174 -8 -37 -8 -38 48
-76 79 -54 135 -115 170 -186 35 -69 57 -173 48 -228 -5 -29 -3 -38 6 -35 19
7 21 109 4 179 -9 33 -28 81 -43 107 -28 49 -122 148 -182 192 l-34 25 12 75
c7 41 14 87 17 103 5 24 1 29 -30 42 -43 18 -55 19 -61 3z"/>
<path d="M10301 726 c-5 -6 -16 -53 -25 -105 -17 -98 -27 -121 -56 -121 -24 0
-114 -39 -192 -83 -102 -57 -175 -153 -207 -273 -14 -51 -14 -144 -1 -144 6 0
10 22 10 48 0 59 22 148 50 199 52 92 210 201 342 234 51 12 54 17 68 103 15
90 25 121 42 124 30 6 36 -28 22 -108 -20 -115 -19 -121 27 -150 64 -39 144
-125 177 -189 33 -65 57 -184 47 -232 -5 -24 -4 -30 6 -27 18 6 23 73 10 145
-22 120 -109 245 -222 320 -41 27 -41 28 -34 73 20 134 22 156 19 165 -7 17
-73 34 -83 21z"/>
<path d="M5181 673 c-32 -157 -39 -173 -68 -173 -28 0 -169 -64 -218 -99 -118
-83 -175 -182 -190 -327 -4 -40 -3 -64 4 -68 7 -5 11 5 11 28 0 106 48 220
125 297 65 65 115 94 230 135 l90 31 20 104 c21 105 31 121 64 100 12 -8 11
-25 -4 -116 -9 -58 -16 -107 -14 -109 2 -1 28 -17 57 -35 130 -82 212 -228
212 -378 0 -35 4 -63 10 -63 13 0 13 138 -1 181 -35 112 -116 219 -208 278
-48 31 -49 33 -44 74 3 23 9 58 14 77 11 43 12 97 1 104 -4 2 -23 7 -43 11
l-35 7 -13 -59z"/>
<path d="M370 430 c-1 -8 -2 -53 -2 -100 0 -47 -5 -97 -11 -112 -19 -43 -124
-125 -222 -174 -75 -36 -85 -44 -59 -44 48 0 134 48 237 133 l47 39 0 -44 c-1
-23 -5 -62 -9 -85 -6 -32 -5 -43 4 -43 16 0 25 45 25 121 0 43 4 59 14 59 19
0 100 -90 125 -139 23 -44 47 -57 35 -18 -11 36 -63 106 -115 155 l-49 46 -1
91 c0 49 -4 99 -9 110 -6 14 -9 16 -10 5z"/>
<path d="M5190 323 l0 -111 -42 -42 c-53 -53 -113 -94 -198 -137 -51 -26 -60
-32 -39 -33 36 0 128 49 204 110 35 28 66 47 69 42 3 -5 0 -39 -5 -76 -6 -37
-8 -70 -4 -74 10 -11 25 21 26 58 0 19 4 55 7 80 l7 44 44 -39 c24 -22 57 -63
73 -92 17 -29 36 -53 43 -53 25 0 -26 80 -93 150 l-63 65 -2 97 c-2 60 -7 102
-15 110 -9 9 -12 -12 -12 -99z"/>
<path d="M10299 428 c0 -2 -2 -52 -2 -112 l-2 -109 -61 -56 c-34 -31 -101 -77
-150 -103 -69 -37 -83 -48 -62 -48 39 0 152 65 223 129 l40 36 3 -32 c2 -17
-1 -54 -6 -82 -7 -39 -6 -51 3 -51 17 0 25 33 25 108 0 54 2 62 19 62 17 0 38
-20 92 -87 9 -11 22 -34 30 -51 14 -32 47 -47 35 -16 -15 39 -83 129 -122 162
l-44 36 0 103 c0 57 -4 105 -10 108 -5 3 -10 5 -11 3z"/>
<path d="M2872 249 c-12 -22 -22 -49 -22 -58 0 -10 -3 -21 -7 -25 -9 -8 -31
-110 -32 -143 -1 -13 4 -23 9 -23 6 0 10 19 11 43 0 55 50 201 69 205 9 1 20
-11 29 -30 7 -18 26 -60 41 -93 l29 -60 -19 -33 c-16 -26 -17 -32 -5 -32 8 0
15 5 15 10 0 6 7 10 15 10 8 0 15 -4 15 -10 0 -5 7 -10 16 -10 13 0 14 3 5 14
-21 25 6 28 55 7 74 -33 99 -24 29 10 -33 16 -72 33 -87 38 -17 6 -32 22 -39
38 -5 15 -22 52 -36 81 -19 40 -23 56 -14 65 8 8 11 8 11 -1 0 -7 5 -12 10
-12 22 0 158 -102 227 -171 40 -39 77 -69 83 -67 15 5 -133 151 -190 188 -25
16 -50 33 -55 37 -22 17 -116 63 -128 63 -7 0 -23 -18 -35 -41z"/>
<path d="M7986 265 c-9 -13 -16 -30 -16 -38 0 -7 -4 -17 -9 -22 -14 -17 -41
-130 -40 -171 1 -37 2 -36 15 21 24 104 57 195 70 195 8 0 23 -21 35 -47 12
-27 30 -66 40 -87 23 -48 23 -60 3 -91 -14 -22 -15 -25 -1 -25 8 0 17 6 20 13
4 9 7 9 18 -1 20 -18 31 -15 24 8 -8 25 2 25 61 0 71 -31 88 -18 19 14 -33 16
-70 32 -82 37 -22 8 -107 165 -97 180 11 19 151 -78 249 -173 44 -43 85 -76
90 -74 16 6 -144 157 -220 207 -71 46 -135 79 -153 79 -5 0 -17 -11 -26 -25z"/>
<path d="M12934 253 c-12 -21 -26 -58 -34 -83 -7 -25 -16 -58 -21 -74 -12 -39
-11 -96 1 -96 6 0 10 17 10 37 0 21 12 77 27 125 21 67 32 88 45 88 10 0 18
-4 18 -10 0 -5 13 -39 30 -74 41 -91 45 -112 26 -141 -14 -22 -15 -25 -1 -25
8 0 15 5 15 10 0 6 7 10 15 10 8 0 15 -4 15 -10 0 -5 5 -10 11 -10 6 0 8 9 4
20 -8 26 9 26 64 -1 23 -11 50 -18 59 -16 17 4 -16 22 -110 60 -31 13 -42 27
-72 93 -47 100 -46 109 1 83 60 -34 174 -124 233 -183 50 -52 76 -69 68 -46
-7 21 -118 127 -183 174 -77 56 -165 106 -187 106 -8 0 -23 -17 -34 -37z"/>
</g>
</svg>
