<?xml version="1.0" standalone="no"?>
<!DOCTYPE svg PUBLIC "-//W3C//DTD SVG 20010904//EN"
 "http://www.w3.org/TR/2001/REC-SVG-20010904/DTD/svg10.dtd">
<svg version="1.0" xmlns="http://www.w3.org/2000/svg"
 width="1358.000000pt" height="609.000000pt" viewBox="0 0 1358.000000 609.000000"
 preserveAspectRatio="xMidYMid meet">

<g transform="translate(0.000000,609.000000) scale(0.100000,-0.100000)"
fill="#000000" stroke="none">
<path d="M0 3045 c0 -2023 3 -3045 10 -3045 6 0 10 9 10 20 0 11 11 27 25 36
l26 17 -21 22 c-11 12 -18 24 -14 27 3 4 0 16 -6 28 -8 15 -8 25 -1 34 6 8 9
21 5 30 -4 10 -1 16 9 16 25 0 29 28 4 32 -15 2 -23 11 -25 28 l-4 25 22 -23
c23 -24 43 -21 38 6 -1 10 1 23 5 30 13 20 -21 26 -40 6 -17 -17 -18 -17 -21
0 -2 10 1 23 7 29 6 6 11 19 11 29 0 10 5 18 10 18 6 0 10 7 10 15 0 8 -6 15
-14 15 -22 0 -28 17 -14 39 9 15 9 23 -1 35 -11 13 -11 19 -1 31 7 8 10 22 6
30 -3 9 0 15 9 15 26 0 26 20 1 30 -29 11 -32 20 -14 38 10 10 10 17 0 33 -16
25 2 56 23 39 14 -11 25 -3 25 18 0 10 -7 12 -25 8 -14 -4 -25 -2 -25 4 0 5 7
10 15 10 22 0 18 31 -5 37 -23 6 -25 14 -8 31 10 10 10 17 0 33 -7 11 -9 25
-5 32 11 18 12 70 1 84 -6 7 -5 19 4 33 11 17 11 22 -2 30 -12 8 -13 13 -3 29
7 11 10 27 7 36 -4 10 0 15 11 15 10 0 15 6 13 18 -2 9 -8 17 -15 17 -20 0
-25 13 -12 33 10 17 10 23 0 36 -10 12 -11 19 -2 30 6 8 10 19 9 24 -2 6 6 17
17 26 20 14 19 15 -7 25 -25 9 -28 16 -28 55 0 48 24 83 36 51 5 -11 1 -21 -9
-27 -10 -5 -17 -15 -17 -22 0 -13 31 -46 42 -46 3 0 6 30 5 66 -1 63 -1 65
-24 59 -13 -3 -23 -1 -23 5 0 5 6 10 14 10 27 0 28 20 2 30 -29 11 -32 20 -14
38 10 10 10 17 0 33 -10 15 -10 24 -2 34 6 7 8 19 5 27 -4 10 2 17 16 21 19 5
20 8 9 21 -7 9 -19 16 -26 16 -17 0 -18 12 -3 27 8 8 7 16 -2 31 -10 17 -10
23 1 36 7 9 10 19 7 22 -3 4 4 15 16 24 l22 18 -27 11 c-32 12 -33 14 -15 41
10 17 9 22 -2 29 -9 6 -11 15 -6 27 12 29 14 78 3 91 -6 7 -5 19 4 33 11 17
11 22 -2 30 -12 7 -12 13 -1 33 7 14 10 30 7 36 -4 6 0 11 8 11 9 0 16 7 16
15 0 8 -6 15 -14 15 -22 0 -28 17 -14 39 9 15 9 23 -1 35 -10 12 -11 19 -2 30
6 7 9 21 5 30 -4 10 -1 16 9 16 25 0 29 28 4 32 -15 2 -23 11 -25 28 l-4 25
22 -23 c23 -24 43 -21 38 6 -1 10 1 23 5 30 13 20 -21 26 -40 6 -17 -17 -18
-17 -21 0 -2 9 2 23 8 31 7 8 10 22 6 30 -3 9 0 15 9 15 8 0 15 7 15 15 0 8
-6 15 -14 15 -22 0 -29 19 -15 36 10 13 10 20 0 36 -9 15 -9 23 0 34 6 7 9 21
5 29 -3 9 0 15 9 15 8 0 15 7 15 15 0 8 -6 15 -14 15 -22 0 -28 17 -14 39 9
15 9 23 -1 35 -17 21 4 53 24 36 14 -11 25 -3 25 18 0 10 -7 12 -25 8 -14 -4
-25 -2 -25 4 0 5 7 10 15 10 22 0 18 31 -5 37 -23 6 -25 14 -8 31 10 10 10 17
0 33 -7 11 -9 25 -5 32 11 18 12 70 1 84 -6 7 -5 19 4 33 11 17 11 22 -2 30
-12 8 -13 13 -3 29 7 11 10 27 7 36 -4 10 0 15 10 15 9 0 16 7 16 15 0 8 -6
15 -14 15 -22 0 -28 17 -14 39 9 15 9 23 -1 35 -10 12 -11 19 -2 30 6 7 9 21
5 30 -4 10 -1 16 9 16 28 0 29 20 3 30 -23 8 -26 15 -26 54 0 48 24 83 36 51
5 -11 1 -21 -9 -27 -10 -5 -17 -15 -17 -22 0 -13 31 -46 42 -46 3 0 6 30 5 66
-1 58 -3 65 -19 61 -10 -3 -21 -1 -24 4 -3 5 2 9 10 9 23 0 20 28 -4 35 -23 7
-25 16 -8 33 10 10 10 17 0 33 -10 15 -10 24 -2 34 6 7 8 20 4 29 -4 12 0 16
16 16 25 0 22 19 -6 34 -10 6 -21 12 -23 13 -2 2 2 9 8 17 9 11 9 19 0 34 -10
17 -10 23 1 36 7 9 10 19 7 22 -3 4 4 15 16 24 l22 18 -27 11 c-32 12 -33 14
-15 41 10 17 9 22 -2 29 -9 6 -11 15 -6 27 12 29 14 78 3 91 -6 7 -5 19 4 33
11 17 11 22 -2 30 -12 8 -13 13 -3 29 7 11 10 27 7 36 -4 10 0 15 10 15 9 0
16 7 16 15 0 8 -6 15 -14 15 -22 0 -28 17 -14 39 9 15 9 23 -1 35 -10 12 -11
19 -2 30 6 7 9 21 5 30 -4 10 -1 16 9 16 25 0 29 28 4 32 -15 2 -23 11 -25 28
l-4 25 22 -23 c23 -24 43 -21 38 6 -1 10 1 23 5 30 13 20 -21 26 -40 6 -17
-17 -18 -17 -21 0 -2 10 1 23 7 29 6 6 11 19 11 29 0 10 5 18 10 18 6 0 10 7
10 15 0 8 -6 15 -14 15 -22 0 -28 17 -14 39 9 15 9 23 -1 35 -11 13 -11 19 -1
31 7 8 10 22 6 30 -3 9 0 15 9 15 26 0 26 20 1 30 -29 11 -32 20 -14 38 10 10
10 17 0 33 -16 25 2 56 23 39 14 -11 25 -3 25 18 0 10 -7 12 -25 8 -14 -4 -25
-2 -25 4 0 5 7 10 15 10 22 0 18 31 -5 37 -23 6 -25 14 -8 31 10 10 10 17 0
33 -7 11 -9 25 -5 32 11 18 12 70 1 84 -6 7 -5 19 4 33 11 17 11 22 -2 30 -12
8 -13 13 -3 29 7 11 10 27 7 36 -4 10 0 15 11 15 10 0 15 6 13 18 -2 9 -8 17
-15 17 -20 0 -25 13 -12 33 10 17 10 23 0 36 -10 12 -11 19 -2 30 6 8 10 19 9
24 -2 6 6 17 17 26 20 14 19 15 -7 25 -25 9 -28 16 -28 55 0 48 24 83 36 51 5
-11 1 -21 -9 -27 -10 -5 -17 -15 -17 -22 0 -13 31 -46 42 -46 3 0 6 30 5 66
-1 63 -1 65 -24 59 -13 -3 -23 -1 -23 5 0 5 6 10 14 10 27 0 28 20 2 30 -29
11 -32 20 -14 38 10 10 10 17 0 32 -17 28 -15 67 6 79 16 9 16 10 0 16 -13 5
-18 18 -18 46 0 21 -4 39 -10 39 -7 0 -10 -1022 -10 -3045z"/>
<path d="M50 6081 c0 -18 17 -20 36 -6 18 14 18 14 -8 15 -16 0 -28 -4 -28 -9z"/>
<path d="M480 6071 c0 -32 20 -35 48 -7 l27 26 -38 0 c-30 0 -37 -4 -37 -19z"/>
<path d="M1560 6071 c0 -32 20 -35 48 -7 l27 26 -38 0 c-30 0 -37 -4 -37 -19z"/>
<path d="M2640 6071 c0 -32 20 -35 48 -7 l27 26 -38 0 c-30 0 -37 -4 -37 -19z"/>
<path d="M3720 6071 c0 -32 20 -35 48 -7 l27 26 -38 0 c-30 0 -37 -4 -37 -19z"/>
<path d="M4740 6050 c0 -22 -4 -40 -10 -40 -5 0 -10 -11 -10 -25 0 -14 5 -25
10 -25 6 0 10 -4 10 -10 0 -5 -7 -10 -15 -10 -25 0 -27 -25 -6 -64 23 -41 27
-56 9 -38 -9 9 -15 9 -25 0 -11 -9 -10 -15 8 -34 22 -23 18 -54 -5 -35 -6 5
-18 6 -25 2 -10 -7 -8 -13 10 -30 13 -12 29 -19 36 -17 16 7 17 -6 1 -22 -9
-9 -9 -15 0 -24 18 -18 15 -27 -8 -21 -26 7 -27 -18 0 -37 14 -10 17 -17 8
-27 -8 -10 -14 -11 -25 -2 -11 9 -17 9 -26 0 -9 -10 -6 -18 16 -36 15 -13 27
-33 27 -45 0 -11 5 -20 10 -20 6 0 10 -5 10 -11 0 -8 -5 -8 -15 1 -22 18 -32
-15 -11 -35 20 -20 20 -24 -1 -47 -15 -17 -15 -21 6 -60 20 -38 21 -71 1 -38
-7 12 -10 12 -16 -3 -4 -10 0 -25 8 -35 8 -9 13 -25 10 -35 -4 -18 -4 -18 -17
0 -11 14 -16 15 -26 6 -10 -10 -8 -18 12 -40 40 -46 65 -99 34 -73 -22 18 -32
-15 -11 -35 21 -21 20 -28 -4 -50 -17 -15 -18 -21 -8 -34 14 -18 38 -58 38
-65 0 -2 -9 -2 -20 1 -14 4 -20 0 -20 -11 0 -9 4 -16 9 -16 17 0 21 -33 6 -50
-17 -19 -20 -40 -5 -40 6 0 10 -9 10 -19 0 -11 5 -23 10 -26 6 -3 10 -11 10
-17 0 -7 -5 -6 -15 2 -22 18 -32 -15 -11 -35 25 -26 15 -55 -11 -33 -10 8 -17
8 -26 -1 -9 -10 -7 -17 12 -32 13 -11 30 -18 38 -15 16 7 17 -6 1 -22 -9 -9
-9 -15 0 -24 17 -17 15 -33 -3 -18 -21 18 -32 -15 -13 -38 8 -9 13 -25 10 -35
-4 -18 -4 -18 -18 0 -12 16 -15 16 -23 3 -7 -11 -4 -22 12 -40 27 -30 47 -66
47 -82 0 -6 -6 -3 -14 8 -13 18 -15 18 -21 2 -4 -10 0 -24 9 -33 20 -20 20
-24 0 -46 -14 -16 -14 -22 -3 -48 8 -17 17 -31 21 -31 5 0 8 -10 8 -22 0 -21
0 -21 -14 -2 -14 18 -15 18 -22 1 -3 -10 -2 -23 5 -30 6 -6 11 -20 11 -30 0
-16 -2 -17 -15 -7 -13 10 -18 11 -28 1 -9 -10 -6 -18 16 -36 30 -26 33 -45 15
-75 -10 -16 -9 -22 10 -38 22 -19 22 -19 2 -37 -21 -19 -27 -45 -10 -45 6 0
10 -9 10 -19 0 -11 5 -23 10 -26 18 -11 11 -23 -10 -18 -24 6 -27 -12 -5 -34
14 -13 13 -18 -1 -42 -15 -25 -15 -29 5 -64 24 -43 26 -54 8 -38 -10 8 -17 7
-25 -1 -9 -9 -7 -17 9 -34 22 -23 18 -54 -5 -35 -6 5 -18 6 -25 2 -17 -11 25
-52 45 -44 8 3 14 1 14 -5 0 -6 -6 -12 -12 -15 -10 -3 -10 -9 0 -26 17 -28 15
-33 -7 -26 -30 9 -34 -10 -6 -31 18 -14 21 -21 13 -31 -8 -10 -14 -11 -25 -2
-11 9 -17 9 -26 0 -9 -10 -6 -18 16 -36 15 -13 27 -31 27 -39 0 -8 5 -18 10
-21 6 -3 10 -11 10 -17 0 -7 -5 -6 -15 2 -22 18 -32 -15 -11 -35 20 -20 20
-24 -1 -47 -15 -17 -15 -21 6 -60 20 -38 21 -71 1 -38 -7 12 -10 11 -16 -4 -5
-14 -1 -25 15 -38 13 -10 18 -18 12 -18 -6 0 -11 -8 -11 -17 0 -15 -2 -14 -14
3 -12 15 -17 16 -27 7 -10 -10 -8 -18 12 -40 39 -45 65 -99 35 -74 -10 9 -16
8 -26 -4 -10 -12 -9 -16 3 -21 26 -10 29 -36 6 -60 -20 -21 -20 -24 -5 -30 9
-3 16 -14 16 -24 0 -11 5 -22 10 -25 18 -11 11 -23 -10 -18 -26 7 -26 -14 0
-37 20 -17 20 -17 0 -35 -21 -19 -27 -45 -10 -45 6 0 10 -9 10 -19 0 -11 5
-23 10 -26 6 -3 10 -14 10 -23 0 -13 -2 -13 -14 4 -14 18 -15 18 -21 1 -5 -12
0 -24 13 -36 16 -13 18 -21 10 -29 -9 -9 -15 -9 -25 0 -10 8 -17 8 -26 -1 -9
-10 -7 -17 12 -32 13 -11 30 -18 38 -15 16 7 17 -6 1 -22 -9 -9 -9 -15 0 -24
17 -17 15 -33 -2 -19 -10 8 -16 8 -25 -2 -8 -11 -7 -18 8 -31 11 -10 17 -25
14 -37 -5 -18 -6 -19 -19 -2 -10 14 -15 15 -25 6 -10 -10 -8 -18 12 -40 40
-46 65 -99 34 -73 -22 18 -32 -15 -11 -35 20 -20 20 -24 -1 -47 -15 -17 -15
-21 5 -59 26 -48 27 -56 7 -39 -12 10 -16 9 -22 -5 -4 -12 1 -24 15 -35 15
-13 18 -20 10 -28 -9 -9 -15 -9 -25 0 -10 8 -17 8 -26 -1 -9 -10 -6 -18 16
-36 15 -13 27 -33 27 -45 0 -11 5 -20 10 -20 6 0 10 -5 10 -11 0 -8 -5 -8 -15
1 -22 18 -32 -15 -11 -35 20 -20 20 -24 -1 -47 -15 -17 -15 -21 5 -59 27 -50
27 -48 2 -42 -24 6 -27 -12 -5 -34 14 -13 13 -18 -1 -42 -15 -25 -15 -29 5
-64 23 -42 27 -57 9 -39 -9 9 -15 9 -25 0 -11 -9 -10 -15 8 -34 22 -23 18 -54
-5 -35 -7 6 -17 6 -26 0 -13 -8 -11 -12 10 -28 18 -14 28 -17 37 -9 17 14 18
-13 1 -30 -9 -9 -9 -15 0 -24 18 -18 15 -27 -8 -21 -26 7 -27 -18 0 -37 14
-10 17 -17 8 -27 -8 -10 -14 -11 -25 -2 -11 9 -17 9 -26 0 -9 -10 -6 -18 16
-36 15 -13 27 -31 27 -39 0 -8 5 -18 10 -21 6 -3 10 -11 10 -17 0 -7 -5 -6
-15 2 -22 18 -32 -15 -11 -35 20 -20 20 -24 -1 -47 -15 -17 -15 -21 6 -60 20
-38 21 -71 1 -38 -7 12 -10 12 -16 -3 -4 -10 0 -25 8 -35 8 -9 13 -25 10 -35
-4 -18 -4 -18 -17 0 -11 14 -16 15 -26 6 -10 -10 -8 -18 12 -40 40 -46 65 -99
34 -73 -22 18 -32 -15 -11 -36 16 -16 14 -26 -12 -56 -13 -16 -13 -18 2 -24 9
-3 16 -14 16 -24 0 -11 5 -22 10 -25 16 -10 12 -25 -5 -19 -30 12 -38 -8 -11
-31 26 -22 26 -22 6 -40 -21 -19 -27 -45 -10 -45 14 0 13 -36 -2 -60 -10 -16
-9 -22 10 -38 16 -14 18 -22 10 -30 -8 -8 -15 -8 -24 -1 -14 11 -34 4 -34 -11
0 -5 12 -17 26 -26 22 -15 27 -15 35 -3 7 12 9 11 9 -3 0 -9 -6 -18 -12 -21
-10 -3 -10 -9 0 -26 16 -28 15 -36 -3 -21 -21 18 -32 -15 -13 -38 8 -9 13 -25
10 -35 -4 -18 -4 -18 -18 0 -12 16 -15 16 -24 3 -8 -11 -4 -20 15 -37 32 -28
31 -40 -2 -75 -21 -22 -36 -28 -70 -28 -39 0 -43 -2 -43 -25 0 -24 2 -25 65
-25 l65 0 0 29 c0 16 6 31 15 35 8 3 15 1 15 -3 0 -5 -6 -11 -12 -14 -10 -3
-10 -9 -2 -23 11 -19 118 -19 4399 -22 l4388 -2 33 32 34 33 0 650 -1 650 -24
28 -24 27 -606 0 -605 0 0 1216 0 1216 -22 -5 c-29 -7 -134 -35 -173 -47 -16
-5 -64 -21 -105 -35 -64 -23 -85 -27 -143 -22 -38 3 -99 17 -135 30 -37 14
-110 39 -163 56 -53 18 -114 41 -135 51 -21 11 -45 20 -53 20 -15 0 -90 33
-156 68 -16 9 -77 40 -135 68 l-105 51 -5 -664 -5 -665 -24 -19 c-27 -22 26
-21 -681 -19 -482 1 -517 2 -540 19 l-25 18 -3 850 c-2 848 -2 850 19 877 l20
26 598 0 598 0 21 -23 c12 -13 22 -32 23 -43 0 -11 3 -14 6 -6 4 10 8 10 19 1
12 -10 13 -8 8 7 -4 10 -4 16 0 12 11 -10 108 21 131 42 11 10 47 28 79 39 33
11 71 32 86 46 21 20 36 25 78 25 29 0 52 5 52 10 0 7 348 10 1024 10 l1024 0
41 42 41 41 0 651 -1 651 -24 28 -24 27 -606 0 c-397 0 -605 3 -605 10 0 7
-1270 10 -3790 10 l-3790 0 0 -40z m8790 -34 c0 -8 7 -16 15 -20 9 -3 15 -18
15 -35 0 -16 -6 -31 -15 -35 -8 -3 -15 -12 -15 -21 0 -8 7 -15 15 -15 9 0 15
-9 15 -25 0 -14 -7 -28 -15 -31 -9 -4 -15 -19 -15 -35 0 -17 6 -32 15 -35 8
-4 15 -17 15 -30 0 -15 -6 -24 -15 -24 -10 0 -15 -10 -15 -30 0 -18 6 -33 15
-36 8 -4 15 -14 15 -24 0 -10 -7 -20 -15 -24 -12 -4 -15 -26 -15 -110 0 -90 2
-105 18 -111 16 -6 16 -7 0 -16 -24 -13 -26 -127 -3 -135 11 -4 15 -21 15 -55
0 -35 -4 -51 -15 -55 -9 -4 -15 -19 -15 -35 0 -17 6 -32 15 -35 8 -4 15 -17
15 -30 0 -15 -6 -24 -15 -24 -10 0 -15 -10 -15 -30 0 -18 6 -33 15 -36 8 -4
15 -14 15 -24 0 -10 -7 -20 -15 -24 -22 -8 -21 -92 1 -100 16 -6 16 -8 0 -24
-9 -10 -16 -26 -16 -35 0 -12 -9 -17 -32 -17 -17 0 -40 -8 -51 -17 -18 -17
-19 -17 -32 0 -15 21 -31 22 -39 2 -3 -8 -15 -15 -26 -15 -11 0 -23 7 -26 15
-8 20 -60 20 -68 0 -8 -21 -104 -21 -112 0 -5 11 -24 15 -80 15 -57 0 -76 -4
-80 -15 -4 -8 -15 -15 -25 -15 -11 0 -22 7 -25 15 -4 8 -12 15 -19 15 -7 0
-15 -7 -19 -15 -3 -8 -15 -15 -26 -15 -11 0 -23 7 -26 15 -9 23 -120 21 -129
-2 -6 -17 -7 -17 -16 0 -12 21 -38 22 -45 2 -8 -19 -43 -19 -50 0 -8 20 -60
20 -68 0 -8 -21 -104 -21 -112 0 -9 22 -149 22 -158 0 -7 -19 -45 -19 -52 0
-8 19 -33 19 -40 0 -8 -19 -40 -19 -48 0 -9 23 -121 21 -131 -2 -6 -17 -7 -17
-20 1 -14 19 -45 16 -45 -4 0 -16 -40 -12 -46 5 -8 20 -60 20 -68 0 -8 -21
-104 -21 -112 0 -9 22 -152 22 -160 0 -8 -19 -43 -19 -50 0 -8 19 -33 19 -40
0 -8 -19 -43 -19 -50 0 -9 23 -120 21 -129 -3 -6 -16 -7 -16 -16 1 -12 21 -38
22 -45 2 -8 -19 -43 -19 -50 0 -8 20 -60 20 -68 0 -8 -21 -104 -21 -112 0 -5
11 -23 15 -79 15 -56 0 -74 -4 -79 -15 -3 -8 -15 -15 -26 -15 -11 0 -23 7 -26
15 -8 19 -33 19 -40 0 -8 -19 -40 -19 -48 0 -9 23 -121 21 -131 -2 -6 -17 -7
-17 -20 1 -14 19 -45 16 -45 -4 0 -16 -40 -12 -46 5 -8 20 -60 20 -68 0 -8
-21 -104 -21 -112 0 -9 22 -152 22 -160 0 -4 -8 -15 -15 -25 -15 -11 0 -22 7
-25 15 -8 19 -33 19 -40 0 -8 -19 -43 -19 -50 0 -9 23 -120 21 -129 -3 -6 -16
-7 -16 -16 1 -12 21 -38 22 -45 2 -4 -8 -15 -15 -25 -15 -11 0 -22 7 -25 15
-4 8 -18 15 -34 15 -16 0 -30 -7 -34 -15 -4 -11 -20 -15 -56 -15 -36 0 -52 4
-56 15 -5 11 -23 15 -79 15 -56 0 -74 -4 -79 -15 -3 -8 -15 -15 -26 -15 -11 0
-23 7 -26 15 -8 19 -30 19 -38 0 -7 -19 -42 -19 -50 0 -8 23 -114 21 -132 -2
-12 -17 -13 -17 -19 0 -9 21 -31 22 -39 2 -3 -8 -15 -15 -26 -15 -11 0 -23 7
-26 15 -8 20 -60 20 -68 0 -4 -11 -20 -15 -56 -15 -36 0 -52 4 -56 15 -9 22
-152 22 -160 0 -8 -19 -43 -19 -50 0 -8 19 -30 19 -38 0 -7 -19 -45 -19 -52 0
-9 23 -120 21 -129 -2 -6 -17 -7 -17 -16 0 -12 21 -38 22 -45 2 -4 -8 -15 -15
-25 -15 -11 0 -22 7 -25 15 -4 8 -18 15 -34 15 -16 0 -30 -7 -34 -15 -4 -11
-20 -15 -56 -15 -36 0 -52 4 -56 15 -5 11 -23 15 -79 15 -56 0 -74 -4 -79 -15
-3 -8 -15 -15 -26 -15 -11 0 -23 7 -26 15 -4 8 -12 15 -19 15 -7 0 -15 -7 -19
-15 -3 -8 -14 -15 -25 -15 -10 0 -21 7 -25 15 -8 23 -114 21 -132 -2 -12 -17
-13 -17 -19 0 -9 21 -31 22 -39 2 -3 -8 -15 -15 -26 -15 -11 0 -23 7 -26 15
-4 8 -18 15 -34 15 -16 0 -30 -7 -34 -15 -4 -11 -20 -15 -56 -15 -36 0 -52 4
-56 15 -5 11 -24 15 -80 15 -57 0 -76 -4 -80 -15 -4 -8 -15 -15 -25 -15 -11 0
-22 7 -25 15 -4 8 -12 15 -19 15 -7 0 -15 -7 -19 -15 -3 -8 -15 -15 -26 -15
-11 0 -23 7 -26 15 -9 23 -120 21 -129 -2 -6 -17 -7 -17 -16 0 -12 21 -38 22
-45 2 -4 -8 -15 -15 -25 -15 -11 0 -22 7 -25 15 -4 8 -18 15 -34 15 -16 0 -30
-7 -34 -15 -4 -11 -20 -15 -56 -15 -36 0 -52 4 -56 15 -5 11 -23 15 -79 15
-56 0 -74 -4 -79 -15 -3 -8 -15 -15 -26 -15 -11 0 -23 7 -26 15 -4 8 -12 15
-19 15 -7 0 -15 -7 -19 -15 -3 -8 -14 -15 -25 -15 -10 0 -21 7 -25 15 -8 23
-114 21 -132 -2 -12 -17 -13 -17 -19 0 -9 21 -31 22 -39 2 -3 -8 -15 -15 -26
-15 -11 0 -23 7 -26 15 -4 8 -18 15 -34 15 -16 0 -30 -7 -34 -15 -4 -11 -20
-15 -56 -15 -36 0 -52 4 -56 15 -5 11 -24 15 -80 15 -57 0 -76 -4 -80 -15 -4
-8 -15 -15 -25 -15 -11 0 -22 7 -25 15 -4 8 -12 15 -19 15 -7 0 -15 -7 -19
-15 -3 -8 -15 -15 -26 -15 -11 0 -23 7 -26 15 -9 23 -120 21 -129 -2 -6 -17
-7 -17 -16 0 -12 21 -38 22 -45 2 -4 -8 -15 -15 -25 -15 -11 0 -22 7 -25 15
-4 8 -18 15 -34 15 -16 0 -30 -7 -34 -15 -4 -11 -20 -15 -56 -15 -36 0 -52 4
-56 15 -5 11 -23 15 -79 15 -56 0 -74 -4 -79 -15 -8 -21 -42 -19 -51 3 -6 16
-7 16 -16 0 -12 -21 -79 -25 -79 -5 0 6 -14 21 -30 32 l-30 20 0 628 c0 583 1
628 18 646 17 19 93 19 4335 20 3684 1 4317 -1 4317 -13z m-4845 -1531 l25
-24 0 -846 0 -846 -25 -24 -24 -25 -591 0 -591 0 -24 25 -25 24 0 846 0 846
25 24 24 25 591 0 591 0 24 -25z m670 -545 c33 -17 74 -39 92 -51 18 -11 60
-24 95 -29 64 -9 92 -29 81 -56 -6 -17 -138 -20 -148 -4 -4 7 2 9 19 4 16 -4
26 -2 26 5 0 6 -17 11 -38 11 -29 0 -48 8 -78 33 -80 68 -103 79 -168 84 -37
3 -79 0 -102 -7 -43 -14 -104 -55 -104 -71 0 -6 17 2 38 17 44 33 28 15 -51
-55 -41 -37 -65 -51 -87 -51 -16 0 -32 5 -35 10 -4 6 6 10 22 10 15 0 34 4 41
9 8 5 -5 8 -35 8 -103 -1 -144 9 -113 28 5 3 38 11 72 16 46 7 78 21 121 51
81 54 118 66 212 67 70 1 88 -3 140 -29z m-113 -50 c25 -7 44 -22 59 -46 11
-19 19 -37 16 -40 -3 -3 -8 4 -12 15 -6 21 -50 61 -67 61 -5 0 7 -15 26 -34
36 -33 51 -84 22 -73 -9 4 -16 -3 -20 -19 -4 -14 -21 -33 -39 -44 -17 -11 -26
-20 -19 -20 24 0 12 -19 -15 -23 -22 -3 -20 -4 10 -6 21 0 48 4 60 10 21 10
21 9 -2 -10 -46 -41 -134 -19 -171 42 -41 67 -10 160 60 184 44 15 47 15 92 3z
m376 -144 c5 -25 -15 -36 -63 -34 -34 1 -35 2 -10 5 57 8 51 23 -9 23 -57 0
-59 -1 -120 -59 -76 -74 -131 -95 -225 -89 -36 3 -75 8 -86 12 -11 3 -4 -1 15
-10 53 -25 130 -29 186 -10 39 12 45 13 30 1 -71 -54 -251 -31 -317 42 -13 15
-17 22 -9 18 13 -8 13 -6 1 8 -7 9 -18 14 -24 10 -6 -3 -7 -1 -3 5 12 20 -42
44 -109 50 -107 8 -100 37 10 41 62 2 64 1 114 -43 67 -60 103 -77 170 -83 87
-8 134 10 207 78 l64 60 88 -3 c76 -3 87 -5 90 -22z m-471 -226 c1 -18 0 -20
-4 -6 -4 16 -8 12 -19 -20 -8 -21 -14 -47 -14 -56 0 -10 -7 -18 -15 -18 -11 0
-13 11 -9 53 8 72 11 79 36 75 16 -2 24 -10 25 -28z m167 14 c3 -9 6 -37 6
-63 0 -41 -4 -49 -24 -59 -19 -8 -26 -8 -29 1 -2 7 -3 4 -2 -5 5 -32 -12 -19
-19 13 -9 46 -7 88 4 110 13 23 55 25 64 3z m201 -99 c14 -13 25 -32 25 -42 0
-14 -3 -13 -13 6 -6 14 -19 27 -27 29 -12 4 -11 1 3 -15 26 -30 22 -82 -10
-117 l-28 -29 34 23 c40 28 38 6 -2 -24 -39 -29 -111 -27 -159 5 -21 13 -38
28 -38 32 0 5 12 -1 26 -12 42 -33 49 -25 9 10 -19 17 -38 42 -41 55 -3 13
-10 21 -15 18 -5 -3 -6 1 -4 8 10 26 44 16 83 -23 40 -39 65 -47 92 -29 11 8
8 9 -13 4 -59 -14 -95 75 -45 110 35 25 94 20 123 -9z m-420 -67 c-4 -13 -23
-38 -43 -56 -59 -53 -62 -55 -62 -36 0 8 19 38 43 64 46 53 73 65 62 28z m442
-40 c-3 -8 -6 -5 -6 6 -1 11 2 17 5 13 3 -3 4 -12 1 -19z m1270 -632 c0 -8 -6
-12 -15 -9 -11 5 -11 7 0 14 7 5 13 9 14 9 0 0 1 -6 1 -14z m-197 -11 c0 -8
-4 -15 -10 -15 -5 0 -10 7 -10 15 0 8 5 15 10 15 6 0 10 -7 10 -15z m205 -25
c-3 -5 2 -10 12 -10 11 0 29 -17 43 -40 13 -22 43 -53 65 -70 22 -17 54 -53
70 -80 17 -27 36 -50 43 -50 6 0 12 -2 12 -4 0 -2 3 -12 6 -21 6 -15 4 -15
-15 -3 -20 11 -24 11 -39 -8 -10 -11 -26 -26 -37 -32 -17 -10 -14 -11 23 -12
24 0 42 -5 42 -11 0 -6 8 -1 19 12 l18 23 32 -36 c18 -20 44 -39 59 -43 17 -3
33 -16 40 -33 23 -51 57 -91 100 -114 38 -22 123 -102 605 -570 l142 -138
-477 0 -476 0 -6 23 c-3 12 -6 37 -6 55 0 20 -5 32 -14 32 -8 0 -18 19 -25 46
-7 26 -25 65 -40 88 -16 23 -31 51 -35 64 -4 12 -11 22 -16 22 -13 0 -30 68
-23 87 4 11 2 14 -5 9 -8 -4 -10 -2 -6 7 3 8 -2 17 -12 21 -16 6 -16 8 2 21
15 11 17 16 7 26 -10 10 -13 10 -13 1 0 -15 -30 -12 -48 5 -7 6 -15 27 -19 45
-4 18 -12 39 -20 46 -7 7 -13 27 -13 43 0 18 -4 28 -10 24 -5 -3 -10 2 -10 13
0 25 30 24 42 -2 14 -33 55 -46 117 -38 30 4 56 13 59 20 2 6 -3 12 -12 12
-12 0 -16 10 -16 40 0 33 -3 40 -20 40 -17 0 -20 7 -20 40 0 22 5 40 10 40 6
0 10 -8 10 -17 0 -14 2 -15 13 -4 10 11 10 14 0 18 -7 3 -13 15 -13 28 0 13
-4 27 -10 30 -5 3 -10 18 -10 33 -1 28 -30 72 -49 72 -7 0 -14 -7 -17 -15 -4
-9 -19 -15 -40 -15 -24 0 -34 5 -34 15 0 8 7 16 15 16 8 1 21 2 28 3 6 0 13
18 15 39 2 28 0 37 -12 37 -20 0 -23 76 -3 83 6 3 2 6 -10 6 -25 1 -43 21 -19
21 10 0 16 9 16 21 0 14 -5 19 -14 16 -8 -3 -16 2 -19 14 -3 12 0 19 10 19 8
0 11 -4 8 -10z m-216 -74 c22 -20 17 -84 -5 -65 -8 6 -14 17 -14 25 0 7 -8 29
-17 49 -15 31 -15 37 -3 45 11 7 16 4 18 -14 2 -13 11 -31 21 -40z m-172 -68
c-3 -8 -6 -5 -6 6 -1 11 2 17 5 13 3 -3 4 -12 1 -19z m1398 -108 c15 -17 17
-27 9 -58 -11 -45 -44 -55 -68 -20 -44 62 10 132 59 78z m-1108 -32 c-3 -7 -5
-2 -5 12 0 14 2 19 5 13 2 -7 2 -19 0 -25z m-40 -10 c-3 -8 -6 -5 -6 6 -1 11
2 17 5 13 3 -3 4 -12 1 -19z m46 -106 c4 -21 3 -31 -3 -27 -6 3 -10 17 -10 30
0 13 -5 25 -12 27 -7 3 -8 10 -3 17 10 17 19 1 28 -47z m37 -83 c0 -5 -4 -9
-10 -9 -5 0 -10 7 -10 16 0 8 5 12 10 9 6 -3 10 -10 10 -16z m30 1 c0 -5 -5
-10 -11 -10 -5 0 -7 5 -4 10 3 6 8 10 11 10 2 0 4 -4 4 -10z m-200 -142 c0
-13 -4 -29 -9 -36 -6 -10 -10 -6 -14 15 -6 30 -2 43 14 43 5 0 9 -10 9 -22z
m1515 -128 c0 -18 -6 -26 -22 -28 -26 -4 -43 35 -22 49 24 15 44 5 44 -21z
m-1403 -272 c-7 -7 -12 -25 -12 -40 0 -18 -5 -28 -15 -28 -9 0 -15 9 -15 25 0
14 4 25 10 25 5 0 13 12 16 26 5 18 10 22 17 15 8 -8 8 -14 -1 -23z m238 -122
c0 -16 -18 -31 -27 -22 -8 8 5 36 17 36 5 0 10 -6 10 -14z m137 -92 c-3 -3
-12 -4 -19 -1 -8 3 -5 6 6 6 11 1 17 -2 13 -5z m2453 -59 c0 -8 7 -15 15 -15
10 0 15 -10 15 -34 0 -21 -6 -36 -15 -40 -8 -3 -15 -12 -15 -21 0 -8 7 -15 15
-15 9 0 15 -9 15 -24 0 -13 -7 -26 -15 -30 -9 -3 -15 -18 -15 -36 0 -18 6 -33
15 -36 8 -4 15 -17 15 -30 0 -15 -6 -24 -15 -24 -10 0 -15 -10 -15 -30 0 -18
6 -33 15 -36 8 -4 15 -14 15 -24 0 -10 -7 -20 -15 -24 -12 -4 -15 -26 -15
-110 0 -90 2 -105 18 -111 16 -6 16 -7 0 -16 -24 -13 -26 -124 -3 -133 11 -4
15 -20 15 -55 0 -34 -4 -51 -15 -55 -9 -3 -15 -18 -15 -36 0 -18 6 -33 15 -36
8 -4 15 -17 15 -30 0 -15 -6 -24 -15 -24 -10 0 -15 -10 -15 -30 0 -18 6 -33
15 -36 8 -4 15 -14 15 -24 0 -10 -7 -20 -15 -24 -23 -8 -21 -92 3 -101 16 -6
16 -7 0 -16 -10 -6 -18 -21 -18 -34 0 -22 -4 -25 -36 -25 -23 0 -42 -7 -50
-17 -13 -17 -15 -17 -28 0 -16 21 -32 22 -40 2 -7 -19 -45 -19 -52 0 -8 20
-63 20 -70 0 -8 -21 -100 -21 -108 0 -8 22 -154 22 -162 0 -8 -19 -40 -19 -48
0 -7 19 -32 19 -40 0 -3 -8 -15 -15 -26 -15 -11 0 -23 7 -26 15 -9 23 -113 21
-130 -2 -12 -17 -13 -17 -19 0 -9 21 -31 22 -39 2 -7 -19 -45 -19 -52 0 -8 20
-63 20 -70 0 -8 -21 -100 -21 -108 0 -8 22 -154 22 -162 0 -8 -19 -40 -19 -48
0 -7 19 -32 19 -40 0 -7 -19 -45 -19 -52 0 -9 22 -119 21 -128 -1 -6 -15 -8
-15 -27 2 -19 17 -21 18 -30 1 -12 -21 -45 -22 -53 -2 -7 20 -65 20 -72 0 -8
-21 -100 -21 -108 0 -8 22 -154 22 -162 0 -8 -19 -40 -19 -48 0 -7 19 -32 19
-40 0 -7 -19 -45 -19 -52 0 -9 23 -113 21 -130 -2 -12 -17 -13 -17 -19 0 -9
21 -31 22 -39 2 -7 -19 -45 -19 -52 0 -8 20 -63 20 -70 0 -8 -21 -100 -21
-108 0 -8 22 -154 22 -162 0 -8 -19 -40 -19 -48 0 -7 19 -32 19 -40 0 -7 -19
-45 -19 -52 0 -9 22 -119 21 -128 -1 -6 -15 -8 -15 -27 2 -19 17 -21 18 -30 1
-12 -21 -45 -22 -53 -2 -7 20 -65 20 -72 0 -8 -21 -100 -21 -108 0 -4 12 -23
15 -81 15 -58 0 -77 -3 -81 -15 -8 -19 -40 -19 -48 0 -7 19 -32 19 -40 0 -3
-8 -15 -15 -26 -15 -11 0 -23 7 -26 15 -9 23 -113 21 -130 -3 -12 -16 -13 -16
-19 1 -9 21 -31 22 -39 2 -7 -19 -45 -19 -52 0 -8 20 -63 20 -70 0 -8 -21
-100 -21 -108 0 -8 22 -154 22 -162 0 -8 -19 -40 -19 -48 0 -7 19 -32 19 -40
0 -7 -19 -45 -19 -52 0 -9 22 -119 21 -128 -1 -6 -15 -8 -15 -27 2 -19 17 -21
18 -30 1 -12 -21 -45 -22 -53 -2 -7 20 -65 20 -72 0 -8 -21 -100 -21 -108 0
-8 22 -154 22 -162 0 -8 -19 -40 -19 -48 0 -7 19 -32 19 -40 0 -7 -19 -45 -19
-52 0 -9 23 -113 21 -130 -2 -12 -17 -13 -17 -19 0 -9 21 -31 22 -39 2 -7 -19
-45 -19 -52 0 -8 20 -63 20 -70 0 -8 -21 -100 -21 -108 0 -8 22 -154 22 -162
0 -4 -8 -14 -15 -24 -15 -10 0 -20 7 -24 15 -3 8 -12 15 -20 15 -7 0 -16 -7
-20 -15 -7 -19 -45 -19 -52 0 -9 22 -119 21 -128 -1 -6 -15 -8 -15 -27 2 -19
17 -21 18 -30 1 -12 -21 -45 -22 -53 -2 -7 20 -65 20 -72 0 -8 -21 -100 -21
-108 0 -8 22 -154 22 -162 0 -4 -8 -14 -15 -24 -15 -10 0 -20 7 -24 15 -7 19
-32 19 -40 0 -7 -19 -45 -19 -52 0 -9 23 -113 21 -130 -3 -12 -16 -13 -16 -19
1 -9 21 -31 22 -39 2 -7 -19 -45 -19 -52 0 -8 20 -63 20 -70 0 -8 -21 -100
-21 -108 0 -8 22 -154 22 -162 0 -8 -19 -40 -19 -48 0 -3 8 -12 15 -20 15 -7
0 -16 -7 -20 -15 -7 -19 -45 -19 -52 0 -9 22 -119 21 -128 -1 -6 -15 -8 -15
-27 2 -19 17 -21 18 -30 1 -12 -21 -45 -22 -53 -2 -3 9 -18 15 -36 15 -18 0
-33 -6 -36 -15 -4 -10 -21 -15 -54 -15 -33 0 -50 5 -54 15 -4 12 -23 15 -81
15 -58 0 -77 -3 -81 -15 -8 -19 -40 -19 -48 0 -7 19 -32 19 -40 0 -7 -19 -45
-19 -52 0 -9 23 -113 21 -130 -2 -12 -17 -13 -17 -19 0 -9 21 -31 22 -39 2 -7
-19 -45 -19 -52 0 -8 20 -63 20 -70 0 -8 -21 -100 -21 -108 0 -8 22 -154 22
-162 0 -8 -20 -34 -19 -50 2 -13 17 -13 17 -14 1 0 -14 -9 -18 -40 -18 -25 0
-40 5 -40 13 -1 6 -14 23 -30 37 l-30 24 0 627 0 628 22 15 c20 14 448 16
4335 16 3827 0 4313 -2 4313 -15z m-8793 -937 c-3 -8 -6 -5 -6 6 -1 11 2 17 5
13 3 -3 4 -12 1 -19z"/>
<path d="M5010 5979 c0 -5 -4 -8 -9 -5 -17 11 -68 -18 -79 -44 -7 -15 -15 -66
-18 -114 -5 -74 -3 -86 10 -86 18 0 22 -16 6 -22 -7 -2 -11 -63 -12 -167 -1
-129 2 -165 13 -171 11 -8 11 -10 -1 -15 -11 -4 -15 -23 -15 -80 0 -41 3 -75
8 -75 4 0 7 -7 7 -15 0 -8 -3 -15 -7 -15 -5 0 -9 -36 -11 -80 -2 -66 0 -80 13
-80 17 0 21 -16 5 -22 -15 -5 -16 -171 -1 -176 6 -2 11 -12 11 -23 0 -10 7
-19 15 -19 8 0 15 -6 15 -13 0 -11 715 -14 4250 -14 3532 0 4250 3 4250 14 0
7 6 13 14 13 12 0 14 90 14 580 -1 452 -4 580 -13 580 -7 0 -15 14 -18 30 -6
27 -30 41 -39 23 -2 -5 -57 -6 -123 -3 -90 4 -122 2 -128 -7 -11 -18 -46 -16
-53 2 -4 8 -16 15 -29 15 -12 0 -28 -7 -35 -15 -7 -8 -21 -15 -32 -15 -10 0
-21 7 -24 15 -9 21 -60 19 -69 -2 -6 -16 -8 -16 -18 -3 -15 20 -166 22 -189 3
-9 -8 -18 -9 -24 -4 -15 15 -243 18 -249 4 -6 -18 -44 -16 -51 2 -4 8 -16 15
-29 15 -12 0 -28 -7 -35 -15 -7 -8 -21 -15 -32 -15 -10 0 -21 7 -24 15 -9 21
-60 19 -69 -2 -6 -16 -8 -16 -18 -3 -16 21 -127 24 -171 6 -19 -8 -38 -10 -42
-6 -15 15 -243 17 -249 3 -6 -18 -44 -16 -51 2 -4 8 -16 15 -29 15 -12 0 -28
-7 -35 -15 -7 -8 -21 -15 -32 -15 -10 0 -21 7 -24 15 -9 21 -60 19 -69 -2 -6
-16 -8 -16 -18 -3 -15 20 -166 22 -189 3 -9 -8 -18 -9 -24 -4 -15 15 -243 18
-249 4 -6 -18 -44 -16 -51 2 -8 20 -48 19 -64 0 -15 -18 -56 -16 -53 3 5 20
-64 15 -72 -5 -6 -16 -8 -16 -18 -3 -16 21 -127 24 -171 6 -19 -8 -38 -10 -42
-6 -15 15 -243 17 -249 3 -6 -18 -44 -16 -51 2 -4 8 -16 15 -29 15 -12 0 -28
-7 -35 -15 -16 -19 -49 -19 -56 0 -9 21 -60 19 -69 -2 -6 -16 -8 -16 -18 -3
-15 20 -166 22 -189 3 -9 -8 -18 -9 -24 -4 -15 15 -243 18 -249 4 -6 -18 -44
-16 -51 2 -4 8 -16 15 -29 15 -12 0 -28 -7 -35 -15 -7 -8 -21 -15 -32 -15 -10
0 -21 7 -24 15 -9 21 -60 19 -69 -2 -6 -16 -8 -16 -18 -3 -16 21 -127 24 -171
6 -19 -8 -38 -10 -42 -6 -15 15 -243 17 -249 3 -6 -18 -44 -16 -51 2 -4 8 -16
15 -29 15 -12 0 -28 -7 -35 -15 -7 -8 -21 -15 -32 -15 -10 0 -21 7 -24 15 -9
21 -60 19 -69 -2 -6 -16 -8 -16 -18 -3 -15 20 -166 22 -189 3 -9 -8 -18 -9
-24 -4 -15 15 -243 18 -249 4 -6 -18 -44 -16 -51 2 -8 20 -48 19 -64 0 -15
-18 -56 -16 -52 3 4 20 -65 15 -73 -5 -6 -16 -8 -16 -18 -3 -16 21 -127 24
-171 6 -19 -8 -38 -10 -42 -6 -15 15 -243 17 -249 3 -6 -18 -44 -16 -51 2 -4
8 -16 15 -29 15 -12 0 -28 -7 -35 -15 -7 -8 -21 -15 -32 -15 -10 0 -21 7 -24
15 -9 21 -60 19 -69 -2 -6 -16 -8 -16 -18 -3 -15 20 -166 22 -189 3 -9 -8 -18
-9 -24 -4 -15 15 -243 18 -249 4 -6 -18 -44 -16 -51 2 -4 8 -16 15 -29 15 -12
0 -28 -7 -35 -15 -7 -8 -21 -15 -32 -15 -10 0 -21 7 -24 15 -9 21 -60 19 -69
-2 -6 -16 -8 -16 -18 -3 -16 21 -127 24 -171 6 -19 -8 -38 -10 -42 -6 -15 15
-243 17 -249 3 -6 -18 -44 -16 -51 2 -4 8 -16 15 -29 15 -12 0 -28 -7 -35 -15
-7 -8 -21 -15 -32 -15 -10 0 -21 7 -24 15 -9 21 -60 19 -69 -2 -6 -16 -8 -16
-18 -3 -15 20 -166 22 -189 3 -9 -8 -18 -9 -24 -4 -15 15 -243 18 -249 4 -6
-18 -44 -16 -51 2 -4 8 -16 15 -29 15 -12 0 -28 -7 -35 -15 -7 -8 -21 -15 -32
-15 -10 0 -21 7 -24 15 -7 17 -64 21 -64 4z m1250 -629 l0 -500 -345 0 -345 0
0 500 0 500 345 0 345 0 0 -500z m1650 0 l0 -500 -350 0 -350 0 0 500 0 500
350 0 350 0 0 -500z m1650 0 l0 -500 -350 0 -350 0 0 500 0 500 350 0 350 0 0
-500z m1650 0 l0 -500 -350 0 -350 0 0 500 0 500 350 0 350 0 0 -500z m1650 0
l0 -500 -350 0 -350 0 0 500 0 500 350 0 350 0 0 -500z"/>
<path d="M5625 5800 c-2 -3 -5 -21 -7 -40 -2 -26 1 -35 14 -38 11 -2 18 5 20
20 2 15 10 23 23 23 13 0 20 7 20 19 0 15 -8 19 -33 20 -19 1 -35 -1 -37 -4z"/>
<path d="M5806 5802 c-9 -2 -16 -10 -16 -18 0 -8 -11 -19 -25 -24 -14 -5 -25
-16 -25 -25 0 -11 -11 -15 -40 -15 l-40 0 0 -45 c0 -37 -3 -45 -19 -45 -13 0
-20 -10 -25 -31 -3 -17 -3 -35 0 -40 10 -16 32 -10 37 11 3 12 14 20 26 20 19
0 21 -6 21 -70 0 -57 -3 -68 -15 -64 -10 4 -18 -3 -25 -20 -5 -14 -16 -26 -25
-26 -8 0 -15 -9 -15 -20 0 -13 7 -20 20 -20 17 0 20 -7 20 -41 0 -32 -4 -42
-20 -46 -16 -4 -20 -14 -20 -44 0 -32 3 -39 20 -39 18 0 20 -7 20 -65 0 -58 2
-65 20 -65 17 0 20 -7 20 -45 0 -39 3 -45 21 -45 12 0 23 -8 26 -20 3 -11 12
-20 19 -20 8 0 19 -11 24 -25 9 -22 15 -25 64 -25 49 0 54 2 60 26 8 32 40 29
44 -4 3 -21 8 -23 65 -20 56 3 62 5 65 26 3 19 10 22 44 22 31 0 41 4 45 19 3
11 12 21 22 24 24 6 24 120 -1 125 -11 2 -18 -5 -20 -20 -2 -15 -11 -24 -25
-26 -15 -2 -23 -10 -23 -23 0 -16 -7 -19 -40 -19 -33 0 -40 -3 -40 -20 0 -15
-7 -20 -25 -20 -18 0 -25 5 -25 19 0 12 9 21 25 25 16 4 25 13 25 26 0 17 7
20 40 20 l40 0 0 40 c0 33 3 40 20 40 15 0 20 7 20 26 0 27 2 26 -77 14 -2 0
-3 -9 -3 -20 0 -13 -7 -20 -20 -20 -13 0 -20 -7 -20 -20 0 -15 -7 -20 -25 -20
-18 0 -25 5 -25 20 0 13 7 20 20 20 13 0 20 7 20 20 0 13 10 24 25 30 14 5 25
16 25 25 0 8 9 15 20 15 18 0 20 7 20 65 0 58 2 65 20 65 13 0 20 7 20 20 0
13 10 24 25 30 37 14 32 80 -6 80 -20 0 -23 10 -13 59 4 17 13 31 20 31 19 0
26 37 22 106 -2 46 -7 59 -20 62 -13 2 -18 -3 -18 -17 0 -16 -6 -21 -25 -21
-22 0 -25 4 -25 40 0 35 -3 40 -22 41 -13 0 -31 2 -40 4 -16 3 -18 -5 -18 -61
0 -57 2 -64 20 -64 13 0 20 -7 20 -20 0 -13 7 -20 20 -20 19 0 20 -7 20 -90 0
-74 -3 -90 -15 -90 -9 0 -20 -12 -25 -26 -16 -41 -44 -28 -48 23 -3 37 0 42
20 45 21 3 23 9 26 66 3 58 1 62 -18 62 -13 0 -24 8 -27 20 -3 10 -14 22 -24
25 -10 4 -19 15 -19 26 0 18 -6 20 -62 17 -53 -3 -63 -6 -68 -24 -3 -14 -14
-21 -32 -21 -46 -2 -48 -2 -48 -18 0 -9 -11 -20 -25 -25 -14 -5 -24 -15 -23
-22 2 -7 -7 -14 -20 -16 -20 -3 -23 0 -20 20 2 13 9 22 16 20 7 -1 17 9 22 23
5 14 16 25 25 25 8 0 15 9 15 20 0 15 7 20 25 20 20 0 25 5 25 26 0 18 5 25
18 23 9 -1 47 -1 85 0 51 1 67 4 67 15 0 11 -20 15 -89 18 -49 2 -96 2 -105 0z
m114 -193 c0 -12 7 -19 20 -19 13 0 20 7 20 20 0 13 7 20 20 20 13 0 20 -7 20
-20 0 -15 7 -20 25 -20 18 0 25 -5 25 -19 0 -11 -6 -21 -12 -24 -21 -7 -38 4
-38 24 0 12 -7 19 -20 19 -13 0 -20 -7 -20 -20 0 -18 -7 -20 -62 -21 -62 -1
-97 -4 -103 -11 -2 -2 -5 -19 -7 -38 -3 -27 -9 -36 -26 -38 -20 -3 -22 1 -22
38 0 33 4 43 20 47 11 3 20 14 20 24 0 14 7 19 25 19 18 0 25 5 25 19 0 13 8
21 23 23 40 6 67 -3 67 -23z m-140 -234 c0 -33 -4 -45 -15 -45 -11 0 -15 -12
-15 -45 0 -38 3 -45 19 -45 16 0 20 -8 23 -42 3 -42 4 -43 39 -46 27 -2 38 -9
42 -23 3 -11 14 -19 27 -19 16 0 21 -5 18 -22 -2 -19 -10 -24 -45 -26 -37 -3
-42 0 -45 20 -2 15 -11 24 -25 26 -15 2 -23 10 -23 23 0 12 -7 19 -20 19 -15
0 -20 7 -20 25 0 18 -5 25 -20 25 -18 0 -20 7 -20 85 0 78 2 85 20 85 13 0 20
7 20 18 0 22 8 32 27 32 9 0 13 -14 13 -45z m10 -330 c5 -14 16 -25 25 -25 8
0 15 -9 15 -20 0 -13 7 -20 20 -20 26 0 27 -36 1 -43 -15 -3 -21 1 -23 17 -2
13 -11 22 -25 24 -15 2 -23 10 -23 23 0 12 -7 19 -20 19 -15 0 -20 7 -20 25 0
18 5 25 20 25 13 0 24 -10 30 -25z"/>
<path d="M6179 5256 c-1 -14 -2 -32 -3 -38 -1 -7 8 -13 19 -13 16 0 20 6 19
35 -1 43 -33 58 -35 16z"/>
<path d="M5619 5010 c-1 -5 -1 -17 -1 -25 0 -96 -1 -95 42 -95 33 0 40 3 40
20 0 11 -7 20 -15 20 -12 0 -42 39 -37 48 1 1 2 11 2 22 0 20 -29 29 -31 10z"/>
<path d="M6187 4934 c-9 -10 -9 -44 1 -44 4 0 14 5 22 10 13 8 13 11 -1 25 -8
8 -18 12 -22 9z"/>
<path d="M7260 5764 c0 -47 23 -63 33 -23 3 11 15 23 26 26 23 6 29 33 9 34
-7 0 -25 2 -40 4 -27 3 -28 2 -28 -41z"/>
<path d="M7528 5802 c-90 -2 -98 -4 -98 -22 0 -13 -7 -20 -19 -20 -11 0 -23
-9 -26 -20 -5 -16 -15 -20 -46 -20 l-39 0 0 -45 c0 -38 -3 -45 -20 -45 -17 0
-20 -7 -20 -40 0 -30 4 -40 16 -40 9 0 18 9 21 20 3 11 13 20 23 20 12 0 20 9
22 23 2 12 10 22 18 22 8 0 17 9 20 20 3 11 16 21 28 23 14 2 22 10 22 23 0
12 7 19 19 19 13 0 21 8 23 23 2 12 10 22 18 23 8 1 48 2 88 2 54 2 72 5 72
16 0 20 -12 21 -122 18z"/>
<path d="M7694 5801 c-2 -2 -4 -31 -4 -63 0 -55 1 -58 25 -58 18 0 25 -5 25
-19 0 -10 9 -21 20 -24 18 -5 20 -14 20 -91 0 -78 -2 -86 -19 -86 -13 0 -21
-8 -23 -22 -2 -15 -10 -23 -23 -23 -16 0 -21 8 -23 43 -3 36 0 42 16 42 22 0
31 34 24 94 -3 27 -9 36 -23 36 -13 0 -19 7 -19 21 0 12 -8 23 -19 26 -11 3
-21 13 -24 24 -4 16 -15 19 -66 19 -54 0 -61 -2 -61 -20 0 -21 -3 -22 -55 -24
-23 -1 -31 -6 -33 -23 -2 -15 -10 -23 -23 -23 -12 0 -19 -7 -19 -19 0 -13 -8
-21 -22 -23 -21 -3 -23 -9 -26 -70 -2 -54 -6 -66 -17 -61 -10 3 -18 -4 -25
-21 -5 -14 -16 -26 -25 -26 -8 0 -15 -9 -15 -20 0 -13 7 -20 20 -20 17 0 20
-7 20 -41 0 -32 -4 -42 -20 -46 -16 -4 -20 -14 -20 -44 0 -32 3 -39 20 -39 18
0 20 -7 20 -65 0 -58 2 -65 20 -65 17 0 20 -7 20 -45 0 -41 2 -45 25 -45 18 0
25 -5 25 -20 0 -13 7 -20 20 -20 15 0 20 -7 20 -25 0 -24 2 -25 65 -25 63 0
65 1 65 26 0 21 4 25 23 22 13 -2 23 -11 25 -24 3 -18 10 -21 62 -23 54 -1 59
0 62 21 2 19 10 24 44 26 32 2 43 8 47 23 3 10 12 19 21 19 9 0 16 8 17 18 5
88 3 107 -13 110 -10 2 -18 -6 -22 -23 -4 -17 -12 -25 -24 -23 -11 2 -18 -5
-20 -19 -3 -20 -9 -23 -48 -23 -37 0 -44 -3 -44 -20 0 -24 -35 -28 -44 -5 -4
10 2 19 18 25 13 4 26 18 29 29 4 17 13 21 46 21 l41 0 0 40 c0 33 3 40 20 40
15 0 20 7 20 25 0 18 5 25 19 25 26 0 35 67 10 80 -14 8 -18 3 -24 -35 -5 -40
-9 -45 -33 -46 -15 -1 -30 -1 -35 0 -4 1 -12 -10 -17 -24 -6 -15 -17 -25 -30
-25 -13 0 -20 -7 -20 -20 0 -13 -7 -20 -20 -20 -13 0 -20 7 -20 19 0 10 9 21
20 24 12 3 20 14 20 26 0 14 6 21 20 21 11 0 20 7 20 15 0 9 11 20 25 25 23 9
25 15 25 70 0 53 2 60 20 60 13 0 20 7 20 20 0 12 9 24 23 29 31 12 31 74 -1
79 -18 3 -22 10 -22 44 0 31 4 41 20 45 18 5 20 14 20 89 0 65 -3 84 -14 84
-7 0 -16 -9 -19 -20 -3 -12 -14 -20 -26 -20 -18 0 -21 6 -21 39 0 38 -1 39
-41 43 -22 2 -42 2 -45 -1z m-134 -189 c0 -19 5 -23 23 -20 15 2 21 9 19 21
-2 12 4 17 23 17 18 0 25 -5 25 -20 0 -13 7 -20 20 -20 15 0 20 -7 20 -25 0
-24 -15 -32 -35 -17 -5 4 -10 14 -10 22 0 23 -32 24 -38 0 -4 -17 -13 -20 -60
-20 -30 0 -69 -3 -86 -6 -28 -6 -31 -10 -31 -45 0 -32 -4 -39 -19 -39 -14 0
-21 10 -25 35 -8 42 -2 55 25 55 12 0 19 7 19 20 0 13 7 20 20 20 13 0 20 7
20 18 0 26 6 30 51 29 34 -1 39 -4 39 -25z m-132 -235 c3 -32 0 -39 -17 -44
-17 -4 -21 -13 -21 -49 0 -37 3 -44 19 -44 16 0 20 -8 23 -42 3 -42 4 -43 42
-46 28 -2 40 -9 43 -23 3 -10 14 -19 24 -19 13 0 19 -7 19 -24 0 -22 -4 -24
-42 -22 -36 1 -43 4 -46 24 -2 14 -10 22 -23 22 -12 0 -19 7 -19 19 0 13 -8
21 -22 23 -15 2 -24 11 -26 26 -2 14 -10 22 -23 22 -17 0 -19 8 -19 85 0 78 2
85 20 85 13 0 20 7 20 18 0 50 44 40 48 -11z m4 -329 c2 -13 9 -24 16 -24 6
-1 17 -2 22 -3 6 0 10 -10 10 -21 0 -11 6 -20 14 -20 19 0 30 -32 14 -42 -21
-13 -28 -10 -38 17 -5 14 -16 25 -25 25 -8 0 -15 9 -15 20 0 13 -7 20 -19 20
-24 0 -33 13 -25 34 9 24 42 20 46 -6z"/>
<path d="M7260 4956 l0 -66 40 0 c34 0 40 3 40 21 0 12 -8 23 -20 26 -12 3
-20 14 -21 29 -3 45 -4 49 -21 52 -16 3 -18 -5 -18 -62z"/>
<path d="M7830 4910 c0 -11 7 -20 15 -20 8 0 15 9 15 20 0 11 -7 20 -15 20 -8
0 -15 -9 -15 -20z"/>
<path d="M8938 5802 c-25 -3 -28 -7 -28 -43 0 -45 24 -55 34 -14 4 16 13 25
26 25 22 0 28 25 8 32 -7 2 -25 2 -40 0z"/>
<path d="M9090 5802 c-6 -2 -10 -12 -10 -23 0 -12 -7 -19 -20 -19 -13 0 -20
-7 -20 -20 0 -17 -7 -20 -45 -20 l-45 0 0 -45 c0 -38 -3 -45 -20 -45 -17 0
-20 -7 -20 -41 0 -33 3 -40 18 -37 9 2 17 10 17 18 0 8 10 16 22 18 13 2 23
12 25 25 2 12 9 21 16 19 7 -1 17 9 22 23 6 15 17 25 30 25 13 0 20 7 20 20 0
13 7 20 19 20 12 0 21 9 25 24 3 13 11 24 18 23 7 0 46 1 86 1 55 2 72 5 72
16 0 12 -21 15 -100 18 -55 2 -105 2 -110 0z"/>
<path d="M9350 5802 c-6 -2 -10 -30 -10 -63 0 -53 2 -59 21 -59 12 0 23 -8 26
-19 3 -11 13 -21 24 -24 17 -5 19 -15 19 -91 0 -78 -2 -86 -19 -86 -13 0 -21
-8 -23 -22 -2 -15 -10 -23 -23 -23 -16 0 -21 8 -23 43 -3 37 -1 42 17 42 19 0
21 6 21 65 0 58 -2 65 -20 65 -13 0 -20 7 -20 19 0 12 -9 21 -24 25 -15 4 -23
13 -22 23 1 15 -9 18 -61 21 -58 3 -62 1 -65 -20 -3 -20 -9 -23 -43 -23 -34 0
-40 -3 -43 -22 -2 -15 -10 -23 -23 -23 -12 0 -19 -7 -19 -19 0 -13 -8 -21 -22
-23 -21 -3 -23 -9 -26 -70 -2 -54 -6 -66 -17 -61 -10 3 -18 -4 -25 -21 -5 -14
-16 -26 -25 -26 -8 0 -15 -9 -15 -20 0 -13 7 -20 20 -20 17 0 20 -7 20 -41 0
-32 -4 -42 -20 -46 -16 -4 -20 -14 -20 -44 0 -32 3 -39 20 -39 18 0 20 -7 20
-65 0 -58 2 -65 20 -65 17 0 20 -7 20 -45 0 -41 2 -45 25 -45 18 0 25 -5 25
-20 0 -13 7 -20 20 -20 15 0 20 -7 20 -25 0 -24 2 -25 65 -25 63 0 65 1 65 26
0 21 4 25 23 22 14 -2 23 -11 25 -25 3 -21 9 -23 62 -23 53 0 59 2 62 23 3 19
10 22 50 25 36 2 46 6 41 17 -3 9 4 18 18 24 22 8 24 15 24 67 0 47 -4 59 -17
62 -11 2 -18 -5 -20 -20 -2 -15 -11 -24 -25 -26 -15 -2 -23 -10 -23 -23 0 -16
-7 -19 -45 -19 -38 0 -45 -3 -45 -20 0 -13 -7 -20 -20 -20 -13 0 -20 7 -20 20
0 11 7 20 15 20 9 0 20 11 25 25 5 14 16 25 22 24 7 -1 25 -1 41 0 25 1 27 4
27 41 0 33 3 40 20 40 15 0 20 7 20 26 0 23 -3 25 -37 22 -31 -2 -39 -7 -41
-25 -2 -15 -10 -23 -24 -23 -11 0 -22 -8 -25 -20 -8 -29 -45 -27 -41 3 2 12
10 22 18 22 8 0 16 10 18 22 2 13 12 23 25 25 12 2 21 9 19 16 -1 7 9 17 23
22 23 9 25 15 25 70 0 53 2 60 20 60 13 0 20 7 20 20 0 12 9 24 23 29 33 13
32 74 -1 79 -19 3 -22 10 -22 44 0 31 4 41 20 45 17 4 20 14 21 57 1 28 2 66
3 84 1 24 -2 32 -15 32 -9 0 -19 -9 -22 -20 -3 -12 -14 -20 -25 -20 -17 0 -21
7 -24 42 -3 39 -5 41 -36 42 -17 1 -37 0 -42 -2z m-138 -186 c4 -29 48 -35 48
-7 0 14 6 21 20 21 13 0 20 -7 20 -20 0 -14 7 -20 21 -20 15 0 20 -5 17 -22
-2 -13 -10 -23 -18 -23 -8 0 -16 10 -18 23 -4 29 -42 31 -42 2 0 -18 -7 -20
-59 -20 -32 0 -73 -3 -90 -6 -28 -6 -31 -10 -31 -45 0 -32 -4 -39 -19 -39 -14
0 -21 10 -25 35 -8 42 -2 55 25 55 12 0 19 7 19 20 0 13 7 20 20 20 13 0 20 7
20 19 0 22 7 26 55 27 27 0 35 -4 37 -20z m-134 -239 c3 -32 0 -39 -17 -44
-17 -4 -21 -13 -21 -49 0 -37 3 -44 19 -44 16 0 20 -8 23 -42 3 -42 4 -43 42
-46 28 -2 40 -9 43 -23 3 -10 14 -19 24 -19 14 0 19 -7 19 -26 0 -23 -3 -25
-42 -22 -36 2 -44 7 -46 26 -2 14 -10 22 -23 22 -12 0 -19 7 -19 19 0 13 -8
21 -22 23 -15 2 -24 11 -26 26 -2 14 -10 22 -23 22 -17 0 -19 8 -19 85 0 78 2
85 20 85 13 0 20 7 20 18 0 50 44 40 48 -11z m2 -332 c0 -20 5 -25 26 -25 20
0 25 -4 20 -16 -3 -9 -6 -18 -6 -20 0 -2 -9 -4 -20 -4 -13 0 -20 7 -20 20 0
13 -7 20 -19 20 -11 0 -23 5 -26 10 -11 18 3 40 25 40 15 0 20 -7 20 -25z m85
-90 c0 -30 -39 -27 -43 3 -3 20 0 23 20 20 15 -2 23 -10 23 -23z"/>
<path d="M9476 5249 c-7 -37 -1 -49 23 -49 12 0 17 7 15 23 -1 12 -3 30 -3 40
-2 29 -28 19 -35 -14z"/>
<path d="M8910 4955 l0 -65 40 0 c33 0 40 4 40 19 0 10 -9 21 -20 24 -13 3
-20 14 -20 30 0 36 -10 57 -26 57 -11 0 -14 -16 -14 -65z"/>
<path d="M9487 4933 c-13 -12 -7 -43 8 -43 9 0 15 9 15 25 0 24 -10 32 -23 18z"/>
<path d="M10554 5796 c-3 -8 -4 -27 -2 -43 2 -20 9 -29 26 -31 19 -3 22 -9 22
-47 0 -38 -3 -44 -22 -47 -19 -2 -24 -10 -26 -40 -3 -35 -1 -38 22 -38 19 0
26 5 26 20 0 13 7 20 20 20 18 0 20 -7 20 -65 0 -58 -2 -65 -20 -65 -15 0 -20
-7 -20 -24 0 -18 -6 -25 -22 -28 -34 -5 -37 -38 -4 -38 24 0 26 -4 26 -40 0
-34 -4 -42 -25 -50 -20 -8 -25 -16 -25 -45 0 -31 3 -35 25 -35 24 0 25 -2 25
-65 0 -58 2 -65 20 -65 17 0 20 -7 20 -45 0 -41 2 -45 25 -45 18 0 25 -5 25
-20 0 -13 7 -20 20 -20 15 0 20 -7 20 -25 0 -24 2 -25 65 -25 63 0 65 1 65 26
0 21 4 25 23 22 14 -2 23 -11 25 -25 3 -21 9 -23 63 -23 54 0 59 2 65 25 5 21
12 25 45 25 32 0 39 3 39 20 0 15 7 20 25 20 24 0 25 2 25 65 0 58 -2 65 -19
65 -13 0 -21 -8 -23 -22 -2 -15 -11 -24 -25 -26 -15 -2 -23 -10 -23 -23 0 -16
-7 -19 -45 -19 -41 0 -45 2 -45 25 0 23 4 25 45 25 l45 0 0 40 c0 33 3 40 20
40 15 0 20 7 20 25 0 20 5 25 25 25 23 0 25 4 25 40 0 33 -3 40 -20 40 -14 0
-20 -7 -21 -25 -1 -14 -2 -31 -3 -37 0 -8 -19 -14 -43 -16 -38 -3 -43 -1 -43
17 0 14 6 21 20 21 18 0 20 7 20 65 0 58 2 65 19 65 13 0 21 8 23 23 2 14 11
23 26 25 18 3 22 10 22 43 0 35 -3 39 -25 39 -23 0 -25 3 -23 45 1 40 4 45 25
45 22 0 23 3 23 85 0 78 -2 85 -20 85 -13 0 -20 -7 -20 -20 0 -15 -7 -20 -25
-20 -22 0 -25 4 -25 39 0 36 -2 39 -32 44 -52 7 -58 1 -58 -64 0 -56 1 -59 25
-59 20 0 25 -5 25 -25 0 -34 -47 -37 -52 -2 -2 14 -9 21 -21 21 -12 -1 -17 5
-17 22 0 23 -3 24 -65 24 -58 0 -65 -2 -65 -20 0 -20 -3 -21 -65 -24 -13 -1
-21 -9 -23 -23 -2 -15 -10 -23 -23 -23 -12 0 -19 -7 -19 -20 0 -15 -7 -20 -25
-20 -18 0 -25 5 -25 20 0 13 7 20 20 20 15 0 20 7 20 25 0 20 5 25 25 25 18 0
25 5 25 20 0 13 7 20 20 20 13 0 20 7 20 20 0 17 8 19 88 22 79 3 87 5 87 23
0 19 -7 20 -105 20 -101 0 -105 -1 -108 -22 -3 -17 -10 -23 -28 -23 -17 0 -24
-5 -24 -20 0 -17 -7 -20 -39 -20 -24 0 -41 5 -44 14 -7 18 1 26 25 26 14 0 19
6 16 23 -2 18 -10 23 -41 25 -26 2 -39 -1 -43 -12z m306 -186 c0 -13 7 -20 20
-20 13 0 20 7 20 20 0 15 7 20 25 20 18 0 25 -5 25 -20 0 -14 7 -20 21 -20 15
0 20 -5 17 -22 -4 -31 -35 -36 -40 -6 -4 30 -38 38 -38 9 0 -19 -6 -21 -60
-22 -33 -1 -64 -3 -70 -4 -5 -1 -19 -3 -30 -4 -17 -1 -20 -8 -20 -42 0 -36 -2
-40 -22 -37 -20 3 -23 9 -23 43 0 34 3 40 23 43 14 2 22 10 22 23 0 12 7 19
20 19 13 0 20 7 20 20 0 17 7 20 45 20 38 0 45 -3 45 -20z m220 -65 c0 -78 -2
-85 -20 -85 -15 0 -20 -7 -20 -25 0 -20 -5 -25 -25 -25 -23 0 -25 4 -25 45 0
41 2 45 24 45 20 0 23 5 24 33 1 94 1 97 22 97 18 0 20 -7 20 -85z m-352 -168
c3 -32 0 -39 -17 -44 -17 -4 -21 -13 -21 -49 0 -37 3 -44 20 -44 17 0 20 -7
20 -45 l0 -45 45 0 c38 0 45 -3 45 -20 0 -13 7 -20 20 -20 13 0 20 -7 20 -20
0 -17 -7 -20 -45 -20 -38 0 -45 3 -45 20 0 13 -7 20 -20 20 -13 0 -20 7 -20
20 0 15 -7 20 -25 20 -20 0 -25 5 -25 25 0 18 -5 25 -20 25 -18 0 -20 7 -20
85 0 78 2 85 20 85 13 0 20 7 20 18 0 50 44 40 48 -11z m312 -202 c0 -20 -5
-25 -25 -25 -18 0 -25 -5 -25 -20 0 -13 -7 -20 -20 -20 -13 0 -20 7 -20 19 0
10 9 21 20 24 12 3 20 14 20 26 0 16 6 21 25 21 20 0 25 -5 25 -25z m-310
-130 c0 -18 5 -25 20 -25 13 0 20 -7 20 -20 0 -15 7 -20 25 -20 29 0 36 -34 9
-44 -21 -8 -34 1 -34 25 0 12 -7 19 -19 19 -10 0 -21 9 -24 20 -3 12 -14 20
-26 20 -14 0 -21 6 -21 18 0 24 8 32 32 32 13 0 18 -7 18 -25z m260 -45 c0
-13 -7 -20 -20 -20 -13 0 -20 7 -20 20 0 13 7 20 20 20 13 0 20 -7 20 -20z"/>
<path d="M10550 4955 l0 -65 46 0 c41 0 45 2 42 23 -2 12 -10 22 -18 22 -10 0
-16 13 -18 43 -3 37 -6 42 -28 42 -23 0 -24 -3 -24 -65z"/>
<path d="M11130 4910 c0 -13 7 -20 20 -20 13 0 20 7 20 20 0 13 -7 20 -20 20
-13 0 -20 -7 -20 -20z"/>
<path d="M12210 5763 c0 -32 4 -43 15 -43 8 0 15 9 15 20 0 13 9 22 25 26 14
3 25 12 25 20 0 15 0 15 -47 18 -32 2 -33 1 -33 -41z"/>
<path d="M12473 5803 c-85 -3 -93 -6 -93 -23 0 -13 -7 -20 -19 -20 -10 0 -21
-9 -24 -20 -4 -16 -14 -20 -46 -20 l-41 0 0 -45 c0 -38 -3 -45 -20 -45 -17 0
-20 -7 -20 -40 0 -34 3 -40 20 -40 14 0 20 6 18 18 -2 11 4 18 20 20 14 2 22
10 22 24 0 11 8 22 19 25 11 3 21 13 24 24 3 11 14 19 26 19 14 0 21 6 21 19
0 13 8 21 23 23 14 2 22 10 22 23 0 18 8 20 80 23 44 2 84 7 89 12 11 11 -1
31 -17 28 -7 -1 -54 -4 -104 -5z"/>
<path d="M12640 5740 c0 -57 1 -60 25 -60 18 0 25 -5 25 -19 0 -11 9 -23 20
-26 18 -6 20 -15 20 -91 0 -76 -2 -84 -19 -84 -13 0 -21 -8 -23 -22 -2 -15
-10 -23 -23 -23 -16 0 -21 8 -23 43 -3 37 -1 42 17 42 19 0 21 6 21 65 0 58
-2 65 -19 65 -13 0 -21 8 -23 23 -2 12 -10 22 -18 22 -8 0 -19 10 -25 23 -8
19 -17 22 -67 22 -50 0 -57 -2 -60 -22 -2 -18 -10 -22 -43 -22 -34 -1 -41 -5
-43 -23 -2 -15 -10 -23 -23 -23 -12 0 -19 -7 -19 -19 0 -13 -8 -21 -22 -23
-21 -3 -23 -9 -26 -70 -2 -54 -6 -66 -17 -61 -10 3 -18 -4 -25 -21 -5 -14 -16
-26 -25 -26 -8 0 -15 -9 -15 -20 0 -13 7 -20 20 -20 17 0 20 -7 20 -41 0 -32
-4 -42 -20 -46 -16 -4 -20 -14 -20 -44 0 -32 3 -39 20 -39 18 0 20 -7 20 -65
0 -58 2 -65 20 -65 17 0 20 -7 20 -45 0 -41 2 -45 25 -45 18 0 25 -5 25 -20 0
-13 7 -20 20 -20 15 0 20 -7 20 -25 0 -24 2 -25 65 -25 63 0 65 1 65 26 0 21
4 25 23 22 14 -2 23 -11 25 -25 3 -21 9 -23 62 -23 53 0 59 2 62 23 2 18 10
23 44 25 32 2 43 8 47 23 3 10 12 19 21 19 13 0 16 12 16 65 0 50 -3 65 -14
65 -8 0 -16 -10 -18 -22 -2 -15 -11 -24 -25 -26 -15 -2 -23 -10 -23 -23 0 -16
-7 -19 -46 -19 -41 0 -45 2 -42 23 2 18 10 23 46 25 42 3 42 3 42 43 0 32 3
39 20 39 15 0 20 7 20 25 0 18 5 25 20 25 17 0 20 7 20 40 0 29 -4 40 -15 40
-9 0 -15 -10 -16 -22 -1 -13 -2 -30 -3 -38 -1 -10 -15 -17 -41 -20 -32 -4 -41
-9 -43 -27 -3 -17 -10 -23 -28 -23 -17 0 -24 -5 -24 -20 0 -14 -7 -20 -21 -20
-15 0 -20 5 -17 23 2 12 10 22 18 22 8 0 16 10 18 23 2 14 10 22 23 22 10 0
19 7 19 15 0 9 11 20 25 25 23 9 25 15 25 70 0 53 2 60 20 60 14 0 20 7 20 21
0 12 8 23 20 26 11 3 21 14 21 24 1 11 2 27 3 37 1 11 -7 18 -21 20 -20 3 -23
10 -23 44 0 31 4 41 20 45 18 5 20 14 20 89 0 65 -3 84 -14 84 -7 0 -16 -9
-19 -20 -3 -12 -14 -20 -26 -20 -18 0 -21 6 -21 40 l0 40 -45 0 -45 0 0 -60z
m-128 -125 c2 -12 12 -21 26 -23 14 -2 22 -10 22 -23 0 -17 -8 -19 -72 -21
-40 0 -80 -1 -88 -2 -10 -1 -16 -14 -18 -43 -2 -34 -7 -43 -21 -43 -13 0 -21
10 -25 35 -8 42 -2 55 25 55 12 0 19 7 19 20 0 11 7 20 15 20 9 0 20 11 25 24
8 21 15 25 49 23 32 -1 41 -5 43 -22z m88 -5 c0 -14 7 -20 21 -20 15 0 20 -5
17 -22 -4 -31 -26 -34 -38 -4 -5 14 -16 26 -24 26 -18 0 -29 16 -21 30 12 19
45 11 45 -10z m-222 -233 c3 -32 0 -39 -17 -44 -17 -4 -21 -13 -21 -49 0 -37
3 -44 19 -44 16 0 20 -8 23 -42 3 -43 3 -43 46 -46 33 -3 42 -7 40 -20 -2 -11
5 -18 20 -20 17 -3 22 -9 20 -25 -2 -18 -10 -22 -43 -22 -34 0 -40 3 -43 23
-2 14 -10 22 -23 22 -12 0 -19 7 -19 19 0 13 -8 21 -22 23 -15 2 -24 11 -26
26 -2 14 -10 22 -23 22 -17 0 -19 8 -19 85 0 78 2 85 20 85 13 0 20 7 20 18 0
50 44 40 48 -11z m4 -329 c2 -15 11 -24 26 -26 14 -2 22 -10 22 -23 0 -10 7
-19 15 -19 21 0 31 -30 15 -40 -19 -12 -40 -1 -40 21 0 12 -7 19 -20 19 -13 0
-20 7 -20 20 0 13 -7 20 -19 20 -23 0 -35 15 -27 35 9 24 44 18 48 -7z m258
-48 c0 -13 -7 -20 -20 -20 -13 0 -20 7 -20 20 0 13 7 20 20 20 13 0 20 -7 20
-20z"/>
<path d="M12210 4956 l0 -66 40 0 c34 0 40 3 40 21 0 12 -8 23 -19 26 -14 4
-21 15 -23 41 -2 26 -8 38 -20 40 -16 3 -18 -5 -18 -62z"/>
<path d="M12780 4916 c0 -17 5 -26 16 -26 10 0 14 7 12 22 -5 32 -28 35 -28 4z"/>
<path d="M7465 4475 l-25 -24 0 -839 0 -839 23 -21 23 -22 581 0 c572 0 581 0
607 21 l26 20 0 840 0 840 -25 24 -24 25 -581 0 -581 0 -24 -25z"/>
<path d="M9156 3801 c-24 -26 -17 -62 15 -80 24 -13 29 -13 53 2 28 19 36 63
14 85 -18 18 -63 14 -82 -7z"/>
<path d="M8920 3739 c0 -5 8 -9 18 -9 10 0 24 -6 32 -12 12 -11 12 -10 2 3
-14 19 -52 32 -52 18z"/>
<path d="M9046 3625 c10 -8 23 -15 28 -15 6 0 1 7 -10 15 -10 8 -23 15 -28 15
-6 0 -1 -7 10 -15z"/>
<path d="M9421 3407 c-8 -11 -6 -13 12 -13 17 1 21 -4 19 -22 -3 -31 22 -24
26 8 6 35 -34 54 -57 27z"/>
<path d="M10990 2430 c6 -11 13 -20 15 -20 3 0 5 9 5 20 0 11 -7 20 -15 20
-13 0 -14 -4 -5 -20z"/>
<path d="M10880 2430 c0 -5 5 -10 11 -10 5 0 7 5 4 10 -3 6 -8 10 -11 10 -2 0
-4 -4 -4 -10z"/>
<path d="M11040 2141 c0 -39 4 -51 15 -51 11 0 15 11 15 39 0 22 -6 44 -15 51
-13 11 -15 6 -15 -39z"/>
<path d="M11033 1988 c-7 -13 -15 -31 -19 -40 -3 -10 -10 -18 -15 -18 -5 0 -9
-18 -9 -40 0 -26 5 -40 13 -40 14 0 39 -60 35 -82 -2 -9 10 -14 40 -16 25 -2
42 1 42 7 0 6 -4 11 -10 11 -5 0 -10 18 -10 40 0 34 -3 40 -21 40 -20 0 -21 3
-14 80 6 64 4 80 -7 80 -7 0 -19 -10 -25 -22z"/>
<path d="M10951 1874 c0 -11 3 -14 6 -6 3 7 2 16 -1 19 -3 4 -6 -2 -5 -13z"/>
<path d="M5010 1329 c0 -5 -5 -7 -11 -3 -15 9 -56 -14 -74 -42 -8 -13 -17 -58
-20 -107 -5 -73 -4 -85 11 -91 12 -5 14 -9 5 -20 -7 -9 -12 -73 -14 -180 -2
-142 0 -166 13 -166 13 -1 13 -2 0 -13 -11 -9 -15 -32 -15 -82 0 -50 4 -73 15
-82 13 -10 13 -12 0 -17 -23 -9 -26 -151 -4 -160 13 -5 14 -9 5 -20 -16 -19
-18 -179 -2 -184 6 -2 11 -12 11 -23 0 -10 6 -19 14 -19 8 0 16 -6 19 -14 8
-19 8497 -20 8497 -1 0 7 6 15 14 18 20 8 20 1146 0 1154 -8 3 -14 15 -14 28
0 23 -28 43 -39 28 -3 -4 -60 -6 -126 -3 -90 4 -122 2 -128 -7 -11 -18 -44
-16 -51 2 -7 19 -50 19 -66 0 -16 -19 -46 -19 -54 0 -8 21 -62 19 -71 -2 -6
-16 -8 -16 -18 -3 -15 20 -166 22 -189 3 -9 -8 -18 -9 -24 -4 -5 5 -62 11
-127 13 -89 2 -117 0 -117 -9 0 -18 -47 -16 -54 2 -7 19 -50 19 -66 0 -16 -19
-46 -19 -54 0 -8 21 -62 19 -71 -2 -6 -16 -8 -16 -18 -3 -17 21 -127 24 -172
6 -21 -9 -37 -11 -40 -5 -4 5 -52 9 -108 8 -56 0 -109 2 -118 6 -10 4 -19 0
-22 -9 -8 -20 -43 -21 -51 -1 -7 19 -50 19 -66 0 -16 -19 -46 -19 -54 0 -8 21
-63 19 -75 -2 -8 -16 -10 -16 -16 -2 -4 12 -22 15 -89 14 -49 0 -90 -5 -98
-13 -9 -7 -18 -8 -24 -3 -5 5 -62 11 -127 13 -89 2 -117 0 -117 -9 0 -18 -47
-16 -54 2 -7 19 -50 19 -66 0 -16 -19 -46 -19 -54 0 -8 21 -62 19 -71 -2 -6
-16 -8 -16 -18 -3 -15 20 -166 22 -189 3 -9 -8 -18 -9 -24 -4 -15 15 -243 18
-249 4 -6 -18 -42 -16 -49 2 -7 19 -50 19 -66 0 -16 -19 -46 -19 -54 0 -8 21
-62 19 -71 -2 -6 -16 -8 -16 -18 -3 -15 20 -166 22 -189 3 -9 -8 -18 -9 -24
-4 -5 5 -62 11 -127 13 -89 2 -117 0 -117 -9 0 -18 -47 -16 -54 2 -7 19 -50
19 -66 0 -16 -19 -46 -19 -54 0 -8 21 -62 19 -71 -2 -6 -16 -8 -16 -18 -3 -15
20 -166 22 -189 3 -9 -8 -18 -9 -24 -4 -15 15 -243 18 -249 4 -6 -18 -42 -16
-49 2 -7 19 -50 19 -66 0 -7 -8 -20 -15 -30 -15 -10 0 -20 7 -24 15 -8 21 -62
19 -71 -2 -6 -16 -8 -16 -18 -3 -15 20 -166 22 -189 3 -9 -8 -18 -9 -24 -4
-15 15 -243 18 -249 4 -6 -18 -42 -16 -49 2 -3 8 -16 15 -29 15 -14 0 -30 -7
-37 -15 -7 -8 -20 -15 -30 -15 -10 0 -20 7 -24 15 -8 21 -62 19 -71 -2 -6 -16
-8 -16 -18 -3 -15 20 -166 22 -189 3 -9 -8 -18 -9 -24 -4 -15 15 -243 18 -249
4 -6 -18 -42 -16 -49 2 -3 8 -16 15 -29 15 -14 0 -30 -7 -37 -15 -7 -8 -20
-15 -30 -15 -10 0 -20 7 -24 15 -8 21 -62 19 -71 -2 -6 -16 -8 -16 -18 -3 -15
20 -166 22 -189 3 -9 -8 -18 -9 -24 -4 -5 5 -62 11 -127 13 -89 2 -117 0 -117
-9 0 -18 -47 -16 -54 2 -3 8 -16 15 -29 15 -14 0 -30 -7 -37 -15 -7 -8 -20
-15 -30 -15 -10 0 -20 7 -24 15 -8 21 -62 19 -71 -2 -6 -16 -8 -16 -18 -3 -17
21 -127 24 -172 6 -21 -9 -37 -11 -40 -5 -4 5 -52 9 -108 8 -56 0 -109 2 -118
6 -10 4 -19 0 -22 -9 -8 -20 -43 -21 -51 -1 -3 8 -16 15 -29 15 -14 0 -30 -7
-37 -15 -7 -8 -20 -15 -30 -15 -10 0 -20 7 -24 15 -8 21 -63 19 -75 -2 -8 -16
-10 -16 -16 -2 -4 12 -22 15 -89 14 -49 0 -90 -5 -98 -13 -9 -7 -18 -8 -24 -3
-15 15 -243 18 -249 4 -6 -18 -42 -16 -49 2 -3 8 -16 15 -29 15 -14 0 -30 -7
-37 -15 -7 -8 -20 -15 -30 -15 -10 0 -20 7 -24 15 -6 17 -66 21 -66 4z m1250
-629 l0 -500 -345 0 -345 0 0 500 0 500 345 0 345 0 0 -500z m1650 0 l0 -500
-350 0 -350 0 0 500 0 500 350 0 350 0 0 -500z m1650 0 l0 -500 -350 0 -350 0
0 500 0 500 350 0 350 0 0 -500z m1650 0 l0 -500 -350 0 -350 0 0 500 0 500
350 0 350 0 0 -500z m1650 0 l0 -500 -350 0 -350 0 0 500 0 500 350 0 350 0 0
-500z"/>
<path d="M5627 1153 c-4 -3 -7 -24 -7 -45 0 -27 4 -38 15 -38 8 0 15 9 15 19
0 12 9 21 25 25 14 4 25 13 25 20 0 19 -58 34 -73 19z"/>
<path d="M5808 1152 c-9 -2 -18 -12 -21 -23 -3 -11 -14 -19 -26 -19 -14 0 -21
-6 -21 -20 0 -17 -7 -20 -40 -20 l-40 0 0 -45 c0 -38 -3 -45 -20 -45 -16 0
-20 -7 -20 -30 0 -16 -1 -33 -2 -37 -1 -5 6 -9 15 -11 10 -2 17 3 17 13 0 8
11 20 25 25 15 6 25 17 25 29 0 12 6 18 17 17 12 0 19 7 21 22 2 14 10 22 23
22 12 0 19 7 19 20 0 15 7 20 24 20 18 0 25 6 28 23 3 20 9 22 86 25 64 2 82
6 82 17 0 8 -6 15 -12 15 -89 4 -168 4 -180 2z"/>
<path d="M6078 1152 c-27 -3 -28 -5 -28 -63 0 -52 2 -59 19 -59 13 0 21 -8 23
-22 2 -13 10 -23 18 -23 12 0 16 -18 18 -87 3 -82 1 -88 -17 -88 -13 0 -21 -8
-23 -22 -2 -15 -10 -23 -23 -23 -16 0 -21 8 -23 42 -3 37 0 42 20 45 21 3 23
9 26 61 3 53 1 58 -22 67 -15 5 -26 16 -26 24 0 7 -9 16 -20 19 -12 3 -20 14
-20 27 0 19 -4 21 -62 18 -57 -3 -63 -5 -66 -26 -3 -16 -10 -22 -25 -21 -41 4
-55 -1 -60 -21 -3 -12 -14 -20 -26 -20 -14 0 -21 -6 -21 -20 0 -13 -7 -20 -20
-20 -18 0 -20 -7 -20 -65 0 -62 -4 -71 -32 -66 -5 0 -8 -8 -8 -20 0 -12 -8
-23 -20 -26 -26 -7 -27 -43 -1 -43 28 0 28 -80 0 -87 -15 -4 -19 -15 -19 -44
0 -32 3 -39 20 -39 18 0 20 -7 20 -65 0 -58 2 -65 20 -65 17 0 20 -7 20 -45 0
-39 3 -45 21 -45 12 0 23 -8 26 -20 3 -11 12 -20 19 -20 8 0 19 -11 24 -25 9
-22 15 -25 64 -25 49 0 55 2 58 22 4 33 36 35 48 3 9 -24 13 -26 67 -23 51 3
58 6 61 25 3 20 9 23 48 23 37 0 44 -3 44 -19 0 -25 20 -38 31 -20 6 10 3 18
-11 28 -25 17 -26 47 -1 54 31 8 27 127 -4 127 -7 0 -15 -10 -17 -23 -2 -14
-11 -23 -25 -25 -15 -2 -23 -10 -23 -23 0 -16 -7 -19 -40 -19 -33 0 -40 -3
-40 -20 0 -15 -7 -20 -25 -20 -33 0 -35 37 -2 42 14 2 23 11 25 26 3 18 10 22
43 22 39 0 39 0 39 40 0 33 3 40 20 40 15 0 20 7 20 26 0 23 -3 25 -37 22 -30
-3 -39 -8 -41 -26 -2 -14 -10 -22 -23 -22 -12 0 -19 -7 -19 -20 0 -15 -7 -20
-25 -20 -18 0 -25 5 -25 20 0 13 7 20 20 20 13 0 20 7 20 20 0 13 10 24 25 30
14 5 25 16 25 24 0 7 9 16 20 19 17 4 20 14 20 66 0 54 2 61 20 61 13 0 20 7
20 20 0 13 10 24 26 30 21 8 25 15 22 42 -2 25 -8 34 -25 36 -13 2 -23 9 -23
16 0 37 14 75 29 79 14 3 17 17 16 83 0 67 -3 79 -17 82 -13 2 -18 -3 -18 -17
0 -16 -6 -21 -25 -21 -23 0 -25 4 -25 43 0 29 -4 43 -12 43 -7 0 -25 -2 -40
-4z m-160 -190 c4 -29 42 -31 42 -2 0 13 7 20 20 20 13 0 20 -7 20 -20 0 -15
7 -20 26 -20 21 0 25 -4 22 -22 -2 -15 -10 -23 -23 -23 -13 0 -21 8 -23 23 -4
29 -42 31 -42 2 0 -18 -7 -20 -54 -20 -29 0 -67 -3 -84 -6 -27 -5 -31 -11 -34
-43 -2 -28 -7 -36 -23 -36 -16 0 -21 8 -23 38 -3 32 0 39 17 44 12 3 21 14 21
24 0 14 7 19 25 19 19 0 25 5 25 23 0 20 5 23 43 22 35 -1 42 -4 45 -23z
m-138 -237 c0 -32 -4 -45 -14 -45 -18 0 -23 -14 -18 -56 3 -25 9 -34 23 -34
14 0 19 -9 21 -42 3 -42 4 -43 39 -46 27 -2 38 -9 42 -23 3 -11 14 -19 27 -19
16 0 21 -5 18 -22 -2 -19 -10 -24 -45 -26 -40 -3 -43 -1 -43 22 0 21 -5 26
-25 26 -18 0 -25 5 -25 20 0 13 -7 20 -20 20 -15 0 -20 7 -20 25 0 18 -5 25
-20 25 -18 0 -20 7 -20 85 0 78 2 85 20 85 13 0 20 7 20 18 0 22 8 32 27 32 9
0 13 -14 13 -45z m8 -332 c2 -15 10 -23 23 -23 12 0 19 -7 19 -20 0 -13 7 -20
20 -20 19 0 28 -28 14 -43 -11 -11 -34 5 -34 24 0 14 -7 19 -25 19 -18 0 -25
5 -25 20 0 13 -7 20 -20 20 -15 0 -20 7 -20 26 0 21 4 25 23 22 14 -2 23 -11
25 -25z"/>
<path d="M6178 602 c-6 -39 0 -52 24 -52 16 0 19 6 16 37 -5 48 -33 58 -40 15z"/>
<path d="M5619 366 c-2 -2 -2 -32 -1 -66 l4 -61 36 3 c43 3 59 35 23 45 -15 4
-23 16 -27 44 -6 34 -21 49 -35 35z"/>
<path d="M7260 1112 c0 -36 3 -43 18 -40 9 2 18 9 18 16 1 6 2 17 3 22 0 6 10
10 22 10 14 0 19 5 17 17 -2 12 -14 18 -41 18 l-37 1 0 -44z"/>
<path d="M7447 1152 c-9 -2 -17 -12 -17 -22 0 -12 -8 -20 -22 -22 -13 -2 -23
-10 -23 -18 0 -10 -13 -16 -42 -18 l-43 -3 0 -45 c0 -37 -3 -44 -20 -44 -17 0
-20 -7 -20 -40 0 -30 4 -40 16 -40 9 0 18 9 21 20 3 11 13 20 23 20 12 0 20 9
22 23 2 12 10 22 18 22 8 0 17 9 20 20 3 11 16 21 28 23 14 2 22 10 22 23 0
12 7 19 20 19 13 0 20 7 20 19 0 22 15 27 100 30 63 2 99 15 69 25 -18 6 -170
12 -192 8z"/>
<path d="M7708 1153 c-15 -4 -18 -16 -18 -64 0 -53 2 -59 20 -59 13 0 24 -10
30 -25 5 -14 15 -24 22 -23 10 2 14 -20 16 -84 3 -82 1 -88 -17 -88 -13 0 -21
-8 -23 -22 -2 -15 -10 -23 -23 -23 -16 0 -21 8 -23 43 -3 37 -1 42 17 42 12 0
21 3 22 8 1 14 1 87 0 105 -1 10 -9 17 -21 17 -13 0 -20 7 -20 20 0 11 -7 20
-15 20 -9 0 -20 11 -25 25 -9 23 -15 25 -69 25 -54 0 -60 -2 -63 -22 -2 -19
-9 -23 -43 -24 -33 0 -41 -4 -43 -22 -2 -14 -10 -22 -23 -22 -12 0 -19 -7 -19
-19 0 -13 -8 -21 -22 -23 -21 -3 -23 -9 -26 -65 -2 -48 -7 -63 -18 -63 -8 0
-19 -11 -24 -25 -5 -14 -16 -25 -25 -25 -8 0 -15 -9 -15 -20 0 -13 7 -20 20
-20 17 0 20 -7 20 -41 0 -32 -4 -42 -20 -46 -16 -4 -20 -14 -20 -44 0 -32 3
-39 20 -39 18 0 20 -7 20 -65 0 -58 2 -65 20 -65 17 0 20 -7 20 -45 0 -39 3
-45 21 -45 12 0 23 -8 26 -20 3 -11 13 -20 23 -20 12 0 20 -9 22 -22 3 -21 8
-23 63 -23 55 0 60 2 63 23 5 31 40 29 52 -3 9 -22 15 -25 64 -25 49 0 55 2
58 22 2 19 10 24 44 26 32 2 43 8 47 23 3 10 12 19 20 19 20 0 24 16 19 78 -3
35 -8 52 -17 52 -8 0 -15 -10 -17 -23 -2 -14 -11 -23 -25 -25 -15 -2 -23 -10
-23 -23 0 -16 -7 -19 -45 -19 -38 0 -45 -3 -45 -20 0 -13 -7 -20 -19 -20 -10
0 -21 9 -24 20 -4 15 0 20 14 20 12 0 23 10 29 25 8 21 16 25 50 25 l40 0 0
40 c0 33 3 40 20 40 15 0 20 7 20 25 0 18 5 25 19 25 21 0 29 21 23 57 -7 37
-30 26 -37 -17 -7 -39 -8 -40 -46 -40 -35 0 -39 -3 -39 -25 0 -20 -5 -25 -25
-25 -18 0 -25 -5 -25 -20 0 -13 -7 -20 -20 -20 -13 0 -20 7 -20 19 0 10 9 21
20 24 12 3 20 14 20 25 0 14 8 22 23 24 12 2 21 9 19 16 -1 7 9 17 23 22 23 9
25 15 25 70 0 53 2 60 20 60 14 0 20 7 20 21 0 12 8 23 20 26 16 4 20 14 20
44 0 32 -3 39 -20 39 -17 0 -20 7 -20 41 0 32 4 42 20 46 22 6 22 7 22 88 0
30 -1 62 -1 70 -1 22 -28 18 -34 -5 -3 -12 -14 -20 -26 -20 -18 0 -21 6 -21
40 0 22 -3 40 -7 41 -5 0 -17 2 -28 3 -11 2 -28 1 -37 -1z m-148 -190 c0 -20
4 -24 23 -21 14 2 21 9 21 21 -1 12 5 17 22 17 17 0 24 -6 24 -20 0 -13 7 -20
19 -20 22 0 33 -21 21 -40 -11 -18 -40 -4 -40 20 0 27 -36 27 -43 0 -4 -17
-14 -20 -60 -20 -30 0 -69 -3 -86 -6 -28 -6 -31 -10 -31 -45 0 -32 -4 -39 -19
-39 -14 0 -21 10 -25 35 -8 42 -2 55 25 55 12 0 19 7 19 20 0 13 7 20 20 20
13 0 20 7 20 18 0 26 5 29 50 29 36 0 40 -2 40 -24z m-132 -236 c3 -32 0 -39
-17 -44 -17 -4 -21 -13 -21 -49 0 -37 3 -44 19 -44 16 0 20 -8 23 -42 3 -42 4
-43 40 -46 26 -2 39 -9 43 -23 4 -10 15 -19 26 -19 14 0 19 -7 19 -25 0 -24
-3 -26 -42 -23 -36 3 -44 7 -46 26 -2 14 -10 22 -23 22 -12 0 -19 7 -19 19 0
13 -8 21 -22 23 -15 2 -24 11 -26 26 -2 14 -10 22 -23 22 -17 0 -19 8 -19 85
0 78 2 85 20 85 13 0 20 7 20 18 0 50 44 40 48 -11z m4 -329 c2 -15 11 -24 26
-26 13 -2 22 -10 22 -22 0 -10 9 -20 20 -23 20 -5 27 -31 11 -41 -16 -10 -41
5 -41 25 0 12 -7 19 -20 19 -13 0 -20 7 -20 20 0 15 -7 20 -25 20 -14 0 -25 4
-25 9 0 42 46 58 52 19z"/>
<path d="M7260 305 l0 -66 37 3 c44 3 60 35 24 45 -13 3 -21 14 -22 29 -3 45
-4 49 -21 52 -16 3 -18 -5 -18 -63z"/>
<path d="M7836 283 c-12 -12 -6 -43 9 -43 8 0 15 9 15 19 0 21 -13 34 -24 24z"/>
<path d="M8928 1152 c-14 -3 -18 -13 -18 -43 0 -33 3 -40 18 -37 9 2 18 13 20
26 2 14 10 22 23 22 10 0 19 6 19 14 0 14 -33 24 -62 18z"/>
<path d="M9353 1153 c-9 -3 -13 -25 -13 -63 0 -53 2 -59 23 -62 14 -2 23 -11
25 -26 2 -15 9 -22 20 -20 15 3 17 -9 20 -84 3 -82 1 -88 -17 -88 -13 0 -21
-8 -23 -22 -2 -15 -10 -23 -23 -23 -16 0 -21 8 -23 43 -3 37 -1 42 17 42 19 0
21 6 21 65 0 58 -2 65 -19 65 -13 0 -21 8 -23 23 -2 12 -9 21 -16 19 -7 -1
-17 9 -22 23 -9 23 -15 25 -69 25 -54 0 -60 -2 -63 -22 -2 -19 -9 -23 -43 -24
-33 0 -41 -4 -43 -22 -2 -14 -10 -22 -23 -22 -12 0 -19 -7 -19 -19 0 -13 -8
-21 -22 -23 -21 -3 -23 -9 -26 -65 -2 -48 -7 -63 -18 -63 -8 0 -19 -11 -24
-25 -5 -14 -16 -25 -25 -25 -8 0 -15 -9 -15 -20 0 -13 7 -20 20 -20 17 0 20
-7 20 -41 0 -32 -4 -42 -20 -46 -16 -4 -20 -14 -20 -44 0 -32 3 -39 20 -39 18
0 20 -7 20 -65 0 -58 2 -65 20 -65 17 0 20 -7 20 -45 0 -41 2 -45 25 -45 18 0
25 -5 25 -20 0 -13 7 -20 19 -20 13 0 21 -8 23 -22 3 -21 9 -23 66 -26 61 -3
62 -3 62 23 0 22 4 26 23 23 14 -2 23 -11 25 -26 3 -20 9 -22 58 -22 49 0 55
3 64 25 8 22 16 25 55 25 41 0 45 -2 45 -25 0 -29 15 -33 29 -8 7 13 4 20 -12
28 -29 14 -33 35 -8 42 17 4 21 14 22 49 1 24 2 52 3 61 2 28 -32 28 -36 1 -2
-13 -9 -24 -15 -24 -7 -1 -17 -2 -23 -3 -5 0 -10 -10 -10 -21 0 -17 -7 -20
-46 -20 -41 0 -45 2 -42 22 2 19 10 24 46 26 42 3 42 3 42 43 0 32 3 39 20 39
15 0 20 7 20 25 0 19 5 25 23 25 19 0 23 5 21 28 -3 49 -4 52 -18 52 -9 0 -17
-15 -21 -40 -6 -38 -9 -40 -41 -40 -28 0 -36 -5 -44 -25 -6 -15 -17 -25 -30
-25 -13 0 -20 -7 -20 -20 0 -13 -7 -20 -20 -20 -13 0 -20 7 -20 19 0 10 9 21
20 24 12 3 20 14 20 25 0 14 8 22 23 24 14 2 21 9 19 20 -2 11 5 18 20 20 21
3 23 9 26 66 2 47 7 62 18 62 8 0 19 11 24 24 5 13 17 26 27 28 13 2 18 13 18
41 1 32 -2 37 -22 37 -20 0 -23 5 -23 40 0 32 4 42 21 48 18 7 21 17 22 90 2
70 0 82 -14 82 -9 0 -19 -9 -22 -20 -3 -12 -14 -20 -26 -20 -18 0 -21 6 -21
40 0 25 -5 40 -12 41 -7 1 -22 3 -33 4 -11 1 -26 0 -32 -2z m-141 -187 c4 -28
34 -33 41 -6 7 27 47 28 47 0 0 -13 7 -20 20 -20 15 0 20 -7 20 -25 0 -31 -32
-31 -40 0 -8 28 -40 33 -40 6 0 -19 -6 -21 -72 -23 -40 0 -80 -1 -88 -2 -10
-1 -16 -14 -18 -43 -2 -34 -7 -43 -21 -43 -13 0 -21 10 -25 35 -8 42 -2 55 25
55 12 0 19 7 19 20 0 13 7 20 20 20 13 0 20 7 20 19 0 19 16 26 67 28 15 0 23
-6 25 -21z m-134 -239 c3 -32 0 -39 -17 -44 -17 -4 -21 -13 -21 -49 0 -37 3
-44 19 -44 16 0 20 -8 23 -42 3 -42 4 -43 42 -46 28 -2 40 -9 43 -23 3 -10 14
-19 24 -19 14 0 19 -7 19 -26 0 -23 -3 -25 -42 -22 -36 2 -44 7 -46 26 -2 14
-10 22 -23 22 -12 0 -19 7 -19 19 0 13 -8 21 -22 23 -15 2 -23 10 -23 23 0 13
-8 21 -22 23 -22 3 -23 8 -23 88 0 77 2 84 20 84 13 0 20 7 20 18 0 50 44 40
48 -11z m2 -332 c0 -19 5 -25 21 -25 12 0 23 -8 26 -19 3 -11 14 -21 25 -24
26 -7 20 -42 -7 -42 -13 0 -21 8 -23 23 -2 14 -10 22 -23 22 -12 0 -19 7 -19
20 0 13 -7 20 -19 20 -11 0 -23 5 -26 10 -11 18 3 40 25 40 15 0 20 -7 20 -25z
m260 -45 c0 -23 -35 -28 -43 -6 -7 18 1 26 25 26 11 0 18 -7 18 -20z"/>
<path d="M9080 1130 c0 -13 -7 -20 -19 -20 -10 0 -21 -9 -24 -20 -4 -16 -14
-20 -46 -20 l-41 0 0 -45 c0 -38 -3 -45 -20 -45 -17 0 -20 -7 -20 -40 0 -33 3
-40 20 -40 13 0 20 7 20 20 0 13 7 20 20 20 14 0 20 7 20 21 0 12 8 23 19 26
11 3 21 13 24 24 3 11 14 19 26 19 14 0 21 6 21 20 0 13 7 20 19 20 11 0 21 9
25 23 6 24 2 23 124 26 39 1 52 5 52 16 0 12 -19 15 -110 15 -103 0 -110 -1
-110 -20z"/>
<path d="M8912 308 l3 -63 35 0 c39 0 56 29 21 38 -14 3 -20 15 -23 43 -2 28
-8 40 -21 42 -16 3 -18 -3 -15 -60z"/>
<path d="M10573 1153 c-19 -7 -17 -83 2 -83 9 0 20 11 25 25 5 14 16 25 25 25
8 0 15 7 15 15 0 8 -6 15 -14 15 -8 0 -20 2 -28 4 -7 3 -19 2 -25 -1z"/>
<path d="M10747 1152 c-10 -2 -17 -12 -17 -23 0 -12 -7 -19 -19 -19 -10 0 -21
-9 -24 -20 -4 -16 -14 -20 -46 -20 l-41 0 0 -45 c0 -38 -3 -45 -20 -45 -17 0
-20 -7 -20 -41 0 -33 3 -40 18 -37 9 2 17 10 17 18 0 8 10 16 23 18 14 2 22
10 22 23 0 10 7 19 15 19 9 0 20 11 25 25 6 15 17 25 30 25 13 0 20 7 20 20 0
13 7 20 20 20 13 0 20 7 20 19 0 21 40 31 122 31 42 0 69 13 55 26 -6 6 -175
11 -200 6z"/>
<path d="M11000 1146 c-6 -6 -10 -34 -10 -63 0 -50 1 -53 25 -53 20 0 25 -5
25 -24 0 -17 5 -23 18 -22 15 1 17 -10 20 -86 3 -82 1 -88 -17 -88 -13 0 -21
-8 -23 -22 -2 -15 -10 -23 -23 -23 -16 0 -21 8 -23 43 -3 37 -1 42 17 42 21 0
23 7 23 70 0 53 -3 60 -22 60 -14 0 -20 7 -20 21 0 12 -8 23 -20 26 -10 3 -22
14 -25 24 -5 16 -16 19 -65 19 -53 0 -59 -2 -62 -22 -2 -19 -9 -23 -43 -24
-33 0 -41 -4 -43 -22 -2 -14 -10 -22 -23 -22 -12 0 -19 -7 -19 -19 0 -13 -8
-21 -22 -23 -21 -3 -23 -9 -26 -65 -2 -48 -7 -63 -18 -63 -8 0 -19 -11 -24
-25 -5 -14 -16 -25 -25 -25 -8 0 -15 -9 -15 -20 0 -13 7 -20 20 -20 17 0 20
-7 20 -41 0 -32 -4 -42 -20 -46 -16 -4 -20 -14 -20 -44 0 -32 3 -39 20 -39 18
0 20 -7 20 -65 0 -58 2 -65 20 -65 17 0 20 -7 20 -45 0 -41 2 -45 25 -45 18 0
25 -5 25 -20 0 -11 7 -20 15 -20 9 0 20 -11 25 -24 8 -22 14 -24 67 -22 52 1
58 3 61 24 5 31 40 29 52 -3 8 -21 16 -25 54 -25 57 0 76 8 76 31 0 15 7 19
40 19 30 0 40 4 40 16 0 9 9 18 20 21 17 5 20 14 20 69 0 49 -3 64 -14 64 -8
0 -16 -10 -18 -22 -2 -15 -11 -24 -25 -26 -15 -2 -23 -10 -23 -23 0 -16 -7
-19 -45 -19 -41 0 -45 2 -45 25 0 23 4 25 45 25 l45 0 0 40 c0 33 3 40 20 40
15 0 20 7 20 25 0 18 5 25 20 25 17 0 20 7 20 39 0 58 -26 62 -35 5 l-6 -45
-41 3 c-48 4 -61 24 -24 38 24 9 26 14 26 70 0 53 2 60 20 60 14 0 20 7 20 21
0 12 8 23 20 26 16 4 20 14 20 44 0 32 -3 39 -20 39 -17 0 -20 7 -20 41 0 32
4 42 19 46 16 4 20 16 23 61 4 77 -1 112 -16 112 -8 0 -16 -9 -19 -20 -3 -12
-14 -20 -26 -20 -18 0 -21 6 -21 39 0 37 -2 39 -35 43 -19 2 -40 -1 -45 -6z
m-142 -184 c4 -28 38 -30 45 -2 3 12 14 20 26 20 14 0 21 -6 21 -20 0 -13 7
-20 20 -20 15 0 20 -7 20 -26 0 -33 -33 -30 -38 4 -4 29 -42 31 -42 2 0 -18
-7 -20 -59 -20 -32 0 -73 -3 -90 -6 -28 -6 -31 -10 -31 -45 0 -32 -3 -39 -20
-39 -11 0 -20 4 -20 9 0 5 -3 22 -6 40 -6 27 -3 32 20 41 14 5 26 16 26 25 0
8 7 15 15 15 9 0 19 10 24 23 8 19 16 23 48 22 31 0 39 -5 41 -23z m-130 -235
c3 -32 0 -39 -17 -44 -17 -4 -21 -13 -21 -49 0 -37 3 -44 19 -44 16 0 20 -8
23 -42 3 -42 4 -43 42 -46 28 -2 40 -9 43 -23 3 -10 14 -19 24 -19 14 0 19 -7
19 -25 0 -23 -4 -25 -40 -25 -34 0 -42 4 -50 25 -5 14 -16 25 -25 25 -8 0 -15
9 -15 19 0 13 -8 21 -22 23 -15 2 -24 11 -26 26 -2 14 -10 22 -23 22 -17 0
-19 8 -19 85 0 78 2 85 20 85 13 0 20 7 20 18 0 50 44 40 48 -11z m310 -199
c-2 -15 -11 -24 -25 -26 -15 -2 -23 -10 -23 -23 0 -12 -7 -19 -20 -19 -13 0
-20 7 -20 19 0 10 9 21 20 24 12 3 20 14 20 26 0 16 6 21 26 21 21 0 25 -4 22
-22z m-308 -133 c0 -20 5 -25 25 -25 18 0 25 -5 25 -20 0 -11 6 -20 14 -20 15
0 28 -24 19 -34 -15 -14 -43 -5 -43 14 0 13 -7 20 -19 20 -10 0 -21 9 -24 20
-3 12 -14 20 -26 20 -14 0 -21 6 -21 18 0 24 8 32 32 32 13 0 18 -7 18 -25z
m260 -45 c0 -23 -35 -28 -43 -6 -7 18 1 26 25 26 11 0 18 -7 18 -20z"/>
<path d="M10560 306 l0 -66 40 0 c33 0 40 4 40 19 0 10 -9 21 -20 24 -13 3
-20 14 -21 31 -3 47 -4 51 -21 54 -16 3 -18 -5 -18 -62z"/>
<path d="M11130 269 c0 -10 5 -21 11 -25 15 -9 31 9 24 28 -8 21 -35 18 -35
-3z"/>
<path d="M12215 1151 c-3 -2 -5 -22 -5 -43 0 -32 3 -39 18 -36 9 2 16 12 16
21 -1 10 8 20 22 23 22 6 35 33 17 35 -37 4 -65 4 -68 0z"/>
<path d="M12458 1152 c-69 -2 -78 -5 -78 -22 0 -12 -8 -20 -22 -22 -13 -2 -23
-10 -23 -18 0 -10 -13 -16 -42 -18 l-43 -3 0 -45 c0 -37 -3 -44 -20 -44 -17 0
-20 -7 -20 -40 0 -30 4 -40 16 -40 9 0 18 9 21 20 3 11 13 20 23 20 12 0 20 9
22 23 2 14 9 21 20 19 11 -2 18 5 20 20 2 15 11 24 26 26 14 2 22 10 22 23 0
12 7 19 20 19 11 0 20 7 20 15 0 22 42 35 116 35 60 0 79 9 52 26 -14 9 -30
10 -130 6z"/>
<path d="M12651 1152 c-6 -2 -11 -29 -11 -62 0 -32 -4 -61 -8 -64 -11 -7 -27
6 -35 27 -5 14 -18 17 -67 17 -53 0 -60 -2 -60 -19 0 -16 -9 -21 -45 -27 -35
-5 -45 -10 -45 -25 0 -12 -7 -19 -20 -19 -13 0 -20 -7 -20 -19 0 -13 -8 -21
-22 -23 -21 -3 -23 -9 -26 -65 -2 -48 -7 -63 -18 -63 -8 0 -19 -11 -24 -25 -5
-14 -16 -25 -25 -25 -8 0 -15 -9 -15 -20 0 -13 7 -20 20 -20 17 0 20 -7 20
-41 0 -32 -4 -42 -20 -46 -16 -4 -20 -14 -20 -44 0 -32 3 -39 20 -39 18 0 20
-7 20 -65 0 -58 2 -65 20 -65 17 0 20 -7 20 -45 0 -41 2 -45 25 -45 18 0 25
-5 25 -20 0 -13 7 -20 19 -20 13 0 21 -8 23 -22 3 -21 8 -23 63 -23 55 0 60 2
63 23 5 31 46 27 50 -6 3 -20 9 -22 62 -22 53 0 59 2 62 23 2 18 10 23 46 25
30 2 42 8 42 19 0 8 9 17 20 20 17 5 20 14 20 69 0 49 -3 64 -14 64 -8 0 -16
-10 -18 -22 -2 -15 -11 -24 -25 -26 -15 -2 -23 -10 -23 -23 0 -16 -7 -19 -46
-19 -41 0 -45 2 -42 22 2 19 10 24 46 26 42 3 42 3 42 43 0 32 3 39 20 39 15
0 20 7 20 25 0 18 5 25 19 25 19 0 30 29 23 63 -7 33 -32 18 -38 -23 -6 -39
-8 -40 -45 -40 -35 0 -39 -3 -39 -25 0 -20 -5 -25 -25 -25 -20 0 -25 5 -25 25
0 18 5 25 20 25 11 0 20 7 20 15 0 9 11 20 25 25 23 9 25 15 25 70 0 53 2 60
20 60 13 0 20 7 20 20 0 12 9 24 23 29 31 12 31 74 -1 79 -18 3 -22 10 -22 43
0 32 4 41 23 48 21 8 22 13 19 90 -3 58 -7 81 -17 81 -7 0 -15 -9 -18 -20 -3
-12 -14 -20 -26 -20 -18 0 -21 6 -21 40 0 22 -3 40 -7 41 -35 4 -63 4 -72 1z
m39 -147 c0 -18 5 -25 20 -25 18 0 20 -7 20 -85 0 -77 -2 -85 -19 -85 -13 0
-21 -8 -23 -22 -2 -15 -10 -23 -23 -23 -16 0 -21 8 -23 43 -3 37 -1 42 17 42
19 0 21 6 21 55 0 30 0 58 0 63 1 4 -8 8 -20 10 -14 2 -20 11 -20 28 0 19 5
24 25 24 20 0 25 -5 25 -25z m-179 -43 c5 -13 17 -22 29 -22 13 0 20 -7 20
-20 0 -18 -7 -20 -72 -21 -40 -1 -80 -2 -88 -3 -10 -1 -16 -15 -18 -43 -2 -34
-7 -43 -21 -43 -13 0 -21 10 -25 35 -8 42 -2 55 25 55 12 0 19 7 19 20 0 13 7
20 20 20 13 0 20 7 20 19 0 37 78 39 91 3z m89 -2 c0 -13 7 -20 20 -20 14 0
20 -7 20 -23 0 -16 -6 -23 -20 -24 -14 -1 -20 4 -20 18 0 12 -10 23 -25 29
-36 14 -32 40 7 40 11 0 18 -7 18 -20z m-222 -233 c3 -32 0 -39 -17 -44 -17
-4 -21 -13 -21 -49 0 -37 3 -44 19 -44 16 0 20 -8 23 -42 2 -25 8 -44 16 -44
6 -1 26 -2 42 -3 23 -1 30 -6 30 -21 0 -13 7 -20 20 -20 14 0 20 -7 20 -22 0
-20 -6 -23 -40 -25 -35 -2 -42 1 -50 22 -5 14 -16 25 -25 25 -8 0 -15 9 -15
19 0 13 -8 21 -22 23 -15 2 -24 11 -26 26 -2 14 -10 22 -23 22 -17 0 -19 8
-19 85 0 78 2 85 20 85 11 0 21 5 21 10 1 6 3 15 4 20 1 6 3 13 4 16 0 3 9 4
19 2 12 -2 18 -14 20 -41z m262 -247 c0 -13 -7 -20 -20 -20 -13 0 -20 7 -20
20 0 13 7 20 20 20 13 0 20 -7 20 -20z m-260 -85 c0 -20 5 -25 25 -25 18 0 25
-5 25 -19 0 -10 9 -21 20 -24 22 -6 24 -14 11 -36 -12 -19 -41 -6 -41 19 0 13
-7 20 -20 20 -13 0 -20 7 -20 20 0 13 -7 20 -19 20 -11 0 -23 5 -26 10 -11 18
3 40 25 40 15 0 20 -7 20 -25z m260 -45 c0 -13 -7 -20 -20 -20 -13 0 -20 7
-20 20 0 13 7 20 20 20 13 0 20 -7 20 -20z"/>
<path d="M12212 308 l3 -63 35 0 c40 0 55 29 21 40 -14 4 -21 16 -23 43 -2 26
-8 38 -21 40 -16 3 -18 -3 -15 -60z"/>
<path d="M12791 281 c-8 -5 -11 -16 -8 -25 10 -25 27 -19 27 9 0 28 0 28 -19
16z"/>
<path d="M52 5873 c5 -25 28 -28 28 -4 0 12 -6 21 -16 21 -9 0 -14 -7 -12 -17z"/>
<path d="M4675 5691 c-3 -5 -1 -12 5 -16 12 -7 30 2 30 16 0 12 -27 12 -35 0z"/>
<path d="M54 5560 c2 -60 5 -65 29 -57 8 3 9 8 2 18 -10 13 -12 48 -4 78 2 8
-3 16 -12 18 -14 3 -16 -5 -15 -57z"/>
<path d="M2391 5603 c-648 -2 -908 -6 -918 -14 -20 -17 -19 -851 1 -868 10 -8
258 -10 917 -9 l904 3 2 448 c1 246 1 446 0 445 -1 -2 -409 -4 -906 -5z m874
-448 l0 -410 -885 0 -885 0 -3 400 c-1 220 0 406 3 413 3 10 186 12 887 10
l883 -3 0 -410z"/>
<path d="M1819 5150 c9 -33 18 -60 22 -60 3 0 12 19 19 43 l14 42 9 -43 c6
-23 14 -41 20 -39 12 4 49 96 44 111 -2 6 -12 -14 -22 -44 -15 -44 -20 -51
-26 -35 -4 11 -8 32 -8 47 -1 45 -20 41 -32 -6 -13 -54 -24 -52 -33 4 -3 22
-10 40 -14 40 -5 0 -2 -27 7 -60z"/>
<path d="M2202 5198 c-7 -7 -12 -28 -12 -48 0 -56 47 -84 70 -41 23 44 7 101
-30 101 -9 0 -21 -5 -28 -12z m53 -28 c10 -33 -4 -62 -28 -58 -22 3 -34 35
-23 64 8 21 44 17 51 -6z"/>
<path d="M2350 5153 c0 -32 5 -65 10 -73 7 -10 10 7 10 58 0 41 -4 72 -10 72
-6 0 -10 -26 -10 -57z"/>
<path d="M2450 5151 l0 -61 35 0 c19 0 35 5 35 10 0 6 -14 10 -31 10 -30 0
-30 0 -24 44 5 28 3 46 -4 50 -8 5 -11 -12 -11 -53z"/>
<path d="M2897 5192 c-33 -36 -12 -108 29 -100 10 2 25 16 33 33 12 25 12 32
0 54 -18 33 -40 37 -62 13z m48 -42 c0 -41 -27 -53 -45 -21 -14 27 4 64 28 59
12 -2 17 -13 17 -38z"/>
<path d="M1973 5130 c0 -25 2 -35 4 -22 2 12 2 32 0 45 -2 12 -4 2 -4 -23z"/>
<path d="M2010 5125 l1 -40 14 33 c17 38 35 42 35 8 0 -14 5 -28 12 -32 8 -5
9 0 5 17 -4 13 -7 32 -7 41 0 13 -8 17 -30 15 -28 -2 -30 -5 -30 -42z"/>
<path d="M2552 5158 c-15 -15 -16 -54 -2 -63 6 -3 19 -3 31 0 16 5 19 14 17
38 -3 34 -25 46 -46 25z m38 -28 c0 -13 -7 -20 -20 -20 -19 0 -27 20 -13 33
13 14 33 6 33 -13z"/>
<path d="M2648 5163 c-26 -7 -22 -41 5 -46 18 -4 17 -4 -6 -6 -31 -1 -28 -21
3 -21 30 0 35 21 9 41 l-24 19 23 0 c12 0 22 5 22 10 0 10 -3 11 -32 3z"/>
<path d="M2712 5158 c-32 -32 0 -78 42 -62 25 10 19 20 -11 19 -33 0 -39 28
-8 33 20 3 20 3 1 -13 -25 -19 -6 -20 20 0 16 13 17 16 4 25 -20 13 -33 13
-48 -2z"/>
<path d="M2100 5109 c0 -5 5 -7 10 -4 6 3 10 8 10 11 0 2 -4 4 -10 4 -5 0 -10
-5 -10 -11z"/>
<path d="M140 5536 c0 -21 21 -31 30 -15 5 7 6 17 4 21 -9 14 -34 9 -34 -6z"/>
<path d="M4674 5519 c-8 -14 11 -33 25 -25 16 10 13 36 -3 36 -8 0 -18 -5 -22
-11z"/>
<path d="M4674 5159 c-7 -12 15 -31 28 -23 4 3 8 12 8 20 0 17 -26 19 -36 3z"/>
<path d="M140 4996 c0 -8 7 -16 15 -20 10 -4 15 1 15 14 0 11 -7 20 -15 20 -8
0 -15 -6 -15 -14z"/>
<path d="M4674 4979 c-3 -6 -2 -15 4 -21 13 -13 32 -2 32 18 0 16 -26 19 -36
3z"/>
<path d="M55 4800 c-8 -13 4 -32 16 -25 12 8 12 35 0 35 -6 0 -13 -4 -16 -10z"/>
<path d="M54 4709 c-3 -6 -1 -16 5 -22 9 -9 14 -8 21 3 9 15 4 30 -10 30 -5 0
-12 -5 -16 -11z"/>
<path d="M4680 4604 c0 -9 5 -14 12 -12 18 6 21 28 4 28 -9 0 -16 -7 -16 -16z"/>
<path d="M57 4533 c-8 -16 -1 -108 8 -111 5 -1 11 25 12 58 2 52 -7 77 -20 53z"/>
<path d="M9762 4490 c-12 -5 -27 -21 -32 -36 -7 -17 -9 -319 -8 -855 3 -780 4
-829 21 -846 17 -17 57 -18 603 -21 l584 -2 25 24 25 25 -2 663 -3 663 -30 14
c-48 22 -73 50 -106 118 -17 35 -36 69 -43 76 -21 22 -48 69 -42 74 2 3 22 5
43 5 21 0 47 4 58 9 35 15 98 28 107 23 4 -3 8 6 8 19 0 15 -10 31 -25 41 -22
14 -86 16 -592 15 -316 0 -578 -4 -591 -9z m364 -163 c-5 -23 -33 -44 -43 -33
-3 2 1 31 7 63 l13 58 15 -31 c8 -19 12 -43 8 -57z m434 -1210 c0 -8 7 -28 16
-45 18 -37 7 -67 -28 -78 -13 -4 -26 -12 -30 -18 -11 -16 -10 16 1 33 5 8 16
11 25 8 9 -4 16 -2 16 3 0 6 -4 10 -9 10 -19 0 -28 51 -16 88 6 16 25 15 25
-1z m100 -178 c0 -11 -4 -17 -10 -14 -5 3 -10 13 -10 21 0 8 5 14 10 14 6 0
10 -9 10 -21z m-148 -154 c-2 -14 -6 -25 -8 -25 -2 0 -4 11 -4 25 0 14 4 25 9
25 4 0 6 -11 3 -25z"/>
<path d="M142 4453 c5 -25 28 -28 28 -4 0 12 -6 21 -16 21 -9 0 -14 -7 -12
-17z"/>
<path d="M4674 4439 c-10 -17 13 -36 27 -22 12 12 4 33 -11 33 -5 0 -12 -5
-16 -11z"/>
<path d="M1575 4108 c-3 -13 -4 -471 -3 -1018 l3 -995 808 -3 807 -2 0 1020 0
1020 -805 0 -805 0 -5 -22z m1498 -83 l27 -24 0 -521 c0 -451 -2 -520 -15
-520 -12 0 -15 69 -17 515 -3 446 -5 517 -18 525 -9 6 -276 10 -672 10 -584 0
-658 -2 -672 -16 -14 -14 -16 -65 -15 -422 1 -369 7 -486 21 -442 4 13 17 70
55 255 3 17 17 47 29 67 13 21 24 43 24 49 0 6 14 28 30 49 33 41 36 50 18 50
-18 0 -48 -31 -48 -51 0 -10 -9 -23 -20 -29 -11 -6 -20 -19 -20 -30 0 -36 -18
-30 -23 7 -10 81 -8 136 7 158 12 18 13 24 2 28 -9 4 -13 40 -14 136 l-2 131
224 -3 c124 -1 228 -6 232 -9 4 -4 -4 -12 -18 -17 -14 -5 -38 -24 -54 -41 -51
-56 -119 -120 -128 -120 -11 0 -51 -43 -59 -64 -11 -29 20 -17 52 19 17 19 34
35 37 35 4 0 16 7 26 17 23 21 36 9 19 -18 -19 -31 -9 -32 40 -4 51 29 69 31
69 10 0 -19 -47 -114 -68 -138 -22 -25 -7 -33 30 -15 48 23 101 38 131 38 15
0 45 11 67 25 22 14 46 25 53 25 18 0 75 28 82 41 4 5 14 9 24 9 10 0 24 7 31
15 7 8 23 15 36 15 14 0 24 6 24 14 0 10 9 14 25 12 38 -4 38 -9 0 -45 -40
-38 -47 -66 -13 -55 36 11 -59 -83 -107 -106 -74 -36 -87 -23 -25 25 72 55 46
60 -56 12 -38 -19 -107 -42 -154 -51 -121 -25 -134 -33 -256 -151 -54 -52 -85
-90 -89 -110 -4 -16 -12 -43 -18 -59 -10 -27 -11 -27 -24 -10 -7 10 -13 33
-13 52 0 19 -4 31 -10 27 -5 -3 -10 -28 -10 -55 0 -27 5 -52 10 -55 19 -12 10
-55 -25 -125 -19 -38 -35 -74 -35 -80 0 -6 -10 -34 -21 -61 l-22 -50 -17 38
c-24 51 -28 36 -35 -127 -14 -337 -15 -351 -32 -348 -14 3 -16 83 -19 765 l-4
762 30 31 29 30 668 0 668 -1 28 -24z m-633 -85 c-12 -22 -25 -26 -35 -10 -3
6 -16 11 -28 11 -14 1 -9 4 13 9 60 13 62 12 50 -10z m273 -5 c12 -11 16 -12
20 -1 4 9 29 12 94 10 48 -1 93 -2 98 -3 7 -1 8 -29 3 -83 -4 -46 -5 -91 -2
-100 6 -22 -12 -58 -30 -58 -7 0 -26 21 -42 46 -26 42 -32 45 -61 41 -26 -5
-32 -2 -37 18 -3 13 -3 37 0 54 7 35 -9 41 -42 16 -10 -8 -27 -15 -36 -15 -10
0 -18 -4 -18 -9 0 -5 -12 -14 -27 -20 -16 -5 -44 -19 -63 -30 -19 -10 -42 -22
-50 -25 -8 -3 -22 -10 -30 -15 -8 -6 -34 -18 -57 -27 -24 -10 -43 -21 -43 -26
0 -4 -10 -8 -22 -8 -12 0 -29 -7 -39 -16 -20 -18 -49 -12 -49 9 0 8 12 26 26
40 15 15 34 41 43 59 12 25 28 37 69 52 40 14 50 22 42 31 -8 10 -5 17 12 29
12 9 30 16 39 16 9 0 19 7 23 15 8 21 158 21 179 0z m-393 -14 c0 -5 -9 -11
-20 -14 -20 -5 -26 3 -13 16 9 10 33 8 33 -2z m-55 -31 c-3 -5 -13 -10 -21
-10 -8 0 -12 5 -9 10 3 6 13 10 21 10 8 0 12 -4 9 -10z m725 -99 c0 -52 -11
-131 -19 -131 -3 0 -5 38 -3 85 2 47 8 85 13 85 5 0 9 -17 9 -39z m-180 -65
c0 -19 -59 -68 -78 -64 -25 5 -24 21 3 51 27 29 75 37 75 13z m45 -59 c20 -16
14 -22 -33 -32 -25 -5 -33 -3 -38 10 -12 31 37 46 71 22z m-145 -34 c-1 -11
-71 -45 -78 -38 -10 10 31 45 55 45 12 0 23 -3 23 -7z m223 -58 c1 -5 -9 -12
-23 -13 -14 -2 -30 -8 -37 -13 -6 -6 -40 -18 -75 -28 -34 -10 -74 -23 -88 -29
-14 -6 -52 -18 -85 -28 -33 -9 -80 -27 -105 -39 -63 -31 -110 -41 -110 -22 0
18 26 40 70 60 58 26 181 65 260 82 41 9 91 23 110 30 39 15 80 15 83 0z
m-511 -27 c-9 -9 -15 -9 -24 0 -9 9 -7 12 12 12 19 0 21 -3 12 -12z m-252 -78
c0 -5 -7 -10 -15 -10 -8 0 -15 5 -15 10 0 6 7 10 15 10 8 0 15 -4 15 -10z m76
-48 c-18 -16 -18 -16 -6 6 6 13 14 21 18 18 3 -4 -2 -14 -12 -24z m544 10
c126 -3 158 -9 125 -22 -28 -12 -272 -12 -279 -1 -11 18 6 43 23 34 9 -4 68
-9 131 -11z m-570 -30 c0 -10 -65 -42 -87 -42 -30 0 16 38 51 43 17 2 32 5 34
5 1 1 2 -2 2 -6z m169 -45 c11 -14 -3 -37 -21 -37 -5 0 -26 -11 -48 -25 -54
-34 -54 -10 0 39 44 40 52 42 69 23z m264 -1 c16 -13 15 -14 -13 -18 -36 -5
-44 0 -29 19 14 16 19 16 42 -1z m279 -8 c0 -13 1 -30 0 -38 -1 -8 -2 -40 -3
-70 -1 -30 -5 -59 -9 -65 -5 -5 -13 -29 -19 -52 -6 -22 -20 -52 -31 -65 -18
-20 -19 -20 -13 -3 3 11 12 29 20 40 7 11 13 29 13 40 0 12 4 25 9 31 16 17
20 163 4 175 -19 16 -16 29 7 29 14 0 21 -7 22 -22z m-184 -15 c-10 -2 -28 -2
-40 0 -13 2 -5 4 17 4 22 1 32 -1 23 -4z m-45 -61 c10 -9 17 -29 17 -54 0 -42
-5 -45 -35 -22 -12 9 -30 12 -47 8 -21 -4 -28 -2 -28 9 0 8 -7 20 -15 27 -17
14 -20 47 -4 52 23 8 95 -5 112 -20z m100 11 c-7 -2 -19 -2 -25 0 -7 3 -2 5
12 5 14 0 19 -2 13 -5z m-705 -32 c3 -8 -1 -12 -9 -9 -7 2 -15 10 -17 17 -3 8
1 12 9 9 7 -2 15 -10 17 -17z m249 -15 c-12 -13 -35 -32 -52 -43 -16 -12 -54
-44 -84 -72 -51 -48 -54 -50 -76 -35 -14 9 -21 22 -18 30 8 20 21 17 28 -7 7
-21 7 -21 27 -1 17 17 18 22 7 40 -17 27 -3 42 15 17 12 -16 16 -17 30 -6 19
16 21 38 4 43 -7 3 -9 12 -4 24 7 19 8 19 22 -1 12 -16 17 -17 32 -7 49 36 76
50 84 46 4 -3 -2 -15 -15 -28z m123 24 c0 -5 -7 -10 -16 -10 -8 0 -12 5 -9 10
3 6 10 10 16 10 5 0 9 -4 9 -10z m-450 -42 c0 -5 -9 -4 -20 2 -11 6 -18 15
-14 21 6 11 34 -7 34 -23z m550 15 c0 -9 7 -24 15 -33 14 -15 13 -20 -6 -44
-14 -18 -28 -26 -40 -23 -10 3 -25 -4 -35 -14 -10 -12 -30 -19 -51 -19 -19 0
-43 -4 -53 -10 -14 -8 -21 -5 -34 15 -10 15 -26 25 -39 25 -21 -1 -21 -1 6
-25 24 -21 26 -26 12 -31 -13 -6 -88 11 -104 23 -9 6 23 33 39 33 10 0 20 7
24 15 3 9 18 15 36 15 17 0 49 12 71 27 38 25 42 26 54 10 17 -23 35 -22 35 3
0 11 12 26 28 34 35 20 42 20 42 -1z m269 2 c12 -12 -25 -36 -53 -33 -24 2
-32 8 -34 27 -4 23 -2 24 39 17 24 -4 45 -9 48 -11z m-682 -27 c-3 -8 -6 -5
-6 6 -1 11 2 17 5 13 3 -3 4 -12 1 -19z m-222 1 c12 -19 -5 -23 -22 -6 -16 16
-16 17 -1 17 9 0 20 -5 23 -11z m83 -41 c17 -17 15 -93 -3 -108 -8 -7 -15 -20
-15 -30 0 -10 -7 -23 -16 -31 -21 -18 -104 -184 -104 -209 0 -13 -10 -24 -26
-30 -23 -9 -26 -14 -20 -42 3 -17 2 -36 -3 -42 -4 -6 -11 -28 -14 -49 -4 -28
-2 -40 9 -44 7 -3 14 -16 14 -29 0 -13 4 -24 9 -24 12 0 71 -52 71 -62 0 -5
-8 -8 -18 -8 -10 0 -23 -5 -30 -12 -9 -9 -15 -9 -24 0 -7 7 -22 12 -34 12 -13
0 -32 12 -44 28 -19 23 -21 35 -15 77 3 27 13 57 21 67 10 10 15 31 13 55 -1
21 3 48 9 60 7 12 12 28 12 36 0 8 7 14 16 13 12 -1 25 21 45 77 30 81 45 108
91 168 l27 36 -24 23 -24 23 27 27 c32 33 35 33 50 18z m786 -4 c9 -3 16 -15
16 -25 0 -14 -7 -19 -29 -19 -33 0 -46 13 -37 35 6 16 24 19 50 9z m-259 -130
c-27 -57 -28 -72 -10 -174 l6 -35 -30 35 c-17 19 -31 40 -31 48 0 7 -9 32 -20
54 -11 23 -20 47 -20 54 0 7 27 25 60 41 33 15 60 31 60 37 0 5 3 7 6 3 3 -3
-6 -31 -21 -63z m245 41 c0 -18 -34 -37 -54 -29 -16 6 -21 26 -9 37 13 14 63
7 63 -8z m-513 -27 c13 -12 23 -29 23 -39 0 -20 -29 -33 -54 -23 -13 5 -14 9
-4 21 13 16 -3 33 -34 33 -11 0 -15 5 -12 15 9 22 54 18 81 -7z m368 -8 c-19
-21 -45 -27 -45 -10 0 11 30 29 49 30 11 0 10 -5 -4 -20z m349 7 c-2 -7 7 -26
21 -41 17 -18 24 -34 20 -46 -4 -13 1 -22 15 -30 15 -8 20 -21 20 -50 0 -21
-3 -45 -6 -54 -10 -27 -24 -7 -24 34 0 46 -17 62 -26 25 -11 -43 -28 -23 -25
30 2 32 -3 59 -16 82 -18 34 -18 35 1 49 24 17 27 17 20 1z m-877 -24 c3 -7
-11 -29 -30 -50 -19 -21 -39 -48 -46 -60 -6 -13 -16 -23 -21 -23 -23 0 -7 47
31 97 40 51 58 61 66 36z m612 -14 c11 -18 11 -23 -1 -30 -38 -25 -85 4 -58
36 18 21 43 19 59 -6z m179 -82 c3 -63 -13 -77 -42 -35 -16 22 -17 22 -46 5
-16 -10 -30 -15 -30 -10 0 13 94 103 105 100 5 -2 11 -29 13 -60z m-480 22 c2
-20 -7 -35 -38 -63 -40 -36 -79 -45 -71 -15 2 8 6 25 9 39 12 64 93 96 100 39z
m230 1 c27 -36 27 -40 0 -40 -33 0 -60 28 -47 51 13 26 22 24 47 -11z m-52
-46 c27 -29 31 -44 10 -44 -18 0 -58 49 -50 61 8 14 15 11 40 -17z m-501 -4
c-10 -11 -23 -20 -28 -20 -6 0 -2 9 8 20 10 11 23 20 28 20 6 0 2 -9 -8 -20z
m155 -13 c0 -8 -9 -22 -20 -32 -11 -10 -20 -26 -20 -37 0 -11 -7 -18 -19 -18
-27 0 -34 15 -16 30 8 7 15 20 15 29 0 9 5 22 12 29 16 16 48 15 48 -1z m-107
-14 c12 -11 -25 -43 -49 -43 -34 0 -38 17 -7 33 32 17 47 20 56 10z m597 -24
c0 -5 -4 -9 -10 -9 -5 0 -10 7 -10 16 0 8 5 12 10 9 6 -3 10 -10 10 -16z m100
-7 c0 -15 5 -33 12 -40 9 -9 9 -12 0 -12 -7 0 -12 5 -12 10 0 18 -30 11 -64
-15 -18 -14 -40 -25 -49 -25 -26 0 -21 37 6 44 12 3 38 19 57 35 44 38 50 38
50 3z m-512 -29 c2 -9 -7 -13 -27 -13 -21 0 -31 5 -31 16 0 19 51 16 58 -3z
m-346 -59 c-11 -160 -14 -172 -35 -191 -21 -17 -21 -17 -8 0 19 24 20 101 2
154 -13 39 -13 45 4 63 26 29 40 19 37 -26z m123 36 c4 -6 -5 -24 -18 -40 -14
-16 -28 -43 -32 -60 -7 -32 -19 -39 -28 -16 -9 23 4 89 21 109 17 19 47 23 57
7z m890 -148 l-3 -97 -44 -37 c-23 -21 -49 -38 -55 -38 -7 0 -13 -4 -13 -10 0
-5 -15 -10 -34 -10 -19 0 -38 -4 -41 -10 -8 -13 -35 -13 -55 0 -13 8 -12 12 5
29 69 69 74 119 17 165 l-23 19 27 28 c34 36 102 72 121 65 8 -4 31 8 51 24
l37 30 6 -30 c4 -17 5 -74 4 -128z m69 -434 c-27 -22 -25 -22 -311 -18 -7 0
-13 7 -13 15 0 13 23 15 149 15 114 0 151 3 160 14 8 10 11 90 11 271 -1 203
2 260 12 266 11 7 13 -43 16 -267 l2 -276 -26 -20z m-864 554 c0 -4 -4 -12 -9
-17 -5 -6 -16 -32 -23 -58 -8 -27 -18 -48 -23 -48 -15 1 -18 100 -4 117 12 15
59 20 59 6z m90 -3 c0 -22 -53 -109 -67 -109 -21 0 -16 64 8 94 20 26 59 36
59 15z m142 -141 c-7 -7 -12 -21 -12 -32 0 -14 -3 -17 -11 -9 -13 13 5 53 23
53 9 0 9 -3 0 -12z m276 -31 c3 -13 -3 -17 -27 -17 -36 0 -48 15 -24 29 25 15
47 9 51 -12z m-410 -17 c-21 -34 -58 -37 -58 -5 0 7 12 16 28 18 15 2 30 5 35
6 4 0 2 -8 -5 -19z m121 -70 c33 0 42 -16 15 -27 -9 -3 -20 0 -25 8 -5 8 -9 9
-9 3 0 -8 -30 -10 -82 -5 -16 2 -7 18 15 28 13 6 29 7 39 2 9 -5 30 -9 47 -9z
m-144 -22 c19 -2 31 -9 33 -20 5 -28 -49 -23 -76 5 -22 23 -20 46 2 28 6 -5
24 -11 41 -13z m725 -20 c0 -16 -75 -78 -100 -84 -14 -3 -33 -10 -44 -15 -21
-12 -31 -5 -41 29 -6 20 -3 22 25 22 23 0 46 12 83 45 47 41 53 44 65 28 6 -9
12 -21 12 -25z m-963 -16 c-9 -10 -17 -25 -17 -32 0 -9 -6 -8 -20 5 -23 21
-26 35 -6 35 7 0 19 7 26 15 9 11 16 13 23 6 7 -7 5 -16 -6 -29z m349 1 c-10
-10 -19 5 -10 18 6 11 8 11 12 0 2 -7 1 -15 -2 -18z m-456 -24 c0 -5 -4 -9
-10 -9 -5 0 -10 7 -10 16 0 8 5 12 10 9 6 -3 10 -10 10 -16z m230 -21 c25 -27
25 -34 3 -47 -14 -8 -16 -14 -7 -28 15 -24 44 -27 96 -9 44 14 91 10 158 -16
21 -8 22 -11 8 -19 -10 -6 -26 -5 -43 1 -15 6 -30 8 -35 5 -5 -3 -68 -5 -142
-4 -73 1 -150 1 -170 0 -21 0 -38 2 -38 6 0 3 18 21 40 40 22 19 40 42 40 52
0 43 56 55 90 19z m-456 3 c7 -10 -50 -71 -65 -71 -18 0 -9 28 17 54 28 28 39
32 48 17z m564 -10 c3 -8 -1 -12 -9 -9 -7 2 -15 10 -17 17 -3 8 1 12 9 9 7 -2
15 -10 17 -17z m485 2 c-7 -2 -19 -2 -25 0 -7 3 -2 5 12 5 14 0 19 -2 13 -5z
m-963 -20 c0 -5 -16 -21 -36 -36 -19 -16 -39 -40 -45 -53 -10 -29 -29 -23 -29
9 0 29 58 87 87 87 13 0 23 -3 23 -7z m104 -1 c2 -4 -11 -21 -30 -36 -19 -15
-39 -39 -45 -52 -10 -29 -29 -23 -29 9 0 42 86 108 104 79z m823 -17 c15 -13
24 -27 21 -30 -3 -3 -12 1 -20 9 -8 8 -25 16 -38 18 -30 4 -39 28 -10 28 11 0
33 -11 47 -25z m-207 11 c0 -2 -11 -6 -25 -8 -14 -3 -25 -1 -25 3 0 5 11 9 25
9 14 0 25 -2 25 -4z m486 -31 c3 -13 4 -29 2 -36 -5 -14 -198 -26 -198 -12 1
21 19 30 61 30 30 0 59 7 80 21 44 27 47 27 55 -3z m-344 -22 c61 -66 59 -99
-4 -44 -18 15 -43 33 -55 40 -30 15 -30 41 0 41 14 0 38 -15 59 -37z m-694
-28 c-3 -4 -23 -5 -44 -3 l-39 3 30 16 c25 13 32 14 44 3 8 -8 12 -16 9 -19z
m707 -76 c4 -6 5 -13 1 -16 -3 -4 -825 -7 -978 -3 -5 0 -8 7 -8 15 0 13 61 15
489 15 336 0 492 -3 496 -11z"/>
<path d="M2000 3876 c0 -2 9 -6 20 -9 11 -3 18 -1 14 4 -5 9 -34 13 -34 5z"/>
<path d="M1905 3840 c-44 -14 -95 -41 -95 -50 0 -27 105 6 117 37 7 18 2 21
-22 13z"/>
<path d="M1947 3765 c-22 -19 -32 -23 -46 -15 -18 9 -31 4 -31 -12 0 -4 6 -8
14 -8 8 0 16 -5 18 -11 5 -15 36 0 43 21 3 10 15 20 25 23 11 3 20 10 20 16 0
17 -12 13 -43 -14z"/>
<path d="M1815 3710 c-3 -5 1 -10 9 -10 9 0 16 5 16 10 0 6 -4 10 -9 10 -6 0
-13 -4 -16 -10z"/>
<path d="M2037 3702 c-24 -27 -21 -36 4 -11 11 11 19 23 16 25 -2 2 -11 -4
-20 -14z"/>
<path d="M1855 3681 c-3 -5 -1 -12 5 -16 12 -7 30 2 30 16 0 12 -27 12 -35 0z"/>
<path d="M1895 3639 c-11 -17 1 -21 15 -4 8 9 8 15 2 15 -6 0 -14 -5 -17 -11z"/>
<path d="M1800 3630 c0 -5 7 -10 16 -10 8 0 12 5 9 10 -3 6 -10 10 -16 10 -5
0 -9 -4 -9 -10z"/>
<path d="M2075 3580 c-3 -5 -2 -10 4 -10 5 0 13 5 16 10 3 6 2 10 -4 10 -5 0
-13 -4 -16 -10z"/>
<path d="M1910 3409 c0 -5 5 -7 10 -4 6 3 10 8 10 11 0 2 -4 4 -10 4 -5 0 -10
-5 -10 -11z"/>
<path d="M1880 3364 c0 -8 5 -12 10 -9 6 3 10 10 10 16 0 5 -4 9 -10 9 -5 0
-10 -7 -10 -16z"/>
<path d="M2551 3901 c-10 -6 -10 -10 -1 -16 7 -4 19 0 28 9 14 13 14 16 2 16
-8 0 -21 -4 -29 -9z"/>
<path d="M2497 3862 c-16 -3 -15 -6 7 -17 18 -10 34 -11 49 -5 21 8 21 9 2 9
-12 1 -25 5 -30 9 -6 5 -18 7 -28 4z"/>
<path d="M2846 3842 c-3 -6 3 -12 15 -15 12 -3 19 -1 16 6 -5 15 -24 20 -31 9z"/>
<path d="M2860 2590 c-6 -11 -8 -20 -5 -20 14 0 45 21 45 30 0 18 -29 10 -40
-10z"/>
<path d="M4674 4079 c-3 -6 -2 -15 4 -21 13 -13 32 -2 32 18 0 16 -26 19 -36
3z"/>
<path d="M55 3990 c-7 -12 2 -30 16 -30 5 0 9 9 9 20 0 21 -15 27 -25 10z"/>
<path d="M145 3920 c-7 -12 2 -30 16 -30 5 0 9 9 9 20 0 21 -15 27 -25 10z"/>
<path d="M4674 3899 c-10 -17 13 -36 27 -22 12 12 4 33 -11 33 -5 0 -12 -5
-16 -11z"/>
<path d="M52 3713 c5 -25 28 -28 28 -4 0 12 -6 21 -16 21 -9 0 -14 -7 -12 -17z"/>
<path d="M4675 3531 c-3 -5 -1 -12 5 -16 12 -7 30 2 30 16 0 12 -27 12 -35 0z"/>
<path d="M59 3458 c-5 -13 -4 -120 1 -123 14 -8 34 14 24 27 -9 13 -10 48 -3
77 3 11 -18 30 -22 19z"/>
<path d="M140 3383 c0 -5 5 -15 10 -23 9 -13 11 -13 19 0 5 8 7 18 5 22 -6 10
-34 11 -34 1z"/>
<path d="M4674 3359 c-3 -6 -2 -15 4 -21 13 -13 32 -2 32 18 0 16 -26 19 -36
3z"/>
<path d="M4674 2999 c-10 -17 13 -36 27 -22 12 12 4 33 -11 33 -5 0 -12 -5
-16 -11z"/>
<path d="M153 2853 c-18 -7 -16 -30 2 -37 11 -4 15 1 15 19 0 14 -1 25 -2 24
-2 0 -9 -3 -15 -6z"/>
<path d="M4674 2819 c-10 -17 13 -36 27 -22 12 12 4 33 -11 33 -5 0 -12 -5
-16 -11z"/>
<path d="M55 2640 c-8 -13 4 -32 16 -25 12 8 12 35 0 35 -6 0 -13 -4 -16 -10z"/>
<path d="M54 2549 c-3 -6 -1 -16 5 -22 9 -9 14 -8 21 3 9 15 4 30 -10 30 -5 0
-12 -5 -16 -11z"/>
<path d="M4680 2444 c0 -9 5 -14 12 -12 18 6 21 28 4 28 -9 0 -16 -7 -16 -16z"/>
<path d="M55 2370 c-7 -12 2 -30 16 -30 5 0 9 9 9 20 0 21 -15 27 -25 10z"/>
<path d="M54 2293 c1 -21 5 -38 11 -38 5 0 10 17 11 38 2 25 -1 37 -10 37 -9
0 -13 -13 -12 -37z"/>
<path d="M142 2293 c5 -25 28 -28 28 -4 0 12 -6 21 -16 21 -9 0 -14 -7 -12
-17z"/>
<path d="M4674 2279 c-8 -14 11 -33 25 -25 6 4 11 14 11 22 0 16 -26 19 -36 3z"/>
<path d="M4674 1919 c-8 -14 11 -33 25 -25 16 10 13 36 -3 36 -8 0 -18 -5 -22
-11z"/>
<path d="M55 1830 c-7 -12 2 -30 16 -30 5 0 9 9 9 20 0 21 -15 27 -25 10z"/>
<path d="M145 1760 c-7 -12 2 -30 16 -30 5 0 9 9 9 20 0 21 -15 27 -25 10z"/>
<path d="M4674 1739 c-10 -17 13 -36 27 -22 12 12 4 33 -11 33 -5 0 -12 -5
-16 -11z"/>
<path d="M52 1553 c5 -25 28 -28 28 -4 0 12 -6 21 -16 21 -9 0 -14 -7 -12 -17z"/>
<path d="M2363 1400 c-1150 -3 -2094 -8 -2098 -11 -11 -12 -6 -921 6 -936 10
-11 375 -13 2114 -13 1908 0 2103 1 2109 16 3 9 6 222 6 473 l0 458 -22 9
c-14 5 -868 7 -2115 4z m2102 -480 l0 -445 -2085 0 -2085 0 -3 435 c-1 239 0
441 3 448 3 10 426 12 2087 10 l2083 -3 0 -445z"/>
<path d="M1680 1151 c0 -10 -3 -33 -6 -50 -7 -34 9 -41 47 -20 16 8 18 13 9
24 -7 8 -9 19 -5 25 8 13 -12 40 -31 40 -8 0 -14 -8 -14 -19z m35 -11 c0 -7
-6 -15 -12 -17 -8 -3 -13 4 -13 17 0 13 5 20 13 18 6 -3 12 -11 12 -18z m9
-39 c3 -5 -1 -12 -10 -15 -25 -10 -34 -7 -34 9 0 16 35 21 44 6z"/>
<path d="M1962 1123 c3 -46 5 -48 33 -49 29 -2 29 -2 3 3 -19 3 -28 10 -28 23
0 13 9 20 28 23 l27 4 -27 2 c-40 2 -36 29 5 34 31 4 31 4 -6 5 l-38 2 3 -47z"/>
<path d="M2286 1145 c8 -37 14 -45 14 -19 0 10 -5 26 -10 34 -8 11 -9 7 -4
-15z"/>
<path d="M2381 1139 c-6 -18 -9 -34 -7 -36 2 -2 9 10 15 28 6 18 9 34 7 36 -2
2 -9 -10 -15 -28z"/>
<path d="M2413 1120 c0 -30 2 -45 4 -33 2 12 10 26 17 32 11 9 15 4 20 -20 8
-42 15 -34 9 9 -4 26 -9 31 -23 27 -14 -4 -20 0 -23 17 -2 13 -4 -2 -4 -32z"/>
<path d="M2707 1159 c7 -7 15 -10 18 -7 3 3 -2 9 -12 12 -14 6 -15 5 -6 -5z"/>
<path d="M2325 1130 c-4 -16 -11 -30 -16 -30 -5 0 -9 -7 -9 -15 0 -27 17 -16
27 18 l10 32 7 -32 c4 -18 12 -33 17 -33 12 0 12 17 -1 25 -5 3 -10 19 -10 36
0 38 -17 38 -25 -1z"/>
<path d="M2529 1139 c-10 -6 -10 -9 -1 -9 7 0 13 -14 13 -32 l2 -33 4 30 c3
16 9 33 15 36 6 4 4 8 -5 12 -7 3 -20 1 -28 -4z"/>
<path d="M2750 1130 c6 -11 13 -20 16 -20 2 0 0 9 -6 20 -6 11 -13 20 -16 20
-2 0 0 -9 6 -20z"/>
<path d="M1783 1125 c-3 -9 -3 -18 -1 -21 3 -3 8 4 11 16 6 23 -1 27 -10 5z"/>
<path d="M1860 1125 c-26 -31 14 -75 43 -46 7 7 3 8 -12 4 -26 -7 -27 5 -3 24
15 13 15 13 -5 3 -27 -13 -32 4 -5 19 9 6 12 11 6 11 -6 0 -17 -7 -24 -15z"/>
<path d="M2031 1135 c0 -5 6 -21 13 -34 7 -13 11 -33 9 -45 -2 -12 5 -1 16 23
24 49 27 68 6 31 -8 -14 -14 -20 -15 -14 0 13 -29 52 -29 39z"/>
<path d="M2111 1118 c-5 -14 -5 -28 1 -35 12 -15 44 -17 52 -4 3 4 -7 6 -22 4
l-27 -4 23 20 c24 21 22 41 -4 41 -8 0 -18 -10 -23 -22z m34 2 c-3 -5 -10 -10
-16 -10 -5 0 -9 5 -9 10 0 6 7 10 16 10 8 0 12 -4 9 -10z"/>
<path d="M2193 1133 c-18 -7 -16 -33 2 -33 21 0 19 -17 -2 -24 -14 -4 -14 -4
2 -3 24 3 34 37 10 37 -9 0 -13 5 -10 11 4 6 14 8 22 5 8 -3 11 -1 8 4 -7 11
-13 11 -32 3z"/>
<path d="M2493 1105 c0 -22 2 -30 4 -17 2 12 2 30 0 40 -3 9 -5 -1 -4 -23z"/>
<path d="M2590 1125 c-25 -30 14 -75 42 -47 6 6 0 8 -19 5 l-28 -5 24 20 c13
11 21 24 17 31 -10 15 -21 14 -36 -4z m20 -10 c-7 -9 -15 -13 -17 -11 -7 7 7
26 19 26 6 0 6 -6 -2 -15z"/>
<path d="M2781 1100 l1 -35 9 33 c10 33 24 41 32 20 3 -8 6 -6 6 4 1 13 -6 17
-24 16 -22 -2 -25 -7 -24 -38z"/>
<path d="M2850 1125 c-19 -23 -8 -50 20 -51 23 -1 25 2 22 33 -4 35 -21 43
-42 18z m30 -20 c0 -16 -6 -25 -15 -25 -15 0 -21 31 -8 43 13 14 23 6 23 -18z"/>
<path d="M2938 1132 c18 -12 11 -47 -8 -47 -10 0 -14 8 -13 25 2 21 1 22 -7 8
-14 -23 -1 -51 21 -45 29 8 19 -24 -11 -36 -12 -4 -12 -6 2 -6 10 -1 22 8 28
19 15 28 9 82 -10 87 -12 4 -12 3 -2 -5z"/>
<path d="M2984 1126 c-9 -23 0 -51 16 -52 9 0 10 1 3 3 -7 3 -13 15 -13 29 0
31 27 32 33 2 5 -20 5 -20 4 2 -2 28 -34 40 -43 16z"/>
<path d="M3053 1125 c-8 -23 0 -24 20 -3 14 15 15 18 2 18 -9 0 -18 -7 -22
-15z"/>
<path d="M3092 1095 c0 -16 2 -22 5 -12 2 9 2 23 0 30 -3 6 -5 -1 -5 -18z"/>
<path d="M2691 1093 c-1 -6 4 -15 10 -18 15 -10 59 3 59 17 0 9 -3 9 -12 0
-16 -16 -45 -15 -51 1 -4 9 -6 9 -6 0z"/>
<path d="M1790 1079 c0 -5 11 -9 25 -9 14 0 25 2 25 4 0 2 -11 6 -25 8 -14 3
-25 1 -25 -3z"/>
<path d="M2131 748 c-1 -64 0 -68 22 -68 35 0 49 15 45 46 -2 23 -8 29 -28 29
-20 0 -26 6 -31 30 -4 20 -7 8 -8 -37z m57 -25 c-4 -22 -48 -31 -48 -10 0 19
10 27 32 27 13 0 18 -6 16 -17z"/>
<path d="M2090 790 c0 -5 5 -10 10 -10 6 0 10 5 10 10 0 6 -4 10 -10 10 -5 0
-10 -4 -10 -10z"/>
<path d="M2518 744 c-1 -31 0 -58 5 -61 4 -2 7 6 7 19 0 15 8 27 22 33 42 18
32 64 -14 65 -13 0 -17 -12 -20 -56z m45 21 c1 -5 -6 -11 -15 -13 -11 -2 -18
3 -18 13 0 17 30 18 33 0z"/>
<path d="M1947 769 c-16 -18 -17 -22 -3 -32 8 -7 17 -23 19 -37 4 -21 4 -20 6
7 0 17 7 34 14 36 8 4 9 8 1 14 -6 4 -13 14 -15 21 -3 9 -10 6 -22 -9z"/>
<path d="M2031 778 c0 -9 -7 -19 -13 -21 -10 -4 -10 -8 -1 -14 6 -4 13 -22 16
-38 l4 -30 2 33 c0 21 6 32 16 32 8 0 15 5 15 10 0 6 -6 10 -14 10 -8 0 -17 8
-19 18 -4 15 -5 15 -6 0z"/>
<path d="M2331 778 c-1 -10 -8 -18 -16 -18 -8 0 -15 -4 -15 -10 0 -5 7 -10 15
-10 10 0 16 -11 16 -32 l2 -33 4 30 c3 16 10 33 16 37 9 6 9 10 1 16 -6 4 -14
14 -17 22 -4 12 -6 11 -6 -2z"/>
<path d="M2680 708 c0 -39 4 -68 10 -68 6 0 10 8 10 19 0 10 9 21 20 24 41 11
36 72 -6 72 -10 0 -22 5 -26 10 -4 6 -8 -20 -8 -57z m53 18 c7 -16 -1 -26 -20
-26 -7 0 -13 9 -13 20 0 23 25 27 33 6z"/>
<path d="M1860 746 c-6 -8 -10 -25 -8 -38 2 -18 9 -23 35 -23 33 -1 35 5 17
63 -5 16 -29 15 -44 -2z m40 -26 c0 -13 -7 -20 -20 -20 -19 0 -27 20 -13 33
13 14 33 6 33 -13z"/>
<path d="M2093 720 c0 -25 2 -35 4 -22 2 12 2 32 0 45 -2 12 -4 2 -4 -23z"/>
<path d="M2228 754 c-12 -11 -9 -49 4 -62 7 -7 22 -12 35 -12 20 0 23 5 23 41
0 24 -4 38 -10 34 -5 -3 -10 -17 -10 -31 0 -36 -28 -30 -32 7 -2 17 -6 27 -10
23z"/>
<path d="M2392 748 c-21 -21 -14 -57 12 -64 25 -6 46 1 46 14 0 5 -12 8 -27 7
-33 0 -39 28 -8 33 20 3 20 3 1 -13 -11 -8 -15 -15 -9 -15 7 0 19 7 28 16 13
14 14 19 3 25 -18 12 -32 11 -46 -3z"/>
<path d="M2611 746 c-7 -8 -11 -25 -9 -38 2 -18 9 -23 34 -23 29 -1 30 1 24
35 -6 38 -29 50 -49 26z m39 -26 c0 -13 -7 -20 -20 -20 -19 0 -27 20 -13 33
13 14 33 6 33 -13z"/>
<path d="M2782 748 c-32 -32 0 -78 42 -62 25 10 19 20 -11 19 -33 0 -39 28 -8
33 20 3 20 3 1 -13 -11 -8 -15 -15 -9 -15 16 0 36 28 28 40 -8 13 -28 13 -43
-2z"/>
<path d="M2860 721 c0 -23 2 -41 4 -41 8 0 12 71 4 76 -4 3 -8 -13 -8 -35z"/>
<path d="M2902 746 c7 -8 15 -12 17 -11 5 6 -10 25 -20 25 -5 0 -4 -6 3 -14z"/>
<path d="M4675 1371 c-3 -5 -1 -12 5 -16 12 -7 30 2 30 16 0 12 -27 12 -35 0z"/>
<path d="M54 1240 c2 -60 5 -65 29 -57 8 3 9 8 2 18 -10 13 -12 48 -4 78 2 8
-3 16 -12 18 -14 3 -16 -5 -15 -57z"/>
<path d="M140 1216 c0 -21 21 -31 30 -15 5 7 6 17 4 21 -9 14 -34 9 -34 -6z"/>
<path d="M4674 1199 c-8 -14 11 -33 25 -25 16 10 13 36 -3 36 -8 0 -18 -5 -22
-11z"/>
<path d="M4674 839 c-8 -14 18 -31 30 -19 9 9 0 30 -14 30 -5 0 -12 -5 -16
-11z"/>
<path d="M147 693 c-12 -11 -8 -31 8 -37 11 -4 15 1 15 19 0 24 -10 32 -23 18z"/>
<path d="M4674 659 c-8 -14 11 -33 25 -25 16 10 13 36 -3 36 -8 0 -18 -5 -22
-11z"/>
<path d="M55 480 c-8 -13 4 -32 16 -25 12 8 12 35 0 35 -6 0 -13 -4 -16 -10z"/>
<path d="M54 389 c-3 -6 -1 -16 5 -22 9 -9 14 -8 21 3 9 15 4 30 -10 30 -5 0
-12 -5 -16 -11z"/>
<path d="M4680 284 c0 -17 22 -14 28 4 2 7 -3 12 -12 12 -9 0 -16 -7 -16 -16z"/>
<path d="M59 218 c-1 -2 -3 -20 -4 -40 -3 -27 0 -38 10 -38 17 0 29 17 17 24
-5 3 -7 17 -4 31 2 15 0 25 -7 25 -6 0 -11 -1 -12 -2z"/>
<path d="M154 152 c-14 -10 -12 -64 4 -70 8 -2 12 9 12 37 0 44 0 44 -16 33z"/>
<path d="M55 120 c-3 -5 1 -10 9 -10 9 0 16 5 16 10 0 6 -4 10 -9 10 -6 0 -13
-4 -16 -10z"/>
<path d="M4675 120 c-3 -5 3 -10 14 -10 12 0 21 5 21 10 0 6 -6 10 -14 10 -8
0 -18 -4 -21 -10z"/>
<path d="M1035 70 c-12 -13 -31 -20 -57 -20 -21 0 -38 -5 -38 -10 0 -6 -8 -5
-20 2 -17 11 -22 10 -30 -2 -8 -12 -13 -13 -30 -2 -12 7 -56 12 -113 12 -87 0
-95 -2 -117 -25 l-23 -25 355 0 c323 0 356 2 362 17 12 29 -10 35 -128 31
-109 -3 -137 2 -100 16 8 3 12 10 9 16 -10 17 -51 11 -70 -10z"/>
<path d="M2115 70 c-12 -13 -31 -20 -56 -20 -21 0 -41 -5 -44 -10 -5 -8 -12
-7 -22 1 -12 10 -16 10 -23 -2 -8 -11 -13 -12 -30 -1 -12 7 -56 12 -117 12
-92 -1 -99 -2 -116 -25 l-18 -25 350 0 c332 0 351 1 360 19 6 10 7 21 4 25
-12 12 -218 7 -231 -6 -9 -9 -12 -8 -12 4 0 9 7 19 16 22 8 3 12 10 9 16 -10
17 -51 11 -70 -10z"/>
<path d="M3195 70 c-12 -13 -31 -20 -57 -20 -21 0 -38 -5 -38 -10 0 -6 -8 -5
-20 2 -17 11 -22 10 -30 -2 -8 -12 -13 -13 -30 -2 -12 7 -56 12 -113 12 -87 0
-95 -2 -117 -25 l-23 -25 355 0 c323 0 356 2 362 17 12 29 -10 35 -128 31
-109 -3 -137 2 -100 16 8 3 12 10 9 16 -10 17 -51 11 -70 -10z"/>
<path d="M4275 70 c-12 -13 -31 -20 -56 -20 -21 0 -41 -5 -44 -10 -5 -8 -12
-7 -22 1 -12 10 -16 10 -23 -2 -8 -11 -13 -12 -30 -1 -12 7 -56 12 -117 12
-92 -1 -99 -2 -116 -25 l-18 -25 349 0 c294 0 351 2 362 15 6 8 9 19 5 25 -9
15 -218 13 -233 -2 -9 -9 -12 -8 -12 4 0 9 7 19 16 22 8 3 12 10 9 16 -10 17
-51 11 -70 -10z"/>
<path d="M441 48 c-5 -14 -10 -17 -15 -10 -4 8 -37 12 -87 12 -78 0 -79 0 -79
-25 l0 -25 170 0 169 0 -8 23 c-6 17 -17 23 -50 25 -24 2 -49 -2 -57 -9 -11
-9 -14 -7 -14 10 0 27 -18 27 -29 -1z"/>
<path d="M1520 49 c0 -17 -3 -19 -14 -10 -9 7 -42 11 -86 9 -65 -3 -74 -5 -81
-25 l-8 -23 170 0 170 0 -3 22 c-3 21 -8 23 -60 23 -41 0 -58 3 -58 12 0 7 -7
13 -15 13 -9 0 -15 -9 -15 -21z"/>
<path d="M2601 48 c-5 -14 -10 -17 -15 -10 -4 8 -36 12 -85 12 -76 0 -79 -1
-83 -25 l-5 -25 173 0 173 0 -8 23 c-6 17 -17 23 -50 25 -24 2 -49 -2 -57 -9
-11 -9 -14 -7 -14 10 0 27 -18 27 -29 -1z"/>
<path d="M3680 49 c0 -17 -3 -19 -14 -10 -9 7 -42 11 -86 9 -65 -3 -74 -5 -81
-25 l-8 -23 170 0 170 0 -3 22 c-3 21 -8 23 -60 23 -41 0 -58 3 -58 12 0 7 -7
13 -15 13 -9 0 -15 -9 -15 -21z"/>
<path d="M47 32 c-10 -10 -17 -22 -17 -25 0 -4 45 -7 100 -7 87 0 101 2 109
19 6 10 7 21 4 25 -3 3 -45 6 -93 6 -71 0 -90 -3 -103 -18z"/>
</g>
</svg>
